G04 Layer_Color=255*
%FSLAX44Y44*%
%MOMM*%
G71*
G01*
G75*
%ADD21O,2.5000X1.5000*%
%ADD22R,2.5000X1.5000*%
%ADD23C,1.8000*%
%ADD24O,2.0000X3.0000*%
%ADD25R,2.0000X3.0000*%
%ADD26R,1.8000X1.8000*%
%ADD27P,6.4944X8X202.5*%
%ADD28R,2.0000X2.0000*%
%ADD29C,2.0000*%
%ADD30C,1.5000*%
D21*
X-698900Y308100D02*
D03*
Y282700D02*
D03*
Y257300D02*
D03*
Y231900D02*
D03*
X-622700Y308100D02*
D03*
Y282700D02*
D03*
Y257300D02*
D03*
D22*
Y231900D02*
D03*
D23*
X-881800Y238000D02*
D03*
Y113000D02*
D03*
X-1021800Y449840D02*
D03*
Y475240D02*
D03*
Y424440D02*
D03*
Y399040D02*
D03*
Y373640D02*
D03*
Y348240D02*
D03*
Y322840D02*
D03*
Y297440D02*
D03*
Y272040D02*
D03*
X-539200Y206000D02*
D03*
Y231400D02*
D03*
Y256800D02*
D03*
Y282200D02*
D03*
Y307600D02*
D03*
Y333000D02*
D03*
Y358400D02*
D03*
X-1021800Y206000D02*
D03*
Y180600D02*
D03*
Y155200D02*
D03*
Y129800D02*
D03*
Y104400D02*
D03*
Y79000D02*
D03*
Y53600D02*
D03*
X-539200Y129800D02*
D03*
Y104400D02*
D03*
Y79000D02*
D03*
Y53600D02*
D03*
Y28200D02*
D03*
D24*
X-642800Y52000D02*
D03*
X-617800D02*
D03*
D25*
X-592800D02*
D03*
D26*
X-1021800Y246640D02*
D03*
X-539200Y383800D02*
D03*
X-1021800Y28200D02*
D03*
X-539200Y155200D02*
D03*
D27*
X-814800Y285000D02*
D03*
D28*
X-789400Y118000D02*
D03*
X-977850Y60000D02*
D03*
X-857850D02*
D03*
D29*
X-814800Y118000D02*
D03*
X-840200D02*
D03*
X-939750Y60000D02*
D03*
X-819750D02*
D03*
D30*
X-703800Y32000D02*
D03*
X-729200Y82800D02*
D03*
X-703800Y159000D02*
D03*
M02*
