G04 Layer_Physical_Order=1*
G04 Layer_Color=255*
%FSLAX44Y44*%
%MOMM*%
G71*
G01*
G75*
%ADD10R,1.0500X1.6000*%
%ADD11R,1.1430X1.5240*%
%ADD12O,0.6500X1.7500*%
%ADD13O,0.6500X1.7500*%
%ADD14R,1.6000X1.0500*%
%ADD15R,1.5240X1.1430*%
%ADD16R,1.7000X1.3000*%
G04:AMPARAMS|DCode=17|XSize=9mm|YSize=12mm|CornerRadius=2.25mm|HoleSize=0mm|Usage=FLASHONLY|Rotation=180.000|XOffset=0mm|YOffset=0mm|HoleType=Round|Shape=RoundedRectangle|*
%AMROUNDEDRECTD17*
21,1,9.0000,7.5000,0,0,180.0*
21,1,4.5000,12.0000,0,0,180.0*
1,1,4.5000,-2.2500,3.7500*
1,1,4.5000,2.2500,3.7500*
1,1,4.5000,2.2500,-3.7500*
1,1,4.5000,-2.2500,-3.7500*
%
%ADD17ROUNDEDRECTD17*%
%ADD18C,0.8000*%
%ADD19C,0.6000*%
%ADD20C,3.0000*%
%ADD21O,2.5000X1.5000*%
%ADD22R,2.5000X1.5000*%
%ADD23C,1.8000*%
%ADD24O,2.0000X3.0000*%
%ADD25R,2.0000X3.0000*%
%ADD26R,1.8000X1.8000*%
%ADD27P,6.4944X8X202.5*%
%ADD28R,2.0000X2.0000*%
%ADD29C,2.0000*%
%ADD30C,1.5000*%
%ADD31C,1.2700*%
%ADD32C,0.8000*%
G36*
X-1000800Y406000D02*
X-1004800Y402000D01*
Y389000D01*
Y255000D01*
X-995800Y246000D01*
X-983800Y234000D01*
X-931800Y234000D01*
X-910800Y213000D01*
X-882800Y185000D01*
X-804800D01*
X-780800Y185000D01*
X-769800Y196000D01*
X-769800Y279000D01*
X-769800Y283000D01*
X-777800Y283000D01*
X-798800Y283000D01*
X-776120D01*
X-773800Y283000D01*
X-769800D01*
Y407000D01*
X-783800Y421000D01*
X-786800Y424000D01*
X-982800D01*
X-1000800Y406000D01*
D02*
G37*
D10*
X-565050Y131000D02*
D03*
X-584550D02*
D03*
X-694050Y341000D02*
D03*
X-713550D02*
D03*
X-747550Y282000D02*
D03*
X-728050D02*
D03*
X-589550Y257000D02*
D03*
X-570050D02*
D03*
X-620050Y15000D02*
D03*
X-639550D02*
D03*
D11*
X-972960Y220000D02*
D03*
X-952640D02*
D03*
X-972960Y194000D02*
D03*
X-952640D02*
D03*
D12*
X-917450Y113000D02*
D03*
X-904750D02*
D03*
D13*
X-930150D02*
D03*
X-942850D02*
D03*
Y169000D02*
D03*
X-930150D02*
D03*
X-917450D02*
D03*
X-904750D02*
D03*
D14*
X-648800Y350250D02*
D03*
Y369750D02*
D03*
X-664800Y113250D02*
D03*
Y132750D02*
D03*
X-605800Y131750D02*
D03*
Y112250D02*
D03*
D15*
X-586800Y286840D02*
D03*
Y307160D02*
D03*
D16*
X-635800Y132500D02*
D03*
Y97500D02*
D03*
D17*
X-814800Y249750D02*
D03*
D18*
X-710220Y143500D02*
X-731370Y164650D01*
X-901400D01*
X-514800Y188000D02*
X-530600Y172200D01*
X-551514D01*
X-551714Y172000D01*
X-669800D01*
Y171080D02*
Y172000D01*
Y171080D02*
X-697380Y143500D01*
X-710220D01*
X-901400Y164650D02*
Y165650D01*
X-917450Y157650D02*
Y160290D01*
X-908800Y149000D02*
X-917450Y157650D01*
X-736072Y149000D02*
X-908800D01*
X-716072Y129000D02*
X-736072Y149000D01*
X-693114Y129000D02*
X-716072D01*
X-666914Y155200D02*
X-693114Y129000D01*
X-857327Y137000D02*
X-881327Y113000D01*
X-748800Y137000D02*
X-857327D01*
X-725050Y113250D02*
X-748800Y137000D01*
X-539200Y155200D02*
X-666914D01*
X-881327Y113000D02*
X-881800D01*
X-664800Y113250D02*
X-725050D01*
X-747550Y282000D02*
X-811800D01*
X-814800Y285000D01*
X-728050Y265750D02*
X-759800Y234000D01*
Y181000D02*
Y234000D01*
Y181000D02*
X-761800Y179000D01*
X-744800Y100000D02*
X-784800Y60000D01*
X-668800Y315750D02*
X-694050Y341000D01*
X-668800Y301880D02*
Y315750D01*
X-623920Y257000D02*
X-668800Y301880D01*
X-727350Y282700D02*
X-728050Y282000D01*
X-698900Y282700D02*
X-727350D01*
X-728050Y265750D02*
Y282000D01*
X-713550Y341000D02*
X-728050Y326500D01*
Y282000D02*
Y326500D01*
X-648800Y369750D02*
X-717050Y438000D01*
X-984560D02*
X-1021800Y475240D01*
X-717050Y438000D02*
X-984560D01*
X-665800Y32000D02*
X-665800Y32000D01*
X-703800D01*
X-759800Y118000D02*
X-789400D01*
X-584550Y131000D02*
X-666050D01*
X-667800Y132750D01*
X-539200Y129800D02*
X-563850D01*
X-700500Y257300D02*
X-744800Y213000D01*
X-698900Y257300D02*
X-700500D01*
X-665600Y189000D02*
X-665800D01*
X-622700Y231900D02*
X-665600Y189000D01*
X-671800Y224000D02*
Y282520D01*
X-697380Y308100D02*
X-698900D01*
X-703800Y159000D02*
Y192000D01*
X-671800Y224000D02*
X-703800Y192000D01*
X-671800Y282520D02*
X-697380Y308100D01*
X-589550Y257000D02*
X-623920D01*
X-648800Y307280D02*
Y350250D01*
X-624220Y282700D02*
X-648800Y307280D01*
X-622700Y282700D02*
X-624220D01*
X-590940D02*
X-622700D01*
X-586800Y286840D02*
X-590940Y282700D01*
X-621760Y307160D02*
X-622700Y308100D01*
X-586800Y307160D02*
X-621760D01*
X-577960D02*
X-586800D01*
X-570050Y299250D02*
X-577960Y307160D01*
X-570050Y257000D02*
Y299250D01*
X-539200Y256800D02*
X-569850D01*
X-539200Y231400D02*
Y256800D01*
Y231400D02*
X-568400D01*
X-605800Y194000D01*
Y96000D02*
Y112250D01*
Y96000D02*
X-607300Y97500D01*
X-635800D01*
X-642800Y90500D01*
Y52000D02*
Y90500D01*
X-972960Y138890D02*
Y194000D01*
Y64890D02*
Y138890D01*
X-942850Y169000D02*
X-972960Y138890D01*
Y194000D02*
Y220000D01*
Y64890D02*
X-977850Y60000D01*
X-784800D02*
X-819750D01*
X-834850Y37000D02*
X-857850Y60000D01*
X-729200Y82800D02*
X-775000Y37000D01*
X-673600Y82800D02*
X-729200D01*
X-775000Y37000D02*
X-834850D01*
X-642800Y52000D02*
X-673600Y82800D01*
X-529000Y282200D02*
X-539200D01*
X-514800Y268000D02*
X-529000Y282200D01*
X-514800Y22270D02*
X-527800Y9270D01*
X-557070D01*
X-592800Y45000D01*
Y52000D01*
X-617800D02*
Y71000D01*
X-607800Y81000D02*
X-617800Y71000D01*
Y17250D02*
Y52000D01*
Y17250D02*
X-620050Y15000D01*
X-639550D02*
Y48750D01*
X-514800Y22270D02*
Y188000D01*
Y268000D01*
X-539200Y104400D02*
X-568400D01*
X-591800Y81000D01*
X-607800D01*
D19*
X-901400Y165650D02*
X-904750Y169000D01*
X-586300Y132750D02*
X-635800D01*
X-569850Y256800D02*
X-570050Y257000D01*
X-698794Y282700D02*
X-698900D01*
X-1017160Y369000D02*
X-1021800Y373640D01*
X-584550Y131000D02*
X-586300Y132750D01*
X-563850Y129800D02*
X-565050Y131000D01*
X-930150Y169000D02*
Y183350D01*
X-940800Y194000D01*
X-952640D01*
X-904750Y169000D02*
Y176950D01*
X-947800Y220000D01*
X-952640D01*
D20*
X-832300Y267500D02*
X-861800Y238000D01*
X-814800Y285000D02*
X-832300Y267500D01*
X-857850Y60000D02*
X-895850Y22000D01*
X-953800D01*
X-977850Y46050D01*
Y60000D01*
X-819750Y81938D02*
X-843800Y105988D01*
Y113000D01*
X-819750Y60000D02*
Y81938D01*
X-939750Y60000D02*
Y112000D01*
X-861800Y238000D02*
X-881800D01*
Y113000D02*
X-904750D01*
X-905762D01*
D21*
X-698900Y308100D02*
D03*
Y282700D02*
D03*
Y257300D02*
D03*
Y231900D02*
D03*
X-622700Y308100D02*
D03*
Y282700D02*
D03*
Y257300D02*
D03*
D22*
Y231900D02*
D03*
D23*
X-881800Y238000D02*
D03*
Y113000D02*
D03*
X-1021800Y449840D02*
D03*
Y475240D02*
D03*
Y424440D02*
D03*
Y399040D02*
D03*
Y373640D02*
D03*
Y348240D02*
D03*
Y322840D02*
D03*
Y297440D02*
D03*
Y272040D02*
D03*
X-539200Y206000D02*
D03*
Y231400D02*
D03*
Y256800D02*
D03*
Y282200D02*
D03*
Y307600D02*
D03*
Y333000D02*
D03*
Y358400D02*
D03*
X-1021800Y206000D02*
D03*
Y180600D02*
D03*
Y155200D02*
D03*
Y129800D02*
D03*
Y104400D02*
D03*
Y79000D02*
D03*
Y53600D02*
D03*
X-539200Y129800D02*
D03*
Y104400D02*
D03*
Y79000D02*
D03*
Y53600D02*
D03*
Y28200D02*
D03*
D24*
X-642800Y52000D02*
D03*
X-617800D02*
D03*
D25*
X-592800D02*
D03*
D26*
X-1021800Y246640D02*
D03*
X-539200Y383800D02*
D03*
X-1021800Y28200D02*
D03*
X-539200Y155200D02*
D03*
D27*
X-814800Y285000D02*
D03*
D28*
X-789400Y118000D02*
D03*
X-977850Y60000D02*
D03*
X-857850D02*
D03*
D29*
X-814800Y118000D02*
D03*
X-840200D02*
D03*
X-939750Y60000D02*
D03*
X-819750D02*
D03*
D30*
X-703800Y32000D02*
D03*
X-729200Y82800D02*
D03*
X-703800Y159000D02*
D03*
D31*
X-744800Y213000D02*
D03*
X-665800Y32000D02*
D03*
Y189000D02*
D03*
X-605800Y96000D02*
D03*
Y194000D02*
D03*
X-759800Y118000D02*
D03*
Y179000D02*
D03*
X-744800Y100000D02*
D03*
D32*
X-814800Y309750D02*
D03*
X-790050Y285000D02*
D03*
X-814800Y260250D02*
D03*
X-839550Y285000D02*
D03*
X-832300Y267500D02*
D03*
X-797300D02*
D03*
Y302500D02*
D03*
X-832300D02*
D03*
M02*
