G04 Layer_Color=128*
%FSLAX44Y44*%
%MOMM*%
G71*
G01*
G75*
%ADD63C,0.0508*%
D63*
X-694963Y308100D02*
X-702837D01*
X-698900Y304163D02*
Y312037D01*
X-694963Y282700D02*
X-702837D01*
X-698900Y278763D02*
Y286637D01*
X-694963Y257300D02*
X-702837D01*
X-698900Y253363D02*
Y261237D01*
X-694963Y231900D02*
X-702837D01*
X-698900Y227963D02*
Y235837D01*
X-618763Y308100D02*
X-626637D01*
X-622700Y304163D02*
Y312037D01*
X-618763Y282700D02*
X-626637D01*
X-622700Y278763D02*
Y286637D01*
X-618763Y257300D02*
X-626637D01*
X-622700Y253363D02*
Y261237D01*
X-618763Y231900D02*
X-626637D01*
X-622700Y227963D02*
Y235837D01*
X-877800Y238000D02*
X-885800D01*
X-881800Y234000D02*
Y242000D01*
X-877800Y113000D02*
X-885800D01*
X-881800Y109000D02*
Y117000D01*
X-636800Y52000D02*
X-648800D01*
X-642800Y46000D02*
Y58000D01*
X-611800Y52000D02*
X-623800D01*
X-617800Y46000D02*
Y58000D01*
X-586800Y52000D02*
X-598800D01*
X-592800Y46000D02*
Y58000D01*
X-1016800Y449840D02*
X-1026800D01*
X-1021800Y444840D02*
Y454840D01*
X-1016800Y475240D02*
X-1026800D01*
X-1021800Y470240D02*
Y480240D01*
X-1016800Y424440D02*
X-1026800D01*
X-1021800Y419440D02*
Y429440D01*
X-1016800Y399040D02*
X-1026800D01*
X-1021800Y394040D02*
Y404040D01*
X-1016800Y373640D02*
X-1026800D01*
X-1021800Y368640D02*
Y378640D01*
X-1016800Y348240D02*
X-1026800D01*
X-1021800Y343240D02*
Y353240D01*
X-1016800Y322840D02*
X-1026800D01*
X-1021800Y317840D02*
Y327840D01*
X-1016800Y297440D02*
X-1026800D01*
X-1021800Y292440D02*
Y302440D01*
X-1016800Y272040D02*
X-1026800D01*
X-1021800Y267040D02*
Y277040D01*
X-1016800Y246640D02*
X-1026800D01*
X-1021800Y241640D02*
Y251640D01*
X-534200Y206000D02*
X-544200D01*
X-539200Y201000D02*
Y211000D01*
X-534200Y231400D02*
X-544200D01*
X-539200Y226400D02*
Y236400D01*
X-534200Y256800D02*
X-544200D01*
X-539200Y251800D02*
Y261800D01*
X-534200Y282200D02*
X-544200D01*
X-539200Y277200D02*
Y287200D01*
X-534200Y307600D02*
X-544200D01*
X-539200Y302600D02*
Y312600D01*
X-534200Y333000D02*
X-544200D01*
X-539200Y328000D02*
Y338000D01*
X-534200Y358400D02*
X-544200D01*
X-539200Y353400D02*
Y363400D01*
X-534200Y383800D02*
X-544200D01*
X-539200Y378800D02*
Y388800D01*
X-1016800Y206000D02*
X-1026800D01*
X-1021800Y201000D02*
Y211000D01*
X-1016800Y180600D02*
X-1026800D01*
X-1021800Y175600D02*
Y185600D01*
X-1016800Y155200D02*
X-1026800D01*
X-1021800Y150200D02*
Y160200D01*
X-1016800Y129800D02*
X-1026800D01*
X-1021800Y124800D02*
Y134800D01*
X-1016800Y104400D02*
X-1026800D01*
X-1021800Y99400D02*
Y109400D01*
X-1016800Y79000D02*
X-1026800D01*
X-1021800Y74000D02*
Y84000D01*
X-1016800Y53600D02*
X-1026800D01*
X-1021800Y48600D02*
Y58600D01*
X-1016800Y28200D02*
X-1026800D01*
X-1021800Y23200D02*
Y33200D01*
X-534200Y155200D02*
X-544200D01*
X-539200Y150200D02*
Y160200D01*
X-534200Y129800D02*
X-544200D01*
X-539200Y124800D02*
Y134800D01*
X-534200Y104400D02*
X-544200D01*
X-539200Y99400D02*
Y109400D01*
X-534200Y79000D02*
X-544200D01*
X-539200Y74000D02*
Y84000D01*
X-534200Y53600D02*
X-544200D01*
X-539200Y48600D02*
Y58600D01*
X-534200Y28200D02*
X-544200D01*
X-539200Y23200D02*
Y33200D01*
X-797300Y285000D02*
X-832300D01*
X-814800Y267500D02*
Y302500D01*
X-784400Y118000D02*
X-794400D01*
X-789400Y113000D02*
Y123000D01*
X-809800Y118000D02*
X-819800D01*
X-814800Y113000D02*
Y123000D01*
X-835200Y118000D02*
X-845200D01*
X-840200Y113000D02*
Y123000D01*
X-971850Y60000D02*
X-983850D01*
X-977850Y54000D02*
Y66000D01*
X-933750Y60000D02*
X-945750D01*
X-939750Y54000D02*
Y66000D01*
X-851850Y60000D02*
X-863850D01*
X-857850Y54000D02*
Y66000D01*
X-813750Y60000D02*
X-825750D01*
X-819750Y54000D02*
Y66000D01*
X-700300Y32000D02*
X-707300D01*
X-703800Y28500D02*
Y35500D01*
X-725700Y82800D02*
X-732700D01*
X-729200Y79300D02*
Y86300D01*
X-700300Y159000D02*
X-707300D01*
X-703800Y155500D02*
Y162500D01*
X-741244Y213000D02*
X-748356D01*
X-744800Y209444D02*
Y216556D01*
X-812300Y309750D02*
X-817300D01*
X-814800Y307250D02*
Y312250D01*
X-787550Y285000D02*
X-792550D01*
X-790050Y282500D02*
Y287500D01*
X-812300Y260250D02*
X-817300D01*
X-814800Y257750D02*
Y262750D01*
X-837050Y285000D02*
X-842050D01*
X-839550Y282500D02*
Y287500D01*
X-829800Y267500D02*
X-834800D01*
X-832300Y265000D02*
Y270000D01*
X-794800Y267500D02*
X-799800D01*
X-797300Y265000D02*
Y270000D01*
X-794800Y302500D02*
X-799800D01*
X-797300Y300000D02*
Y305000D01*
X-829800Y302500D02*
X-834800D01*
X-832300Y300000D02*
Y305000D01*
X-662244Y32000D02*
X-669356D01*
X-665800Y28444D02*
Y35556D01*
X-662244Y189000D02*
X-669356D01*
X-665800Y185444D02*
Y192556D01*
X-602244Y96000D02*
X-609356D01*
X-605800Y92444D02*
Y99556D01*
X-602244Y194000D02*
X-609356D01*
X-605800Y190444D02*
Y197556D01*
X-756244Y118000D02*
X-763356D01*
X-759800Y114444D02*
Y121556D01*
X-756244Y179000D02*
X-763356D01*
X-759800Y175444D02*
Y182556D01*
X-741244Y100000D02*
X-748356D01*
X-744800Y96444D02*
Y103556D01*
M02*
