G04 Layer_Color=65535*
%FSLAX44Y44*%
%MOMM*%
G71*
G01*
G75*
%ADD33C,0.2500*%
%ADD34C,0.1000*%
%ADD35C,0.2000*%
%ADD36C,0.1500*%
%ADD37C,0.2540*%
D33*
X-897550Y113500D02*
G03*
X-897550Y113500I1250J0D01*
G01*
D34*
X-899300Y146000D02*
G03*
X-899300Y136000I0J-5000D01*
G01*
X-564800Y119750D02*
X-584800D01*
X-564800Y142250D02*
X-584800D01*
X-693800Y329750D02*
X-713800D01*
X-693800Y352250D02*
X-713800D01*
X-727800Y293250D02*
X-747800D01*
X-727800Y270750D02*
X-747800D01*
X-943800Y230750D02*
X-981850D01*
Y209250D02*
Y230750D01*
X-943800Y209250D02*
X-981850D01*
X-943800D02*
Y230750D01*
X-899300Y128000D02*
X-948300D01*
Y154000D01*
X-899300D02*
X-948300D01*
X-899300Y128000D02*
Y154000D01*
X-660050Y350000D02*
Y370000D01*
X-637550Y350000D02*
Y370000D01*
X-676050Y113000D02*
Y133000D01*
X-653550Y113000D02*
Y133000D01*
X-569800Y268250D02*
X-589800D01*
X-569800Y245750D02*
X-589800D01*
X-597550Y277950D02*
Y316000D01*
X-576050Y277950D02*
X-597550D01*
X-576050D02*
Y316000D01*
X-597550D01*
X-619800Y3750D02*
X-639800D01*
X-619800Y26250D02*
X-639800D01*
X-594550Y112000D02*
Y132000D01*
X-617050Y112000D02*
Y132000D01*
X-943800Y204750D02*
X-981850D01*
Y183250D02*
Y204750D01*
X-943800Y183250D02*
X-981850D01*
X-943800D02*
Y204750D01*
X-787550Y139725D02*
X-788312Y140106D01*
X-789454Y141248D01*
Y133250D01*
D35*
X-648300Y129150D02*
Y140417D01*
X-623300Y129150D02*
Y140306D01*
Y86750D02*
Y104000D01*
X-648300Y86750D02*
Y105150D01*
X-626613Y143250D02*
X-645113D01*
X-623300Y140306D02*
X-626613Y143250D01*
X-645113D02*
X-648300Y140417D01*
X-623300Y86750D02*
X-648300D01*
X-763550Y303250D02*
X-774800Y314500D01*
X-774800Y314500D02*
X-793800D01*
X-835800Y314500D02*
X-854800D01*
X-866050Y303250D01*
X-763550Y159751D02*
X-866050D01*
X-763550D02*
Y303250D01*
X-866050Y159751D02*
Y303250D01*
D36*
X-573465Y156997D02*
X-570132D01*
X-571798D01*
Y148666D01*
X-570132Y147000D01*
X-568466D01*
X-566800Y148666D01*
X-576797Y147000D02*
X-580129D01*
X-578463D01*
Y156997D01*
X-576797Y155331D01*
X-780800Y333997D02*
Y325666D01*
X-782466Y324000D01*
X-785798D01*
X-787465Y325666D01*
Y333997D01*
X-797461Y324000D02*
X-790797D01*
X-797461Y330664D01*
Y332331D01*
X-795795Y333997D01*
X-792463D01*
X-790797Y332331D01*
X-624800Y159997D02*
X-631465D01*
Y158331D01*
X-624800Y151666D01*
Y150000D01*
X-631465D01*
X-634797Y159997D02*
Y150000D01*
X-639795D01*
X-641461Y151666D01*
Y158331D01*
X-639795Y159997D01*
X-634797D01*
X-644793Y150000D02*
X-648126D01*
X-646460D01*
Y159997D01*
X-644793Y158331D01*
X-881803Y137000D02*
X-890134D01*
X-891800Y138666D01*
Y141998D01*
X-890134Y143665D01*
X-881803D01*
X-883469Y146997D02*
X-881803Y148663D01*
Y151995D01*
X-883469Y153661D01*
X-885135D01*
X-886802Y151995D01*
Y150329D01*
Y151995D01*
X-888468Y153661D01*
X-890134D01*
X-891800Y151995D01*
Y148663D01*
X-890134Y146997D01*
X-589800Y14000D02*
Y23997D01*
X-594798D01*
X-596465Y22331D01*
Y18998D01*
X-594798Y17332D01*
X-589800D01*
X-593132D02*
X-596465Y14000D01*
X-599797Y22331D02*
X-601463Y23997D01*
X-604795D01*
X-606461Y22331D01*
Y20665D01*
X-604795Y18998D01*
X-606461Y17332D01*
Y15666D01*
X-604795Y14000D01*
X-601463D01*
X-599797Y15666D01*
Y17332D01*
X-601463Y18998D01*
X-599797Y20665D01*
Y22331D01*
X-601463Y18998D02*
X-604795D01*
X-600800Y146000D02*
Y155997D01*
X-605798D01*
X-607464Y154331D01*
Y150998D01*
X-605798Y149332D01*
X-600800D01*
X-604132D02*
X-607464Y146000D01*
X-610797Y155997D02*
X-617461D01*
Y154331D01*
X-610797Y147666D01*
Y146000D01*
X-659800Y144000D02*
Y153997D01*
X-664798D01*
X-666464Y152331D01*
Y148998D01*
X-664798Y147332D01*
X-659800D01*
X-663132D02*
X-666464Y144000D01*
X-676461Y153997D02*
X-673129Y152331D01*
X-669797Y148998D01*
Y145666D01*
X-671463Y144000D01*
X-674795D01*
X-676461Y145666D01*
Y147332D01*
X-674795Y148998D01*
X-669797D01*
X-726800Y339000D02*
Y348997D01*
X-731798D01*
X-733465Y347331D01*
Y343998D01*
X-731798Y342332D01*
X-726800D01*
X-730132D02*
X-733465Y339000D01*
X-741795D02*
Y348997D01*
X-736797Y343998D01*
X-743461D01*
X-733800Y302000D02*
Y311997D01*
X-738798D01*
X-740464Y310331D01*
Y306998D01*
X-738798Y305332D01*
X-733800D01*
X-737132D02*
X-740464Y302000D01*
X-743797Y310331D02*
X-745463Y311997D01*
X-748795D01*
X-750461Y310331D01*
Y308664D01*
X-748795Y306998D01*
X-747129D01*
X-748795D01*
X-750461Y305332D01*
Y303666D01*
X-748795Y302000D01*
X-745463D01*
X-743797Y303666D01*
X-570800Y230000D02*
Y239997D01*
X-575798D01*
X-577464Y238331D01*
Y234998D01*
X-575798Y233332D01*
X-570800D01*
X-574132D02*
X-577464Y230000D01*
X-587461D02*
X-580797D01*
X-587461Y236665D01*
Y238331D01*
X-585795Y239997D01*
X-582463D01*
X-580797Y238331D01*
X-642800Y383000D02*
Y392997D01*
X-647798D01*
X-649464Y391331D01*
Y387998D01*
X-647798Y386332D01*
X-642800D01*
X-646132D02*
X-649464Y383000D01*
X-652797D02*
X-656129D01*
X-654463D01*
Y392997D01*
X-652797Y391331D01*
X-993465Y199331D02*
X-991798Y200997D01*
X-988466D01*
X-986800Y199331D01*
Y192666D01*
X-988466Y191000D01*
X-991798D01*
X-993465Y192666D01*
X-996797Y199331D02*
X-998463Y200997D01*
X-1001795D01*
X-1003461Y199331D01*
Y197665D01*
X-1001795Y195998D01*
X-1000129D01*
X-1001795D01*
X-1003461Y194332D01*
Y192666D01*
X-1001795Y191000D01*
X-998463D01*
X-996797Y192666D01*
X-993465Y223331D02*
X-991798Y224997D01*
X-988466D01*
X-986800Y223331D01*
Y216666D01*
X-988466Y215000D01*
X-991798D01*
X-993465Y216666D01*
X-1003461Y215000D02*
X-996797D01*
X-1003461Y221665D01*
Y223331D01*
X-1001795Y224997D01*
X-998463D01*
X-996797Y223331D01*
X-586465Y330331D02*
X-584798Y331997D01*
X-581466D01*
X-579800Y330331D01*
Y323666D01*
X-581466Y322000D01*
X-584798D01*
X-586465Y323666D01*
X-589797Y322000D02*
X-593129D01*
X-591463D01*
Y331997D01*
X-589797Y330331D01*
D37*
X-707800Y5000D02*
Y20235D01*
X-715417D01*
X-717957Y17696D01*
Y12617D01*
X-715417Y10078D01*
X-707800D01*
X-712878D02*
X-717957Y5000D01*
X-733192Y20235D02*
X-723035D01*
Y12617D01*
X-728113Y15157D01*
X-730653D01*
X-733192Y12617D01*
Y7539D01*
X-730653Y5000D01*
X-725574D01*
X-723035Y7539D01*
X-804800Y13000D02*
Y28235D01*
X-812418D01*
X-814957Y25696D01*
Y20617D01*
X-812418Y18078D01*
X-804800D01*
X-827653Y28235D02*
X-822574D01*
X-820035Y25696D01*
Y15539D01*
X-822574Y13000D01*
X-827653D01*
X-830192Y15539D01*
Y25696D01*
X-827653Y28235D01*
X-835270D02*
Y13000D01*
X-840349Y18078D01*
X-845427Y13000D01*
Y28235D01*
X-860662D02*
X-850505D01*
Y13000D01*
X-860662D01*
X-850505Y20617D02*
X-855583D01*
X-865740Y13000D02*
Y28235D01*
X-873358D01*
X-875897Y25696D01*
Y20617D01*
X-873358Y18078D01*
X-865740D01*
X-870819D02*
X-875897Y13000D01*
X-941800Y26235D02*
Y11000D01*
X-949417D01*
X-951957Y13539D01*
Y16078D01*
X-949417Y18618D01*
X-941800D01*
X-949417D01*
X-951957Y21157D01*
Y23696D01*
X-949417Y26235D01*
X-941800D01*
X-957035Y11000D02*
Y21157D01*
X-962113Y26235D01*
X-967192Y21157D01*
Y11000D01*
Y18618D01*
X-957035D01*
X-972270Y26235D02*
X-982427D01*
X-977348D01*
Y11000D01*
M02*
