G04 Layer_Color=16711935*
%FSLAX44Y44*%
%MOMM*%
G71*
G01*
G75*
%ADD46O,2.7032X1.7032*%
%ADD47R,2.7032X1.7032*%
%ADD48C,2.0032*%
%ADD49O,2.2032X3.2032*%
%ADD50R,2.2032X3.2032*%
%ADD51R,2.0032X2.0032*%
%ADD52P,6.7143X8X202.5*%
%ADD53R,2.2032X2.2032*%
%ADD54C,2.2032*%
%ADD55C,1.7032*%
%ADD56C,1.4732*%
%ADD57C,1.0032*%
D46*
X-698900Y308100D02*
D03*
Y282700D02*
D03*
Y257300D02*
D03*
Y231900D02*
D03*
X-622700Y308100D02*
D03*
Y282700D02*
D03*
Y257300D02*
D03*
D47*
Y231900D02*
D03*
D48*
X-881800Y238000D02*
D03*
Y113000D02*
D03*
X-1021800Y449840D02*
D03*
Y475240D02*
D03*
Y424440D02*
D03*
Y399040D02*
D03*
Y373640D02*
D03*
Y348240D02*
D03*
Y322840D02*
D03*
Y297440D02*
D03*
Y272040D02*
D03*
X-539200Y206000D02*
D03*
Y231400D02*
D03*
Y256800D02*
D03*
Y282200D02*
D03*
Y307600D02*
D03*
Y333000D02*
D03*
Y358400D02*
D03*
X-1021800Y206000D02*
D03*
Y180600D02*
D03*
Y155200D02*
D03*
Y129800D02*
D03*
Y104400D02*
D03*
Y79000D02*
D03*
Y53600D02*
D03*
X-539200Y129800D02*
D03*
Y104400D02*
D03*
Y79000D02*
D03*
Y53600D02*
D03*
Y28200D02*
D03*
D49*
X-642800Y52000D02*
D03*
X-617800D02*
D03*
D50*
X-592800D02*
D03*
D51*
X-1021800Y246640D02*
D03*
X-539200Y383800D02*
D03*
X-1021800Y28200D02*
D03*
X-539200Y155200D02*
D03*
D52*
X-814800Y285000D02*
D03*
D53*
X-789400Y118000D02*
D03*
X-977850Y60000D02*
D03*
X-857850D02*
D03*
D54*
X-814800Y118000D02*
D03*
X-840200D02*
D03*
X-939750Y60000D02*
D03*
X-819750D02*
D03*
D55*
X-703800Y32000D02*
D03*
X-729200Y82800D02*
D03*
X-703800Y159000D02*
D03*
D56*
X-744800Y213000D02*
D03*
X-665800Y32000D02*
D03*
Y189000D02*
D03*
X-605800Y96000D02*
D03*
Y194000D02*
D03*
X-759800Y118000D02*
D03*
Y179000D02*
D03*
X-744800Y100000D02*
D03*
D57*
X-814800Y309750D02*
D03*
X-790050Y285000D02*
D03*
X-814800Y260250D02*
D03*
X-839550Y285000D02*
D03*
X-832300Y267500D02*
D03*
X-797300D02*
D03*
Y302500D02*
D03*
X-832300D02*
D03*
M02*
