G04 Layer_Color=0*
%FSLAX44Y44*%
%MOMM*%
G71*
G01*
G75*
%ADD37C,0.2540*%
%ADD59C,0.1524*%
D37*
X-1012800Y503810D02*
Y562540D01*
X-1052800Y503810D02*
Y562540D01*
Y560000D02*
X-1078200D01*
X-987400D02*
X-1012800D01*
X-1052800D02*
X-1068040Y554920D01*
X-1052800Y560000D02*
X-1068040Y565080D01*
X-997560D02*
X-1012800Y560000D01*
X-997560Y554920D02*
X-1012800Y560000D01*
X-542800Y503810D02*
Y571540D01*
X-502800Y503810D02*
Y571540D01*
X-477400Y569000D02*
X-502800D01*
X-542800D02*
X-568200D01*
X-487560Y574080D02*
X-502800Y569000D01*
X-487560Y563920D02*
X-502800Y569000D01*
X-542800D02*
X-558040Y563920D01*
X-542800Y569000D02*
X-558040Y574080D01*
D59*
X-993187Y583361D02*
Y598596D01*
X-985570Y590979D01*
X-995727D01*
X-1003344Y580822D02*
X-1005883Y583361D01*
Y585901D01*
X-1003344D01*
Y583361D01*
X-1005883D01*
X-1003344Y580822D01*
X-1000805Y578283D01*
X-1016040Y596057D02*
X-1018579Y598596D01*
X-1023658D01*
X-1026197Y596057D01*
Y585901D01*
X-1023658Y583361D01*
X-1018579D01*
X-1016040Y585901D01*
Y596057D01*
X-1031275D02*
X-1033814Y598596D01*
X-1038893D01*
X-1041432Y596057D01*
Y585901D01*
X-1038893Y583361D01*
X-1033814D01*
X-1031275Y585901D01*
Y596057D01*
X-1046510Y583361D02*
Y593518D01*
X-1049049D01*
X-1051589Y590979D01*
Y583361D01*
Y590979D01*
X-1054128Y593518D01*
X-1056667Y590979D01*
Y583361D01*
X-1061745D02*
Y593518D01*
X-1064285D01*
X-1066824Y590979D01*
Y583361D01*
Y590979D01*
X-1069363Y593518D01*
X-1071902Y590979D01*
Y583361D01*
X-483187Y592361D02*
Y607597D01*
X-475570Y599979D01*
X-485727D01*
X-493344Y589822D02*
X-495883Y592361D01*
Y594901D01*
X-493344D01*
Y592361D01*
X-495883D01*
X-493344Y589822D01*
X-490805Y587283D01*
X-506040Y605057D02*
X-508579Y607597D01*
X-513658D01*
X-516197Y605057D01*
Y594901D01*
X-513658Y592361D01*
X-508579D01*
X-506040Y594901D01*
Y605057D01*
X-521275D02*
X-523814Y607597D01*
X-528893D01*
X-531432Y605057D01*
Y594901D01*
X-528893Y592361D01*
X-523814D01*
X-521275Y594901D01*
Y605057D01*
X-536510Y592361D02*
Y602518D01*
X-539049D01*
X-541589Y599979D01*
Y592361D01*
Y599979D01*
X-544128Y602518D01*
X-546667Y599979D01*
Y592361D01*
X-551745D02*
Y602518D01*
X-554285D01*
X-556824Y599979D01*
Y592361D01*
Y599979D01*
X-559363Y602518D01*
X-561902Y599979D01*
Y592361D01*
M02*
