G04 Layer_Color=16711935*
%FSLAX44Y44*%
%MOMM*%
G71*
G01*
G75*
%ADD35C,0.2000*%
%ADD37C,0.2540*%
%ADD58C,0.1270*%
%ADD59C,0.1524*%
%ADD60C,0.1778*%
%ADD61C,0.1600*%
D35*
X-728800Y-730467D02*
Y-755462D01*
X-745463Y-730467D02*
Y-755462D01*
X-728800Y-742369D02*
X-745463D01*
X-752366Y-738799D02*
Y-750701D01*
X-753557Y-754271D01*
X-755937Y-755462D01*
X-759508D01*
X-761888Y-754271D01*
X-765459Y-750701D01*
Y-738799D02*
Y-755462D01*
X-772005Y-738799D02*
Y-755462D01*
Y-743559D02*
X-775576Y-739989D01*
X-777956Y-738799D01*
X-781527D01*
X-783907Y-739989D01*
X-785097Y-743559D01*
Y-755462D01*
Y-743559D02*
X-788668Y-739989D01*
X-791049Y-738799D01*
X-794619D01*
X-797000Y-739989D01*
X-798190Y-743559D01*
Y-755462D01*
X-806045Y-730467D02*
Y-755462D01*
Y-742369D02*
X-808426Y-739989D01*
X-810806Y-738799D01*
X-814377D01*
X-816757Y-739989D01*
X-819138Y-742369D01*
X-820328Y-745940D01*
Y-748320D01*
X-819138Y-751891D01*
X-816757Y-754271D01*
X-814377Y-755462D01*
X-810806D01*
X-808426Y-754271D01*
X-806045Y-751891D01*
X-825684Y-745940D02*
X-839967D01*
Y-743559D01*
X-838776Y-741179D01*
X-837586Y-739989D01*
X-835206Y-738799D01*
X-831635D01*
X-829255Y-739989D01*
X-826874Y-742369D01*
X-825684Y-745940D01*
Y-748320D01*
X-826874Y-751891D01*
X-829255Y-754271D01*
X-831635Y-755462D01*
X-835206D01*
X-837586Y-754271D01*
X-839967Y-751891D01*
X-845323Y-738799D02*
Y-755462D01*
Y-745940D02*
X-846513Y-742369D01*
X-848893Y-739989D01*
X-851274Y-738799D01*
X-854844D01*
X-860676Y-730467D02*
Y-750701D01*
X-861867Y-754271D01*
X-864247Y-755462D01*
X-866628D01*
X-857106Y-738799D02*
X-865437D01*
X-876149D02*
X-873769Y-739989D01*
X-871388Y-742369D01*
X-870198Y-745940D01*
Y-748320D01*
X-871388Y-751891D01*
X-873769Y-754271D01*
X-876149Y-755462D01*
X-879720D01*
X-882100Y-754271D01*
X-884481Y-751891D01*
X-885671Y-748320D01*
Y-745940D01*
X-884481Y-742369D01*
X-882100Y-739989D01*
X-879720Y-738799D01*
X-876149D01*
X-910785Y-730467D02*
Y-755462D01*
X-927448Y-730467D02*
X-910785Y-747130D01*
X-916736Y-741179D02*
X-927448Y-755462D01*
X-933042Y-738799D02*
Y-755462D01*
Y-745940D02*
X-934232Y-742369D01*
X-936613Y-739989D01*
X-938993Y-738799D01*
X-942564D01*
X-959108D02*
Y-755462D01*
Y-742369D02*
X-956727Y-739989D01*
X-954347Y-738799D01*
X-950776D01*
X-948396Y-739989D01*
X-946015Y-742369D01*
X-944825Y-745940D01*
Y-748320D01*
X-946015Y-751891D01*
X-948396Y-754271D01*
X-950776Y-755462D01*
X-954347D01*
X-956727Y-754271D01*
X-959108Y-751891D01*
X-965773Y-738799D02*
Y-755462D01*
Y-743559D02*
X-969344Y-739989D01*
X-971724Y-738799D01*
X-975295D01*
X-977675Y-739989D01*
X-978865Y-743559D01*
Y-755462D01*
Y-743559D02*
X-982436Y-739989D01*
X-984817Y-738799D01*
X-988387D01*
X-990768Y-739989D01*
X-991958Y-743559D01*
Y-755462D01*
X-999813Y-738799D02*
Y-755462D01*
Y-743559D02*
X-1003384Y-739989D01*
X-1005764Y-738799D01*
X-1009335D01*
X-1011715Y-739989D01*
X-1012906Y-743559D01*
Y-755462D01*
Y-743559D02*
X-1016476Y-739989D01*
X-1018857Y-738799D01*
X-1022428D01*
X-1024808Y-739989D01*
X-1025998Y-743559D01*
Y-755462D01*
X-728800Y-779543D02*
X-739512D01*
X-743083Y-778353D01*
X-744273Y-777163D01*
X-745463Y-774782D01*
Y-771212D01*
X-744273Y-768831D01*
X-743083Y-767641D01*
X-739512Y-766451D01*
X-728800D01*
Y-791445D01*
X-765340Y-774782D02*
Y-791445D01*
Y-778353D02*
X-762959Y-775973D01*
X-760579Y-774782D01*
X-757008D01*
X-754628Y-775973D01*
X-752247Y-778353D01*
X-751057Y-781924D01*
Y-784304D01*
X-752247Y-787875D01*
X-754628Y-790255D01*
X-757008Y-791445D01*
X-760579D01*
X-762959Y-790255D01*
X-765340Y-787875D01*
X-775576Y-766451D02*
Y-786684D01*
X-776766Y-790255D01*
X-779146Y-791445D01*
X-781527D01*
X-772005Y-774782D02*
X-780337D01*
X-785097D02*
Y-791445D01*
Y-781924D02*
X-786288Y-778353D01*
X-788668Y-775973D01*
X-791049Y-774782D01*
X-794619D01*
X-799261Y-766451D02*
X-800451Y-767641D01*
X-801641Y-766451D01*
X-800451Y-765260D01*
X-799261Y-766451D01*
X-800451Y-774782D02*
Y-791445D01*
X-820328Y-778353D02*
X-817947Y-775973D01*
X-815567Y-774782D01*
X-811996D01*
X-809616Y-775973D01*
X-807235Y-778353D01*
X-806045Y-781924D01*
Y-784304D01*
X-807235Y-787875D01*
X-809616Y-790255D01*
X-811996Y-791445D01*
X-815567D01*
X-817947Y-790255D01*
X-820328Y-787875D01*
X-828064Y-766451D02*
X-829255Y-767641D01*
X-830445Y-766451D01*
X-829255Y-765260D01*
X-828064Y-766451D01*
X-829255Y-774782D02*
Y-791445D01*
X-840800Y-774782D02*
X-838419Y-775973D01*
X-836039Y-778353D01*
X-834849Y-781924D01*
Y-784304D01*
X-836039Y-787875D01*
X-838419Y-790255D01*
X-840800Y-791445D01*
X-844370D01*
X-846751Y-790255D01*
X-849131Y-787875D01*
X-850322Y-784304D01*
Y-781924D01*
X-849131Y-778353D01*
X-846751Y-775973D01*
X-844370Y-774782D01*
X-840800D01*
X-875435Y-766451D02*
Y-791445D01*
Y-766451D02*
X-886147D01*
X-889718Y-767641D01*
X-890908Y-768831D01*
X-892098Y-771212D01*
Y-773592D01*
X-890908Y-775973D01*
X-889718Y-777163D01*
X-886147Y-778353D01*
X-875435D02*
X-886147D01*
X-889718Y-779543D01*
X-890908Y-780733D01*
X-892098Y-783114D01*
Y-786684D01*
X-890908Y-789065D01*
X-889718Y-790255D01*
X-886147Y-791445D01*
X-875435D01*
X-900073Y-766451D02*
X-901263Y-767641D01*
X-902453Y-766451D01*
X-901263Y-765260D01*
X-900073Y-766451D01*
X-901263Y-774782D02*
Y-791445D01*
X-919949Y-778353D02*
X-918759Y-775973D01*
X-915189Y-774782D01*
X-911618D01*
X-908047Y-775973D01*
X-906857Y-778353D01*
X-908047Y-780733D01*
X-910428Y-781924D01*
X-916379Y-783114D01*
X-918759Y-784304D01*
X-919949Y-786684D01*
Y-787875D01*
X-918759Y-790255D01*
X-915189Y-791445D01*
X-911618D01*
X-908047Y-790255D01*
X-906857Y-787875D01*
X-939469Y-778353D02*
X-937089Y-775973D01*
X-934708Y-774782D01*
X-931138D01*
X-928757Y-775973D01*
X-926377Y-778353D01*
X-925186Y-781924D01*
Y-784304D01*
X-926377Y-787875D01*
X-928757Y-790255D01*
X-931138Y-791445D01*
X-934708D01*
X-937089Y-790255D01*
X-939469Y-787875D01*
X-944825Y-766451D02*
Y-791445D01*
Y-779543D02*
X-948396Y-775973D01*
X-950776Y-774782D01*
X-954347D01*
X-956727Y-775973D01*
X-957917Y-779543D01*
Y-791445D01*
X-970415Y-774782D02*
X-968034Y-775973D01*
X-965654Y-778353D01*
X-964464Y-781924D01*
Y-784304D01*
X-965654Y-787875D01*
X-968034Y-790255D01*
X-970415Y-791445D01*
X-973986D01*
X-976366Y-790255D01*
X-978746Y-787875D01*
X-979937Y-784304D01*
Y-781924D01*
X-978746Y-778353D01*
X-976366Y-775973D01*
X-973986Y-774782D01*
X-970415D01*
X-994933Y-766451D02*
X-992553D01*
X-990173Y-767641D01*
X-988982Y-771212D01*
Y-791445D01*
X-985412Y-774782D02*
X-993743D01*
X-1008026Y-766451D02*
X-1005645D01*
X-1003265Y-767641D01*
X-1002075Y-771212D01*
Y-791445D01*
X-998504Y-774782D02*
X-1006836D01*
X-746653Y-808386D02*
X-745463Y-806005D01*
X-743083Y-803625D01*
X-740702Y-802434D01*
X-735941D01*
X-733561Y-803625D01*
X-731180Y-806005D01*
X-729990Y-808386D01*
X-728800Y-811956D01*
Y-817907D01*
X-729990Y-821478D01*
X-731180Y-823858D01*
X-733561Y-826239D01*
X-735941Y-827429D01*
X-740702D01*
X-743083Y-826239D01*
X-745463Y-823858D01*
X-746653Y-821478D01*
Y-817907D01*
X-740702D02*
X-746653D01*
X-752366Y-810766D02*
Y-822668D01*
X-753557Y-826239D01*
X-755937Y-827429D01*
X-759508D01*
X-761888Y-826239D01*
X-765459Y-822668D01*
Y-810766D02*
Y-827429D01*
X-774385Y-802434D02*
X-775576Y-803625D01*
X-776766Y-802434D01*
X-775576Y-801244D01*
X-774385Y-802434D01*
X-775576Y-810766D02*
Y-827429D01*
X-781170Y-802434D02*
Y-827429D01*
X-786407Y-802434D02*
Y-827429D01*
Y-815527D02*
X-789977Y-811956D01*
X-792358Y-810766D01*
X-795928D01*
X-798309Y-811956D01*
X-799499Y-815527D01*
Y-827429D01*
X-806045Y-817907D02*
X-820328D01*
Y-815527D01*
X-819138Y-813147D01*
X-817947Y-811956D01*
X-815567Y-810766D01*
X-811996D01*
X-809616Y-811956D01*
X-807235Y-814337D01*
X-806045Y-817907D01*
Y-820288D01*
X-807235Y-823858D01*
X-809616Y-826239D01*
X-811996Y-827429D01*
X-815567D01*
X-817947Y-826239D01*
X-820328Y-823858D01*
X-825684Y-810766D02*
Y-827429D01*
Y-817907D02*
X-826874Y-814337D01*
X-829255Y-811956D01*
X-831635Y-810766D01*
X-835206D01*
X-837467D02*
Y-827429D01*
Y-815527D02*
X-841038Y-811956D01*
X-843418Y-810766D01*
X-846989D01*
X-849369Y-811956D01*
X-850560Y-815527D01*
Y-827429D01*
Y-815527D02*
X-854130Y-811956D01*
X-856511Y-810766D01*
X-860081D01*
X-862462Y-811956D01*
X-863652Y-815527D01*
Y-827429D01*
X-871507Y-817907D02*
X-885790D01*
Y-815527D01*
X-884600Y-813147D01*
X-883410Y-811956D01*
X-881029Y-810766D01*
X-877459D01*
X-875078Y-811956D01*
X-872698Y-814337D01*
X-871507Y-817907D01*
Y-820288D01*
X-872698Y-823858D01*
X-875078Y-826239D01*
X-877459Y-827429D01*
X-881029D01*
X-883410Y-826239D01*
X-885790Y-823858D01*
X-910785Y-802434D02*
X-916736Y-827429D01*
X-922687Y-802434D02*
X-916736Y-827429D01*
X-922687Y-802434D02*
X-928638Y-827429D01*
X-934589Y-802434D02*
X-928638Y-827429D01*
X-939588Y-817907D02*
X-953871D01*
Y-815527D01*
X-952681Y-813147D01*
X-951490Y-811956D01*
X-949110Y-810766D01*
X-945539D01*
X-943159Y-811956D01*
X-940778Y-814337D01*
X-939588Y-817907D01*
Y-820288D01*
X-940778Y-823858D01*
X-943159Y-826239D01*
X-945539Y-827429D01*
X-949110D01*
X-951490Y-826239D01*
X-953871Y-823858D01*
X-959227Y-802434D02*
Y-827429D01*
Y-814337D02*
X-961607Y-811956D01*
X-963988Y-810766D01*
X-967558D01*
X-969939Y-811956D01*
X-972319Y-814337D01*
X-973509Y-817907D01*
Y-820288D01*
X-972319Y-823858D01*
X-969939Y-826239D01*
X-967558Y-827429D01*
X-963988D01*
X-961607Y-826239D01*
X-959227Y-823858D01*
X-978865Y-817907D02*
X-993148D01*
Y-815527D01*
X-991958Y-813147D01*
X-990768Y-811956D01*
X-988387Y-810766D01*
X-984817D01*
X-982436Y-811956D01*
X-980056Y-814337D01*
X-978865Y-817907D01*
Y-820288D01*
X-980056Y-823858D01*
X-982436Y-826239D01*
X-984817Y-827429D01*
X-988387D01*
X-990768Y-826239D01*
X-993148Y-823858D01*
X-998504Y-810766D02*
Y-827429D01*
Y-817907D02*
X-999694Y-814337D01*
X-1002075Y-811956D01*
X-1004455Y-810766D01*
X-1008026D01*
X774881Y954272D02*
X766311D01*
X763455Y955224D01*
X762502Y956176D01*
X761550Y958081D01*
Y960937D01*
X762502Y962842D01*
X763455Y963794D01*
X766311Y964746D01*
X774881D01*
Y944750D01*
X757075Y958081D02*
Y944750D01*
Y952368D02*
X756123Y955224D01*
X754218Y957129D01*
X752314Y958081D01*
X749457D01*
X742887D02*
X744792Y957129D01*
X746696Y955224D01*
X747648Y952368D01*
Y950463D01*
X746696Y947607D01*
X744792Y945703D01*
X742887Y944750D01*
X740031D01*
X738127Y945703D01*
X736222Y947607D01*
X735270Y950463D01*
Y952368D01*
X736222Y955224D01*
X738127Y957129D01*
X740031Y958081D01*
X742887D01*
X719464Y964746D02*
Y944750D01*
Y955224D02*
X721368Y957129D01*
X723273Y958081D01*
X726129D01*
X728034Y957129D01*
X729938Y955224D01*
X730890Y952368D01*
Y950463D01*
X729938Y947607D01*
X728034Y945703D01*
X726129Y944750D01*
X723273D01*
X721368Y945703D01*
X719464Y947607D01*
X714132Y958081D02*
Y948559D01*
X713180Y945703D01*
X711275Y944750D01*
X708419D01*
X706514Y945703D01*
X703658Y948559D01*
Y958081D02*
Y944750D01*
X686995Y955224D02*
X688899Y957129D01*
X690803Y958081D01*
X693660D01*
X695564Y957129D01*
X697469Y955224D01*
X698421Y952368D01*
Y950463D01*
X697469Y947607D01*
X695564Y945703D01*
X693660Y944750D01*
X690803D01*
X688899Y945703D01*
X686995Y947607D01*
X679853Y964746D02*
Y948559D01*
X678901Y945703D01*
X676997Y944750D01*
X675092D01*
X682710Y958081D02*
X676045D01*
X670332Y964746D02*
X669380Y963794D01*
X668427Y964746D01*
X669380Y965698D01*
X670332Y964746D01*
X669380Y958081D02*
Y944750D01*
X660143Y958081D02*
X662048Y957129D01*
X663952Y955224D01*
X664904Y952368D01*
Y950463D01*
X663952Y947607D01*
X662048Y945703D01*
X660143Y944750D01*
X657287D01*
X655383Y945703D01*
X653478Y947607D01*
X652526Y950463D01*
Y952368D01*
X653478Y955224D01*
X655383Y957129D01*
X657287Y958081D01*
X660143D01*
X648146D02*
Y944750D01*
Y954272D02*
X645289Y957129D01*
X643385Y958081D01*
X640528D01*
X638624Y957129D01*
X637672Y954272D01*
Y944750D01*
X616724Y964746D02*
Y944750D01*
Y964746D02*
X610059D01*
X607202Y963794D01*
X605298Y961889D01*
X604346Y959985D01*
X603394Y957129D01*
Y952368D01*
X604346Y949511D01*
X605298Y947607D01*
X607202Y945703D01*
X610059Y944750D01*
X616724D01*
X598918Y952368D02*
X587492D01*
Y954272D01*
X588444Y956176D01*
X589397Y957129D01*
X591301Y958081D01*
X594157D01*
X596062Y957129D01*
X597966Y955224D01*
X598918Y952368D01*
Y950463D01*
X597966Y947607D01*
X596062Y945703D01*
X594157Y944750D01*
X591301D01*
X589397Y945703D01*
X587492Y947607D01*
X580351Y964746D02*
Y948559D01*
X579399Y945703D01*
X577494Y944750D01*
X575590D01*
X583207Y958081D02*
X576542D01*
X561307D02*
Y944750D01*
Y955224D02*
X563212Y957129D01*
X565116Y958081D01*
X567973D01*
X569877Y957129D01*
X571781Y955224D01*
X572733Y952368D01*
Y950463D01*
X571781Y947607D01*
X569877Y945703D01*
X567973Y944750D01*
X565116D01*
X563212Y945703D01*
X561307Y947607D01*
X554071Y964746D02*
X553119Y963794D01*
X552166Y964746D01*
X553119Y965698D01*
X554071Y964746D01*
X553119Y958081D02*
Y944750D01*
X548643Y964746D02*
Y944750D01*
X533980Y955224D02*
X534932Y957129D01*
X537789Y958081D01*
X540645D01*
X543502Y957129D01*
X544454Y955224D01*
X543502Y953320D01*
X541597Y952368D01*
X536836Y951415D01*
X534932Y950463D01*
X533980Y948559D01*
Y947607D01*
X534932Y945703D01*
X537789Y944750D01*
X540645D01*
X543502Y945703D01*
X544454Y947607D01*
X528838Y958081D02*
X529790Y957129D01*
X528838Y956176D01*
X527886Y957129D01*
X528838Y958081D01*
Y946655D02*
X529790Y945703D01*
X528838Y944750D01*
X527886Y945703D01*
X528838Y946655D01*
X759881Y924746D02*
Y904750D01*
X748455D01*
X734838Y918081D02*
Y904750D01*
Y915224D02*
X736743Y917129D01*
X738647Y918081D01*
X741504D01*
X743408Y917129D01*
X745312Y915224D01*
X746264Y912368D01*
Y910463D01*
X745312Y907607D01*
X743408Y905703D01*
X741504Y904750D01*
X738647D01*
X736743Y905703D01*
X734838Y907607D01*
X728554Y918081D02*
X722841Y904750D01*
X717128Y918081D02*
X722841Y904750D01*
X724745Y900942D01*
X726650Y899037D01*
X728554Y898085D01*
X729506D01*
X713795Y912368D02*
X702369D01*
Y914272D01*
X703321Y916176D01*
X704274Y917129D01*
X706178Y918081D01*
X709034D01*
X710939Y917129D01*
X712843Y915224D01*
X713795Y912368D01*
Y910463D01*
X712843Y907607D01*
X710939Y905703D01*
X709034Y904750D01*
X706178D01*
X704274Y905703D01*
X702369Y907607D01*
X698084Y918081D02*
Y904750D01*
Y912368D02*
X697132Y915224D01*
X695228Y917129D01*
X693324Y918081D01*
X690467D01*
X678184Y915224D02*
X679136Y917129D01*
X681993Y918081D01*
X684849D01*
X687706Y917129D01*
X688658Y915224D01*
X687706Y913320D01*
X685801Y912368D01*
X681040Y911415D01*
X679136Y910463D01*
X678184Y908559D01*
Y907607D01*
X679136Y905703D01*
X681993Y904750D01*
X684849D01*
X687706Y905703D01*
X688658Y907607D01*
X673042Y918081D02*
X673994Y917129D01*
X673042Y916176D01*
X672090Y917129D01*
X673042Y918081D01*
Y906655D02*
X673994Y905703D01*
X673042Y904750D01*
X672090Y905703D01*
X673042Y906655D01*
X651999Y924746D02*
Y904750D01*
Y924746D02*
X645334D01*
X642477Y923794D01*
X640573Y921889D01*
X639621Y919985D01*
X638669Y917129D01*
Y912368D01*
X639621Y909511D01*
X640573Y907607D01*
X642477Y905703D01*
X645334Y904750D01*
X651999D01*
X634193Y918081D02*
Y908559D01*
X633241Y905703D01*
X631337Y904750D01*
X628480D01*
X626576Y905703D01*
X623719Y908559D01*
Y918081D02*
Y904750D01*
X607056Y918081D02*
Y904750D01*
Y915224D02*
X608961Y917129D01*
X610865Y918081D01*
X613722D01*
X615626Y917129D01*
X617530Y915224D01*
X618482Y912368D01*
Y910463D01*
X617530Y907607D01*
X615626Y905703D01*
X613722Y904750D01*
X610865D01*
X608961Y905703D01*
X607056Y907607D01*
X601724Y924746D02*
Y904750D01*
X581824Y924746D02*
Y904750D01*
X566208Y918081D02*
Y904750D01*
Y915224D02*
X568112Y917129D01*
X570017Y918081D01*
X572873D01*
X574777Y917129D01*
X576682Y915224D01*
X577634Y912368D01*
Y910463D01*
X576682Y907607D01*
X574777Y905703D01*
X572873Y904750D01*
X570017D01*
X568112Y905703D01*
X566208Y907607D01*
X559924Y918081D02*
X554211Y904750D01*
X548497Y918081D02*
X554211Y904750D01*
X556115Y900942D01*
X558019Y899037D01*
X559924Y898085D01*
X560876D01*
X545165Y912368D02*
X533739D01*
Y914272D01*
X534691Y916176D01*
X535643Y917129D01*
X537547Y918081D01*
X540404D01*
X542308Y917129D01*
X544213Y915224D01*
X545165Y912368D01*
Y910463D01*
X544213Y907607D01*
X542308Y905703D01*
X540404Y904750D01*
X537547D01*
X535643Y905703D01*
X533739Y907607D01*
X529454Y918081D02*
Y904750D01*
Y912368D02*
X528502Y915224D01*
X526597Y917129D01*
X524693Y918081D01*
X521837D01*
X519075D02*
X520027Y917129D01*
X519075Y916176D01*
X518123Y917129D01*
X519075Y918081D01*
X518123Y905703D02*
X519075Y904750D01*
X520027Y905703D01*
X519075Y906655D01*
X518123Y905703D01*
Y903798D01*
X519075Y901894D01*
X520027Y900942D01*
X759881Y884746D02*
Y864750D01*
Y884746D02*
X747502D01*
X759881Y875224D02*
X752263D01*
X743313Y884746D02*
X742361Y883794D01*
X741408Y884746D01*
X742361Y885698D01*
X743313Y884746D01*
X742361Y878081D02*
Y864750D01*
X737885Y878081D02*
Y864750D01*
Y874272D02*
X735029Y877129D01*
X733124Y878081D01*
X730268D01*
X728364Y877129D01*
X727411Y874272D01*
Y864750D01*
X720270Y884746D02*
X719318Y883794D01*
X718366Y884746D01*
X719318Y885698D01*
X720270Y884746D01*
X719318Y878081D02*
Y864750D01*
X704369Y875224D02*
X705321Y877129D01*
X708177Y878081D01*
X711034D01*
X713891Y877129D01*
X714843Y875224D01*
X713891Y873320D01*
X711986Y872368D01*
X707225Y871415D01*
X705321Y870463D01*
X704369Y868559D01*
Y867607D01*
X705321Y865703D01*
X708177Y864750D01*
X711034D01*
X713891Y865703D01*
X714843Y867607D01*
X700179Y884746D02*
Y864750D01*
Y874272D02*
X697323Y877129D01*
X695418Y878081D01*
X692562D01*
X690657Y877129D01*
X689705Y874272D01*
Y864750D01*
X683516Y878081D02*
X684468Y877129D01*
X683516Y876176D01*
X682564Y877129D01*
X683516Y878081D01*
Y866655D02*
X684468Y865703D01*
X683516Y864750D01*
X682564Y865703D01*
X683516Y866655D01*
X662473Y884746D02*
Y864750D01*
X649143Y884746D02*
Y864750D01*
X662473Y875224D02*
X649143D01*
X638859Y878081D02*
X640763Y877129D01*
X642668Y875224D01*
X643620Y872368D01*
Y870463D01*
X642668Y867607D01*
X640763Y865703D01*
X638859Y864750D01*
X636003D01*
X634098Y865703D01*
X632194Y867607D01*
X631242Y870463D01*
Y872368D01*
X632194Y875224D01*
X634098Y877129D01*
X636003Y878081D01*
X638859D01*
X624005Y884746D02*
Y868559D01*
X623053Y865703D01*
X621148Y864750D01*
X619244D01*
X626862Y878081D02*
X620196D01*
X589251D02*
Y864750D01*
Y875224D02*
X591155Y877129D01*
X593059Y878081D01*
X595916D01*
X597820Y877129D01*
X599725Y875224D01*
X600677Y872368D01*
Y870463D01*
X599725Y867607D01*
X597820Y865703D01*
X595916Y864750D01*
X593059D01*
X591155Y865703D01*
X589251Y867607D01*
X582014Y884746D02*
X581062Y883794D01*
X580110Y884746D01*
X581062Y885698D01*
X582014Y884746D01*
X581062Y878081D02*
Y864750D01*
X576587Y878081D02*
Y864750D01*
Y872368D02*
X575634Y875224D01*
X573730Y877129D01*
X571826Y878081D01*
X568969D01*
X566208D02*
X567160Y877129D01*
X566208Y876176D01*
X565256Y877129D01*
X566208Y878081D01*
X565256Y865703D02*
X566208Y864750D01*
X567160Y865703D01*
X566208Y866655D01*
X565256Y865703D01*
Y863798D01*
X566208Y861894D01*
X567160Y860942D01*
X759881Y844746D02*
Y824750D01*
Y844746D02*
X752263Y824750D01*
X744646Y844746D02*
X752263Y824750D01*
X744646Y844746D02*
Y824750D01*
X727507Y838081D02*
Y824750D01*
Y835224D02*
X729411Y837129D01*
X731315Y838081D01*
X734172D01*
X736076Y837129D01*
X737981Y835224D01*
X738933Y832368D01*
Y830463D01*
X737981Y827607D01*
X736076Y825702D01*
X734172Y824750D01*
X731315D01*
X729411Y825702D01*
X727507Y827607D01*
X719318Y844746D02*
Y828559D01*
X718366Y825702D01*
X716461Y824750D01*
X714557D01*
X722175Y838081D02*
X715509D01*
X711701Y832368D02*
X700274D01*
Y834272D01*
X701227Y836176D01*
X702179Y837129D01*
X704083Y838081D01*
X706940D01*
X708844Y837129D01*
X710748Y835224D01*
X711701Y832368D01*
Y830463D01*
X710748Y827607D01*
X708844Y825702D01*
X706940Y824750D01*
X704083D01*
X702179Y825702D01*
X700274Y827607D01*
X695990Y838081D02*
Y824750D01*
Y832368D02*
X695037Y835224D01*
X693133Y837129D01*
X691229Y838081D01*
X688372D01*
X684659Y844746D02*
X683707Y843794D01*
X682754Y844746D01*
X683707Y845698D01*
X684659Y844746D01*
X683707Y838081D02*
Y824750D01*
X667805Y838081D02*
Y824750D01*
Y835224D02*
X669709Y837129D01*
X671614Y838081D01*
X674470D01*
X676375Y837129D01*
X678279Y835224D01*
X679231Y832368D01*
Y830463D01*
X678279Y827607D01*
X676375Y825702D01*
X674470Y824750D01*
X671614D01*
X669709Y825702D01*
X667805Y827607D01*
X662473Y844746D02*
Y824750D01*
X657331Y838081D02*
X658283Y837129D01*
X657331Y836176D01*
X656379Y837129D01*
X657331Y838081D01*
Y826655D02*
X658283Y825702D01*
X657331Y824750D01*
X656379Y825702D01*
X657331Y826655D01*
X636288Y844746D02*
Y824750D01*
Y844746D02*
X623910D01*
X636288Y835224D02*
X628671D01*
X619720Y844746D02*
X618768Y843794D01*
X617816Y844746D01*
X618768Y845698D01*
X619720Y844746D01*
X618768Y838081D02*
Y824750D01*
X614293Y844746D02*
Y824750D01*
Y835224D02*
X612388Y837129D01*
X610484Y838081D01*
X607628D01*
X605723Y837129D01*
X603819Y835224D01*
X602867Y832368D01*
Y830463D01*
X603819Y827607D01*
X605723Y825702D01*
X607628Y824750D01*
X610484D01*
X612388Y825702D01*
X614293Y827607D01*
X598582Y832368D02*
X587156D01*
Y834272D01*
X588108Y836176D01*
X589060Y837129D01*
X590965Y838081D01*
X593821D01*
X595725Y837129D01*
X597630Y835224D01*
X598582Y832368D01*
Y830463D01*
X597630Y827607D01*
X595725Y825702D01*
X593821Y824750D01*
X590965D01*
X589060Y825702D01*
X587156Y827607D01*
X582871Y838081D02*
Y824750D01*
Y832368D02*
X581919Y835224D01*
X580014Y837129D01*
X578110Y838081D01*
X575254D01*
X572492D02*
X573444Y837129D01*
X572492Y836176D01*
X571540Y837129D01*
X572492Y838081D01*
X571540Y825702D02*
X572492Y824750D01*
X573444Y825702D01*
X572492Y826655D01*
X571540Y825702D01*
Y823798D01*
X572492Y821894D01*
X573444Y820942D01*
X757465Y801496D02*
Y781500D01*
X764131Y801496D02*
X750800D01*
X748420D02*
Y781500D01*
Y791022D02*
X745563Y793879D01*
X743659Y794831D01*
X740802D01*
X738898Y793879D01*
X737946Y791022D01*
Y781500D01*
X730805Y801496D02*
X729852Y800544D01*
X728900Y801496D01*
X729852Y802448D01*
X730805Y801496D01*
X729852Y794831D02*
Y781500D01*
X713951Y791974D02*
X715855Y793879D01*
X717760Y794831D01*
X720616D01*
X722521Y793879D01*
X724425Y791974D01*
X725377Y789118D01*
Y787213D01*
X724425Y784357D01*
X722521Y782452D01*
X720616Y781500D01*
X717760D01*
X715855Y782452D01*
X713951Y784357D01*
X709666Y801496D02*
Y781500D01*
X700144Y794831D02*
X709666Y785309D01*
X705857Y789118D02*
X699192Y781500D01*
X696050Y794831D02*
Y781500D01*
Y791022D02*
X693194Y793879D01*
X691289Y794831D01*
X688433D01*
X686528Y793879D01*
X685576Y791022D01*
Y781500D01*
X680339Y789118D02*
X668913D01*
Y791022D01*
X669865Y792926D01*
X670817Y793879D01*
X672722Y794831D01*
X675578D01*
X677483Y793879D01*
X679387Y791974D01*
X680339Y789118D01*
Y787213D01*
X679387Y784357D01*
X677483Y782452D01*
X675578Y781500D01*
X672722D01*
X670817Y782452D01*
X668913Y784357D01*
X654154Y791974D02*
X655106Y793879D01*
X657963Y794831D01*
X660819D01*
X663676Y793879D01*
X664628Y791974D01*
X663676Y790070D01*
X661772Y789118D01*
X657011Y788166D01*
X655106Y787213D01*
X654154Y785309D01*
Y784357D01*
X655106Y782452D01*
X657963Y781500D01*
X660819D01*
X663676Y782452D01*
X664628Y784357D01*
X639491Y791974D02*
X640443Y793879D01*
X643299Y794831D01*
X646156D01*
X649013Y793879D01*
X649965Y791974D01*
X649013Y790070D01*
X647108Y789118D01*
X642347Y788166D01*
X640443Y787213D01*
X639491Y785309D01*
Y784357D01*
X640443Y782452D01*
X643299Y781500D01*
X646156D01*
X649013Y782452D01*
X649965Y784357D01*
X634349Y794831D02*
X635301Y793879D01*
X634349Y792926D01*
X633397Y793879D01*
X634349Y794831D01*
Y783405D02*
X635301Y782452D01*
X634349Y781500D01*
X633397Y782452D01*
X634349Y783405D01*
X613306Y797687D02*
X611401Y798640D01*
X608545Y801496D01*
Y781500D01*
X596738Y782452D02*
X597690Y781500D01*
X598642Y782452D01*
X597690Y783405D01*
X596738Y782452D01*
Y780548D01*
X597690Y778644D01*
X598642Y777692D01*
X580932Y798640D02*
X581884Y800544D01*
X584741Y801496D01*
X586645D01*
X589501Y800544D01*
X591406Y797687D01*
X592358Y792926D01*
Y788166D01*
X591406Y784357D01*
X589501Y782452D01*
X586645Y781500D01*
X585693D01*
X582836Y782452D01*
X580932Y784357D01*
X579980Y787213D01*
Y788166D01*
X580932Y791022D01*
X582836Y792926D01*
X585693Y793879D01*
X586645D01*
X589501Y792926D01*
X591406Y791022D01*
X592358Y788166D01*
X575600Y794831D02*
Y781500D01*
Y791022D02*
X572743Y793879D01*
X570839Y794831D01*
X567982D01*
X566078Y793879D01*
X565126Y791022D01*
Y781500D01*
Y791022D02*
X562269Y793879D01*
X560365Y794831D01*
X557508D01*
X555604Y793879D01*
X554652Y791022D01*
Y781500D01*
X548367Y794831D02*
Y781500D01*
Y791022D02*
X545511Y793879D01*
X543606Y794831D01*
X540750D01*
X538846Y793879D01*
X537893Y791022D01*
Y781500D01*
Y791022D02*
X535037Y793879D01*
X533133Y794831D01*
X530276D01*
X528372Y793879D01*
X527420Y791022D01*
Y781500D01*
X520183Y794831D02*
X521135Y793879D01*
X520183Y792926D01*
X519231Y793879D01*
X520183Y794831D01*
X519231Y782452D02*
X520183Y781500D01*
X521135Y782452D01*
X520183Y783405D01*
X519231Y782452D01*
Y780548D01*
X520183Y778644D01*
X521135Y777692D01*
X749848Y756485D02*
X750800Y758390D01*
X752704Y760294D01*
X754609Y761246D01*
X758418D01*
X760322Y760294D01*
X762226Y758390D01*
X763178Y756485D01*
X764131Y753629D01*
Y748868D01*
X763178Y746011D01*
X762226Y744107D01*
X760322Y742203D01*
X758418Y741250D01*
X754609D01*
X752704Y742203D01*
X750800Y744107D01*
X749848Y746011D01*
X739469Y754581D02*
X741374Y753629D01*
X743278Y751724D01*
X744230Y748868D01*
Y746963D01*
X743278Y744107D01*
X741374Y742203D01*
X739469Y741250D01*
X736613D01*
X734708Y742203D01*
X732804Y744107D01*
X731852Y746963D01*
Y748868D01*
X732804Y751724D01*
X734708Y753629D01*
X736613Y754581D01*
X739469D01*
X727472D02*
Y734585D01*
Y751724D02*
X725567Y753629D01*
X723663Y754581D01*
X720807D01*
X718902Y753629D01*
X716998Y751724D01*
X716046Y748868D01*
Y746963D01*
X716998Y744107D01*
X718902Y742203D01*
X720807Y741250D01*
X723663D01*
X725567Y742203D01*
X727472Y744107D01*
X711761Y754581D02*
Y734585D01*
Y751724D02*
X709857Y753629D01*
X707952Y754581D01*
X705096D01*
X703191Y753629D01*
X701287Y751724D01*
X700335Y748868D01*
Y746963D01*
X701287Y744107D01*
X703191Y742203D01*
X705096Y741250D01*
X707952D01*
X709857Y742203D01*
X711761Y744107D01*
X696050Y748868D02*
X684624D01*
Y750772D01*
X685576Y752676D01*
X686528Y753629D01*
X688433Y754581D01*
X691289D01*
X693194Y753629D01*
X695098Y751724D01*
X696050Y748868D01*
Y746963D01*
X695098Y744107D01*
X693194Y742203D01*
X691289Y741250D01*
X688433D01*
X686528Y742203D01*
X684624Y744107D01*
X680339Y754581D02*
Y741250D01*
Y748868D02*
X679387Y751724D01*
X677483Y753629D01*
X675578Y754581D01*
X672722D01*
X669960D02*
X670913Y753629D01*
X669960Y752676D01*
X669008Y753629D01*
X669960Y754581D01*
Y743155D02*
X670913Y742203D01*
X669960Y741250D01*
X669008Y742203D01*
X669960Y743155D01*
X648917Y757437D02*
X647013Y758390D01*
X644156Y761246D01*
Y741250D01*
X612830Y761246D02*
X614734Y760294D01*
X616638Y758390D01*
X617591Y756485D01*
X618543Y753629D01*
Y748868D01*
X617591Y746011D01*
X616638Y744107D01*
X614734Y742203D01*
X612830Y741250D01*
X609021D01*
X607117Y742203D01*
X605212Y744107D01*
X604260Y746011D01*
X603308Y748868D01*
Y753629D01*
X604260Y756485D01*
X605212Y758390D01*
X607117Y760294D01*
X609021Y761246D01*
X612830D01*
X588168Y754581D02*
X598642Y741250D01*
Y754581D02*
X588168D01*
X598642Y741250D02*
X588168D01*
X583027Y754581D02*
X583979Y753629D01*
X583027Y752676D01*
X582074Y753629D01*
X583027Y754581D01*
X582074Y742203D02*
X583027Y741250D01*
X583979Y742203D01*
X583027Y743155D01*
X582074Y742203D01*
Y740298D01*
X583027Y738394D01*
X583979Y737442D01*
D37*
X-1052800Y503810D02*
Y546540D01*
X-502800Y503810D02*
Y546540D01*
X-828584Y544000D02*
X-1052800D01*
X-502800D02*
X-718888D01*
X-1037560Y549080D02*
X-1052800Y544000D01*
X-1037560Y538920D02*
X-1052800Y544000D01*
X-502800D02*
X-518040Y538920D01*
X-502800Y544000D02*
X-518040Y549080D01*
X-1056610Y0D02*
X-1108340D01*
X-1016610Y500000D02*
X-1108340D01*
X-1105800Y0D02*
Y191088D01*
Y300784D02*
Y500000D01*
Y0D02*
X-1110880Y15240D01*
X-1100720D02*
X-1105800Y0D01*
X-1100720Y484760D02*
X-1105800Y500000D01*
X-1110880Y484760D01*
X799881Y712750D02*
X499881D01*
X799881D02*
Y994750D01*
X499881D01*
Y712750D02*
Y994750D01*
X-502800Y0D02*
X-1052800D01*
Y500000D01*
X-502800Y0D02*
Y500000D01*
X-593800Y449000D02*
X-961800D01*
X-1012800Y500000D01*
X-1052800D01*
X-542800D02*
X-593800Y449000D01*
X-502800Y500000D02*
X-542800D01*
D58*
X-1601400Y-836600D02*
Y-811600D01*
Y-761600D02*
Y-711600D01*
X-1301400Y-811600D02*
Y-761600D01*
X-1121400Y-836600D02*
X-1911400D01*
X-1121400Y-811600D02*
X-1911400D01*
X-1121400Y-761600D02*
X-1911400D01*
X-1121400Y-861600D02*
Y-711600D01*
X-661400D02*
X-1911400D01*
X-661400Y-861600D02*
Y-711600D01*
X-1243900Y1038400D02*
Y1088400D01*
Y-911600D02*
Y-861600D01*
X908600Y-911600D02*
Y1088400D01*
X858600Y-861600D02*
Y1038400D01*
Y-861600D02*
X-1911400D01*
Y1038400D01*
X858600D02*
X-1911400D01*
X908600Y-911600D02*
X-1961400D01*
Y1088400D01*
X908600D02*
X-1961400D01*
X908600Y-411600D02*
X858600D01*
X908600Y88400D02*
X858600D01*
X908600Y588400D02*
X858600D01*
X-1911400Y-411600D02*
X-1961400D01*
X-1911400Y88400D02*
X-1961400D01*
X-1911400Y588400D02*
X-1961400D01*
X191100Y1038400D02*
Y1088400D01*
Y-911600D02*
Y-861600D01*
X-526400Y-911600D02*
Y-861600D01*
Y1038400D02*
Y1088400D01*
X-1733810Y-815760D02*
Y-827187D01*
Y-821201D02*
X-1732721Y-820113D01*
X-1731633Y-819569D01*
X-1730000D01*
X-1728912Y-820113D01*
X-1727824Y-821201D01*
X-1727280Y-822834D01*
Y-823922D01*
X-1727824Y-825555D01*
X-1728912Y-826643D01*
X-1730000Y-827187D01*
X-1731633D01*
X-1732721Y-826643D01*
X-1733810Y-825555D01*
X-1736857Y-822834D02*
X-1743387D01*
Y-821746D01*
X-1742843Y-820657D01*
X-1742298Y-820113D01*
X-1741210Y-819569D01*
X-1739578D01*
X-1738489Y-820113D01*
X-1737401Y-821201D01*
X-1736857Y-822834D01*
Y-823922D01*
X-1737401Y-825555D01*
X-1738489Y-826643D01*
X-1739578Y-827187D01*
X-1741210D01*
X-1742298Y-826643D01*
X-1743387Y-825555D01*
X-1615520Y-821746D02*
X-1620417D01*
X-1622050Y-821201D01*
X-1622594Y-820657D01*
X-1623138Y-819569D01*
Y-817936D01*
X-1622594Y-816848D01*
X-1622050Y-816304D01*
X-1620417Y-815760D01*
X-1615520D01*
Y-827187D01*
X-1632225Y-819569D02*
Y-827187D01*
Y-821201D02*
X-1631137Y-820113D01*
X-1630049Y-819569D01*
X-1628416D01*
X-1627328Y-820113D01*
X-1626240Y-821201D01*
X-1625695Y-822834D01*
Y-823922D01*
X-1626240Y-825555D01*
X-1627328Y-826643D01*
X-1628416Y-827187D01*
X-1630049D01*
X-1631137Y-826643D01*
X-1632225Y-825555D01*
X-1641803Y-819569D02*
Y-828276D01*
X-1641259Y-829908D01*
X-1640715Y-830452D01*
X-1639626Y-830996D01*
X-1637994D01*
X-1636905Y-830452D01*
X-1641803Y-821201D02*
X-1640715Y-820113D01*
X-1639626Y-819569D01*
X-1637994D01*
X-1636905Y-820113D01*
X-1635817Y-821201D01*
X-1635273Y-822834D01*
Y-823922D01*
X-1635817Y-825555D01*
X-1636905Y-826643D01*
X-1637994Y-827187D01*
X-1639626D01*
X-1640715Y-826643D01*
X-1641803Y-825555D01*
X-1645939Y-815760D02*
X-1646483Y-816304D01*
X-1647027Y-815760D01*
X-1646483Y-815216D01*
X-1645939Y-815760D01*
X-1646483Y-819569D02*
Y-827187D01*
X-1649040Y-819569D02*
Y-827187D01*
Y-821746D02*
X-1650673Y-820113D01*
X-1651761Y-819569D01*
X-1653394D01*
X-1654482Y-820113D01*
X-1655026Y-821746D01*
Y-827187D01*
X-1664549Y-819569D02*
Y-827187D01*
Y-821201D02*
X-1663461Y-820113D01*
X-1662372Y-819569D01*
X-1660740D01*
X-1659652Y-820113D01*
X-1658563Y-821201D01*
X-1658019Y-822834D01*
Y-823922D01*
X-1658563Y-825555D01*
X-1659652Y-826643D01*
X-1660740Y-827187D01*
X-1662372D01*
X-1663461Y-826643D01*
X-1664549Y-825555D01*
X-1668141Y-819569D02*
X-1667596Y-820113D01*
X-1668141Y-820657D01*
X-1668685Y-820113D01*
X-1668141Y-819569D01*
Y-826099D02*
X-1667596Y-826643D01*
X-1668141Y-827187D01*
X-1668685Y-826643D01*
X-1668141Y-826099D01*
X-1615520Y-731576D02*
X-1620417D01*
X-1622050Y-731031D01*
X-1622594Y-730487D01*
X-1623138Y-729399D01*
Y-727766D01*
X-1622594Y-726678D01*
X-1622050Y-726134D01*
X-1620417Y-725590D01*
X-1615520D01*
Y-737017D01*
X-1625695Y-729399D02*
Y-737017D01*
Y-732664D02*
X-1626240Y-731031D01*
X-1627328Y-729943D01*
X-1628416Y-729399D01*
X-1630049D01*
X-1633804D02*
X-1632715Y-729943D01*
X-1631627Y-731031D01*
X-1631083Y-732664D01*
Y-733752D01*
X-1631627Y-735385D01*
X-1632715Y-736473D01*
X-1633804Y-737017D01*
X-1635436D01*
X-1636524Y-736473D01*
X-1637613Y-735385D01*
X-1638157Y-733752D01*
Y-732664D01*
X-1637613Y-731031D01*
X-1636524Y-729943D01*
X-1635436Y-729399D01*
X-1633804D01*
X-1642837Y-725590D02*
X-1643381Y-726134D01*
X-1643925Y-725590D01*
X-1643381Y-725045D01*
X-1642837Y-725590D01*
X-1643381Y-729399D02*
Y-738650D01*
X-1642837Y-740282D01*
X-1641748Y-740826D01*
X-1640660D01*
X-1646047Y-732664D02*
X-1652577D01*
Y-731576D01*
X-1652033Y-730487D01*
X-1651489Y-729943D01*
X-1650401Y-729399D01*
X-1648768D01*
X-1647680Y-729943D01*
X-1646591Y-731031D01*
X-1646047Y-732664D01*
Y-733752D01*
X-1646591Y-735385D01*
X-1647680Y-736473D01*
X-1648768Y-737017D01*
X-1650401D01*
X-1651489Y-736473D01*
X-1652577Y-735385D01*
X-1656659Y-725590D02*
Y-734841D01*
X-1657203Y-736473D01*
X-1658291Y-737017D01*
X-1659379D01*
X-1655026Y-729399D02*
X-1658835D01*
X-1662100Y-725590D02*
X-1662645Y-726134D01*
X-1663189Y-725590D01*
X-1662645Y-725045D01*
X-1662100Y-725590D01*
X-1662645Y-729399D02*
Y-737017D01*
X-1671188Y-731031D02*
X-1670644Y-729943D01*
X-1669011Y-729399D01*
X-1667379D01*
X-1665746Y-729943D01*
X-1665202Y-731031D01*
X-1665746Y-732120D01*
X-1666835Y-732664D01*
X-1669555Y-733208D01*
X-1670644Y-733752D01*
X-1671188Y-734841D01*
Y-735385D01*
X-1670644Y-736473D01*
X-1669011Y-737017D01*
X-1667379D01*
X-1665746Y-736473D01*
X-1665202Y-735385D01*
X-1675215Y-725590D02*
Y-734841D01*
X-1675759Y-736473D01*
X-1676847Y-737017D01*
X-1677936D01*
X-1673582Y-729399D02*
X-1677392D01*
X-1686098D02*
Y-737017D01*
Y-731031D02*
X-1685010Y-729943D01*
X-1683922Y-729399D01*
X-1682289D01*
X-1681201Y-729943D01*
X-1680112Y-731031D01*
X-1679568Y-732664D01*
Y-733752D01*
X-1680112Y-735385D01*
X-1681201Y-736473D01*
X-1682289Y-737017D01*
X-1683922D01*
X-1685010Y-736473D01*
X-1686098Y-735385D01*
X-1689690Y-729399D02*
X-1689146Y-729943D01*
X-1689690Y-730487D01*
X-1690234Y-729943D01*
X-1689690Y-729399D01*
Y-735929D02*
X-1689146Y-736473D01*
X-1689690Y-737017D01*
X-1690234Y-736473D01*
X-1689690Y-735929D01*
X-1135460Y-842430D02*
Y-853857D01*
Y-842430D02*
X-1142534D01*
X-1135460Y-847871D02*
X-1139813D01*
X-1144928Y-842430D02*
X-1145472Y-842974D01*
X-1146016Y-842430D01*
X-1145472Y-841886D01*
X-1144928Y-842430D01*
X-1145472Y-846239D02*
Y-853857D01*
X-1148030Y-842430D02*
Y-853857D01*
X-1150424Y-849504D02*
X-1156954D01*
Y-848416D01*
X-1156410Y-847327D01*
X-1155866Y-846783D01*
X-1154778Y-846239D01*
X-1153145D01*
X-1152057Y-846783D01*
X-1150968Y-847871D01*
X-1150424Y-849504D01*
Y-850592D01*
X-1150968Y-852225D01*
X-1152057Y-853313D01*
X-1153145Y-853857D01*
X-1154778D01*
X-1155866Y-853313D01*
X-1156954Y-852225D01*
X-1159947Y-846239D02*
X-1159403Y-846783D01*
X-1159947Y-847327D01*
X-1160491Y-846783D01*
X-1159947Y-846239D01*
Y-852769D02*
X-1159403Y-853313D01*
X-1159947Y-853857D01*
X-1160491Y-853313D01*
X-1159947Y-852769D01*
X-1135460Y-814490D02*
Y-825917D01*
Y-814490D02*
X-1139269D01*
X-1140901Y-815034D01*
X-1141990Y-816122D01*
X-1142534Y-817211D01*
X-1143078Y-818843D01*
Y-821564D01*
X-1142534Y-823196D01*
X-1141990Y-824285D01*
X-1140901Y-825373D01*
X-1139269Y-825917D01*
X-1135460D01*
X-1152165Y-818299D02*
Y-825917D01*
Y-819931D02*
X-1151077Y-818843D01*
X-1149989Y-818299D01*
X-1148356D01*
X-1147268Y-818843D01*
X-1146180Y-819931D01*
X-1145635Y-821564D01*
Y-822652D01*
X-1146180Y-824285D01*
X-1147268Y-825373D01*
X-1148356Y-825917D01*
X-1149989D01*
X-1151077Y-825373D01*
X-1152165Y-824285D01*
X-1156845Y-814490D02*
Y-823741D01*
X-1157390Y-825373D01*
X-1158478Y-825917D01*
X-1159566D01*
X-1155213Y-818299D02*
X-1159022D01*
X-1167729D02*
Y-825917D01*
Y-819931D02*
X-1166640Y-818843D01*
X-1165552Y-818299D01*
X-1163920D01*
X-1162831Y-818843D01*
X-1161743Y-819931D01*
X-1161199Y-821564D01*
Y-822652D01*
X-1161743Y-824285D01*
X-1162831Y-825373D01*
X-1163920Y-825917D01*
X-1165552D01*
X-1166640Y-825373D01*
X-1167729Y-824285D01*
X-1171320Y-818299D02*
X-1170776Y-818843D01*
X-1171320Y-819387D01*
X-1171864Y-818843D01*
X-1171320Y-818299D01*
Y-824829D02*
X-1170776Y-825373D01*
X-1171320Y-825917D01*
X-1171864Y-825373D01*
X-1171320Y-824829D01*
X-1309449Y-775120D02*
Y-786547D01*
Y-775120D02*
X-1317068Y-786547D01*
Y-775120D02*
Y-786547D01*
X-1326754Y-778929D02*
Y-786547D01*
Y-780561D02*
X-1325666Y-779473D01*
X-1324577Y-778929D01*
X-1322945D01*
X-1321857Y-779473D01*
X-1320768Y-780561D01*
X-1320224Y-782194D01*
Y-783282D01*
X-1320768Y-784915D01*
X-1321857Y-786003D01*
X-1322945Y-786547D01*
X-1324577D01*
X-1325666Y-786003D01*
X-1326754Y-784915D01*
X-1329801Y-778929D02*
Y-786547D01*
Y-781106D02*
X-1331434Y-779473D01*
X-1332522Y-778929D01*
X-1334155D01*
X-1335243Y-779473D01*
X-1335787Y-781106D01*
Y-786547D01*
Y-781106D02*
X-1337420Y-779473D01*
X-1338508Y-778929D01*
X-1340141D01*
X-1341229Y-779473D01*
X-1341773Y-781106D01*
Y-786547D01*
X-1345365Y-782194D02*
X-1351895D01*
Y-781106D01*
X-1351351Y-780017D01*
X-1350806Y-779473D01*
X-1349718Y-778929D01*
X-1348085D01*
X-1346997Y-779473D01*
X-1345909Y-780561D01*
X-1345365Y-782194D01*
Y-783282D01*
X-1345909Y-784915D01*
X-1346997Y-786003D01*
X-1348085Y-786547D01*
X-1349718D01*
X-1350806Y-786003D01*
X-1351895Y-784915D01*
X-1354888Y-778929D02*
X-1354343Y-779473D01*
X-1354888Y-780017D01*
X-1355432Y-779473D01*
X-1354888Y-778929D01*
Y-785459D02*
X-1354343Y-786003D01*
X-1354888Y-786547D01*
X-1355432Y-786003D01*
X-1354888Y-785459D01*
X-1139269Y-767500D02*
Y-778927D01*
X-1135460Y-767500D02*
X-1143078D01*
X-1150968Y-771309D02*
Y-778927D01*
Y-772941D02*
X-1149880Y-771853D01*
X-1148792Y-771309D01*
X-1147159D01*
X-1146071Y-771853D01*
X-1144982Y-772941D01*
X-1144438Y-774574D01*
Y-775662D01*
X-1144982Y-777295D01*
X-1146071Y-778383D01*
X-1147159Y-778927D01*
X-1148792D01*
X-1149880Y-778383D01*
X-1150968Y-777295D01*
X-1154016Y-771309D02*
Y-778927D01*
Y-773486D02*
X-1155648Y-771853D01*
X-1156737Y-771309D01*
X-1158369D01*
X-1159457Y-771853D01*
X-1160002Y-773486D01*
Y-778927D01*
Y-773486D02*
X-1161634Y-771853D01*
X-1162722Y-771309D01*
X-1164355D01*
X-1165443Y-771853D01*
X-1165987Y-773486D01*
Y-778927D01*
X-1176109Y-771309D02*
Y-778927D01*
Y-772941D02*
X-1175021Y-771853D01*
X-1173932Y-771309D01*
X-1172300D01*
X-1171211Y-771853D01*
X-1170123Y-772941D01*
X-1169579Y-774574D01*
Y-775662D01*
X-1170123Y-777295D01*
X-1171211Y-778383D01*
X-1172300Y-778927D01*
X-1173932D01*
X-1175021Y-778383D01*
X-1176109Y-777295D01*
X-1179156Y-771309D02*
Y-778927D01*
Y-773486D02*
X-1180789Y-771853D01*
X-1181877Y-771309D01*
X-1183510D01*
X-1184598Y-771853D01*
X-1185142Y-773486D01*
Y-778927D01*
X-1188135Y-767500D02*
Y-778927D01*
Y-773486D02*
X-1189768Y-771853D01*
X-1190856Y-771309D01*
X-1192488D01*
X-1193577Y-771853D01*
X-1194121Y-773486D01*
Y-778927D01*
X-1199835Y-771309D02*
X-1198746Y-771853D01*
X-1197658Y-772941D01*
X-1197114Y-774574D01*
Y-775662D01*
X-1197658Y-777295D01*
X-1198746Y-778383D01*
X-1199835Y-778927D01*
X-1201467D01*
X-1202555Y-778383D01*
X-1203644Y-777295D01*
X-1204188Y-775662D01*
Y-774574D01*
X-1203644Y-772941D01*
X-1202555Y-771853D01*
X-1201467Y-771309D01*
X-1199835D01*
X-1207235D02*
X-1206691Y-771853D01*
X-1207235Y-772397D01*
X-1207780Y-771853D01*
X-1207235Y-771309D01*
Y-777839D02*
X-1206691Y-778383D01*
X-1207235Y-778927D01*
X-1207780Y-778383D01*
X-1207235Y-777839D01*
X-1135460Y-735386D02*
X-1140357D01*
X-1141990Y-734841D01*
X-1142534Y-734297D01*
X-1143078Y-733209D01*
Y-731576D01*
X-1142534Y-730488D01*
X-1141990Y-729944D01*
X-1140357Y-729400D01*
X-1135460D01*
Y-740827D01*
X-1145635Y-733209D02*
Y-740827D01*
Y-736474D02*
X-1146180Y-734841D01*
X-1147268Y-733753D01*
X-1148356Y-733209D01*
X-1149989D01*
X-1153744D02*
X-1152655Y-733753D01*
X-1151567Y-734841D01*
X-1151023Y-736474D01*
Y-737562D01*
X-1151567Y-739195D01*
X-1152655Y-740283D01*
X-1153744Y-740827D01*
X-1155376D01*
X-1156464Y-740283D01*
X-1157553Y-739195D01*
X-1158097Y-737562D01*
Y-736474D01*
X-1157553Y-734841D01*
X-1156464Y-733753D01*
X-1155376Y-733209D01*
X-1153744D01*
X-1162777Y-729400D02*
X-1163321Y-729944D01*
X-1163865Y-729400D01*
X-1163321Y-728856D01*
X-1162777Y-729400D01*
X-1163321Y-733209D02*
Y-742460D01*
X-1162777Y-744092D01*
X-1161688Y-744637D01*
X-1160600D01*
X-1165987Y-736474D02*
X-1172517D01*
Y-735386D01*
X-1171973Y-734297D01*
X-1171429Y-733753D01*
X-1170341Y-733209D01*
X-1168708D01*
X-1167620Y-733753D01*
X-1166532Y-734841D01*
X-1165987Y-736474D01*
Y-737562D01*
X-1166532Y-739195D01*
X-1167620Y-740283D01*
X-1168708Y-740827D01*
X-1170341D01*
X-1171429Y-740283D01*
X-1172517Y-739195D01*
X-1176599Y-729400D02*
Y-738651D01*
X-1177143Y-740283D01*
X-1178231Y-740827D01*
X-1179320D01*
X-1174966Y-733209D02*
X-1178775D01*
X-1183673D02*
X-1182585Y-733753D01*
X-1181496Y-734841D01*
X-1180952Y-736474D01*
Y-737562D01*
X-1181496Y-739195D01*
X-1182585Y-740283D01*
X-1183673Y-740827D01*
X-1185305D01*
X-1186394Y-740283D01*
X-1187482Y-739195D01*
X-1188026Y-737562D01*
Y-736474D01*
X-1187482Y-734841D01*
X-1186394Y-733753D01*
X-1185305Y-733209D01*
X-1183673D01*
X-1191074D02*
X-1190529Y-733753D01*
X-1191074Y-734297D01*
X-1191618Y-733753D01*
X-1191074Y-733209D01*
Y-739739D02*
X-1190529Y-740283D01*
X-1191074Y-740827D01*
X-1191618Y-740283D01*
X-1191074Y-739739D01*
D59*
X-733109Y547554D02*
X-722952D01*
Y539937D01*
X-728031Y542476D01*
X-730570D01*
X-733109Y539937D01*
Y534859D01*
X-730570Y532319D01*
X-725492D01*
X-722952Y534859D01*
X-748344Y547554D02*
X-738187D01*
Y539937D01*
X-743266Y542476D01*
X-745805D01*
X-748344Y539937D01*
Y534859D01*
X-745805Y532319D01*
X-740727D01*
X-738187Y534859D01*
X-755962Y529780D02*
X-758501Y532319D01*
Y534859D01*
X-755962D01*
Y532319D01*
X-758501D01*
X-755962Y529780D01*
X-753422Y527241D01*
X-768658Y545015D02*
X-771197Y547554D01*
X-776275D01*
X-778814Y545015D01*
Y534859D01*
X-776275Y532319D01*
X-771197D01*
X-768658Y534859D01*
Y545015D01*
X-783893D02*
X-786432Y547554D01*
X-791510D01*
X-794049Y545015D01*
Y534859D01*
X-791510Y532319D01*
X-786432D01*
X-783893Y534859D01*
Y545015D01*
X-799128Y532319D02*
Y542476D01*
X-801667D01*
X-804206Y539937D01*
Y532319D01*
Y539937D01*
X-806745Y542476D01*
X-809285Y539937D01*
Y532319D01*
X-814363D02*
Y542476D01*
X-816902D01*
X-819441Y539937D01*
Y532319D01*
Y539937D01*
X-821980Y542476D01*
X-824520Y539937D01*
Y532319D01*
X-1102246Y205309D02*
Y195152D01*
X-1109863D01*
X-1107324Y200231D01*
Y202770D01*
X-1109863Y205309D01*
X-1114941D01*
X-1117481Y202770D01*
Y197692D01*
X-1114941Y195152D01*
X-1104785Y210387D02*
X-1102246Y212927D01*
Y218005D01*
X-1104785Y220544D01*
X-1114941D01*
X-1117481Y218005D01*
Y212927D01*
X-1114941Y210387D01*
X-1104785D01*
X-1120020Y228162D02*
X-1117481Y230701D01*
X-1114941D01*
Y228162D01*
X-1117481D01*
Y230701D01*
X-1120020Y228162D01*
X-1122559Y225623D01*
X-1104785Y240858D02*
X-1102246Y243397D01*
Y248475D01*
X-1104785Y251014D01*
X-1114941D01*
X-1117481Y248475D01*
Y243397D01*
X-1114941Y240858D01*
X-1104785D01*
Y256093D02*
X-1102246Y258632D01*
Y263710D01*
X-1104785Y266249D01*
X-1114941D01*
X-1117481Y263710D01*
Y258632D01*
X-1114941Y256093D01*
X-1104785D01*
X-1117481Y271328D02*
X-1107324D01*
Y273867D01*
X-1109863Y276406D01*
X-1117481D01*
X-1109863D01*
X-1107324Y278945D01*
X-1109863Y281485D01*
X-1117481D01*
Y286563D02*
X-1107324D01*
Y289102D01*
X-1109863Y291641D01*
X-1117481D01*
X-1109863D01*
X-1107324Y294180D01*
X-1109863Y296720D01*
X-1117481D01*
D60*
X-1761399Y-817337D02*
X-1763092Y-816490D01*
X-1765632Y-813951D01*
Y-831727D01*
X-1701399Y-817337D02*
X-1703092Y-816490D01*
X-1705632Y-813951D01*
Y-831727D01*
X-1710344Y-721781D02*
X-1699339D01*
Y-739557D01*
X-1710344D01*
X-1699339Y-730246D02*
X-1706111D01*
X-1713306Y-721781D02*
Y-739557D01*
Y-721781D02*
X-1725157Y-739557D01*
Y-721781D02*
Y-739557D01*
X-1742764Y-726013D02*
X-1741918Y-724321D01*
X-1740225Y-722628D01*
X-1738532Y-721781D01*
X-1735146D01*
X-1733453Y-722628D01*
X-1731760Y-724321D01*
X-1730913Y-726013D01*
X-1730067Y-728553D01*
Y-732785D01*
X-1730913Y-735325D01*
X-1731760Y-737018D01*
X-1733453Y-738711D01*
X-1735146Y-739557D01*
X-1738532D01*
X-1740225Y-738711D01*
X-1741918Y-737018D01*
X-1742764Y-735325D01*
Y-732785D01*
X-1738532D02*
X-1742764D01*
X-1757832Y-721781D02*
X-1746827D01*
Y-739557D01*
X-1757832D01*
X-1746827Y-730246D02*
X-1753599D01*
X-1760794Y-721781D02*
Y-739557D01*
Y-721781D02*
X-1772645Y-739557D01*
Y-721781D02*
Y-739557D01*
X-1777555Y-721781D02*
Y-739557D01*
X-1789406Y-721781D02*
Y-739557D01*
X-1777555Y-730246D02*
X-1789406D01*
X-1807859Y-739557D02*
X-1801087Y-721781D01*
X-1794315Y-739557D01*
X-1796855Y-733632D02*
X-1805319D01*
X-1812007Y-721781D02*
Y-739557D01*
Y-721781D02*
X-1819625D01*
X-1822164Y-722628D01*
X-1823011Y-723474D01*
X-1823858Y-725167D01*
Y-726860D01*
X-1823011Y-728553D01*
X-1822164Y-729399D01*
X-1819625Y-730246D01*
X-1812007D01*
X-1817932D02*
X-1823858Y-739557D01*
X-1827836Y-721781D02*
Y-739557D01*
X-1845104D02*
X-1838332Y-721781D01*
X-1831561Y-739557D01*
X-1834100Y-733632D02*
X-1842565D01*
X-1849252Y-731939D02*
X-1864489D01*
X-1874816Y-721781D02*
X-1872276Y-722628D01*
X-1870583Y-725167D01*
X-1869737Y-729399D01*
Y-731939D01*
X-1870583Y-736171D01*
X-1872276Y-738711D01*
X-1874816Y-739557D01*
X-1876509D01*
X-1879048Y-738711D01*
X-1880741Y-736171D01*
X-1881588Y-731939D01*
Y-729399D01*
X-1880741Y-725167D01*
X-1879048Y-722628D01*
X-1876509Y-721781D01*
X-1874816D01*
X-1895724Y-724321D02*
X-1894878Y-722628D01*
X-1892338Y-721781D01*
X-1890645D01*
X-1888106Y-722628D01*
X-1886413Y-725167D01*
X-1885566Y-729399D01*
Y-733632D01*
X-1886413Y-737018D01*
X-1888106Y-738711D01*
X-1890645Y-739557D01*
X-1891492D01*
X-1894031Y-738711D01*
X-1895724Y-737018D01*
X-1896570Y-734478D01*
Y-733632D01*
X-1895724Y-731092D01*
X-1894031Y-729399D01*
X-1891492Y-728553D01*
X-1890645D01*
X-1888106Y-729399D01*
X-1886413Y-731092D01*
X-1885566Y-733632D01*
X-1184399Y-816587D02*
X-1185828Y-815873D01*
X-1187970Y-813730D01*
Y-828727D01*
X-1203967Y-815873D02*
X-1203253Y-814445D01*
X-1201110Y-813730D01*
X-1199682D01*
X-1197540Y-814445D01*
X-1196111Y-816587D01*
X-1195397Y-820158D01*
Y-823728D01*
X-1196111Y-826585D01*
X-1197540Y-828013D01*
X-1199682Y-828727D01*
X-1200396D01*
X-1202538Y-828013D01*
X-1203967Y-826585D01*
X-1204681Y-824443D01*
Y-823728D01*
X-1203967Y-821586D01*
X-1202538Y-820158D01*
X-1200396Y-819444D01*
X-1199682D01*
X-1197540Y-820158D01*
X-1196111Y-821586D01*
X-1195397Y-823728D01*
X-1207966Y-830870D02*
X-1217964Y-813730D01*
X-1223248D02*
X-1221106Y-814445D01*
X-1219678Y-816587D01*
X-1218963Y-820158D01*
Y-822300D01*
X-1219678Y-825871D01*
X-1221106Y-828013D01*
X-1223248Y-828727D01*
X-1224677D01*
X-1226819Y-828013D01*
X-1228247Y-825871D01*
X-1228961Y-822300D01*
Y-820158D01*
X-1228247Y-816587D01*
X-1226819Y-814445D01*
X-1224677Y-813730D01*
X-1223248D01*
X-1240887D02*
X-1233746D01*
X-1233032Y-820158D01*
X-1233746Y-819444D01*
X-1235888Y-818729D01*
X-1238031D01*
X-1240173Y-819444D01*
X-1241601Y-820872D01*
X-1242316Y-823014D01*
Y-824443D01*
X-1241601Y-826585D01*
X-1240173Y-828013D01*
X-1238031Y-828727D01*
X-1235888D01*
X-1233746Y-828013D01*
X-1233032Y-827299D01*
X-1232318Y-825871D01*
X-1245672Y-830870D02*
X-1255670Y-813730D01*
X-1257384Y-817301D02*
Y-816587D01*
X-1258098Y-815159D01*
X-1258812Y-814445D01*
X-1260240Y-813730D01*
X-1263097D01*
X-1264525Y-814445D01*
X-1265239Y-815159D01*
X-1265953Y-816587D01*
Y-818015D01*
X-1265239Y-819444D01*
X-1263811Y-821586D01*
X-1256670Y-828727D01*
X-1266667D01*
X-1274309Y-813730D02*
X-1272166Y-814445D01*
X-1270738Y-816587D01*
X-1270024Y-820158D01*
Y-822300D01*
X-1270738Y-825871D01*
X-1272166Y-828013D01*
X-1274309Y-828727D01*
X-1275737D01*
X-1277879Y-828013D01*
X-1279308Y-825871D01*
X-1280022Y-822300D01*
Y-820158D01*
X-1279308Y-816587D01*
X-1277879Y-814445D01*
X-1275737Y-813730D01*
X-1274309D01*
X-1283378Y-816587D02*
X-1284807Y-815873D01*
X-1286949Y-813730D01*
Y-828727D01*
X-1302946Y-815873D02*
X-1302231Y-814445D01*
X-1300089Y-813730D01*
X-1298661D01*
X-1296518Y-814445D01*
X-1295090Y-816587D01*
X-1294376Y-820158D01*
Y-823728D01*
X-1295090Y-826585D01*
X-1296518Y-828013D01*
X-1298661Y-828727D01*
X-1299375D01*
X-1301517Y-828013D01*
X-1302946Y-826585D01*
X-1303660Y-824443D01*
Y-823728D01*
X-1302946Y-821586D01*
X-1301517Y-820158D01*
X-1299375Y-819444D01*
X-1298661D01*
X-1296518Y-820158D01*
X-1295090Y-821586D01*
X-1294376Y-823728D01*
X-1377603Y-792581D02*
X-1370831Y-774805D01*
X-1364059Y-792581D01*
X-1366599Y-786656D02*
X-1375064D01*
X-1381751Y-780730D02*
Y-792581D01*
Y-785809D02*
X-1382598Y-783270D01*
X-1384290Y-781577D01*
X-1385983Y-780730D01*
X-1388523D01*
X-1400289Y-774805D02*
Y-792581D01*
Y-783270D02*
X-1398596Y-781577D01*
X-1396903Y-780730D01*
X-1394364D01*
X-1392671Y-781577D01*
X-1390978Y-783270D01*
X-1390131Y-785809D01*
Y-787502D01*
X-1390978Y-790041D01*
X-1392671Y-791734D01*
X-1394364Y-792581D01*
X-1396903D01*
X-1398596Y-791734D01*
X-1400289Y-790041D01*
X-1405029Y-780730D02*
Y-789195D01*
X-1405876Y-791734D01*
X-1407569Y-792581D01*
X-1410108D01*
X-1411801Y-791734D01*
X-1414341Y-789195D01*
Y-780730D02*
Y-792581D01*
X-1420689Y-774805D02*
X-1421536Y-775651D01*
X-1422382Y-774805D01*
X-1421536Y-773958D01*
X-1420689Y-774805D01*
X-1421536Y-780730D02*
Y-792581D01*
X-1425514Y-780730D02*
Y-792581D01*
Y-784116D02*
X-1428054Y-781577D01*
X-1429747Y-780730D01*
X-1432286D01*
X-1433979Y-781577D01*
X-1434826Y-784116D01*
Y-792581D01*
X-1443714Y-780730D02*
X-1442021Y-781577D01*
X-1440328Y-783270D01*
X-1439481Y-785809D01*
Y-787502D01*
X-1440328Y-790041D01*
X-1442021Y-791734D01*
X-1443714Y-792581D01*
X-1446253D01*
X-1447946Y-791734D01*
X-1449639Y-790041D01*
X-1450486Y-787502D01*
Y-785809D01*
X-1449639Y-783270D01*
X-1447946Y-781577D01*
X-1446253Y-780730D01*
X-1443714D01*
X-1481044Y-779037D02*
X-1480197Y-777344D01*
X-1478504Y-775651D01*
X-1476811Y-774805D01*
X-1473425D01*
X-1471732Y-775651D01*
X-1470039Y-777344D01*
X-1469193Y-779037D01*
X-1468346Y-781577D01*
Y-785809D01*
X-1469193Y-788348D01*
X-1470039Y-790041D01*
X-1471732Y-791734D01*
X-1473425Y-792581D01*
X-1476811D01*
X-1478504Y-791734D01*
X-1480197Y-790041D01*
X-1481044Y-788348D01*
X-1490270Y-780730D02*
X-1488577Y-781577D01*
X-1486884Y-783270D01*
X-1486038Y-785809D01*
Y-787502D01*
X-1486884Y-790041D01*
X-1488577Y-791734D01*
X-1490270Y-792581D01*
X-1492810D01*
X-1494503Y-791734D01*
X-1496196Y-790041D01*
X-1497042Y-787502D01*
Y-785809D01*
X-1496196Y-783270D01*
X-1494503Y-781577D01*
X-1492810Y-780730D01*
X-1490270D01*
X-1500936D02*
Y-792581D01*
Y-784116D02*
X-1503476Y-781577D01*
X-1505168Y-780730D01*
X-1507708D01*
X-1509401Y-781577D01*
X-1510247Y-784116D01*
Y-792581D01*
X-1515750Y-790888D02*
X-1514903Y-791734D01*
X-1515750Y-792581D01*
X-1516596Y-791734D01*
X-1515750Y-790888D01*
X-1520490Y-784116D02*
X-1528108D01*
X-1530648Y-783270D01*
X-1531494Y-782423D01*
X-1532341Y-780730D01*
Y-778191D01*
X-1531494Y-776498D01*
X-1530648Y-775651D01*
X-1528108Y-774805D01*
X-1520490D01*
Y-792581D01*
X-1546477Y-783270D02*
X-1544784Y-781577D01*
X-1543091Y-780730D01*
X-1540552D01*
X-1538859Y-781577D01*
X-1537166Y-783270D01*
X-1536319Y-785809D01*
Y-787502D01*
X-1537166Y-790041D01*
X-1538859Y-791734D01*
X-1540552Y-792581D01*
X-1543091D01*
X-1544784Y-791734D01*
X-1546477Y-790041D01*
X-1550286Y-774805D02*
Y-792581D01*
Y-783270D02*
X-1551979Y-781577D01*
X-1553672Y-780730D01*
X-1556212D01*
X-1557905Y-781577D01*
X-1559597Y-783270D01*
X-1560444Y-785809D01*
Y-787502D01*
X-1559597Y-790041D01*
X-1557905Y-791734D01*
X-1556212Y-792581D01*
X-1553672D01*
X-1551979Y-791734D01*
X-1550286Y-790041D01*
X-1564253Y-774805D02*
Y-792581D01*
Y-774805D02*
X-1570179D01*
X-1572718Y-775651D01*
X-1574411Y-777344D01*
X-1575258Y-779037D01*
X-1576104Y-781577D01*
Y-785809D01*
X-1575258Y-788348D01*
X-1574411Y-790041D01*
X-1572718Y-791734D01*
X-1570179Y-792581D01*
X-1564253D01*
X-1584315Y-780730D02*
X-1582622Y-781577D01*
X-1580929Y-783270D01*
X-1580083Y-785809D01*
Y-787502D01*
X-1580929Y-790041D01*
X-1582622Y-791734D01*
X-1584315Y-792581D01*
X-1586854D01*
X-1588547Y-791734D01*
X-1590240Y-790041D01*
X-1591087Y-787502D01*
Y-785809D01*
X-1590240Y-783270D01*
X-1588547Y-781577D01*
X-1586854Y-780730D01*
X-1584315D01*
X-1605138Y-783270D02*
X-1603445Y-781577D01*
X-1601752Y-780730D01*
X-1599213D01*
X-1597520Y-781577D01*
X-1595827Y-783270D01*
X-1594981Y-785809D01*
Y-787502D01*
X-1595827Y-790041D01*
X-1597520Y-791734D01*
X-1599213Y-792581D01*
X-1601752D01*
X-1603445Y-791734D01*
X-1605138Y-790041D01*
X-1232823Y-799247D02*
X-1226051Y-781471D01*
X-1219279Y-799247D01*
X-1221819Y-793322D02*
X-1230284D01*
X-1245436Y-781471D02*
X-1236971Y-793322D01*
X-1249668D01*
X-1245436Y-781471D02*
Y-799247D01*
X-1220123Y-742097D02*
X-1213351Y-724321D01*
X-1206580Y-742097D01*
X-1209119Y-736172D02*
X-1217584D01*
X-1224271Y-730247D02*
Y-742097D01*
Y-735325D02*
X-1225117Y-732786D01*
X-1226810Y-731093D01*
X-1228503Y-730247D01*
X-1231043D01*
X-1242809Y-724321D02*
Y-742097D01*
Y-732786D02*
X-1241116Y-731093D01*
X-1239423Y-730247D01*
X-1236884D01*
X-1235191Y-731093D01*
X-1233498Y-732786D01*
X-1232651Y-735325D01*
Y-737018D01*
X-1233498Y-739558D01*
X-1235191Y-741251D01*
X-1236884Y-742097D01*
X-1239423D01*
X-1241116Y-741251D01*
X-1242809Y-739558D01*
X-1247549Y-730247D02*
Y-738711D01*
X-1248396Y-741251D01*
X-1250089Y-742097D01*
X-1252628D01*
X-1254321Y-741251D01*
X-1256861Y-738711D01*
Y-730247D02*
Y-742097D01*
X-1263209Y-724321D02*
X-1264056Y-725168D01*
X-1264902Y-724321D01*
X-1264056Y-723475D01*
X-1263209Y-724321D01*
X-1264056Y-730247D02*
Y-742097D01*
X-1268034Y-730247D02*
Y-742097D01*
Y-733632D02*
X-1270574Y-731093D01*
X-1272267Y-730247D01*
X-1274806D01*
X-1276499Y-731093D01*
X-1277346Y-733632D01*
Y-742097D01*
X-1286234Y-730247D02*
X-1284541Y-731093D01*
X-1282848Y-732786D01*
X-1282001Y-735325D01*
Y-737018D01*
X-1282848Y-739558D01*
X-1284541Y-741251D01*
X-1286234Y-742097D01*
X-1288773D01*
X-1290466Y-741251D01*
X-1292159Y-739558D01*
X-1293006Y-737018D01*
Y-735325D01*
X-1292159Y-732786D01*
X-1290466Y-731093D01*
X-1288773Y-730247D01*
X-1286234D01*
X-1323564Y-728553D02*
X-1322717Y-726861D01*
X-1321024Y-725168D01*
X-1319331Y-724321D01*
X-1315945D01*
X-1314252Y-725168D01*
X-1312559Y-726861D01*
X-1311713Y-728553D01*
X-1310866Y-731093D01*
Y-735325D01*
X-1311713Y-737865D01*
X-1312559Y-739558D01*
X-1314252Y-741251D01*
X-1315945Y-742097D01*
X-1319331D01*
X-1321024Y-741251D01*
X-1322717Y-739558D01*
X-1323564Y-737865D01*
X-1332790Y-730247D02*
X-1331097Y-731093D01*
X-1329404Y-732786D01*
X-1328558Y-735325D01*
Y-737018D01*
X-1329404Y-739558D01*
X-1331097Y-741251D01*
X-1332790Y-742097D01*
X-1335330D01*
X-1337023Y-741251D01*
X-1338716Y-739558D01*
X-1339562Y-737018D01*
Y-735325D01*
X-1338716Y-732786D01*
X-1337023Y-731093D01*
X-1335330Y-730247D01*
X-1332790D01*
X-1343456D02*
Y-742097D01*
Y-733632D02*
X-1345996Y-731093D01*
X-1347688Y-730247D01*
X-1350228D01*
X-1351921Y-731093D01*
X-1352767Y-733632D01*
Y-742097D01*
X-1358270Y-740404D02*
X-1357423Y-741251D01*
X-1358270Y-742097D01*
X-1359116Y-741251D01*
X-1358270Y-740404D01*
X-1363010Y-733632D02*
X-1370628D01*
X-1373168Y-732786D01*
X-1374014Y-731939D01*
X-1374861Y-730247D01*
Y-727707D01*
X-1374014Y-726014D01*
X-1373168Y-725168D01*
X-1370628Y-724321D01*
X-1363010D01*
Y-742097D01*
X-1388997Y-732786D02*
X-1387304Y-731093D01*
X-1385611Y-730247D01*
X-1383072D01*
X-1381379Y-731093D01*
X-1379686Y-732786D01*
X-1378839Y-735325D01*
Y-737018D01*
X-1379686Y-739558D01*
X-1381379Y-741251D01*
X-1383072Y-742097D01*
X-1385611D01*
X-1387304Y-741251D01*
X-1388997Y-739558D01*
X-1392806Y-724321D02*
Y-742097D01*
Y-732786D02*
X-1394499Y-731093D01*
X-1396192Y-730247D01*
X-1398732D01*
X-1400425Y-731093D01*
X-1402117Y-732786D01*
X-1402964Y-735325D01*
Y-737018D01*
X-1402117Y-739558D01*
X-1400425Y-741251D01*
X-1398732Y-742097D01*
X-1396192D01*
X-1394499Y-741251D01*
X-1392806Y-739558D01*
X-1406773Y-724321D02*
Y-742097D01*
Y-724321D02*
X-1412699D01*
X-1415238Y-725168D01*
X-1416931Y-726861D01*
X-1417778Y-728553D01*
X-1418624Y-731093D01*
Y-735325D01*
X-1417778Y-737865D01*
X-1416931Y-739558D01*
X-1415238Y-741251D01*
X-1412699Y-742097D01*
X-1406773D01*
X-1426835Y-730247D02*
X-1425142Y-731093D01*
X-1423449Y-732786D01*
X-1422603Y-735325D01*
Y-737018D01*
X-1423449Y-739558D01*
X-1425142Y-741251D01*
X-1426835Y-742097D01*
X-1429374D01*
X-1431067Y-741251D01*
X-1432760Y-739558D01*
X-1433607Y-737018D01*
Y-735325D01*
X-1432760Y-732786D01*
X-1431067Y-731093D01*
X-1429374Y-730247D01*
X-1426835D01*
X-1447658Y-732786D02*
X-1445966Y-731093D01*
X-1444272Y-730247D01*
X-1441733D01*
X-1440040Y-731093D01*
X-1438347Y-732786D01*
X-1437501Y-735325D01*
Y-737018D01*
X-1438347Y-739558D01*
X-1440040Y-741251D01*
X-1441733Y-742097D01*
X-1444272D01*
X-1445966Y-741251D01*
X-1447658Y-739558D01*
X-1611537Y-891600D02*
Y-873826D01*
X-1602650Y-882713D01*
X-1614500D01*
X-885150Y-876788D02*
X-888112Y-873826D01*
X-894037D01*
X-897000Y-876788D01*
Y-879751D01*
X-894037Y-882713D01*
X-891075D01*
X-894037D01*
X-897000Y-885675D01*
Y-888638D01*
X-894037Y-891600D01*
X-888112D01*
X-885150Y-888638D01*
X875056Y838400D02*
X881828Y856176D01*
X888600Y838400D01*
X886060Y844325D02*
X877596D01*
X888600Y356176D02*
Y338400D01*
Y356176D02*
X880982D01*
X878442Y355330D01*
X877596Y354483D01*
X876749Y352790D01*
Y351097D01*
X877596Y349404D01*
X878442Y348558D01*
X880982Y347711D01*
X888600D02*
X880982D01*
X878442Y346865D01*
X877596Y346018D01*
X876749Y344325D01*
Y341786D01*
X877596Y340093D01*
X878442Y339246D01*
X880982Y338400D01*
X888600D01*
X875903Y-148056D02*
X876749Y-146363D01*
X878442Y-144670D01*
X880135Y-143824D01*
X883521D01*
X885214Y-144670D01*
X886907Y-146363D01*
X887754Y-148056D01*
X888600Y-150596D01*
Y-154828D01*
X887754Y-157368D01*
X886907Y-159060D01*
X885214Y-160753D01*
X883521Y-161600D01*
X880135D01*
X878442Y-160753D01*
X876749Y-159060D01*
X875903Y-157368D01*
X888600Y-643824D02*
Y-661600D01*
Y-643824D02*
X882675D01*
X880135Y-644670D01*
X878442Y-646363D01*
X877596Y-648056D01*
X876749Y-650596D01*
Y-654828D01*
X877596Y-657368D01*
X878442Y-659061D01*
X880135Y-660753D01*
X882675Y-661600D01*
X888600D01*
X549900Y-877210D02*
X548207Y-876363D01*
X545668Y-873824D01*
Y-891600D01*
X-179499D02*
X-167650D01*
X-179499Y-879751D01*
Y-876788D01*
X-176537Y-873826D01*
X-170612D01*
X-167650Y-876788D01*
X-1931400Y-643824D02*
Y-661600D01*
Y-643824D02*
X-1937325D01*
X-1939865Y-644670D01*
X-1941558Y-646363D01*
X-1942404Y-648056D01*
X-1943251Y-650596D01*
Y-654828D01*
X-1942404Y-657368D01*
X-1941558Y-659061D01*
X-1939865Y-660753D01*
X-1937325Y-661600D01*
X-1931400D01*
X-1944097Y-148056D02*
X-1943251Y-146363D01*
X-1941558Y-144670D01*
X-1939865Y-143824D01*
X-1936479D01*
X-1934786Y-144670D01*
X-1933093Y-146363D01*
X-1932247Y-148056D01*
X-1931400Y-150596D01*
Y-154828D01*
X-1932247Y-157368D01*
X-1933093Y-159060D01*
X-1934786Y-160753D01*
X-1936479Y-161600D01*
X-1939865D01*
X-1941558Y-160753D01*
X-1943251Y-159060D01*
X-1944097Y-157368D01*
X549900Y1072790D02*
X548207Y1073637D01*
X545668Y1076176D01*
Y1058400D01*
X-168496Y1071944D02*
Y1072790D01*
X-169343Y1074483D01*
X-170189Y1075330D01*
X-171882Y1076176D01*
X-175268D01*
X-176961Y1075330D01*
X-177808Y1074483D01*
X-178654Y1072790D01*
Y1071097D01*
X-177808Y1069404D01*
X-176115Y1066865D01*
X-167650Y1058400D01*
X-179501D01*
X-886843Y1076176D02*
X-896154D01*
X-891075Y1069404D01*
X-893615D01*
X-895308Y1068558D01*
X-896154Y1067711D01*
X-897001Y1065172D01*
Y1063479D01*
X-896154Y1060939D01*
X-894461Y1059247D01*
X-891922Y1058400D01*
X-889382D01*
X-886843Y1059247D01*
X-885996Y1060093D01*
X-885150Y1061786D01*
X-1611115Y1076176D02*
X-1602650Y1064325D01*
X-1615347D01*
X-1611115Y1076176D02*
Y1058400D01*
X-1944944Y838400D02*
X-1938172Y856176D01*
X-1931400Y838400D01*
X-1933940Y844325D02*
X-1942404D01*
X-1931400Y356176D02*
Y338400D01*
Y356176D02*
X-1939018D01*
X-1941558Y355330D01*
X-1942404Y354483D01*
X-1943251Y352790D01*
Y351097D01*
X-1942404Y349404D01*
X-1941558Y348558D01*
X-1939018Y347711D01*
X-1931400D02*
X-1939018D01*
X-1941558Y346865D01*
X-1942404Y346018D01*
X-1943251Y344325D01*
Y341786D01*
X-1942404Y340093D01*
X-1941558Y339246D01*
X-1939018Y338400D01*
X-1931400D01*
D61*
X-1184397Y-843063D02*
X-1183731Y-841730D01*
X-1182398Y-840397D01*
X-1181065Y-839730D01*
X-1178399D01*
X-1177066Y-840397D01*
X-1175732Y-841730D01*
X-1175066Y-843063D01*
X-1174399Y-845062D01*
Y-848395D01*
X-1175066Y-850395D01*
X-1175732Y-851728D01*
X-1177066Y-853061D01*
X-1178399Y-853727D01*
X-1181065D01*
X-1182398Y-853061D01*
X-1183731Y-851728D01*
X-1184397Y-850395D01*
X-1188996Y-844396D02*
X-1188330Y-845062D01*
X-1188996Y-845729D01*
X-1189663Y-845062D01*
X-1188996Y-844396D01*
Y-852394D02*
X-1188330Y-853061D01*
X-1188996Y-853727D01*
X-1189663Y-853061D01*
X-1188996Y-852394D01*
X-1192729Y-839730D02*
X-1202060Y-855727D01*
X-1202993Y-839730D02*
Y-849728D01*
X-1203660Y-851728D01*
X-1204993Y-853061D01*
X-1206992Y-853727D01*
X-1208326D01*
X-1210325Y-853061D01*
X-1211658Y-851728D01*
X-1212325Y-849728D01*
Y-839730D01*
X-1223522Y-846395D02*
X-1222856Y-845062D01*
X-1220856Y-844396D01*
X-1218857D01*
X-1216857Y-845062D01*
X-1216190Y-846395D01*
X-1216857Y-847729D01*
X-1218190Y-848395D01*
X-1221523Y-849062D01*
X-1222856Y-849728D01*
X-1223522Y-851061D01*
Y-851728D01*
X-1222856Y-853061D01*
X-1220856Y-853727D01*
X-1218857D01*
X-1216857Y-853061D01*
X-1216190Y-851728D01*
X-1226455Y-848395D02*
X-1234453D01*
Y-847062D01*
X-1233787Y-845729D01*
X-1233120Y-845062D01*
X-1231787Y-844396D01*
X-1229788D01*
X-1228455Y-845062D01*
X-1227122Y-846395D01*
X-1226455Y-848395D01*
Y-849728D01*
X-1227122Y-851728D01*
X-1228455Y-853061D01*
X-1229788Y-853727D01*
X-1231787D01*
X-1233120Y-853061D01*
X-1234453Y-851728D01*
X-1237453Y-844396D02*
Y-853727D01*
Y-848395D02*
X-1238119Y-846395D01*
X-1239452Y-845062D01*
X-1240785Y-844396D01*
X-1242785D01*
X-1251383Y-846395D02*
X-1250716Y-845062D01*
X-1248717Y-844396D01*
X-1246717D01*
X-1244718Y-845062D01*
X-1244051Y-846395D01*
X-1244718Y-847729D01*
X-1246051Y-848395D01*
X-1249383Y-849062D01*
X-1250716Y-849728D01*
X-1251383Y-851061D01*
Y-851728D01*
X-1250716Y-853061D01*
X-1248717Y-853727D01*
X-1246717D01*
X-1244718Y-853061D01*
X-1244051Y-851728D01*
X-1254316Y-839730D02*
X-1263647Y-855727D01*
X-1264580Y-839730D02*
Y-853727D01*
Y-847062D02*
X-1266580Y-845062D01*
X-1267913Y-844396D01*
X-1269912D01*
X-1271245Y-845062D01*
X-1271912Y-847062D01*
Y-853727D01*
X-1275578Y-839730D02*
Y-853727D01*
X-1282243Y-844396D02*
X-1275578Y-851061D01*
X-1278244Y-848395D02*
X-1282910Y-853727D01*
X-1285109Y-844396D02*
Y-853727D01*
Y-848395D02*
X-1285776Y-846395D01*
X-1287109Y-845062D01*
X-1288442Y-844396D01*
X-1290441D01*
X-1299706D02*
Y-853727D01*
Y-846395D02*
X-1298373Y-845062D01*
X-1297040Y-844396D01*
X-1295040D01*
X-1293707Y-845062D01*
X-1292374Y-846395D01*
X-1291708Y-848395D01*
Y-849728D01*
X-1292374Y-851728D01*
X-1293707Y-853061D01*
X-1295040Y-853727D01*
X-1297040D01*
X-1298373Y-853061D01*
X-1299706Y-851728D01*
X-1303439Y-844396D02*
Y-853727D01*
Y-847062D02*
X-1305438Y-845062D01*
X-1306771Y-844396D01*
X-1308771D01*
X-1310104Y-845062D01*
X-1310770Y-847062D01*
Y-853727D01*
Y-847062D02*
X-1312770Y-845062D01*
X-1314103Y-844396D01*
X-1316102D01*
X-1317435Y-845062D01*
X-1318102Y-847062D01*
Y-853727D01*
X-1322501Y-844396D02*
Y-853727D01*
Y-847062D02*
X-1324501Y-845062D01*
X-1325834Y-844396D01*
X-1327833D01*
X-1329166Y-845062D01*
X-1329833Y-847062D01*
Y-853727D01*
Y-847062D02*
X-1331832Y-845062D01*
X-1333165Y-844396D01*
X-1335165D01*
X-1336498Y-845062D01*
X-1337165Y-847062D01*
Y-853727D01*
X-1341564Y-839730D02*
X-1350895Y-855727D01*
X-1361826Y-843063D02*
X-1361159Y-841730D01*
X-1359826Y-840397D01*
X-1358493Y-839730D01*
X-1355827D01*
X-1354494Y-840397D01*
X-1353161Y-841730D01*
X-1352495Y-843063D01*
X-1351828Y-845062D01*
Y-848395D01*
X-1352495Y-850395D01*
X-1353161Y-851728D01*
X-1354494Y-853061D01*
X-1355827Y-853727D01*
X-1358493D01*
X-1359826Y-853061D01*
X-1361159Y-851728D01*
X-1361826Y-850395D01*
Y-848395D01*
X-1358493D02*
X-1361826D01*
X-1368358Y-844396D02*
X-1367025Y-845062D01*
X-1365692Y-846395D01*
X-1365025Y-848395D01*
Y-849728D01*
X-1365692Y-851728D01*
X-1367025Y-853061D01*
X-1368358Y-853727D01*
X-1370358D01*
X-1371691Y-853061D01*
X-1373024Y-851728D01*
X-1373690Y-849728D01*
Y-848395D01*
X-1373024Y-846395D01*
X-1371691Y-845062D01*
X-1370358Y-844396D01*
X-1368358D01*
X-1380089D02*
X-1378756Y-845062D01*
X-1377423Y-846395D01*
X-1376756Y-848395D01*
Y-849728D01*
X-1377423Y-851728D01*
X-1378756Y-853061D01*
X-1380089Y-853727D01*
X-1382088D01*
X-1383421Y-853061D01*
X-1384754Y-851728D01*
X-1385421Y-849728D01*
Y-848395D01*
X-1384754Y-846395D01*
X-1383421Y-845062D01*
X-1382088Y-844396D01*
X-1380089D01*
X-1396485D02*
Y-855060D01*
X-1395819Y-857060D01*
X-1395152Y-857726D01*
X-1393819Y-858393D01*
X-1391819D01*
X-1390486Y-857726D01*
X-1396485Y-846395D02*
X-1395152Y-845062D01*
X-1393819Y-844396D01*
X-1391819D01*
X-1390486Y-845062D01*
X-1389153Y-846395D01*
X-1388487Y-848395D01*
Y-849728D01*
X-1389153Y-851728D01*
X-1390486Y-853061D01*
X-1391819Y-853727D01*
X-1393819D01*
X-1395152Y-853061D01*
X-1396485Y-851728D01*
X-1400218Y-839730D02*
Y-853727D01*
X-1403150Y-848395D02*
X-1411149D01*
Y-847062D01*
X-1410482Y-845729D01*
X-1409816Y-845062D01*
X-1408483Y-844396D01*
X-1406483D01*
X-1405150Y-845062D01*
X-1403817Y-846395D01*
X-1403150Y-848395D01*
Y-849728D01*
X-1403817Y-851728D01*
X-1405150Y-853061D01*
X-1406483Y-853727D01*
X-1408483D01*
X-1409816Y-853061D01*
X-1411149Y-851728D01*
X-1425146Y-839730D02*
Y-853727D01*
Y-839730D02*
X-1429811D01*
X-1431811Y-840397D01*
X-1433144Y-841730D01*
X-1433810Y-843063D01*
X-1434477Y-845062D01*
Y-848395D01*
X-1433810Y-850395D01*
X-1433144Y-851728D01*
X-1431811Y-853061D01*
X-1429811Y-853727D01*
X-1425146D01*
X-1437610Y-844396D02*
Y-853727D01*
Y-848395D02*
X-1438276Y-846395D01*
X-1439609Y-845062D01*
X-1440942Y-844396D01*
X-1442942D01*
X-1445541Y-839730D02*
X-1446208Y-840397D01*
X-1446874Y-839730D01*
X-1446208Y-839064D01*
X-1445541Y-839730D01*
X-1446208Y-844396D02*
Y-853727D01*
X-1449341Y-844396D02*
X-1453340Y-853727D01*
X-1457339Y-844396D02*
X-1453340Y-853727D01*
X-1459605Y-848395D02*
X-1467603D01*
Y-847062D01*
X-1466937Y-845729D01*
X-1466270Y-845062D01*
X-1464937Y-844396D01*
X-1462938D01*
X-1461604Y-845062D01*
X-1460271Y-846395D01*
X-1459605Y-848395D01*
Y-849728D01*
X-1460271Y-851728D01*
X-1461604Y-853061D01*
X-1462938Y-853727D01*
X-1464937D01*
X-1466270Y-853061D01*
X-1467603Y-851728D01*
X-1470603Y-839730D02*
X-1479934Y-855727D01*
X-1491532Y-853727D02*
X-1486199Y-839730D01*
X-1480867Y-853727D01*
X-1482867Y-849062D02*
X-1489532D01*
X-1494797Y-844396D02*
Y-851061D01*
X-1495464Y-853061D01*
X-1496797Y-853727D01*
X-1498797D01*
X-1500130Y-853061D01*
X-1502129Y-851061D01*
Y-844396D02*
Y-853727D01*
X-1505795Y-839730D02*
Y-853727D01*
X-1516726Y-844396D02*
Y-853727D01*
Y-846395D02*
X-1515393Y-845062D01*
X-1514060Y-844396D01*
X-1512060D01*
X-1510727Y-845062D01*
X-1509394Y-846395D01*
X-1508728Y-848395D01*
Y-849728D01*
X-1509394Y-851728D01*
X-1510727Y-853061D01*
X-1512060Y-853727D01*
X-1514060D01*
X-1515393Y-853061D01*
X-1516726Y-851728D01*
X-1520459Y-839730D02*
X-1529790Y-855727D01*
X-1540721Y-843063D02*
X-1540054Y-841730D01*
X-1538721Y-840397D01*
X-1537388Y-839730D01*
X-1534722D01*
X-1533389Y-840397D01*
X-1532056Y-841730D01*
X-1531390Y-843063D01*
X-1530723Y-845062D01*
Y-848395D01*
X-1531390Y-850395D01*
X-1532056Y-851728D01*
X-1533389Y-853061D01*
X-1534722Y-853727D01*
X-1537388D01*
X-1538721Y-853061D01*
X-1540054Y-851728D01*
X-1540721Y-850395D01*
X-1545986Y-839730D02*
X-1546653Y-840397D01*
X-1547319Y-839730D01*
X-1546653Y-839064D01*
X-1545986Y-839730D01*
X-1546653Y-844396D02*
Y-853727D01*
X-1549786Y-844396D02*
Y-853727D01*
Y-848395D02*
X-1550452Y-846395D01*
X-1551785Y-845062D01*
X-1553118Y-844396D01*
X-1555118D01*
X-1564382Y-846395D02*
X-1563049Y-845062D01*
X-1561716Y-844396D01*
X-1559717D01*
X-1558384Y-845062D01*
X-1557051Y-846395D01*
X-1556384Y-848395D01*
Y-849728D01*
X-1557051Y-851728D01*
X-1558384Y-853061D01*
X-1559717Y-853727D01*
X-1561716D01*
X-1563049Y-853061D01*
X-1564382Y-851728D01*
X-1567382Y-844396D02*
Y-851061D01*
X-1568048Y-853061D01*
X-1569381Y-853727D01*
X-1571381D01*
X-1572714Y-853061D01*
X-1574714Y-851061D01*
Y-844396D02*
Y-853727D01*
X-1579713Y-839730D02*
X-1580379Y-840397D01*
X-1581046Y-839730D01*
X-1580379Y-839064D01*
X-1579713Y-839730D01*
X-1580379Y-844396D02*
Y-853727D01*
X-1585511Y-839730D02*
Y-851061D01*
X-1586178Y-853061D01*
X-1587511Y-853727D01*
X-1588844D01*
X-1583512Y-844396D02*
X-1588177D01*
X-1594176D02*
X-1592843Y-845062D01*
X-1591510Y-846395D01*
X-1590844Y-848395D01*
Y-849728D01*
X-1591510Y-851728D01*
X-1592843Y-853061D01*
X-1594176Y-853727D01*
X-1596176D01*
X-1597509Y-853061D01*
X-1598842Y-851728D01*
X-1599508Y-849728D01*
Y-848395D01*
X-1598842Y-846395D01*
X-1597509Y-845062D01*
X-1596176Y-844396D01*
X-1594176D01*
X-1609906Y-846395D02*
X-1609240Y-845062D01*
X-1607240Y-844396D01*
X-1605240D01*
X-1603241Y-845062D01*
X-1602574Y-846395D01*
X-1603241Y-847729D01*
X-1604574Y-848395D01*
X-1607906Y-849062D01*
X-1609240Y-849728D01*
X-1609906Y-851061D01*
Y-851728D01*
X-1609240Y-853061D01*
X-1607240Y-853727D01*
X-1605240D01*
X-1603241Y-853061D01*
X-1602574Y-851728D01*
X-1623836Y-839730D02*
Y-853727D01*
Y-839730D02*
X-1629169Y-853727D01*
X-1634501Y-839730D02*
X-1629169Y-853727D01*
X-1634501Y-839730D02*
Y-853727D01*
X-1639833Y-839730D02*
X-1640500Y-840397D01*
X-1641166Y-839730D01*
X-1640500Y-839064D01*
X-1639833Y-839730D01*
X-1640500Y-844396D02*
Y-853727D01*
X-1651631Y-846395D02*
X-1650297Y-845062D01*
X-1648964Y-844396D01*
X-1646965D01*
X-1645632Y-845062D01*
X-1644299Y-846395D01*
X-1643632Y-848395D01*
Y-849728D01*
X-1644299Y-851728D01*
X-1645632Y-853061D01*
X-1646965Y-853727D01*
X-1648964D01*
X-1650297Y-853061D01*
X-1651631Y-851728D01*
X-1654630Y-844396D02*
Y-853727D01*
Y-848395D02*
X-1655296Y-846395D01*
X-1656629Y-845062D01*
X-1657962Y-844396D01*
X-1659962D01*
X-1664561D02*
X-1663228Y-845062D01*
X-1661895Y-846395D01*
X-1661228Y-848395D01*
Y-849728D01*
X-1661895Y-851728D01*
X-1663228Y-853061D01*
X-1664561Y-853727D01*
X-1666561D01*
X-1667894Y-853061D01*
X-1669227Y-851728D01*
X-1669893Y-849728D01*
Y-848395D01*
X-1669227Y-846395D01*
X-1667894Y-845062D01*
X-1666561Y-844396D01*
X-1664561D01*
X-1672959D02*
Y-858393D01*
Y-846395D02*
X-1674292Y-845062D01*
X-1675625Y-844396D01*
X-1677625D01*
X-1678958Y-845062D01*
X-1680291Y-846395D01*
X-1680957Y-848395D01*
Y-849728D01*
X-1680291Y-851728D01*
X-1678958Y-853061D01*
X-1677625Y-853727D01*
X-1675625D01*
X-1674292Y-853061D01*
X-1672959Y-851728D01*
X-1683957Y-844396D02*
Y-853727D01*
Y-848395D02*
X-1684623Y-846395D01*
X-1685956Y-845062D01*
X-1687289Y-844396D01*
X-1689289D01*
X-1693888D02*
X-1692555Y-845062D01*
X-1691222Y-846395D01*
X-1690555Y-848395D01*
Y-849728D01*
X-1691222Y-851728D01*
X-1692555Y-853061D01*
X-1693888Y-853727D01*
X-1695888D01*
X-1697221Y-853061D01*
X-1698554Y-851728D01*
X-1699220Y-849728D01*
Y-848395D01*
X-1698554Y-846395D01*
X-1697221Y-845062D01*
X-1695888Y-844396D01*
X-1693888D01*
X-1710284Y-846395D02*
X-1708952Y-845062D01*
X-1707619Y-844396D01*
X-1705619D01*
X-1704286Y-845062D01*
X-1702953Y-846395D01*
X-1702286Y-848395D01*
Y-849728D01*
X-1702953Y-851728D01*
X-1704286Y-853061D01*
X-1705619Y-853727D01*
X-1707619D01*
X-1708952Y-853061D01*
X-1710284Y-851728D01*
X-1713284Y-848395D02*
X-1721282D01*
Y-847062D01*
X-1720616Y-845729D01*
X-1719949Y-845062D01*
X-1718616Y-844396D01*
X-1716617D01*
X-1715284Y-845062D01*
X-1713950Y-846395D01*
X-1713284Y-848395D01*
Y-849728D01*
X-1713950Y-851728D01*
X-1715284Y-853061D01*
X-1716617Y-853727D01*
X-1718616D01*
X-1719949Y-853061D01*
X-1721282Y-851728D01*
X-1731613Y-846395D02*
X-1730947Y-845062D01*
X-1728947Y-844396D01*
X-1726948D01*
X-1724948Y-845062D01*
X-1724281Y-846395D01*
X-1724948Y-847729D01*
X-1726281Y-848395D01*
X-1729614Y-849062D01*
X-1730947Y-849728D01*
X-1731613Y-851061D01*
Y-851728D01*
X-1730947Y-853061D01*
X-1728947Y-853727D01*
X-1726948D01*
X-1724948Y-853061D01*
X-1724281Y-851728D01*
X-1741878Y-846395D02*
X-1741211Y-845062D01*
X-1739212Y-844396D01*
X-1737212D01*
X-1735213Y-845062D01*
X-1734546Y-846395D01*
X-1735213Y-847729D01*
X-1736546Y-848395D01*
X-1739878Y-849062D01*
X-1741211Y-849728D01*
X-1741878Y-851061D01*
Y-851728D01*
X-1741211Y-853061D01*
X-1739212Y-853727D01*
X-1737212D01*
X-1735213Y-853061D01*
X-1734546Y-851728D01*
X-1752809Y-844396D02*
Y-853727D01*
Y-846395D02*
X-1751476Y-845062D01*
X-1750143Y-844396D01*
X-1748143D01*
X-1746810Y-845062D01*
X-1745477Y-846395D01*
X-1744810Y-848395D01*
Y-849728D01*
X-1745477Y-851728D01*
X-1746810Y-853061D01*
X-1748143Y-853727D01*
X-1750143D01*
X-1751476Y-853061D01*
X-1752809Y-851728D01*
X-1764540Y-839730D02*
Y-853727D01*
Y-846395D02*
X-1763206Y-845062D01*
X-1761873Y-844396D01*
X-1759874D01*
X-1758541Y-845062D01*
X-1757208Y-846395D01*
X-1756541Y-848395D01*
Y-849728D01*
X-1757208Y-851728D01*
X-1758541Y-853061D01*
X-1759874Y-853727D01*
X-1761873D01*
X-1763206Y-853061D01*
X-1764540Y-851728D01*
X-1771605Y-844396D02*
X-1770272Y-845062D01*
X-1768939Y-846395D01*
X-1768272Y-848395D01*
Y-849728D01*
X-1768939Y-851728D01*
X-1770272Y-853061D01*
X-1771605Y-853727D01*
X-1773604D01*
X-1774937Y-853061D01*
X-1776270Y-851728D01*
X-1776937Y-849728D01*
Y-848395D01*
X-1776270Y-846395D01*
X-1774937Y-845062D01*
X-1773604Y-844396D01*
X-1771605D01*
X-1787335Y-846395D02*
X-1786668Y-845062D01*
X-1784669Y-844396D01*
X-1782669D01*
X-1780669Y-845062D01*
X-1780003Y-846395D01*
X-1780669Y-847729D01*
X-1782003Y-848395D01*
X-1785335Y-849062D01*
X-1786668Y-849728D01*
X-1787335Y-851061D01*
Y-851728D01*
X-1786668Y-853061D01*
X-1784669Y-853727D01*
X-1782669D01*
X-1780669Y-853061D01*
X-1780003Y-851728D01*
X-1790267Y-839730D02*
X-1799599Y-855727D01*
X-1805197Y-839730D02*
Y-853727D01*
X-1800532Y-839730D02*
X-1809863D01*
X-1811530Y-844396D02*
Y-853727D01*
Y-848395D02*
X-1812196Y-846395D01*
X-1813529Y-845062D01*
X-1814862Y-844396D01*
X-1816862D01*
X-1826126D02*
Y-853727D01*
Y-846395D02*
X-1824793Y-845062D01*
X-1823460Y-844396D01*
X-1821461D01*
X-1820128Y-845062D01*
X-1818795Y-846395D01*
X-1818128Y-848395D01*
Y-849728D01*
X-1818795Y-851728D01*
X-1820128Y-853061D01*
X-1821461Y-853727D01*
X-1823460D01*
X-1824793Y-853061D01*
X-1826126Y-851728D01*
X-1829859Y-839730D02*
Y-853727D01*
Y-846395D02*
X-1831192Y-845062D01*
X-1832525Y-844396D01*
X-1834525D01*
X-1835858Y-845062D01*
X-1837191Y-846395D01*
X-1837857Y-848395D01*
Y-849728D01*
X-1837191Y-851728D01*
X-1835858Y-853061D01*
X-1834525Y-853727D01*
X-1832525D01*
X-1831192Y-853061D01*
X-1829859Y-851728D01*
X-1848855Y-844396D02*
Y-853727D01*
Y-846395D02*
X-1847522Y-845062D01*
X-1846189Y-844396D01*
X-1844189D01*
X-1842856Y-845062D01*
X-1841523Y-846395D01*
X-1840856Y-848395D01*
Y-849728D01*
X-1841523Y-851728D01*
X-1842856Y-853061D01*
X-1844189Y-853727D01*
X-1846189D01*
X-1847522Y-853061D01*
X-1848855Y-851728D01*
X-1852587Y-839730D02*
Y-853727D01*
X-1855520Y-839730D02*
Y-853727D01*
Y-847062D02*
X-1857520Y-845062D01*
X-1858853Y-844396D01*
X-1860852D01*
X-1862185Y-845062D01*
X-1862852Y-847062D01*
Y-853727D01*
X-1869850Y-844396D02*
X-1868517Y-845062D01*
X-1867184Y-846395D01*
X-1866518Y-848395D01*
Y-849728D01*
X-1867184Y-851728D01*
X-1868517Y-853061D01*
X-1869850Y-853727D01*
X-1871850D01*
X-1873183Y-853061D01*
X-1874516Y-851728D01*
X-1875182Y-849728D01*
Y-848395D01*
X-1874516Y-846395D01*
X-1873183Y-845062D01*
X-1871850Y-844396D01*
X-1869850D01*
X-1899244Y-843063D02*
X-1898578Y-841730D01*
X-1897244Y-840397D01*
X-1895911Y-839730D01*
X-1893245D01*
X-1891912Y-840397D01*
X-1890579Y-841730D01*
X-1889913Y-843063D01*
X-1889246Y-845062D01*
Y-848395D01*
X-1889913Y-850395D01*
X-1890579Y-851728D01*
X-1891912Y-853061D01*
X-1893245Y-853727D01*
X-1895911D01*
X-1897244Y-853061D01*
X-1898578Y-851728D01*
X-1899244Y-850395D01*
Y-848395D01*
X-1895911D02*
X-1899244D01*
X-1902443Y-839730D02*
Y-853727D01*
Y-846395D02*
X-1903776Y-845062D01*
X-1905109Y-844396D01*
X-1907109D01*
X-1908442Y-845062D01*
X-1909775Y-846395D01*
X-1910442Y-848395D01*
Y-849728D01*
X-1909775Y-851728D01*
X-1908442Y-853061D01*
X-1907109Y-853727D01*
X-1905109D01*
X-1903776Y-853061D01*
X-1902443Y-851728D01*
X-1913441Y-839730D02*
X-1922772Y-855727D01*
X-1933703Y-843063D02*
X-1933037Y-841730D01*
X-1931704Y-840397D01*
X-1930371Y-839730D01*
X-1927705D01*
X-1926371Y-840397D01*
X-1925038Y-841730D01*
X-1924372Y-843063D01*
X-1923705Y-845062D01*
Y-848395D01*
X-1924372Y-850395D01*
X-1925038Y-851728D01*
X-1926371Y-853061D01*
X-1927705Y-853727D01*
X-1930371D01*
X-1931704Y-853061D01*
X-1933037Y-851728D01*
X-1933703Y-850395D01*
X-1945634Y-844396D02*
Y-853727D01*
Y-846395D02*
X-1944301Y-845062D01*
X-1942968Y-844396D01*
X-1940968D01*
X-1939635Y-845062D01*
X-1938302Y-846395D01*
X-1937636Y-848395D01*
Y-849728D01*
X-1938302Y-851728D01*
X-1939635Y-853061D01*
X-1940968Y-853727D01*
X-1942968D01*
X-1944301Y-853061D01*
X-1945634Y-851728D01*
X-1949367Y-844396D02*
Y-853727D01*
Y-848395D02*
X-1950033Y-846395D01*
X-1951366Y-845062D01*
X-1952699Y-844396D01*
X-1954699D01*
X-1955965D02*
Y-853727D01*
Y-848395D02*
X-1956632Y-846395D01*
X-1957965Y-845062D01*
X-1959298Y-844396D01*
X-1961297D01*
X-1962564Y-848395D02*
X-1970562D01*
Y-847062D01*
X-1969896Y-845729D01*
X-1969229Y-845062D01*
X-1967896Y-844396D01*
X-1965896D01*
X-1964563Y-845062D01*
X-1963230Y-846395D01*
X-1962564Y-848395D01*
Y-849728D01*
X-1963230Y-851728D01*
X-1964563Y-853061D01*
X-1965896Y-853727D01*
X-1967896D01*
X-1969229Y-853061D01*
X-1970562Y-851728D01*
X-1981560Y-844396D02*
Y-855060D01*
X-1980893Y-857060D01*
X-1980227Y-857726D01*
X-1978894Y-858393D01*
X-1976894D01*
X-1975561Y-857726D01*
X-1981560Y-846395D02*
X-1980227Y-845062D01*
X-1978894Y-844396D01*
X-1976894D01*
X-1975561Y-845062D01*
X-1974228Y-846395D01*
X-1973561Y-848395D01*
Y-849728D01*
X-1974228Y-851728D01*
X-1975561Y-853061D01*
X-1976894Y-853727D01*
X-1978894D01*
X-1980227Y-853061D01*
X-1981560Y-851728D01*
X-1993291Y-844396D02*
Y-853727D01*
Y-846395D02*
X-1991958Y-845062D01*
X-1990624Y-844396D01*
X-1988625D01*
X-1987292Y-845062D01*
X-1985959Y-846395D01*
X-1985292Y-848395D01*
Y-849728D01*
X-1985959Y-851728D01*
X-1987292Y-853061D01*
X-1988625Y-853727D01*
X-1990624D01*
X-1991958Y-853061D01*
X-1993291Y-851728D01*
X-2005021Y-839730D02*
Y-853727D01*
Y-846395D02*
X-2003688Y-845062D01*
X-2002355Y-844396D01*
X-2000356D01*
X-1999023Y-845062D01*
X-1997690Y-846395D01*
X-1997023Y-848395D01*
Y-849728D01*
X-1997690Y-851728D01*
X-1999023Y-853061D01*
X-2000356Y-853727D01*
X-2002355D01*
X-2003688Y-853061D01*
X-2005021Y-851728D01*
X-2012086Y-844396D02*
X-2010753Y-845062D01*
X-2009420Y-846395D01*
X-2008754Y-848395D01*
Y-849728D01*
X-2009420Y-851728D01*
X-2010753Y-853061D01*
X-2012086Y-853727D01*
X-2014086D01*
X-2015419Y-853061D01*
X-2016752Y-851728D01*
X-2017419Y-849728D01*
Y-848395D01*
X-2016752Y-846395D01*
X-2015419Y-845062D01*
X-2014086Y-844396D01*
X-2012086D01*
X-2020485D02*
Y-853727D01*
Y-848395D02*
X-2021151Y-846395D01*
X-2022484Y-845062D01*
X-2023817Y-844396D01*
X-2025817D01*
X-2027083Y-858393D02*
X-2037748D01*
X-2049545Y-843063D02*
X-2048879Y-841730D01*
X-2047545Y-840397D01*
X-2046212Y-839730D01*
X-2043546D01*
X-2042213Y-840397D01*
X-2040880Y-841730D01*
X-2040214Y-843063D01*
X-2039547Y-845062D01*
Y-848395D01*
X-2040214Y-850395D01*
X-2040880Y-851728D01*
X-2042213Y-853061D01*
X-2043546Y-853727D01*
X-2046212D01*
X-2047545Y-853061D01*
X-2048879Y-851728D01*
X-2049545Y-850395D01*
X-2053478Y-839730D02*
Y-853727D01*
Y-847062D02*
X-2055477Y-845062D01*
X-2056810Y-844396D01*
X-2058810D01*
X-2060143Y-845062D01*
X-2060809Y-847062D01*
Y-853727D01*
X-2064475Y-844396D02*
Y-851061D01*
X-2065142Y-853061D01*
X-2066475Y-853727D01*
X-2068474D01*
X-2069807Y-853061D01*
X-2071807Y-851061D01*
Y-844396D02*
Y-853727D01*
X-2075473Y-844396D02*
Y-853727D01*
Y-847062D02*
X-2077473Y-845062D01*
X-2078806Y-844396D01*
X-2080805D01*
X-2082138Y-845062D01*
X-2082805Y-847062D01*
Y-853727D01*
Y-847062D02*
X-2084804Y-845062D01*
X-2086137Y-844396D01*
X-2088137D01*
X-2089470Y-845062D01*
X-2090136Y-847062D01*
Y-853727D01*
X-2094536Y-839730D02*
Y-853727D01*
Y-846395D02*
X-2095869Y-845062D01*
X-2097202Y-844396D01*
X-2099201D01*
X-2100534Y-845062D01*
X-2101867Y-846395D01*
X-2102534Y-848395D01*
Y-849728D01*
X-2101867Y-851728D01*
X-2100534Y-853061D01*
X-2099201Y-853727D01*
X-2097202D01*
X-2095869Y-853061D01*
X-2094536Y-851728D01*
X-2108866Y-844396D02*
X-2107533Y-845062D01*
X-2106200Y-846395D01*
X-2105533Y-848395D01*
Y-849728D01*
X-2106200Y-851728D01*
X-2107533Y-853061D01*
X-2108866Y-853727D01*
X-2110865D01*
X-2112198Y-853061D01*
X-2113531Y-851728D01*
X-2114198Y-849728D01*
Y-848395D01*
X-2113531Y-846395D01*
X-2112198Y-845062D01*
X-2110865Y-844396D01*
X-2108866D01*
X-2117264Y-858393D02*
X-2127928D01*
X-2129728Y-843063D02*
Y-842396D01*
X-2130394Y-841063D01*
X-2131061Y-840397D01*
X-2132394Y-839730D01*
X-2135060D01*
X-2136393Y-840397D01*
X-2137060Y-841063D01*
X-2137726Y-842396D01*
Y-843729D01*
X-2137060Y-845062D01*
X-2136393Y-845729D01*
X-2133727Y-847062D01*
Y-849062D01*
Y-852394D02*
X-2133060Y-853061D01*
X-2133727Y-853727D01*
X-2134394Y-853061D01*
X-2133727Y-852394D01*
X-2148724Y-846395D02*
X-2147391Y-845062D01*
X-2146058Y-844396D01*
X-2144058D01*
X-2142725Y-845062D01*
X-2141392Y-846395D01*
X-2140726Y-848395D01*
Y-849728D01*
X-2141392Y-851728D01*
X-2142725Y-853061D01*
X-2144058Y-853727D01*
X-2146058D01*
X-2147391Y-853061D01*
X-2148724Y-851728D01*
X-2153056Y-839730D02*
X-2153723Y-840397D01*
X-2154389Y-839730D01*
X-2153723Y-839064D01*
X-2153056Y-839730D01*
X-2153723Y-844396D02*
Y-853727D01*
X-2164854Y-839730D02*
Y-853727D01*
Y-846395D02*
X-2163521Y-845062D01*
X-2162188Y-844396D01*
X-2160188D01*
X-2158855Y-845062D01*
X-2157522Y-846395D01*
X-2156855Y-848395D01*
Y-849728D01*
X-2157522Y-851728D01*
X-2158855Y-853061D01*
X-2160188Y-853727D01*
X-2162188D01*
X-2163521Y-853061D01*
X-2164854Y-851728D01*
X-2171919Y-844396D02*
X-2170586Y-845062D01*
X-2169253Y-846395D01*
X-2168586Y-848395D01*
Y-849728D01*
X-2169253Y-851728D01*
X-2170586Y-853061D01*
X-2171919Y-853727D01*
X-2173918D01*
X-2175251Y-853061D01*
X-2176584Y-851728D01*
X-2177251Y-849728D01*
Y-848395D01*
X-2176584Y-846395D01*
X-2175251Y-845062D01*
X-2173918Y-844396D01*
X-2171919D01*
X-2180317Y-839730D02*
X-2189648Y-855727D01*
X-2201246Y-853727D02*
X-2195914Y-839730D01*
X-2190582Y-853727D01*
X-2192581Y-849062D02*
X-2199246D01*
X-2204512Y-844396D02*
Y-853727D01*
Y-848395D02*
X-2205178Y-846395D01*
X-2206511Y-845062D01*
X-2207845Y-844396D01*
X-2209844D01*
X-2219109Y-839730D02*
Y-853727D01*
Y-846395D02*
X-2217776Y-845062D01*
X-2216443Y-844396D01*
X-2214443D01*
X-2213110Y-845062D01*
X-2211777Y-846395D01*
X-2211110Y-848395D01*
Y-849728D01*
X-2211777Y-851728D01*
X-2213110Y-853061D01*
X-2214443Y-853727D01*
X-2216443D01*
X-2217776Y-853061D01*
X-2219109Y-851728D01*
X-2222841Y-844396D02*
Y-851061D01*
X-2223508Y-853061D01*
X-2224841Y-853727D01*
X-2226840D01*
X-2228173Y-853061D01*
X-2230173Y-851061D01*
Y-844396D02*
Y-853727D01*
X-2235172Y-839730D02*
X-2235838Y-840397D01*
X-2236505Y-839730D01*
X-2235838Y-839064D01*
X-2235172Y-839730D01*
X-2235838Y-844396D02*
Y-853727D01*
X-2238971Y-844396D02*
Y-853727D01*
Y-847062D02*
X-2240971Y-845062D01*
X-2242304Y-844396D01*
X-2244303D01*
X-2245636Y-845062D01*
X-2246303Y-847062D01*
Y-853727D01*
X-2253301Y-844396D02*
X-2251968Y-845062D01*
X-2250635Y-846395D01*
X-2249969Y-848395D01*
Y-849728D01*
X-2250635Y-851728D01*
X-2251968Y-853061D01*
X-2253301Y-853727D01*
X-2255301D01*
X-2256634Y-853061D01*
X-2257967Y-851728D01*
X-2258634Y-849728D01*
Y-848395D01*
X-2257967Y-846395D01*
X-2256634Y-845062D01*
X-2255301Y-844396D01*
X-2253301D01*
X-2282695Y-843063D02*
X-2282029Y-841730D01*
X-2280695Y-840397D01*
X-2279362Y-839730D01*
X-2276696D01*
X-2275363Y-840397D01*
X-2274030Y-841730D01*
X-2273364Y-843063D01*
X-2272697Y-845062D01*
Y-848395D01*
X-2273364Y-850395D01*
X-2274030Y-851728D01*
X-2275363Y-853061D01*
X-2276696Y-853727D01*
X-2279362D01*
X-2280695Y-853061D01*
X-2282029Y-851728D01*
X-2282695Y-850395D01*
X-2289960Y-844396D02*
X-2288627Y-845062D01*
X-2287294Y-846395D01*
X-2286628Y-848395D01*
Y-849728D01*
X-2287294Y-851728D01*
X-2288627Y-853061D01*
X-2289960Y-853727D01*
X-2291960D01*
X-2293293Y-853061D01*
X-2294626Y-851728D01*
X-2295292Y-849728D01*
Y-848395D01*
X-2294626Y-846395D01*
X-2293293Y-845062D01*
X-2291960Y-844396D01*
X-2289960D01*
X-2298358D02*
Y-853727D01*
Y-847062D02*
X-2300358Y-845062D01*
X-2301691Y-844396D01*
X-2303691D01*
X-2305024Y-845062D01*
X-2305690Y-847062D01*
Y-853727D01*
X-2310022Y-852394D02*
X-2309356Y-853061D01*
X-2310022Y-853727D01*
X-2310689Y-853061D01*
X-2310022Y-852394D01*
X-2313755Y-847062D02*
X-2319754D01*
X-2321753Y-846395D01*
X-2322420Y-845729D01*
X-2323086Y-844396D01*
Y-842396D01*
X-2322420Y-841063D01*
X-2321753Y-840397D01*
X-2319754Y-839730D01*
X-2313755D01*
Y-853727D01*
X-2334217Y-846395D02*
X-2332884Y-845062D01*
X-2331551Y-844396D01*
X-2329552D01*
X-2328219Y-845062D01*
X-2326886Y-846395D01*
X-2326219Y-848395D01*
Y-849728D01*
X-2326886Y-851728D01*
X-2328219Y-853061D01*
X-2329552Y-853727D01*
X-2331551D01*
X-2332884Y-853061D01*
X-2334217Y-851728D01*
X-2337217Y-839730D02*
Y-853727D01*
Y-846395D02*
X-2338550Y-845062D01*
X-2339883Y-844396D01*
X-2341882D01*
X-2343215Y-845062D01*
X-2344548Y-846395D01*
X-2345215Y-848395D01*
Y-849728D01*
X-2344548Y-851728D01*
X-2343215Y-853061D01*
X-2341882Y-853727D01*
X-2339883D01*
X-2338550Y-853061D01*
X-2337217Y-851728D01*
X-2348214Y-839730D02*
Y-853727D01*
Y-839730D02*
X-2352880D01*
X-2354880Y-840397D01*
X-2356213Y-841730D01*
X-2356879Y-843063D01*
X-2357546Y-845062D01*
Y-848395D01*
X-2356879Y-850395D01*
X-2356213Y-851728D01*
X-2354880Y-853061D01*
X-2352880Y-853727D01*
X-2348214D01*
X-2364011Y-844396D02*
X-2362678Y-845062D01*
X-2361345Y-846395D01*
X-2360678Y-848395D01*
Y-849728D01*
X-2361345Y-851728D01*
X-2362678Y-853061D01*
X-2364011Y-853727D01*
X-2366010D01*
X-2367344Y-853061D01*
X-2368677Y-851728D01*
X-2369343Y-849728D01*
Y-848395D01*
X-2368677Y-846395D01*
X-2367344Y-845062D01*
X-2366010Y-844396D01*
X-2364011D01*
X-2380407Y-846395D02*
X-2379074Y-845062D01*
X-2377741Y-844396D01*
X-2375742D01*
X-2374409Y-845062D01*
X-2373076Y-846395D01*
X-2372409Y-848395D01*
Y-849728D01*
X-2373076Y-851728D01*
X-2374409Y-853061D01*
X-2375742Y-853727D01*
X-2377741D01*
X-2379074Y-853061D01*
X-2380407Y-851728D01*
M02*
