G04 Layer_Color=8388736*
%FSLAX44Y44*%
%MOMM*%
G71*
G01*
G75*
%ADD38R,1.2532X1.8032*%
%ADD39R,1.3462X1.7272*%
%ADD40O,0.8532X1.9532*%
%ADD41O,0.8532X1.9532*%
%ADD42R,1.8032X1.2532*%
%ADD43R,1.7272X1.3462*%
%ADD44R,1.9032X1.5032*%
G04:AMPARAMS|DCode=45|XSize=9.2032mm|YSize=12.2032mm|CornerRadius=2.3516mm|HoleSize=0mm|Usage=FLASHONLY|Rotation=180.000|XOffset=0mm|YOffset=0mm|HoleType=Round|Shape=RoundedRectangle|*
%AMROUNDEDRECTD45*
21,1,9.2032,7.5000,0,0,180.0*
21,1,4.5000,12.2032,0,0,180.0*
1,1,4.7032,-2.2500,3.7500*
1,1,4.7032,2.2500,3.7500*
1,1,4.7032,2.2500,-3.7500*
1,1,4.7032,-2.2500,-3.7500*
%
%ADD45ROUNDEDRECTD45*%
%ADD46O,2.7032X1.7032*%
%ADD47R,2.7032X1.7032*%
%ADD48C,2.0032*%
%ADD49O,2.2032X3.2032*%
%ADD50R,2.2032X3.2032*%
%ADD51R,2.0032X2.0032*%
%ADD52P,6.7143X8X202.5*%
%ADD53R,2.2032X2.2032*%
%ADD54C,2.2032*%
%ADD55C,1.7032*%
%ADD56C,1.4732*%
%ADD57C,1.0032*%
D38*
X-565050Y131000D02*
D03*
X-584550D02*
D03*
X-694050Y341000D02*
D03*
X-713550D02*
D03*
X-747550Y282000D02*
D03*
X-728050D02*
D03*
X-589550Y257000D02*
D03*
X-570050D02*
D03*
X-620050Y15000D02*
D03*
X-639550D02*
D03*
D39*
X-972960Y220000D02*
D03*
X-952640D02*
D03*
X-972960Y194000D02*
D03*
X-952640D02*
D03*
D40*
X-917450Y113000D02*
D03*
X-904750D02*
D03*
D41*
X-930150D02*
D03*
X-942850D02*
D03*
Y169000D02*
D03*
X-930150D02*
D03*
X-917450D02*
D03*
X-904750D02*
D03*
D42*
X-648800Y350250D02*
D03*
Y369750D02*
D03*
X-664800Y113250D02*
D03*
Y132750D02*
D03*
X-605800Y131750D02*
D03*
Y112250D02*
D03*
D43*
X-586800Y286840D02*
D03*
Y307160D02*
D03*
D44*
X-635800Y132500D02*
D03*
Y97500D02*
D03*
D45*
X-814800Y249750D02*
D03*
D46*
X-698900Y308100D02*
D03*
Y282700D02*
D03*
Y257300D02*
D03*
Y231900D02*
D03*
X-622700Y308100D02*
D03*
Y282700D02*
D03*
Y257300D02*
D03*
D47*
Y231900D02*
D03*
D48*
X-881800Y238000D02*
D03*
Y113000D02*
D03*
X-1021800Y449840D02*
D03*
Y475240D02*
D03*
Y424440D02*
D03*
Y399040D02*
D03*
Y373640D02*
D03*
Y348240D02*
D03*
Y322840D02*
D03*
Y297440D02*
D03*
Y272040D02*
D03*
X-539200Y206000D02*
D03*
Y231400D02*
D03*
Y256800D02*
D03*
Y282200D02*
D03*
Y307600D02*
D03*
Y333000D02*
D03*
Y358400D02*
D03*
X-1021800Y206000D02*
D03*
Y180600D02*
D03*
Y155200D02*
D03*
Y129800D02*
D03*
Y104400D02*
D03*
Y79000D02*
D03*
Y53600D02*
D03*
X-539200Y129800D02*
D03*
Y104400D02*
D03*
Y79000D02*
D03*
Y53600D02*
D03*
Y28200D02*
D03*
D49*
X-642800Y52000D02*
D03*
X-617800D02*
D03*
D50*
X-592800D02*
D03*
D51*
X-1021800Y246640D02*
D03*
X-539200Y383800D02*
D03*
X-1021800Y28200D02*
D03*
X-539200Y155200D02*
D03*
D52*
X-814800Y285000D02*
D03*
D53*
X-789400Y118000D02*
D03*
X-977850Y60000D02*
D03*
X-857850D02*
D03*
D54*
X-814800Y118000D02*
D03*
X-840200D02*
D03*
X-939750Y60000D02*
D03*
X-819750D02*
D03*
D55*
X-703800Y32000D02*
D03*
X-729200Y82800D02*
D03*
X-703800Y159000D02*
D03*
D56*
X-744800Y213000D02*
D03*
X-665800Y32000D02*
D03*
Y189000D02*
D03*
X-605800Y96000D02*
D03*
Y194000D02*
D03*
X-759800Y118000D02*
D03*
Y179000D02*
D03*
X-744800Y100000D02*
D03*
D57*
X-814800Y309750D02*
D03*
X-790050Y285000D02*
D03*
X-814800Y260250D02*
D03*
X-839550Y285000D02*
D03*
X-832300Y267500D02*
D03*
X-797300D02*
D03*
Y302500D02*
D03*
X-832300D02*
D03*
M02*
