G04 Layer_Color=255*
%FSLAX44Y44*%
%MOMM*%
G71*
G01*
G75*
%ADD10R,1.0500X1.6000*%
%ADD11R,1.1430X1.5240*%
%ADD12O,0.6500X1.7500*%
%ADD13O,0.6500X1.7500*%
%ADD14R,1.6000X1.0500*%
%ADD15R,1.5240X1.1430*%
%ADD16R,1.7000X1.3000*%
G04:AMPARAMS|DCode=17|XSize=9mm|YSize=12mm|CornerRadius=2.25mm|HoleSize=0mm|Usage=FLASHONLY|Rotation=180.000|XOffset=0mm|YOffset=0mm|HoleType=Round|Shape=RoundedRectangle|*
%AMROUNDEDRECTD17*
21,1,9.0000,7.5000,0,0,180.0*
21,1,4.5000,12.0000,0,0,180.0*
1,1,4.5000,-2.2500,3.7500*
1,1,4.5000,2.2500,3.7500*
1,1,4.5000,2.2500,-3.7500*
1,1,4.5000,-2.2500,-3.7500*
%
%ADD17ROUNDEDRECTD17*%
%ADD21O,2.5000X1.5000*%
%ADD22R,2.5000X1.5000*%
%ADD23C,1.8000*%
%ADD24O,2.0000X3.0000*%
%ADD25R,2.0000X3.0000*%
%ADD26R,1.8000X1.8000*%
%ADD27P,6.4944X8X202.5*%
%ADD28R,2.0000X2.0000*%
%ADD29C,2.0000*%
%ADD30C,1.5000*%
D10*
X-565050Y131000D02*
D03*
X-584550D02*
D03*
X-694050Y341000D02*
D03*
X-713550D02*
D03*
X-747550Y282000D02*
D03*
X-728050D02*
D03*
X-589550Y257000D02*
D03*
X-570050D02*
D03*
X-620050Y15000D02*
D03*
X-639550D02*
D03*
D11*
X-972960Y220000D02*
D03*
X-952640D02*
D03*
X-972960Y194000D02*
D03*
X-952640D02*
D03*
D12*
X-917450Y113000D02*
D03*
X-904750D02*
D03*
D13*
X-930150D02*
D03*
X-942850D02*
D03*
Y169000D02*
D03*
X-930150D02*
D03*
X-917450D02*
D03*
X-904750D02*
D03*
D14*
X-648800Y350250D02*
D03*
Y369750D02*
D03*
X-664800Y113250D02*
D03*
Y132750D02*
D03*
X-605800Y131750D02*
D03*
Y112250D02*
D03*
D15*
X-586800Y286840D02*
D03*
Y307160D02*
D03*
D16*
X-635800Y132500D02*
D03*
Y97500D02*
D03*
D17*
X-814800Y249750D02*
D03*
D21*
X-698900Y308100D02*
D03*
Y282700D02*
D03*
Y257300D02*
D03*
Y231900D02*
D03*
X-622700Y308100D02*
D03*
Y282700D02*
D03*
Y257300D02*
D03*
D22*
Y231900D02*
D03*
D23*
X-881800Y238000D02*
D03*
Y113000D02*
D03*
X-1021800Y449840D02*
D03*
Y475240D02*
D03*
Y424440D02*
D03*
Y399040D02*
D03*
Y373640D02*
D03*
Y348240D02*
D03*
Y322840D02*
D03*
Y297440D02*
D03*
Y272040D02*
D03*
X-539200Y206000D02*
D03*
Y231400D02*
D03*
Y256800D02*
D03*
Y282200D02*
D03*
Y307600D02*
D03*
Y333000D02*
D03*
Y358400D02*
D03*
X-1021800Y206000D02*
D03*
Y180600D02*
D03*
Y155200D02*
D03*
Y129800D02*
D03*
Y104400D02*
D03*
Y79000D02*
D03*
Y53600D02*
D03*
X-539200Y129800D02*
D03*
Y104400D02*
D03*
Y79000D02*
D03*
Y53600D02*
D03*
Y28200D02*
D03*
D24*
X-642800Y52000D02*
D03*
X-617800D02*
D03*
D25*
X-592800D02*
D03*
D26*
X-1021800Y246640D02*
D03*
X-539200Y383800D02*
D03*
X-1021800Y28200D02*
D03*
X-539200Y155200D02*
D03*
D27*
X-814800Y285000D02*
D03*
D28*
X-789400Y118000D02*
D03*
X-977850Y60000D02*
D03*
X-857850D02*
D03*
D29*
X-814800Y118000D02*
D03*
X-840200D02*
D03*
X-939750Y60000D02*
D03*
X-819750D02*
D03*
D30*
X-703800Y32000D02*
D03*
X-729200Y82800D02*
D03*
X-703800Y159000D02*
D03*
M02*
