G04 Layer_Color=8421504*
%FSLAX44Y44*%
%MOMM*%
G71*
G01*
G75*
G04:AMPARAMS|DCode=10|XSize=9mm|YSize=12mm|CornerRadius=2.25mm|HoleSize=0mm|Usage=FLASHONLY|Rotation=180.000|XOffset=0mm|YOffset=0mm|HoleType=Round|Shape=RoundedRectangle|*
%AMROUNDEDRECTD10*
21,1,9.0000,7.5000,0,0,180.0*
21,1,4.5000,12.0000,0,0,180.0*
1,1,4.5000,-2.2500,3.7500*
1,1,4.5000,2.2500,3.7500*
1,1,4.5000,2.2500,-3.7500*
1,1,4.5000,-2.2500,-3.7500*
%
%ADD10ROUNDEDRECTD10*%
%ADD11R,1.1430X1.5240*%
%ADD12R,1.6000X1.0500*%
%ADD13R,1.7000X1.3000*%
%ADD14R,1.0500X1.6000*%
%ADD15R,1.5240X1.1430*%
%ADD16O,0.6500X1.7500*%
%ADD17O,0.6500X1.7500*%
D10*
X2452469Y450750D02*
D03*
X1752469D02*
D03*
X1052469D02*
D03*
D11*
X2314629Y395000D02*
D03*
X2294309D02*
D03*
X2314629Y421000D02*
D03*
X2294309D02*
D03*
X1614629Y395000D02*
D03*
X1594309D02*
D03*
X1614629Y421000D02*
D03*
X1594309D02*
D03*
X914629Y395000D02*
D03*
X894309D02*
D03*
X914629Y421000D02*
D03*
X894309D02*
D03*
D12*
X2661469Y313250D02*
D03*
Y332750D02*
D03*
X2602469Y333750D02*
D03*
Y314250D02*
D03*
X2618469Y570750D02*
D03*
Y551250D02*
D03*
X1961469Y313250D02*
D03*
Y332750D02*
D03*
X1902469Y333750D02*
D03*
Y314250D02*
D03*
X1918469Y570750D02*
D03*
Y551250D02*
D03*
X1261469Y313250D02*
D03*
Y332750D02*
D03*
X1202469Y333750D02*
D03*
Y314250D02*
D03*
X1218469Y570750D02*
D03*
Y551250D02*
D03*
D13*
X2631469Y298500D02*
D03*
Y333500D02*
D03*
X2688869Y392900D02*
D03*
Y357900D02*
D03*
X1931469Y298500D02*
D03*
Y333500D02*
D03*
X1988869Y392900D02*
D03*
Y357900D02*
D03*
X1231469Y298500D02*
D03*
Y333500D02*
D03*
X1288869Y392900D02*
D03*
Y357900D02*
D03*
D14*
X2627719Y216000D02*
D03*
X2647219D02*
D03*
X2697219Y458000D02*
D03*
X2677719D02*
D03*
X2539219Y483000D02*
D03*
X2519719D02*
D03*
X2573219Y542000D02*
D03*
X2553719D02*
D03*
X2682719Y332000D02*
D03*
X2702220D02*
D03*
X2555119Y327400D02*
D03*
X2574619D02*
D03*
X1927719Y216000D02*
D03*
X1947219D02*
D03*
X1997219Y458000D02*
D03*
X1977719D02*
D03*
X1839219Y483000D02*
D03*
X1819719D02*
D03*
X1873219Y542000D02*
D03*
X1853719D02*
D03*
X1982719Y332000D02*
D03*
X2002219D02*
D03*
X1855119Y327400D02*
D03*
X1874619D02*
D03*
X1227719Y216000D02*
D03*
X1247219D02*
D03*
X1297219Y458000D02*
D03*
X1277719D02*
D03*
X1139219Y483000D02*
D03*
X1119719D02*
D03*
X1173219Y542000D02*
D03*
X1153719D02*
D03*
X1282719Y332000D02*
D03*
X1302219D02*
D03*
X1155119Y327400D02*
D03*
X1174619D02*
D03*
D15*
X2680469Y508160D02*
D03*
Y487840D02*
D03*
X1980469Y508160D02*
D03*
Y487840D02*
D03*
X1280469Y508160D02*
D03*
Y487840D02*
D03*
D16*
X2362519Y370000D02*
D03*
X2349819D02*
D03*
X2337119D02*
D03*
X2324419D02*
D03*
Y314000D02*
D03*
X2337119D02*
D03*
X1662519Y370000D02*
D03*
X1649819D02*
D03*
X1637119D02*
D03*
X1624419D02*
D03*
Y314000D02*
D03*
X1637119D02*
D03*
X962519Y370000D02*
D03*
X949819D02*
D03*
X937119D02*
D03*
X924419D02*
D03*
Y314000D02*
D03*
X937119D02*
D03*
D17*
X2362519D02*
D03*
X2349819D02*
D03*
X1662519D02*
D03*
X1649819D02*
D03*
X962519D02*
D03*
X949819D02*
D03*
M02*
