G04 Layer_Physical_Order=1*
G04 Layer_Color=255*
%FSLAX44Y44*%
%MOMM*%
G71*
G01*
G75*
G04:AMPARAMS|DCode=10|XSize=9mm|YSize=12mm|CornerRadius=2.25mm|HoleSize=0mm|Usage=FLASHONLY|Rotation=180.000|XOffset=0mm|YOffset=0mm|HoleType=Round|Shape=RoundedRectangle|*
%AMROUNDEDRECTD10*
21,1,9.0000,7.5000,0,0,180.0*
21,1,4.5000,12.0000,0,0,180.0*
1,1,4.5000,-2.2500,3.7500*
1,1,4.5000,2.2500,3.7500*
1,1,4.5000,2.2500,-3.7500*
1,1,4.5000,-2.2500,-3.7500*
%
%ADD10ROUNDEDRECTD10*%
%ADD11R,1.1430X1.5240*%
%ADD12R,1.6000X1.0500*%
%ADD13R,1.7000X1.3000*%
%ADD14R,1.0500X1.6000*%
%ADD15R,1.5240X1.1430*%
%ADD16O,0.6500X1.7500*%
%ADD17O,0.6500X1.7500*%
%ADD18C,3.0000*%
%ADD19C,0.6000*%
%ADD20C,0.8000*%
%ADD21C,3.0000*%
%ADD22R,3.0000X3.0000*%
%ADD23C,1.5000*%
%ADD24C,2.0000*%
%ADD25R,2.0000X2.0000*%
%ADD26P,6.4944X8X202.5*%
%ADD27C,1.8000*%
%ADD28R,1.8000X1.8000*%
%ADD29R,2.0000X3.0000*%
%ADD30O,2.0000X3.0000*%
%ADD31R,2.5000X1.5000*%
%ADD32O,2.5000X1.5000*%
%ADD33C,1.2700*%
%ADD34C,0.8000*%
G36*
X2266469Y607000D02*
X2262469Y603000D01*
Y590000D01*
Y456000D01*
X2271469Y447000D01*
X2283469Y435000D01*
X2335469Y435000D01*
X2356469Y414000D01*
X2384469Y386000D01*
X2462469D01*
X2486469Y386000D01*
X2497469Y397000D01*
X2497469Y480000D01*
X2497469Y484000D01*
X2489469Y484000D01*
X2468469Y484000D01*
X2491149D01*
X2493469Y484000D01*
X2497469D01*
Y608000D01*
X2483469Y622000D01*
X2480469Y625000D01*
X2284469D01*
X2266469Y607000D01*
D02*
G37*
G36*
X1566469D02*
X1562469Y603000D01*
Y590000D01*
Y456000D01*
X1571469Y447000D01*
X1583469Y435000D01*
X1635469Y435000D01*
X1656469Y414000D01*
X1684469Y386000D01*
X1762469D01*
X1786469Y386000D01*
X1797469Y397000D01*
X1797469Y480000D01*
X1797469Y484000D01*
X1789469Y484000D01*
X1768469Y484000D01*
X1791149D01*
X1793469Y484000D01*
X1797469D01*
Y608000D01*
X1783469Y622000D01*
X1780469Y625000D01*
X1584469D01*
X1566469Y607000D01*
D02*
G37*
G36*
X866469D02*
X862469Y603000D01*
Y590000D01*
Y456000D01*
X871469Y447000D01*
X883469Y435000D01*
X935469Y435000D01*
X956469Y414000D01*
X984469Y386000D01*
X1062469D01*
X1086469Y386000D01*
X1097469Y397000D01*
X1097469Y480000D01*
X1097469Y484000D01*
X1089469Y484000D01*
X1068469Y484000D01*
X1091149D01*
X1093469Y484000D01*
X1097469D01*
Y608000D01*
X1083469Y622000D01*
X1080469Y625000D01*
X884469D01*
X866469Y607000D01*
D02*
G37*
D10*
X2452469Y450750D02*
D03*
X1752469D02*
D03*
X1052469D02*
D03*
D11*
X2314629Y395000D02*
D03*
X2294309D02*
D03*
X2314629Y421000D02*
D03*
X2294309D02*
D03*
X1614629Y395000D02*
D03*
X1594309D02*
D03*
X1614629Y421000D02*
D03*
X1594309D02*
D03*
X914629Y395000D02*
D03*
X894309D02*
D03*
X914629Y421000D02*
D03*
X894309D02*
D03*
D12*
X2661469Y313250D02*
D03*
Y332750D02*
D03*
X2602469Y333750D02*
D03*
Y314250D02*
D03*
X2618469Y570750D02*
D03*
Y551250D02*
D03*
X1961469Y313250D02*
D03*
Y332750D02*
D03*
X1902469Y333750D02*
D03*
Y314250D02*
D03*
X1918469Y570750D02*
D03*
Y551250D02*
D03*
X1261469Y313250D02*
D03*
Y332750D02*
D03*
X1202469Y333750D02*
D03*
Y314250D02*
D03*
X1218469Y570750D02*
D03*
Y551250D02*
D03*
D13*
X2631469Y298500D02*
D03*
Y333500D02*
D03*
X2688869Y392900D02*
D03*
Y357900D02*
D03*
X1931469Y298500D02*
D03*
Y333500D02*
D03*
X1988869Y392900D02*
D03*
Y357900D02*
D03*
X1231469Y298500D02*
D03*
Y333500D02*
D03*
X1288869Y392900D02*
D03*
Y357900D02*
D03*
D14*
X2627719Y216000D02*
D03*
X2647219D02*
D03*
X2697219Y458000D02*
D03*
X2677719D02*
D03*
X2539219Y483000D02*
D03*
X2519719D02*
D03*
X2573219Y542000D02*
D03*
X2553719D02*
D03*
X2682719Y332000D02*
D03*
X2702220D02*
D03*
X2555119Y327400D02*
D03*
X2574619D02*
D03*
X1927719Y216000D02*
D03*
X1947219D02*
D03*
X1997219Y458000D02*
D03*
X1977719D02*
D03*
X1839219Y483000D02*
D03*
X1819719D02*
D03*
X1873219Y542000D02*
D03*
X1853719D02*
D03*
X1982719Y332000D02*
D03*
X2002219D02*
D03*
X1855119Y327400D02*
D03*
X1874619D02*
D03*
X1227719Y216000D02*
D03*
X1247219D02*
D03*
X1297219Y458000D02*
D03*
X1277719D02*
D03*
X1139219Y483000D02*
D03*
X1119719D02*
D03*
X1173219Y542000D02*
D03*
X1153719D02*
D03*
X1282719Y332000D02*
D03*
X1302219D02*
D03*
X1155119Y327400D02*
D03*
X1174619D02*
D03*
D15*
X2680469Y508160D02*
D03*
Y487840D02*
D03*
X1980469Y508160D02*
D03*
Y487840D02*
D03*
X1280469Y508160D02*
D03*
Y487840D02*
D03*
D16*
X2362519Y370000D02*
D03*
X2349819D02*
D03*
X2337119D02*
D03*
X2324419D02*
D03*
Y314000D02*
D03*
X2337119D02*
D03*
X1662519Y370000D02*
D03*
X1649819D02*
D03*
X1637119D02*
D03*
X1624419D02*
D03*
Y314000D02*
D03*
X1637119D02*
D03*
X962519Y370000D02*
D03*
X949819D02*
D03*
X937119D02*
D03*
X924419D02*
D03*
Y314000D02*
D03*
X937119D02*
D03*
D17*
X2362519D02*
D03*
X2349819D02*
D03*
X1662519D02*
D03*
X1649819D02*
D03*
X962519D02*
D03*
X949819D02*
D03*
D18*
X2406278Y497191D02*
X2385469D01*
X2434969Y468500D02*
X2406278Y497191D01*
X2362519Y314000D02*
X2361507D01*
X2385469D02*
X2362519D01*
X2327519Y261000D02*
Y313000D01*
X2447519Y261000D02*
Y282938D01*
X2423469Y306988D02*
Y314000D01*
X2447519Y282938D02*
X2423469Y306988D01*
X2289419Y247050D02*
Y261000D01*
X2313469Y223000D02*
X2289419Y247050D01*
X2371419Y223000D02*
X2313469D01*
X2409419Y261000D02*
X2371419Y223000D01*
X2452469Y486000D02*
X2434969Y468500D01*
X1706278Y497191D02*
X1685469D01*
X1734969Y468500D02*
X1706278Y497191D01*
X1662519Y314000D02*
X1661507D01*
X1685469D02*
X1662519D01*
X1627519Y261000D02*
Y313000D01*
X1747519Y261000D02*
Y282938D01*
X1723469Y306988D02*
Y314000D01*
X1747519Y282938D02*
X1723469Y306988D01*
X1589419Y247050D02*
Y261000D01*
X1613469Y223000D02*
X1589419Y247050D01*
X1671419Y223000D02*
X1613469D01*
X1709419Y261000D02*
X1671419Y223000D01*
X1752469Y486000D02*
X1734969Y468500D01*
X1006278Y497191D02*
X985469D01*
X1034969Y468500D02*
X1006278Y497191D01*
X962519Y314000D02*
X961507D01*
X985469D02*
X962519D01*
X927519Y261000D02*
Y313000D01*
X1047519Y261000D02*
Y282938D01*
X1023469Y306988D02*
Y314000D01*
X1047519Y282938D02*
X1023469Y306988D01*
X889419Y247050D02*
Y261000D01*
X913469Y223000D02*
X889419Y247050D01*
X971419Y223000D02*
X913469D01*
X1009419Y261000D02*
X971419Y223000D01*
X1052469Y486000D02*
X1034969Y468500D01*
D19*
X2319469Y421000D02*
X2314629D01*
X2362519Y377950D02*
X2319469Y421000D01*
X2362519Y370000D02*
Y377950D01*
X2326469Y395000D02*
X2314629D01*
X2337119Y384350D02*
X2326469Y395000D01*
X2337119Y370000D02*
Y384350D01*
X2703419Y330800D02*
X2702220Y332000D01*
X2682719D02*
X2680969Y333750D01*
X2250109Y570000D02*
X2245469Y574640D01*
X2568475Y483700D02*
X2568369D01*
X2697419Y457800D02*
X2697219Y458000D01*
X2680969Y333750D02*
X2631469D01*
X2365869Y366650D02*
X2362519Y370000D01*
X1619469Y421000D02*
X1614629D01*
X1662519Y377950D02*
X1619469Y421000D01*
X1662519Y370000D02*
Y377950D01*
X1626469Y395000D02*
X1614629D01*
X1637119Y384350D02*
X1626469Y395000D01*
X1637119Y370000D02*
Y384350D01*
X2003419Y330800D02*
X2002219Y332000D01*
X1982719D02*
X1980969Y333750D01*
X1550109Y570000D02*
X1545469Y574640D01*
X1868475Y483700D02*
X1868369D01*
X1997419Y457800D02*
X1997219Y458000D01*
X1980969Y333750D02*
X1931469D01*
X1665869Y366650D02*
X1662519Y370000D01*
X919469Y421000D02*
X914629D01*
X962519Y377950D02*
X919469Y421000D01*
X962519Y370000D02*
Y377950D01*
X926469Y395000D02*
X914629D01*
X937119Y384350D02*
X926469Y395000D01*
X937119Y370000D02*
Y384350D01*
X1303419Y330800D02*
X1302219Y332000D01*
X1282719D02*
X1280969Y333750D01*
X850109Y570000D02*
X845469Y574640D01*
X1168475Y483700D02*
X1168369D01*
X1297419Y457800D02*
X1297219Y458000D01*
X1280969Y333750D02*
X1231469D01*
X965869Y366650D02*
X962519Y370000D01*
D20*
X2675469Y282000D02*
X2659469D01*
X2698869Y305400D02*
X2675469Y282000D01*
X2728069Y305400D02*
X2698869D01*
X2752469Y389000D02*
Y469000D01*
Y223270D02*
Y389000D01*
X2627719Y216000D02*
Y249750D01*
X2649469Y218250D02*
X2647219Y216000D01*
X2649469Y218250D02*
Y253000D01*
X2659469Y282000D02*
X2649469Y272000D01*
Y253000D02*
Y272000D01*
X2674469Y246000D02*
Y253000D01*
X2710199Y210270D02*
X2674469Y246000D01*
X2739469Y210270D02*
X2710199D01*
X2752469Y223270D02*
X2739469Y210270D01*
X2752469Y469000D02*
X2738269Y483200D01*
X2728069D01*
X2624469Y253000D02*
X2593669Y283800D01*
X2492269Y238000D02*
X2432419D01*
X2593669Y283800D02*
X2538069D01*
X2492269Y238000D01*
X2432419D02*
X2409419Y261000D01*
X2482469D02*
X2447519D01*
X2294309Y265890D02*
X2289419Y261000D01*
X2294309Y395000D02*
Y421000D01*
X2324419Y370000D02*
X2294309Y339890D01*
Y265890D02*
Y339890D01*
Y395000D01*
X2624469Y253000D02*
Y291500D01*
X2631469Y298500D02*
X2624469Y291500D01*
X2659969Y298500D02*
X2631469D01*
X2661469Y297000D02*
X2659969Y298500D01*
X2661469Y297000D02*
Y313250D01*
X2728069Y432400D02*
Y457800D01*
X2697419D01*
X2697219Y458000D02*
Y500250D01*
X2689309Y508160D01*
X2680469D01*
X2645509D01*
X2644569Y509100D01*
X2680469Y487840D02*
X2676329Y483700D01*
X2644569D01*
X2643049D01*
X2618469Y508280D01*
Y551250D01*
X2677719Y458000D02*
X2643349D01*
X2595469Y483520D02*
X2569890Y509100D01*
X2595469Y425000D02*
X2563469Y393000D01*
Y360000D02*
Y393000D01*
X2569890Y509100D02*
X2568369D01*
X2595469Y425000D02*
Y483520D01*
X2644569Y432900D02*
X2601669Y390000D01*
X2601469D01*
X2568369Y458300D02*
X2566769D01*
X2522469Y414000D01*
X2728069Y330800D02*
X2703419D01*
X2601219Y332000D02*
X2599469Y333750D01*
X2682719Y332000D02*
X2601219D01*
X2507469Y319000D02*
X2477869D01*
X2601469Y233000D02*
X2563469D01*
X2601469Y233000D02*
X2601469Y233000D01*
X2550219Y639000D02*
X2282709D01*
X2245469Y676240D01*
X2618469Y570750D02*
X2550219Y639000D01*
X2539219Y483000D02*
Y527500D01*
X2553719Y542000D02*
X2539219Y527500D01*
Y466750D02*
Y483000D01*
X2568369Y483700D02*
X2539919D01*
X2539219Y483000D01*
X2643349Y458000D02*
X2598469Y502880D01*
Y516750D01*
X2573219Y542000D01*
X2522469Y301000D02*
X2482469Y261000D01*
X2507469Y382000D02*
X2505469Y380000D01*
X2507469Y382000D02*
Y435000D01*
X2539219Y466750D02*
X2507469Y435000D01*
X2455469Y483000D02*
X2452469Y486000D01*
X2519719Y483000D02*
X2455469D01*
X2385943Y314000D02*
X2385469D01*
X2728069Y356200D02*
X2600356D01*
X2518469Y338000D02*
X2409942D01*
X2385943Y314000D01*
X2600356Y356200D02*
X2574156Y330000D01*
X2365869Y365650D02*
Y366650D01*
X2569890Y344500D02*
X2557049D01*
X2597469Y372080D02*
X2569890Y344500D01*
X2597469Y372080D02*
Y373000D01*
X2715556D02*
X2597469D01*
X2715756Y373200D02*
X2715556Y373000D01*
X2736669Y373200D02*
X2715756D01*
X2752469Y389000D02*
X2736669Y373200D01*
X2535899Y365650D02*
X2365869D01*
X2557049Y344500D02*
X2535899Y365650D01*
X2555119Y327400D02*
X2554869D01*
X2349819Y360450D02*
Y370000D01*
X2554869Y327400D02*
X2530869Y351400D01*
X2358869D01*
X2349819Y360450D01*
X2545069Y311400D02*
X2518469Y338000D01*
X2599619Y311400D02*
X2545069D01*
X2602469Y314250D02*
X2599619Y311400D01*
X2728069Y432400D02*
X2690669Y395000D01*
X2661469D01*
X1975469Y282000D02*
X1959469D01*
X1998869Y305400D02*
X1975469Y282000D01*
X2028069Y305400D02*
X1998869D01*
X2052469Y389000D02*
Y469000D01*
Y223270D02*
Y389000D01*
X1927719Y216000D02*
Y249750D01*
X1949469Y218250D02*
X1947219Y216000D01*
X1949469Y218250D02*
Y253000D01*
X1959469Y282000D02*
X1949469Y272000D01*
Y253000D02*
Y272000D01*
X1974469Y246000D02*
Y253000D01*
X2010199Y210270D02*
X1974469Y246000D01*
X2039469Y210270D02*
X2010199D01*
X2052469Y223270D02*
X2039469Y210270D01*
X2052469Y469000D02*
X2038269Y483200D01*
X2028069D01*
X1924469Y253000D02*
X1893669Y283800D01*
X1792269Y238000D02*
X1732419D01*
X1893669Y283800D02*
X1838069D01*
X1792269Y238000D01*
X1732419D02*
X1709419Y261000D01*
X1782469D02*
X1747519D01*
X1594309Y265890D02*
X1589419Y261000D01*
X1594309Y395000D02*
Y421000D01*
X1624419Y370000D02*
X1594309Y339890D01*
Y265890D02*
Y339890D01*
Y395000D01*
X1924469Y253000D02*
Y291500D01*
X1931469Y298500D02*
X1924469Y291500D01*
X1959969Y298500D02*
X1931469D01*
X1961469Y297000D02*
X1959969Y298500D01*
X1961469Y297000D02*
Y313250D01*
X2028069Y432400D02*
Y457800D01*
X1997419D01*
X1997219Y458000D02*
Y500250D01*
X1989309Y508160D01*
X1980469D01*
X1945509D01*
X1944569Y509100D01*
X1980469Y487840D02*
X1976329Y483700D01*
X1944569D01*
X1943049D01*
X1918469Y508280D01*
Y551250D01*
X1977719Y458000D02*
X1943349D01*
X1895469Y483520D02*
X1869890Y509100D01*
X1895469Y425000D02*
X1863469Y393000D01*
Y360000D02*
Y393000D01*
X1869890Y509100D02*
X1868369D01*
X1895469Y425000D02*
Y483520D01*
X1944569Y432900D02*
X1901669Y390000D01*
X1901469D01*
X1868369Y458300D02*
X1866769D01*
X1822469Y414000D01*
X2028069Y330800D02*
X2003419D01*
X1901219Y332000D02*
X1899469Y333750D01*
X1982719Y332000D02*
X1901219D01*
X1807469Y319000D02*
X1777869D01*
X1901469Y233000D02*
X1863469D01*
X1901469Y233000D02*
X1901469Y233000D01*
X1850219Y639000D02*
X1582709D01*
X1545469Y676240D01*
X1918469Y570750D02*
X1850219Y639000D01*
X1839219Y483000D02*
Y527500D01*
X1853719Y542000D02*
X1839219Y527500D01*
Y466750D02*
Y483000D01*
X1868369Y483700D02*
X1839919D01*
X1839219Y483000D01*
X1943349Y458000D02*
X1898469Y502880D01*
Y516750D01*
X1873219Y542000D01*
X1822469Y301000D02*
X1782469Y261000D01*
X1807469Y382000D02*
X1805469Y380000D01*
X1807469Y382000D02*
Y435000D01*
X1839219Y466750D02*
X1807469Y435000D01*
X1755469Y483000D02*
X1752469Y486000D01*
X1819719Y483000D02*
X1755469D01*
X1685943Y314000D02*
X1685469D01*
X2028069Y356200D02*
X1900356D01*
X1818469Y338000D02*
X1709942D01*
X1685943Y314000D01*
X1900356Y356200D02*
X1874156Y330000D01*
X1665869Y365650D02*
Y366650D01*
X1869890Y344500D02*
X1857049D01*
X1897469Y372080D02*
X1869890Y344500D01*
X1897469Y372080D02*
Y373000D01*
X2015556D02*
X1897469D01*
X2015756Y373200D02*
X2015556Y373000D01*
X2036669Y373200D02*
X2015756D01*
X2052469Y389000D02*
X2036669Y373200D01*
X1835899Y365650D02*
X1665869D01*
X1857049Y344500D02*
X1835899Y365650D01*
X1855119Y327400D02*
X1854869D01*
X1649819Y360450D02*
Y370000D01*
X1854869Y327400D02*
X1830869Y351400D01*
X1658869D01*
X1649819Y360450D01*
X1845069Y311400D02*
X1818469Y338000D01*
X1899619Y311400D02*
X1845069D01*
X1902469Y314250D02*
X1899619Y311400D01*
X2028069Y432400D02*
X1990669Y395000D01*
X1961469D01*
X1275469Y282000D02*
X1259469D01*
X1298869Y305400D02*
X1275469Y282000D01*
X1328069Y305400D02*
X1298869D01*
X1352469Y389000D02*
Y469000D01*
Y223270D02*
Y389000D01*
X1227719Y216000D02*
Y249750D01*
X1249469Y218250D02*
X1247219Y216000D01*
X1249469Y218250D02*
Y253000D01*
X1259469Y282000D02*
X1249469Y272000D01*
Y253000D02*
Y272000D01*
X1274469Y246000D02*
Y253000D01*
X1310199Y210270D02*
X1274469Y246000D01*
X1339469Y210270D02*
X1310199D01*
X1352469Y223270D02*
X1339469Y210270D01*
X1352469Y469000D02*
X1338269Y483200D01*
X1328069D01*
X1224469Y253000D02*
X1193669Y283800D01*
X1092269Y238000D02*
X1032419D01*
X1193669Y283800D02*
X1138069D01*
X1092269Y238000D01*
X1032419D02*
X1009419Y261000D01*
X1082469D02*
X1047519D01*
X894309Y265890D02*
X889419Y261000D01*
X894309Y395000D02*
Y421000D01*
X924419Y370000D02*
X894309Y339890D01*
Y265890D02*
Y339890D01*
Y395000D01*
X1224469Y253000D02*
Y291500D01*
X1231469Y298500D02*
X1224469Y291500D01*
X1259969Y298500D02*
X1231469D01*
X1261469Y297000D02*
X1259969Y298500D01*
X1261469Y297000D02*
Y313250D01*
X1328069Y432400D02*
Y457800D01*
X1297419D01*
X1297219Y458000D02*
Y500250D01*
X1289309Y508160D01*
X1280469D01*
X1245509D01*
X1244569Y509100D01*
X1280469Y487840D02*
X1276329Y483700D01*
X1244569D01*
X1243049D01*
X1218469Y508280D01*
Y551250D01*
X1277719Y458000D02*
X1243349D01*
X1195469Y483520D02*
X1169890Y509100D01*
X1195469Y425000D02*
X1163469Y393000D01*
Y360000D02*
Y393000D01*
X1169890Y509100D02*
X1168369D01*
X1195469Y425000D02*
Y483520D01*
X1244569Y432900D02*
X1201669Y390000D01*
X1201469D01*
X1168369Y458300D02*
X1166769D01*
X1122469Y414000D01*
X1328069Y330800D02*
X1303419D01*
X1201219Y332000D02*
X1199469Y333750D01*
X1282719Y332000D02*
X1201219D01*
X1107469Y319000D02*
X1077869D01*
X1201469Y233000D02*
X1163469D01*
X1201469Y233000D02*
X1201469Y233000D01*
X1150219Y639000D02*
X882709D01*
X845469Y676240D01*
X1218469Y570750D02*
X1150219Y639000D01*
X1139219Y483000D02*
Y527500D01*
X1153719Y542000D02*
X1139219Y527500D01*
Y466750D02*
Y483000D01*
X1168369Y483700D02*
X1139919D01*
X1139219Y483000D01*
X1243349Y458000D02*
X1198469Y502880D01*
Y516750D01*
X1173219Y542000D01*
X1122469Y301000D02*
X1082469Y261000D01*
X1107469Y382000D02*
X1105469Y380000D01*
X1107469Y382000D02*
Y435000D01*
X1139219Y466750D02*
X1107469Y435000D01*
X1055469Y483000D02*
X1052469Y486000D01*
X1119719Y483000D02*
X1055469D01*
X985943Y314000D02*
X985469D01*
X1328069Y356200D02*
X1200356D01*
X1118469Y338000D02*
X1009942D01*
X985943Y314000D01*
X1200356Y356200D02*
X1174156Y330000D01*
X965869Y365650D02*
Y366650D01*
X1169890Y344500D02*
X1157049D01*
X1197469Y372080D02*
X1169890Y344500D01*
X1197469Y372080D02*
Y373000D01*
X1315556D02*
X1197469D01*
X1315756Y373200D02*
X1315556Y373000D01*
X1336669Y373200D02*
X1315756D01*
X1352469Y389000D02*
X1336669Y373200D01*
X1135899Y365650D02*
X965869D01*
X1157049Y344500D02*
X1135899Y365650D01*
X1155119Y327400D02*
X1154869D01*
X949819Y360450D02*
Y370000D01*
X1154869Y327400D02*
X1130869Y351400D01*
X958869D01*
X949819Y360450D01*
X1145069Y311400D02*
X1118469Y338000D01*
X1199619Y311400D02*
X1145069D01*
X1202469Y314250D02*
X1199619Y311400D01*
X1328069Y432400D02*
X1290669Y395000D01*
X1261469D01*
D21*
X2381469Y497191D02*
D03*
X1681469D02*
D03*
X981469D02*
D03*
D22*
X2381469Y308809D02*
D03*
X1681469D02*
D03*
X981469D02*
D03*
D23*
X2563469Y360000D02*
D03*
X2538069Y283800D02*
D03*
X2563469Y233000D02*
D03*
X1863469Y360000D02*
D03*
X1838069Y283800D02*
D03*
X1863469Y233000D02*
D03*
X1163469Y360000D02*
D03*
X1138069Y283800D02*
D03*
X1163469Y233000D02*
D03*
D24*
X2447519Y261000D02*
D03*
X2327519D02*
D03*
X2427069Y319000D02*
D03*
X2452469D02*
D03*
X1747519Y261000D02*
D03*
X1627519D02*
D03*
X1727069Y319000D02*
D03*
X1752469D02*
D03*
X1047519Y261000D02*
D03*
X927519D02*
D03*
X1027069Y319000D02*
D03*
X1052469D02*
D03*
D25*
X2409419Y261000D02*
D03*
X2289419D02*
D03*
X2477869Y319000D02*
D03*
X1709419Y261000D02*
D03*
X1589419D02*
D03*
X1777869Y319000D02*
D03*
X1009419Y261000D02*
D03*
X889419D02*
D03*
X1077869Y319000D02*
D03*
D26*
X2452469Y486000D02*
D03*
X1752469D02*
D03*
X1052469D02*
D03*
D27*
X2728069Y229200D02*
D03*
Y254600D02*
D03*
Y280000D02*
D03*
Y305400D02*
D03*
Y330800D02*
D03*
X2245469Y254600D02*
D03*
Y280000D02*
D03*
Y305400D02*
D03*
Y330800D02*
D03*
Y356200D02*
D03*
Y381600D02*
D03*
Y407000D02*
D03*
X2728069Y559400D02*
D03*
Y534000D02*
D03*
Y508600D02*
D03*
Y483200D02*
D03*
Y457800D02*
D03*
Y432400D02*
D03*
Y407000D02*
D03*
X2245469Y473040D02*
D03*
Y498440D02*
D03*
Y523840D02*
D03*
Y549240D02*
D03*
Y574640D02*
D03*
Y600040D02*
D03*
Y625440D02*
D03*
Y676240D02*
D03*
Y650840D02*
D03*
X2028069Y229200D02*
D03*
Y254600D02*
D03*
Y280000D02*
D03*
Y305400D02*
D03*
Y330800D02*
D03*
X1545469Y254600D02*
D03*
Y280000D02*
D03*
Y305400D02*
D03*
Y330800D02*
D03*
Y356200D02*
D03*
Y381600D02*
D03*
Y407000D02*
D03*
X2028069Y559400D02*
D03*
Y534000D02*
D03*
Y508600D02*
D03*
Y483200D02*
D03*
Y457800D02*
D03*
Y432400D02*
D03*
Y407000D02*
D03*
X1545469Y473040D02*
D03*
Y498440D02*
D03*
Y523840D02*
D03*
Y549240D02*
D03*
Y574640D02*
D03*
Y600040D02*
D03*
Y625440D02*
D03*
Y676240D02*
D03*
Y650840D02*
D03*
X1328069Y229200D02*
D03*
Y254600D02*
D03*
Y280000D02*
D03*
Y305400D02*
D03*
Y330800D02*
D03*
X845469Y254600D02*
D03*
Y280000D02*
D03*
Y305400D02*
D03*
Y330800D02*
D03*
Y356200D02*
D03*
Y381600D02*
D03*
Y407000D02*
D03*
X1328069Y559400D02*
D03*
Y534000D02*
D03*
Y508600D02*
D03*
Y483200D02*
D03*
Y457800D02*
D03*
Y432400D02*
D03*
Y407000D02*
D03*
X845469Y473040D02*
D03*
Y498440D02*
D03*
Y523840D02*
D03*
Y549240D02*
D03*
Y574640D02*
D03*
Y600040D02*
D03*
Y625440D02*
D03*
Y676240D02*
D03*
Y650840D02*
D03*
D28*
X2728069Y356200D02*
D03*
X2245469Y229200D02*
D03*
X2728069Y584800D02*
D03*
X2245469Y447640D02*
D03*
X2028069Y356200D02*
D03*
X1545469Y229200D02*
D03*
X2028069Y584800D02*
D03*
X1545469Y447640D02*
D03*
X1328069Y356200D02*
D03*
X845469Y229200D02*
D03*
X1328069Y584800D02*
D03*
X845469Y447640D02*
D03*
D29*
X2674469Y253000D02*
D03*
X1974469D02*
D03*
X1274469D02*
D03*
D30*
X2649469D02*
D03*
X2624469D02*
D03*
X1949469D02*
D03*
X1924469D02*
D03*
X1249469D02*
D03*
X1224469D02*
D03*
D31*
X2644569Y432900D02*
D03*
X1944569D02*
D03*
X1244569D02*
D03*
D32*
X2644569Y458300D02*
D03*
Y483700D02*
D03*
Y509100D02*
D03*
X2568369Y432900D02*
D03*
Y458300D02*
D03*
Y483700D02*
D03*
Y509100D02*
D03*
X1944569Y458300D02*
D03*
Y483700D02*
D03*
Y509100D02*
D03*
X1868369Y432900D02*
D03*
Y458300D02*
D03*
Y483700D02*
D03*
Y509100D02*
D03*
X1244569Y458300D02*
D03*
Y483700D02*
D03*
Y509100D02*
D03*
X1168369Y432900D02*
D03*
Y458300D02*
D03*
Y483700D02*
D03*
Y509100D02*
D03*
D33*
X2522469Y301000D02*
D03*
X2507469Y380000D02*
D03*
Y319000D02*
D03*
X2661469Y395000D02*
D03*
Y297000D02*
D03*
X2601469Y390000D02*
D03*
Y233000D02*
D03*
X2522469Y414000D02*
D03*
X1822469Y301000D02*
D03*
X1807469Y380000D02*
D03*
Y319000D02*
D03*
X1961469Y395000D02*
D03*
Y297000D02*
D03*
X1901469Y390000D02*
D03*
Y233000D02*
D03*
X1822469Y414000D02*
D03*
X1122469Y301000D02*
D03*
X1107469Y380000D02*
D03*
Y319000D02*
D03*
X1261469Y395000D02*
D03*
Y297000D02*
D03*
X1201469Y390000D02*
D03*
Y233000D02*
D03*
X1122469Y414000D02*
D03*
D34*
X2434969Y503500D02*
D03*
X2469969D02*
D03*
Y468500D02*
D03*
X2434969D02*
D03*
X2427719Y486000D02*
D03*
X2452469Y461250D02*
D03*
X2477219Y486000D02*
D03*
X2452469Y510750D02*
D03*
X1734969Y503500D02*
D03*
X1769969D02*
D03*
Y468500D02*
D03*
X1734969D02*
D03*
X1727719Y486000D02*
D03*
X1752469Y461250D02*
D03*
X1777219Y486000D02*
D03*
X1752469Y510750D02*
D03*
X1034969Y503500D02*
D03*
X1069969D02*
D03*
Y468500D02*
D03*
X1034969D02*
D03*
X1027719Y486000D02*
D03*
X1052469Y461250D02*
D03*
X1077219Y486000D02*
D03*
X1052469Y510750D02*
D03*
M02*
