G04 Layer_Color=65535*
%FSLAX44Y44*%
%MOMM*%
G71*
G01*
G75*
%ADD35C,0.1000*%
%ADD36C,0.2500*%
%ADD37C,0.2000*%
%ADD38C,0.2540*%
%ADD39C,0.1500*%
D35*
X2367969Y347000D02*
G03*
X2367969Y337000I0J-5000D01*
G01*
X2323469Y384250D02*
Y405750D01*
Y384250D02*
X2285419D01*
Y405750D01*
X2323469D02*
X2285419D01*
X2650219Y313000D02*
Y333000D01*
X2672719Y313000D02*
Y333000D01*
X2647469Y227250D02*
X2627469D01*
X2647469Y204750D02*
X2627469D01*
X2691219Y517000D02*
X2669719D01*
X2691219Y478950D02*
Y517000D01*
Y478950D02*
X2669719D01*
Y517000D01*
X2697469Y446750D02*
X2677469D01*
X2697469Y469250D02*
X2677469D01*
X2613719Y314000D02*
Y334000D01*
X2591219Y314000D02*
Y334000D01*
X2629719Y551000D02*
Y571000D01*
X2607219Y551000D02*
Y571000D01*
X2367969Y329000D02*
Y355000D01*
X2318969D01*
Y329000D02*
Y355000D01*
X2367969Y329000D02*
X2318969D01*
X2323469Y410250D02*
Y431750D01*
Y410250D02*
X2285419D01*
Y431750D01*
X2323469D02*
X2285419D01*
X2539469Y471750D02*
X2519469D01*
X2539469Y494250D02*
X2519469D01*
X2573469Y530750D02*
X2553469D01*
X2573469Y553250D02*
X2553469D01*
X2702469Y343250D02*
X2682469D01*
X2702469Y320750D02*
X2682469D01*
X2479719Y340725D02*
X2478958Y341106D01*
X2477815Y342248D01*
Y334250D01*
X2367969Y947000D02*
G03*
X2367969Y937000I0J-5000D01*
G01*
X2323469Y984250D02*
Y1005750D01*
Y984250D02*
X2285419D01*
Y1005750D01*
X2323469D02*
X2285419D01*
X2650219Y913000D02*
Y933000D01*
X2672719Y913000D02*
Y933000D01*
X2647469Y827250D02*
X2627469D01*
X2647469Y804750D02*
X2627469D01*
X2691219Y1117000D02*
X2669719D01*
X2691219Y1078950D02*
Y1117000D01*
Y1078950D02*
X2669719D01*
Y1117000D01*
X2697469Y1046750D02*
X2677469D01*
X2697469Y1069250D02*
X2677469D01*
X2613719Y914000D02*
Y934000D01*
X2591219Y914000D02*
Y934000D01*
X2629719Y1151000D02*
Y1171000D01*
X2607219Y1151000D02*
Y1171000D01*
X2367969Y929000D02*
Y955000D01*
X2318969D01*
Y929000D02*
Y955000D01*
X2367969Y929000D02*
X2318969D01*
X2323469Y1010250D02*
Y1031750D01*
Y1010250D02*
X2285419D01*
Y1031750D01*
X2323469D02*
X2285419D01*
X2539469Y1071750D02*
X2519469D01*
X2539469Y1094250D02*
X2519469D01*
X2573469Y1130750D02*
X2553469D01*
X2573469Y1153250D02*
X2553469D01*
X2702469Y943250D02*
X2682469D01*
X2702469Y920750D02*
X2682469D01*
X2479719Y940725D02*
X2478958Y941106D01*
X2477815Y942248D01*
Y934250D01*
X2367969Y1547000D02*
G03*
X2367969Y1537000I0J-5000D01*
G01*
X2323469Y1584250D02*
Y1605750D01*
Y1584250D02*
X2285419D01*
Y1605750D01*
X2323469D02*
X2285419D01*
X2650219Y1513000D02*
Y1533000D01*
X2672719Y1513000D02*
Y1533000D01*
X2647469Y1427250D02*
X2627469D01*
X2647469Y1404750D02*
X2627469D01*
X2691219Y1717000D02*
X2669719D01*
X2691219Y1678950D02*
Y1717000D01*
Y1678950D02*
X2669719D01*
Y1717000D01*
X2697469Y1646750D02*
X2677469D01*
X2697469Y1669250D02*
X2677469D01*
X2613719Y1514000D02*
Y1534000D01*
X2591219Y1514000D02*
Y1534000D01*
X2629719Y1751000D02*
Y1771000D01*
X2607219Y1751000D02*
Y1771000D01*
X2367969Y1529000D02*
Y1555000D01*
X2318969D01*
Y1529000D02*
Y1555000D01*
X2367969Y1529000D02*
X2318969D01*
X2323469Y1610250D02*
Y1631750D01*
Y1610250D02*
X2285419D01*
Y1631750D01*
X2323469D02*
X2285419D01*
X2539469Y1671750D02*
X2519469D01*
X2539469Y1694250D02*
X2519469D01*
X2573469Y1730750D02*
X2553469D01*
X2573469Y1753250D02*
X2553469D01*
X2702469Y1543250D02*
X2682469D01*
X2702469Y1520750D02*
X2682469D01*
X2479719Y1540725D02*
X2478958Y1541106D01*
X2477815Y1542248D01*
Y1534250D01*
D36*
X2369719Y314500D02*
G03*
X2369719Y314500I1250J0D01*
G01*
Y914500D02*
G03*
X2369719Y914500I1250J0D01*
G01*
Y1514500D02*
G03*
X2369719Y1514500I1250J0D01*
G01*
D37*
X2401219Y360751D02*
Y504250D01*
X2503719Y360751D02*
Y504250D01*
Y360751D02*
X2401219D01*
X2412469Y515500D02*
X2401219Y504250D01*
X2431469Y515500D02*
X2412469D01*
X2492469Y515500D02*
X2473469D01*
X2503719Y504250D02*
X2492469Y515500D01*
X2643969Y287750D02*
X2618969D01*
X2622157Y344250D02*
X2618969Y341417D01*
X2643969Y341306D02*
X2640657Y344250D01*
X2622157D01*
X2618969Y287750D02*
Y306150D01*
X2643969Y287750D02*
Y305000D01*
Y330150D02*
Y341306D01*
X2618969Y330150D02*
Y341417D01*
X2401219Y960751D02*
Y1104250D01*
X2503719Y960751D02*
Y1104250D01*
Y960751D02*
X2401219D01*
X2412469Y1115500D02*
X2401219Y1104250D01*
X2431469Y1115500D02*
X2412469D01*
X2492469Y1115500D02*
X2473469D01*
X2503719Y1104250D02*
X2492469Y1115500D01*
X2643969Y887750D02*
X2618969D01*
X2622157Y944250D02*
X2618969Y941417D01*
X2643969Y941305D02*
X2640657Y944250D01*
X2622157D01*
X2618969Y887750D02*
Y906150D01*
X2643969Y887750D02*
Y905000D01*
Y930150D02*
Y941305D01*
X2618969Y930150D02*
Y941417D01*
X2401219Y1560751D02*
Y1704250D01*
X2503719Y1560751D02*
Y1704250D01*
Y1560751D02*
X2401219D01*
X2412469Y1715500D02*
X2401219Y1704250D01*
X2431469Y1715500D02*
X2412469D01*
X2492469Y1715500D02*
X2473469D01*
X2503719Y1704250D02*
X2492469Y1715500D01*
X2643969Y1487750D02*
X2618969D01*
X2622157Y1544250D02*
X2618969Y1541417D01*
X2643969Y1541306D02*
X2640657Y1544250D01*
X2622157D01*
X2618969Y1487750D02*
Y1506150D01*
X2643969Y1487750D02*
Y1505000D01*
Y1530150D02*
Y1541306D01*
X2618969Y1530150D02*
Y1541417D01*
D38*
X2325469Y227235D02*
Y212000D01*
X2317852D01*
X2315313Y214539D01*
Y217078D01*
X2317852Y219618D01*
X2325469D01*
X2317852D01*
X2315313Y222157D01*
Y224696D01*
X2317852Y227235D01*
X2325469D01*
X2310234Y212000D02*
Y222157D01*
X2305156Y227235D01*
X2300078Y222157D01*
Y212000D01*
Y219618D01*
X2310234D01*
X2294999Y227235D02*
X2284843D01*
X2289921D01*
Y212000D01*
X2462469Y214000D02*
Y229235D01*
X2454852D01*
X2452313Y226696D01*
Y221618D01*
X2454852Y219078D01*
X2462469D01*
X2439617Y229235D02*
X2444695D01*
X2447234Y226696D01*
Y216539D01*
X2444695Y214000D01*
X2439617D01*
X2437077Y216539D01*
Y226696D01*
X2439617Y229235D01*
X2431999D02*
Y214000D01*
X2426921Y219078D01*
X2421842Y214000D01*
Y229235D01*
X2406607D02*
X2416764D01*
Y214000D01*
X2406607D01*
X2416764Y221618D02*
X2411686D01*
X2401529Y214000D02*
Y229235D01*
X2393911D01*
X2391372Y226696D01*
Y221618D01*
X2393911Y219078D01*
X2401529D01*
X2396451D02*
X2391372Y214000D01*
X2559469Y206000D02*
Y221235D01*
X2551852D01*
X2549313Y218696D01*
Y213617D01*
X2551852Y211078D01*
X2559469D01*
X2554391D02*
X2549313Y206000D01*
X2534077Y221235D02*
X2544234D01*
Y213617D01*
X2539156Y216157D01*
X2536617D01*
X2534077Y213617D01*
Y208539D01*
X2536617Y206000D01*
X2541695D01*
X2544234Y208539D01*
X2325469Y827235D02*
Y812000D01*
X2317852D01*
X2315313Y814539D01*
Y817078D01*
X2317852Y819617D01*
X2325469D01*
X2317852D01*
X2315313Y822157D01*
Y824696D01*
X2317852Y827235D01*
X2325469D01*
X2310234Y812000D02*
Y822157D01*
X2305156Y827235D01*
X2300078Y822157D01*
Y812000D01*
Y819617D01*
X2310234D01*
X2294999Y827235D02*
X2284843D01*
X2289921D01*
Y812000D01*
X2462469Y814000D02*
Y829235D01*
X2454852D01*
X2452313Y826696D01*
Y821618D01*
X2454852Y819078D01*
X2462469D01*
X2439617Y829235D02*
X2444695D01*
X2447234Y826696D01*
Y816539D01*
X2444695Y814000D01*
X2439617D01*
X2437077Y816539D01*
Y826696D01*
X2439617Y829235D01*
X2431999D02*
Y814000D01*
X2426921Y819078D01*
X2421842Y814000D01*
Y829235D01*
X2406607D02*
X2416764D01*
Y814000D01*
X2406607D01*
X2416764Y821618D02*
X2411686D01*
X2401529Y814000D02*
Y829235D01*
X2393911D01*
X2391372Y826696D01*
Y821618D01*
X2393911Y819078D01*
X2401529D01*
X2396451D02*
X2391372Y814000D01*
X2559469Y806000D02*
Y821235D01*
X2551852D01*
X2549313Y818696D01*
Y813617D01*
X2551852Y811078D01*
X2559469D01*
X2554391D02*
X2549313Y806000D01*
X2534077Y821235D02*
X2544234D01*
Y813617D01*
X2539156Y816157D01*
X2536617D01*
X2534077Y813617D01*
Y808539D01*
X2536617Y806000D01*
X2541695D01*
X2544234Y808539D01*
X2325469Y1427235D02*
Y1412000D01*
X2317852D01*
X2315313Y1414539D01*
Y1417078D01*
X2317852Y1419617D01*
X2325469D01*
X2317852D01*
X2315313Y1422157D01*
Y1424696D01*
X2317852Y1427235D01*
X2325469D01*
X2310234Y1412000D02*
Y1422157D01*
X2305156Y1427235D01*
X2300078Y1422157D01*
Y1412000D01*
Y1419617D01*
X2310234D01*
X2294999Y1427235D02*
X2284843D01*
X2289921D01*
Y1412000D01*
X2462469Y1414000D02*
Y1429235D01*
X2454852D01*
X2452313Y1426696D01*
Y1421617D01*
X2454852Y1419078D01*
X2462469D01*
X2439617Y1429235D02*
X2444695D01*
X2447234Y1426696D01*
Y1416539D01*
X2444695Y1414000D01*
X2439617D01*
X2437077Y1416539D01*
Y1426696D01*
X2439617Y1429235D01*
X2431999D02*
Y1414000D01*
X2426921Y1419078D01*
X2421842Y1414000D01*
Y1429235D01*
X2406607D02*
X2416764D01*
Y1414000D01*
X2406607D01*
X2416764Y1421617D02*
X2411686D01*
X2401529Y1414000D02*
Y1429235D01*
X2393911D01*
X2391372Y1426696D01*
Y1421617D01*
X2393911Y1419078D01*
X2401529D01*
X2396451D02*
X2391372Y1414000D01*
X2559469Y1406000D02*
Y1421235D01*
X2551852D01*
X2549313Y1418696D01*
Y1413618D01*
X2551852Y1411078D01*
X2559469D01*
X2554391D02*
X2549313Y1406000D01*
X2534077Y1421235D02*
X2544234D01*
Y1413618D01*
X2539156Y1416157D01*
X2536617D01*
X2534077Y1413618D01*
Y1408539D01*
X2536617Y1406000D01*
X2541695D01*
X2544234Y1408539D01*
D39*
X2680805Y531331D02*
X2682471Y532997D01*
X2685803D01*
X2687469Y531331D01*
Y524666D01*
X2685803Y523000D01*
X2682471D01*
X2680805Y524666D01*
X2677473Y523000D02*
X2674140D01*
X2675806D01*
Y532997D01*
X2677473Y531331D01*
X2273805Y424331D02*
X2275471Y425997D01*
X2278803D01*
X2280469Y424331D01*
Y417666D01*
X2278803Y416000D01*
X2275471D01*
X2273805Y417666D01*
X2263808Y416000D02*
X2270473D01*
X2263808Y422664D01*
Y424331D01*
X2265474Y425997D01*
X2268806D01*
X2270473Y424331D01*
X2273805Y400331D02*
X2275471Y401997D01*
X2278803D01*
X2280469Y400331D01*
Y393666D01*
X2278803Y392000D01*
X2275471D01*
X2273805Y393666D01*
X2270473Y400331D02*
X2268806Y401997D01*
X2265474D01*
X2263808Y400331D01*
Y398665D01*
X2265474Y396998D01*
X2267140D01*
X2265474D01*
X2263808Y395332D01*
Y393666D01*
X2265474Y392000D01*
X2268806D01*
X2270473Y393666D01*
X2624469Y584000D02*
Y593997D01*
X2619471D01*
X2617805Y592331D01*
Y588998D01*
X2619471Y587332D01*
X2624469D01*
X2621137D02*
X2617805Y584000D01*
X2614472D02*
X2611140D01*
X2612806D01*
Y593997D01*
X2614472Y592331D01*
X2696469Y431000D02*
Y440997D01*
X2691471D01*
X2689805Y439331D01*
Y435998D01*
X2691471Y434332D01*
X2696469D01*
X2693137D02*
X2689805Y431000D01*
X2679808D02*
X2686472D01*
X2679808Y437664D01*
Y439331D01*
X2681474Y440997D01*
X2684807D01*
X2686472Y439331D01*
X2533469Y503000D02*
Y512997D01*
X2528471D01*
X2526805Y511331D01*
Y507998D01*
X2528471Y506332D01*
X2533469D01*
X2530137D02*
X2526805Y503000D01*
X2523473Y511331D02*
X2521806Y512997D01*
X2518474D01*
X2516808Y511331D01*
Y509664D01*
X2518474Y507998D01*
X2520140D01*
X2518474D01*
X2516808Y506332D01*
Y504666D01*
X2518474Y503000D01*
X2521806D01*
X2523473Y504666D01*
X2551469Y558000D02*
Y567997D01*
X2546471D01*
X2544805Y566331D01*
Y562998D01*
X2546471Y561332D01*
X2551469D01*
X2548137D02*
X2544805Y558000D01*
X2536474D02*
Y567997D01*
X2541473Y562998D01*
X2534808D01*
X2607469Y345000D02*
Y354997D01*
X2602471D01*
X2600805Y353331D01*
Y349998D01*
X2602471Y348332D01*
X2607469D01*
X2604137D02*
X2600805Y345000D01*
X2590808Y354997D02*
X2594140Y353331D01*
X2597473Y349998D01*
Y346666D01*
X2595806Y345000D01*
X2592474D01*
X2590808Y346666D01*
Y348332D01*
X2592474Y349998D01*
X2597473D01*
X2666469Y347000D02*
Y356997D01*
X2661471D01*
X2659805Y355331D01*
Y351998D01*
X2661471Y350332D01*
X2666469D01*
X2663137D02*
X2659805Y347000D01*
X2656472Y356997D02*
X2649808D01*
Y355331D01*
X2656472Y348666D01*
Y347000D01*
X2677469Y215000D02*
Y224997D01*
X2672471D01*
X2670805Y223331D01*
Y219998D01*
X2672471Y218332D01*
X2677469D01*
X2674137D02*
X2670805Y215000D01*
X2667473Y223331D02*
X2665806Y224997D01*
X2662474D01*
X2660808Y223331D01*
Y221665D01*
X2662474Y219998D01*
X2660808Y218332D01*
Y216666D01*
X2662474Y215000D01*
X2665806D01*
X2667473Y216666D01*
Y218332D01*
X2665806Y219998D01*
X2667473Y221665D01*
Y223331D01*
X2665806Y219998D02*
X2662474D01*
X2385466Y338000D02*
X2377135D01*
X2375469Y339666D01*
Y342998D01*
X2377135Y344664D01*
X2385466D01*
X2383800Y347997D02*
X2385466Y349663D01*
Y352995D01*
X2383800Y354661D01*
X2382134D01*
X2380468Y352995D01*
Y351329D01*
Y352995D01*
X2378802Y354661D01*
X2377135D01*
X2375469Y352995D01*
Y349663D01*
X2377135Y347997D01*
X2642469Y360997D02*
X2635805D01*
Y359331D01*
X2642469Y352666D01*
Y351000D01*
X2635805D01*
X2632473Y360997D02*
Y351000D01*
X2627474D01*
X2625808Y352666D01*
Y359331D01*
X2627474Y360997D01*
X2632473D01*
X2622476Y351000D02*
X2619143D01*
X2620810D01*
Y360997D01*
X2622476Y359331D01*
X2486469Y534997D02*
Y526666D01*
X2484803Y525000D01*
X2481471D01*
X2479805Y526666D01*
Y534997D01*
X2469808Y525000D02*
X2476473D01*
X2469808Y531665D01*
Y533331D01*
X2471474Y534997D01*
X2474806D01*
X2476473Y533331D01*
X2693805Y357997D02*
X2697137D01*
X2695471D01*
Y349666D01*
X2697137Y348000D01*
X2698803D01*
X2700469Y349666D01*
X2690472Y348000D02*
X2687140D01*
X2688806D01*
Y357997D01*
X2690472Y356331D01*
X2680805Y1131331D02*
X2682471Y1132997D01*
X2685803D01*
X2687469Y1131331D01*
Y1124666D01*
X2685803Y1123000D01*
X2682471D01*
X2680805Y1124666D01*
X2677473Y1123000D02*
X2674140D01*
X2675806D01*
Y1132997D01*
X2677473Y1131331D01*
X2273805Y1024331D02*
X2275471Y1025997D01*
X2278803D01*
X2280469Y1024331D01*
Y1017666D01*
X2278803Y1016000D01*
X2275471D01*
X2273805Y1017666D01*
X2263808Y1016000D02*
X2270473D01*
X2263808Y1022664D01*
Y1024331D01*
X2265474Y1025997D01*
X2268806D01*
X2270473Y1024331D01*
X2273805Y1000331D02*
X2275471Y1001997D01*
X2278803D01*
X2280469Y1000331D01*
Y993666D01*
X2278803Y992000D01*
X2275471D01*
X2273805Y993666D01*
X2270473Y1000331D02*
X2268806Y1001997D01*
X2265474D01*
X2263808Y1000331D01*
Y998664D01*
X2265474Y996998D01*
X2267140D01*
X2265474D01*
X2263808Y995332D01*
Y993666D01*
X2265474Y992000D01*
X2268806D01*
X2270473Y993666D01*
X2624469Y1184000D02*
Y1193997D01*
X2619471D01*
X2617805Y1192331D01*
Y1188998D01*
X2619471Y1187332D01*
X2624469D01*
X2621137D02*
X2617805Y1184000D01*
X2614472D02*
X2611140D01*
X2612806D01*
Y1193997D01*
X2614472Y1192331D01*
X2696469Y1031000D02*
Y1040997D01*
X2691471D01*
X2689805Y1039331D01*
Y1035998D01*
X2691471Y1034332D01*
X2696469D01*
X2693137D02*
X2689805Y1031000D01*
X2679808D02*
X2686472D01*
X2679808Y1037664D01*
Y1039331D01*
X2681474Y1040997D01*
X2684807D01*
X2686472Y1039331D01*
X2533469Y1103000D02*
Y1112997D01*
X2528471D01*
X2526805Y1111331D01*
Y1107998D01*
X2528471Y1106332D01*
X2533469D01*
X2530137D02*
X2526805Y1103000D01*
X2523473Y1111331D02*
X2521806Y1112997D01*
X2518474D01*
X2516808Y1111331D01*
Y1109665D01*
X2518474Y1107998D01*
X2520140D01*
X2518474D01*
X2516808Y1106332D01*
Y1104666D01*
X2518474Y1103000D01*
X2521806D01*
X2523473Y1104666D01*
X2551469Y1158000D02*
Y1167997D01*
X2546471D01*
X2544805Y1166331D01*
Y1162998D01*
X2546471Y1161332D01*
X2551469D01*
X2548137D02*
X2544805Y1158000D01*
X2536474D02*
Y1167997D01*
X2541473Y1162998D01*
X2534808D01*
X2607469Y945000D02*
Y954997D01*
X2602471D01*
X2600805Y953331D01*
Y949998D01*
X2602471Y948332D01*
X2607469D01*
X2604137D02*
X2600805Y945000D01*
X2590808Y954997D02*
X2594140Y953331D01*
X2597473Y949998D01*
Y946666D01*
X2595806Y945000D01*
X2592474D01*
X2590808Y946666D01*
Y948332D01*
X2592474Y949998D01*
X2597473D01*
X2666469Y947000D02*
Y956997D01*
X2661471D01*
X2659805Y955331D01*
Y951998D01*
X2661471Y950332D01*
X2666469D01*
X2663137D02*
X2659805Y947000D01*
X2656472Y956997D02*
X2649808D01*
Y955331D01*
X2656472Y948666D01*
Y947000D01*
X2677469Y815000D02*
Y824997D01*
X2672471D01*
X2670805Y823331D01*
Y819998D01*
X2672471Y818332D01*
X2677469D01*
X2674137D02*
X2670805Y815000D01*
X2667473Y823331D02*
X2665806Y824997D01*
X2662474D01*
X2660808Y823331D01*
Y821665D01*
X2662474Y819998D01*
X2660808Y818332D01*
Y816666D01*
X2662474Y815000D01*
X2665806D01*
X2667473Y816666D01*
Y818332D01*
X2665806Y819998D01*
X2667473Y821665D01*
Y823331D01*
X2665806Y819998D02*
X2662474D01*
X2385466Y938000D02*
X2377135D01*
X2375469Y939666D01*
Y942998D01*
X2377135Y944665D01*
X2385466D01*
X2383800Y947997D02*
X2385466Y949663D01*
Y952995D01*
X2383800Y954661D01*
X2382134D01*
X2380468Y952995D01*
Y951329D01*
Y952995D01*
X2378802Y954661D01*
X2377135D01*
X2375469Y952995D01*
Y949663D01*
X2377135Y947997D01*
X2642469Y960997D02*
X2635805D01*
Y959331D01*
X2642469Y952666D01*
Y951000D01*
X2635805D01*
X2632473Y960997D02*
Y951000D01*
X2627474D01*
X2625808Y952666D01*
Y959331D01*
X2627474Y960997D01*
X2632473D01*
X2622476Y951000D02*
X2619143D01*
X2620810D01*
Y960997D01*
X2622476Y959331D01*
X2486469Y1134997D02*
Y1126666D01*
X2484803Y1125000D01*
X2481471D01*
X2479805Y1126666D01*
Y1134997D01*
X2469808Y1125000D02*
X2476473D01*
X2469808Y1131665D01*
Y1133331D01*
X2471474Y1134997D01*
X2474806D01*
X2476473Y1133331D01*
X2693805Y957997D02*
X2697137D01*
X2695471D01*
Y949666D01*
X2697137Y948000D01*
X2698803D01*
X2700469Y949666D01*
X2690472Y948000D02*
X2687140D01*
X2688806D01*
Y957997D01*
X2690472Y956331D01*
X2680805Y1731331D02*
X2682471Y1732997D01*
X2685803D01*
X2687469Y1731331D01*
Y1724666D01*
X2685803Y1723000D01*
X2682471D01*
X2680805Y1724666D01*
X2677473Y1723000D02*
X2674140D01*
X2675806D01*
Y1732997D01*
X2677473Y1731331D01*
X2273805Y1624331D02*
X2275471Y1625997D01*
X2278803D01*
X2280469Y1624331D01*
Y1617666D01*
X2278803Y1616000D01*
X2275471D01*
X2273805Y1617666D01*
X2263808Y1616000D02*
X2270473D01*
X2263808Y1622664D01*
Y1624331D01*
X2265474Y1625997D01*
X2268806D01*
X2270473Y1624331D01*
X2273805Y1600331D02*
X2275471Y1601997D01*
X2278803D01*
X2280469Y1600331D01*
Y1593666D01*
X2278803Y1592000D01*
X2275471D01*
X2273805Y1593666D01*
X2270473Y1600331D02*
X2268806Y1601997D01*
X2265474D01*
X2263808Y1600331D01*
Y1598665D01*
X2265474Y1596998D01*
X2267140D01*
X2265474D01*
X2263808Y1595332D01*
Y1593666D01*
X2265474Y1592000D01*
X2268806D01*
X2270473Y1593666D01*
X2624469Y1784000D02*
Y1793997D01*
X2619471D01*
X2617805Y1792331D01*
Y1788998D01*
X2619471Y1787332D01*
X2624469D01*
X2621137D02*
X2617805Y1784000D01*
X2614472D02*
X2611140D01*
X2612806D01*
Y1793997D01*
X2614472Y1792331D01*
X2696469Y1631000D02*
Y1640997D01*
X2691471D01*
X2689805Y1639331D01*
Y1635998D01*
X2691471Y1634332D01*
X2696469D01*
X2693137D02*
X2689805Y1631000D01*
X2679808D02*
X2686472D01*
X2679808Y1637664D01*
Y1639331D01*
X2681474Y1640997D01*
X2684807D01*
X2686472Y1639331D01*
X2533469Y1703000D02*
Y1712997D01*
X2528471D01*
X2526805Y1711331D01*
Y1707998D01*
X2528471Y1706332D01*
X2533469D01*
X2530137D02*
X2526805Y1703000D01*
X2523473Y1711331D02*
X2521806Y1712997D01*
X2518474D01*
X2516808Y1711331D01*
Y1709664D01*
X2518474Y1707998D01*
X2520140D01*
X2518474D01*
X2516808Y1706332D01*
Y1704666D01*
X2518474Y1703000D01*
X2521806D01*
X2523473Y1704666D01*
X2551469Y1758000D02*
Y1767997D01*
X2546471D01*
X2544805Y1766331D01*
Y1762998D01*
X2546471Y1761332D01*
X2551469D01*
X2548137D02*
X2544805Y1758000D01*
X2536474D02*
Y1767997D01*
X2541473Y1762998D01*
X2534808D01*
X2607469Y1545000D02*
Y1554997D01*
X2602471D01*
X2600805Y1553331D01*
Y1549998D01*
X2602471Y1548332D01*
X2607469D01*
X2604137D02*
X2600805Y1545000D01*
X2590808Y1554997D02*
X2594140Y1553331D01*
X2597473Y1549998D01*
Y1546666D01*
X2595806Y1545000D01*
X2592474D01*
X2590808Y1546666D01*
Y1548332D01*
X2592474Y1549998D01*
X2597473D01*
X2666469Y1547000D02*
Y1556997D01*
X2661471D01*
X2659805Y1555331D01*
Y1551998D01*
X2661471Y1550332D01*
X2666469D01*
X2663137D02*
X2659805Y1547000D01*
X2656472Y1556997D02*
X2649808D01*
Y1555331D01*
X2656472Y1548666D01*
Y1547000D01*
X2677469Y1415000D02*
Y1424997D01*
X2672471D01*
X2670805Y1423331D01*
Y1419998D01*
X2672471Y1418332D01*
X2677469D01*
X2674137D02*
X2670805Y1415000D01*
X2667473Y1423331D02*
X2665806Y1424997D01*
X2662474D01*
X2660808Y1423331D01*
Y1421664D01*
X2662474Y1419998D01*
X2660808Y1418332D01*
Y1416666D01*
X2662474Y1415000D01*
X2665806D01*
X2667473Y1416666D01*
Y1418332D01*
X2665806Y1419998D01*
X2667473Y1421664D01*
Y1423331D01*
X2665806Y1419998D02*
X2662474D01*
X2385466Y1538000D02*
X2377135D01*
X2375469Y1539666D01*
Y1542998D01*
X2377135Y1544664D01*
X2385466D01*
X2383800Y1547997D02*
X2385466Y1549663D01*
Y1552995D01*
X2383800Y1554661D01*
X2382134D01*
X2380468Y1552995D01*
Y1551329D01*
Y1552995D01*
X2378802Y1554661D01*
X2377135D01*
X2375469Y1552995D01*
Y1549663D01*
X2377135Y1547997D01*
X2642469Y1560997D02*
X2635805D01*
Y1559331D01*
X2642469Y1552666D01*
Y1551000D01*
X2635805D01*
X2632473Y1560997D02*
Y1551000D01*
X2627474D01*
X2625808Y1552666D01*
Y1559331D01*
X2627474Y1560997D01*
X2632473D01*
X2622476Y1551000D02*
X2619143D01*
X2620810D01*
Y1560997D01*
X2622476Y1559331D01*
X2486469Y1734997D02*
Y1726666D01*
X2484803Y1725000D01*
X2481471D01*
X2479805Y1726666D01*
Y1734997D01*
X2469808Y1725000D02*
X2476473D01*
X2469808Y1731664D01*
Y1733331D01*
X2471474Y1734997D01*
X2474806D01*
X2476473Y1733331D01*
X2693805Y1557997D02*
X2697137D01*
X2695471D01*
Y1549666D01*
X2697137Y1548000D01*
X2698803D01*
X2700469Y1549666D01*
X2690472Y1548000D02*
X2687140D01*
X2688806D01*
Y1557997D01*
X2690472Y1556331D01*
M02*
