G04 Layer_Color=32896*
%FSLAX44Y44*%
%MOMM*%
G71*
G01*
G75*
%ADD19C,0.6000*%
%ADD36C,0.2500*%
%ADD37C,0.2000*%
%ADD38C,0.2540*%
D19*
X2613969Y432750D02*
G03*
X2613969Y432750I3000J0D01*
G01*
X1913969D02*
G03*
X1913969Y432750I3000J0D01*
G01*
X1213969D02*
G03*
X1213969Y432750I3000J0D01*
G01*
D36*
X2643319Y419900D02*
G03*
X2643319Y419900I1250J0D01*
G01*
X1943319D02*
G03*
X1943319Y419900I1250J0D01*
G01*
X1243319D02*
G03*
X1243319Y419900I1250J0D01*
G01*
D37*
X2612819Y422000D02*
G03*
X2600119Y422000I-6350J0D01*
G01*
X2409615Y353000D02*
Y453000D01*
X2353214D01*
Y353000D02*
Y453000D01*
X2409615Y353000D02*
X2353214D01*
X2409615Y373441D02*
X2353214D01*
X2684119Y271750D02*
Y284750D01*
X2614369D01*
Y268250D02*
Y284750D01*
X2684119Y234000D02*
X2614369D01*
X2674869Y152000D02*
Y234000D01*
Y152000D02*
X2624069D01*
Y234000D01*
X2626469Y422000D02*
Y520000D01*
X2586469Y422000D02*
Y520000D01*
X2626469Y422000D02*
X2612819D01*
X2600119D02*
X2586469D01*
X2626469Y520000D02*
X2586469D01*
X1912819Y422000D02*
G03*
X1900119Y422000I-6350J0D01*
G01*
X1709615Y353000D02*
Y453000D01*
X1653214D01*
Y353000D02*
Y453000D01*
X1709615Y353000D02*
X1653214D01*
X1709615Y373441D02*
X1653214D01*
X1984119Y271750D02*
Y284750D01*
X1914369D01*
Y268250D02*
Y284750D01*
X1984119Y234000D02*
X1914369D01*
X1974869Y152000D02*
Y234000D01*
Y152000D02*
X1924069D01*
Y234000D01*
X1926469Y422000D02*
Y520000D01*
X1886469Y422000D02*
Y520000D01*
X1926469Y422000D02*
X1912819D01*
X1900119D02*
X1886469D01*
X1926469Y520000D02*
X1886469D01*
X1212819Y422000D02*
G03*
X1200119Y422000I-6350J0D01*
G01*
X1009615Y353000D02*
Y453000D01*
X953214D01*
Y353000D02*
Y453000D01*
X1009615Y353000D02*
X953214D01*
X1009614Y373441D02*
X953214D01*
X1284119Y271750D02*
Y284750D01*
X1214369D01*
Y268250D02*
Y284750D01*
X1284119Y234000D02*
X1214369D01*
X1274869Y152000D02*
Y234000D01*
Y152000D02*
X1224069D01*
Y234000D01*
X1226469Y422000D02*
Y520000D01*
X1186469Y422000D02*
Y520000D01*
X1226469Y422000D02*
X1212819D01*
X1200119D02*
X1186469D01*
X1226469Y520000D02*
X1186469D01*
D38*
X2577439Y390480D02*
X2529179D01*
X2577439Y201250D02*
Y390480D01*
Y201250D02*
X2529179D01*
Y390480D01*
X2473519Y181049D02*
X2383419D01*
Y271000D01*
X2473519Y181049D02*
Y271000D01*
X2394729Y271000D02*
X2383419D01*
X2436069D02*
X2424701D01*
X2473469D02*
X2457469D01*
X2353519Y181049D02*
X2263419D01*
Y271000D01*
X2353519Y181049D02*
Y271000D01*
X2274729Y271000D02*
X2263419D01*
X2316069D02*
X2304701D01*
X2353469D02*
X2337469D01*
X2741023Y369154D02*
X2715115D01*
Y216246D02*
Y369154D01*
X2741023Y216246D02*
X2715115D01*
X2741023D02*
Y369154D01*
X2258423Y216246D02*
X2232515D01*
X2258423D02*
Y419954D01*
X2232515D01*
Y216246D02*
Y419954D01*
X2741023Y597754D02*
X2715115D01*
Y394046D02*
Y597754D01*
X2741023Y394046D02*
X2715115D01*
X2741023D02*
Y597754D01*
X2258423Y434686D02*
X2232515D01*
X2258423D02*
Y688889D01*
X2232515Y434686D02*
Y688889D01*
X2258423Y689194D02*
X2232515D01*
X2281626Y613696D02*
X2279087Y616235D01*
X2274008D01*
X2271469Y613696D01*
Y603539D01*
X2274008Y601000D01*
X2279087D01*
X2281626Y603539D01*
X2286704Y601000D02*
Y616235D01*
X2296861Y601000D01*
Y616235D01*
X2312096D02*
X2301940D01*
Y608618D01*
X2307018Y611157D01*
X2309557D01*
X2312096Y608618D01*
Y603539D01*
X2309557Y601000D01*
X2304479D01*
X2301940Y603539D01*
X2718626Y626696D02*
X2716087Y629235D01*
X2711009D01*
X2708469Y626696D01*
Y616539D01*
X2711009Y614000D01*
X2716087D01*
X2718626Y616539D01*
X2723705Y614000D02*
Y629235D01*
X2733861Y614000D01*
Y629235D01*
X2749096D02*
X2744018Y626696D01*
X2738940Y621618D01*
Y616539D01*
X2741479Y614000D01*
X2746557D01*
X2749096Y616539D01*
Y619078D01*
X2746557Y621618D01*
X2738940D01*
X2677626Y377696D02*
X2675087Y380235D01*
X2670009D01*
X2667469Y377696D01*
Y367539D01*
X2670009Y365000D01*
X2675087D01*
X2677626Y367539D01*
X2682704Y365000D02*
Y380235D01*
X2692861Y365000D01*
Y380235D01*
X2697939Y377696D02*
X2700479Y380235D01*
X2705557D01*
X2708096Y377696D01*
Y375157D01*
X2705557Y372617D01*
X2708096Y370078D01*
Y367539D01*
X2705557Y365000D01*
X2700479D01*
X2697939Y367539D01*
Y370078D01*
X2700479Y372617D01*
X2697939Y375157D01*
Y377696D01*
X2700479Y372617D02*
X2705557D01*
X2280626Y350696D02*
X2278087Y353235D01*
X2273009D01*
X2270469Y350696D01*
Y340539D01*
X2273009Y338000D01*
X2278087D01*
X2280626Y340539D01*
X2285704Y338000D02*
Y353235D01*
X2295861Y338000D01*
Y353235D01*
X2300939Y340539D02*
X2303479Y338000D01*
X2308557D01*
X2311096Y340539D01*
Y350696D01*
X2308557Y353235D01*
X2303479D01*
X2300939Y350696D01*
Y348157D01*
X2303479Y345617D01*
X2311096D01*
X2583626Y296696D02*
X2581087Y299235D01*
X2576009D01*
X2573469Y296696D01*
Y286539D01*
X2576009Y284000D01*
X2581087D01*
X2583626Y286539D01*
X2588705Y284000D02*
Y299235D01*
X2598861Y284000D01*
Y299235D01*
X2603940Y284000D02*
X2609018D01*
X2606479D01*
Y299235D01*
X2603940Y296696D01*
X2622469Y412235D02*
Y399539D01*
X2625009Y397000D01*
X2630087D01*
X2632626Y399539D01*
Y412235D01*
X2637704Y397000D02*
X2642783D01*
X2640244D01*
Y412235D01*
X2637704Y409696D01*
X1877439Y390480D02*
X1829179D01*
X1877439Y201250D02*
Y390480D01*
Y201250D02*
X1829179D01*
Y390480D01*
X1773519Y181049D02*
X1683419D01*
Y271000D01*
X1773519Y181049D02*
Y271000D01*
X1694729Y271000D02*
X1683419D01*
X1736069D02*
X1724701D01*
X1773469D02*
X1757469D01*
X1653519Y181049D02*
X1563419D01*
Y271000D01*
X1653519Y181049D02*
Y271000D01*
X1574729Y271000D02*
X1563419D01*
X1616069D02*
X1604701D01*
X1653469D02*
X1637469D01*
X2041023Y369154D02*
X2015115D01*
Y216246D02*
Y369154D01*
X2041023Y216246D02*
X2015115D01*
X2041023D02*
Y369154D01*
X1558423Y216246D02*
X1532515D01*
X1558423D02*
Y419954D01*
X1532515D01*
Y216246D02*
Y419954D01*
X2041023Y597754D02*
X2015115D01*
Y394046D02*
Y597754D01*
X2041023Y394046D02*
X2015115D01*
X2041023D02*
Y597754D01*
X1558423Y434686D02*
X1532515D01*
X1558423D02*
Y688889D01*
X1532515Y434686D02*
Y688889D01*
X1558423Y689194D02*
X1532515D01*
X1581626Y613696D02*
X1579087Y616235D01*
X1574008D01*
X1571469Y613696D01*
Y603539D01*
X1574008Y601000D01*
X1579087D01*
X1581626Y603539D01*
X1586704Y601000D02*
Y616235D01*
X1596861Y601000D01*
Y616235D01*
X1612096D02*
X1601940D01*
Y608618D01*
X1607018Y611157D01*
X1609557D01*
X1612096Y608618D01*
Y603539D01*
X1609557Y601000D01*
X1604479D01*
X1601940Y603539D01*
X2018626Y626696D02*
X2016087Y629235D01*
X2011008D01*
X2008469Y626696D01*
Y616539D01*
X2011008Y614000D01*
X2016087D01*
X2018626Y616539D01*
X2023704Y614000D02*
Y629235D01*
X2033861Y614000D01*
Y629235D01*
X2049096D02*
X2044018Y626696D01*
X2038940Y621618D01*
Y616539D01*
X2041479Y614000D01*
X2046557D01*
X2049096Y616539D01*
Y619078D01*
X2046557Y621618D01*
X2038940D01*
X1977626Y377696D02*
X1975087Y380235D01*
X1970009D01*
X1967469Y377696D01*
Y367539D01*
X1970009Y365000D01*
X1975087D01*
X1977626Y367539D01*
X1982704Y365000D02*
Y380235D01*
X1992861Y365000D01*
Y380235D01*
X1997939Y377696D02*
X2000479Y380235D01*
X2005557D01*
X2008096Y377696D01*
Y375157D01*
X2005557Y372617D01*
X2008096Y370078D01*
Y367539D01*
X2005557Y365000D01*
X2000479D01*
X1997939Y367539D01*
Y370078D01*
X2000479Y372617D01*
X1997939Y375157D01*
Y377696D01*
X2000479Y372617D02*
X2005557D01*
X1580626Y350696D02*
X1578087Y353235D01*
X1573009D01*
X1570469Y350696D01*
Y340539D01*
X1573009Y338000D01*
X1578087D01*
X1580626Y340539D01*
X1585704Y338000D02*
Y353235D01*
X1595861Y338000D01*
Y353235D01*
X1600939Y340539D02*
X1603479Y338000D01*
X1608557D01*
X1611096Y340539D01*
Y350696D01*
X1608557Y353235D01*
X1603479D01*
X1600939Y350696D01*
Y348157D01*
X1603479Y345617D01*
X1611096D01*
X1883626Y296696D02*
X1881087Y299235D01*
X1876008D01*
X1873469Y296696D01*
Y286539D01*
X1876008Y284000D01*
X1881087D01*
X1883626Y286539D01*
X1888704Y284000D02*
Y299235D01*
X1898861Y284000D01*
Y299235D01*
X1903940Y284000D02*
X1909018D01*
X1906479D01*
Y299235D01*
X1903940Y296696D01*
X1922469Y412235D02*
Y399539D01*
X1925009Y397000D01*
X1930087D01*
X1932626Y399539D01*
Y412235D01*
X1937704Y397000D02*
X1942783D01*
X1940244D01*
Y412235D01*
X1937704Y409696D01*
X1177439Y390480D02*
X1129179D01*
X1177439Y201250D02*
Y390480D01*
Y201250D02*
X1129179D01*
Y390480D01*
X1073519Y181049D02*
X983419D01*
Y271000D01*
X1073519Y181049D02*
Y271000D01*
X994729Y271000D02*
X983419D01*
X1036069D02*
X1024701D01*
X1073469D02*
X1057469D01*
X953519Y181049D02*
X863419D01*
Y271000D01*
X953519Y181049D02*
Y271000D01*
X874729Y271000D02*
X863419D01*
X916069D02*
X904701D01*
X953469D02*
X937469D01*
X1341023Y369154D02*
X1315115D01*
Y216246D02*
Y369154D01*
X1341023Y216246D02*
X1315115D01*
X1341023D02*
Y369154D01*
X858423Y216246D02*
X832515D01*
X858423D02*
Y419954D01*
X832515D01*
Y216246D02*
Y419954D01*
X1341023Y597754D02*
X1315115D01*
Y394046D02*
Y597754D01*
X1341023Y394046D02*
X1315115D01*
X1341023D02*
Y597754D01*
X858423Y434686D02*
X832515D01*
X858423D02*
Y688889D01*
X832515Y434686D02*
Y688889D01*
X858423Y689194D02*
X832515D01*
X881626Y613696D02*
X879087Y616235D01*
X874008D01*
X871469Y613696D01*
Y603539D01*
X874008Y601000D01*
X879087D01*
X881626Y603539D01*
X886704Y601000D02*
Y616235D01*
X896861Y601000D01*
Y616235D01*
X912096D02*
X901939D01*
Y608618D01*
X907018Y611157D01*
X909557D01*
X912096Y608618D01*
Y603539D01*
X909557Y601000D01*
X904479D01*
X901939Y603539D01*
X1318626Y626696D02*
X1316087Y629235D01*
X1311008D01*
X1308469Y626696D01*
Y616539D01*
X1311008Y614000D01*
X1316087D01*
X1318626Y616539D01*
X1323704Y614000D02*
Y629235D01*
X1333861Y614000D01*
Y629235D01*
X1349096D02*
X1344018Y626696D01*
X1338940Y621618D01*
Y616539D01*
X1341479Y614000D01*
X1346557D01*
X1349096Y616539D01*
Y619078D01*
X1346557Y621618D01*
X1338940D01*
X1277626Y377696D02*
X1275087Y380235D01*
X1270008D01*
X1267469Y377696D01*
Y367539D01*
X1270008Y365000D01*
X1275087D01*
X1277626Y367539D01*
X1282704Y365000D02*
Y380235D01*
X1292861Y365000D01*
Y380235D01*
X1297939Y377696D02*
X1300479Y380235D01*
X1305557D01*
X1308096Y377696D01*
Y375157D01*
X1305557Y372617D01*
X1308096Y370078D01*
Y367539D01*
X1305557Y365000D01*
X1300479D01*
X1297939Y367539D01*
Y370078D01*
X1300479Y372617D01*
X1297939Y375157D01*
Y377696D01*
X1300479Y372617D02*
X1305557D01*
X880626Y350696D02*
X878087Y353235D01*
X873008D01*
X870469Y350696D01*
Y340539D01*
X873008Y338000D01*
X878087D01*
X880626Y340539D01*
X885704Y338000D02*
Y353235D01*
X895861Y338000D01*
Y353235D01*
X900939Y340539D02*
X903479Y338000D01*
X908557D01*
X911096Y340539D01*
Y350696D01*
X908557Y353235D01*
X903479D01*
X900939Y350696D01*
Y348157D01*
X903479Y345617D01*
X911096D01*
X1183626Y296696D02*
X1181087Y299235D01*
X1176009D01*
X1173469Y296696D01*
Y286539D01*
X1176009Y284000D01*
X1181087D01*
X1183626Y286539D01*
X1188704Y284000D02*
Y299235D01*
X1198861Y284000D01*
Y299235D01*
X1203940Y284000D02*
X1209018D01*
X1206479D01*
Y299235D01*
X1203940Y296696D01*
X1222469Y412235D02*
Y399539D01*
X1225008Y397000D01*
X1230087D01*
X1232626Y399539D01*
Y412235D01*
X1237704Y397000D02*
X1242783D01*
X1240244D01*
Y412235D01*
X1237704Y409696D01*
M02*
