G04 Layer_Color=128*
%FSLAX44Y44*%
%MOMM*%
G71*
G01*
G75*
%ADD68C,0.0508*%
D68*
X2388969Y497191D02*
X2373969D01*
X2381469Y489691D02*
Y504691D01*
X2388969Y308809D02*
X2373969D01*
X2381469Y301309D02*
Y316309D01*
X2566969Y360000D02*
X2559969D01*
X2563469Y356500D02*
Y363500D01*
X2541569Y283800D02*
X2534569D01*
X2538069Y280300D02*
Y287300D01*
X2566969Y233000D02*
X2559969D01*
X2563469Y229500D02*
Y236500D01*
X2453519Y261000D02*
X2441519D01*
X2447519Y255000D02*
Y267000D01*
X2415419Y261000D02*
X2403419D01*
X2409419Y255000D02*
Y267000D01*
X2333519Y261000D02*
X2321519D01*
X2327519Y255000D02*
Y267000D01*
X2295419Y261000D02*
X2283419D01*
X2289419Y255000D02*
Y267000D01*
X2432069Y319000D02*
X2422069D01*
X2427069Y314000D02*
Y324000D01*
X2457469Y319000D02*
X2447469D01*
X2452469Y314000D02*
Y324000D01*
X2482869Y319000D02*
X2472869D01*
X2477869Y314000D02*
Y324000D01*
X2469969Y486000D02*
X2434969D01*
X2452469Y468500D02*
Y503500D01*
X2733069Y229200D02*
X2723069D01*
X2728069Y224200D02*
Y234200D01*
X2733069Y254600D02*
X2723069D01*
X2728069Y249600D02*
Y259600D01*
X2733069Y280000D02*
X2723069D01*
X2728069Y275000D02*
Y285000D01*
X2733069Y305400D02*
X2723069D01*
X2728069Y300400D02*
Y310400D01*
X2733069Y330800D02*
X2723069D01*
X2728069Y325800D02*
Y335800D01*
X2733069Y356200D02*
X2723069D01*
X2728069Y351200D02*
Y361200D01*
X2250469Y229200D02*
X2240469D01*
X2245469Y224200D02*
Y234200D01*
X2250469Y254600D02*
X2240469D01*
X2245469Y249600D02*
Y259600D01*
X2250469Y280000D02*
X2240469D01*
X2245469Y275000D02*
Y285000D01*
X2250469Y305400D02*
X2240469D01*
X2245469Y300400D02*
Y310400D01*
X2250469Y330800D02*
X2240469D01*
X2245469Y325800D02*
Y335800D01*
X2250469Y356200D02*
X2240469D01*
X2245469Y351200D02*
Y361200D01*
X2250469Y381600D02*
X2240469D01*
X2245469Y376600D02*
Y386600D01*
X2250469Y407000D02*
X2240469D01*
X2245469Y402000D02*
Y412000D01*
X2733069Y584800D02*
X2723069D01*
X2728069Y579800D02*
Y589800D01*
X2733069Y559400D02*
X2723069D01*
X2728069Y554400D02*
Y564400D01*
X2733069Y534000D02*
X2723069D01*
X2728069Y529000D02*
Y539000D01*
X2733069Y508600D02*
X2723069D01*
X2728069Y503600D02*
Y513600D01*
X2733069Y483200D02*
X2723069D01*
X2728069Y478200D02*
Y488200D01*
X2733069Y457800D02*
X2723069D01*
X2728069Y452800D02*
Y462800D01*
X2733069Y432400D02*
X2723069D01*
X2728069Y427400D02*
Y437400D01*
X2733069Y407000D02*
X2723069D01*
X2728069Y402000D02*
Y412000D01*
X2250469Y447640D02*
X2240469D01*
X2245469Y442640D02*
Y452640D01*
X2250469Y473040D02*
X2240469D01*
X2245469Y468040D02*
Y478040D01*
X2250469Y498440D02*
X2240469D01*
X2245469Y493440D02*
Y503440D01*
X2250469Y523840D02*
X2240469D01*
X2245469Y518840D02*
Y528840D01*
X2250469Y549240D02*
X2240469D01*
X2245469Y544240D02*
Y554240D01*
X2250469Y574640D02*
X2240469D01*
X2245469Y569640D02*
Y579640D01*
X2250469Y600040D02*
X2240469D01*
X2245469Y595040D02*
Y605040D01*
X2250469Y625440D02*
X2240469D01*
X2245469Y620440D02*
Y630440D01*
X2250469Y676240D02*
X2240469D01*
X2245469Y671240D02*
Y681240D01*
X2250469Y650840D02*
X2240469D01*
X2245469Y645840D02*
Y655840D01*
X2680469Y253000D02*
X2668469D01*
X2674469Y247000D02*
Y259000D01*
X2655469Y253000D02*
X2643469D01*
X2649469Y247000D02*
Y259000D01*
X2630469Y253000D02*
X2618469D01*
X2624469Y247000D02*
Y259000D01*
X2648506Y432900D02*
X2640632D01*
X2644569Y428963D02*
Y436837D01*
X2648506Y458300D02*
X2640632D01*
X2644569Y454363D02*
Y462237D01*
X2648506Y483700D02*
X2640632D01*
X2644569Y479763D02*
Y487637D01*
X2648506Y509100D02*
X2640632D01*
X2644569Y505163D02*
Y513037D01*
X2572306Y432900D02*
X2564432D01*
X2568369Y428963D02*
Y436837D01*
X2572306Y458300D02*
X2564432D01*
X2568369Y454363D02*
Y462237D01*
X2572306Y483700D02*
X2564432D01*
X2568369Y479763D02*
Y487637D01*
X2572306Y509100D02*
X2564432D01*
X2568369Y505163D02*
Y513037D01*
X2526025Y301000D02*
X2518913D01*
X2522469Y297444D02*
Y304556D01*
X2511025Y380000D02*
X2503913D01*
X2507469Y376444D02*
Y383556D01*
X2511025Y319000D02*
X2503913D01*
X2507469Y315444D02*
Y322556D01*
X2665025Y395000D02*
X2657913D01*
X2661469Y391444D02*
Y398556D01*
X2665025Y297000D02*
X2657913D01*
X2661469Y293444D02*
Y300556D01*
X2605025Y390000D02*
X2597913D01*
X2601469Y386444D02*
Y393556D01*
X2605025Y233000D02*
X2597913D01*
X2601469Y229444D02*
Y236556D01*
X2437469Y503500D02*
X2432469D01*
X2434969Y501000D02*
Y506000D01*
X2472469Y503500D02*
X2467469D01*
X2469969Y501000D02*
Y506000D01*
X2472469Y468500D02*
X2467469D01*
X2469969Y466000D02*
Y471000D01*
X2437469Y468500D02*
X2432469D01*
X2434969Y466000D02*
Y471000D01*
X2430219Y486000D02*
X2425219D01*
X2427719Y483500D02*
Y488500D01*
X2454969Y461250D02*
X2449969D01*
X2452469Y458750D02*
Y463750D01*
X2479719Y486000D02*
X2474719D01*
X2477219Y483500D02*
Y488500D01*
X2454969Y510750D02*
X2449969D01*
X2452469Y508250D02*
Y513250D01*
X2526025Y414000D02*
X2518913D01*
X2522469Y410444D02*
Y417556D01*
X1688969Y497191D02*
X1673969D01*
X1681469Y489691D02*
Y504691D01*
X1688969Y308809D02*
X1673969D01*
X1681469Y301309D02*
Y316309D01*
X1866969Y360000D02*
X1859969D01*
X1863469Y356500D02*
Y363500D01*
X1841569Y283800D02*
X1834569D01*
X1838069Y280300D02*
Y287300D01*
X1866969Y233000D02*
X1859969D01*
X1863469Y229500D02*
Y236500D01*
X1753519Y261000D02*
X1741519D01*
X1747519Y255000D02*
Y267000D01*
X1715419Y261000D02*
X1703419D01*
X1709419Y255000D02*
Y267000D01*
X1633519Y261000D02*
X1621519D01*
X1627519Y255000D02*
Y267000D01*
X1595419Y261000D02*
X1583419D01*
X1589419Y255000D02*
Y267000D01*
X1732069Y319000D02*
X1722069D01*
X1727069Y314000D02*
Y324000D01*
X1757469Y319000D02*
X1747469D01*
X1752469Y314000D02*
Y324000D01*
X1782869Y319000D02*
X1772869D01*
X1777869Y314000D02*
Y324000D01*
X1769969Y486000D02*
X1734969D01*
X1752469Y468500D02*
Y503500D01*
X2033069Y229200D02*
X2023069D01*
X2028069Y224200D02*
Y234200D01*
X2033069Y254600D02*
X2023069D01*
X2028069Y249600D02*
Y259600D01*
X2033069Y280000D02*
X2023069D01*
X2028069Y275000D02*
Y285000D01*
X2033069Y305400D02*
X2023069D01*
X2028069Y300400D02*
Y310400D01*
X2033069Y330800D02*
X2023069D01*
X2028069Y325800D02*
Y335800D01*
X2033069Y356200D02*
X2023069D01*
X2028069Y351200D02*
Y361200D01*
X1550469Y229200D02*
X1540469D01*
X1545469Y224200D02*
Y234200D01*
X1550469Y254600D02*
X1540469D01*
X1545469Y249600D02*
Y259600D01*
X1550469Y280000D02*
X1540469D01*
X1545469Y275000D02*
Y285000D01*
X1550469Y305400D02*
X1540469D01*
X1545469Y300400D02*
Y310400D01*
X1550469Y330800D02*
X1540469D01*
X1545469Y325800D02*
Y335800D01*
X1550469Y356200D02*
X1540469D01*
X1545469Y351200D02*
Y361200D01*
X1550469Y381600D02*
X1540469D01*
X1545469Y376600D02*
Y386600D01*
X1550469Y407000D02*
X1540469D01*
X1545469Y402000D02*
Y412000D01*
X2033069Y584800D02*
X2023069D01*
X2028069Y579800D02*
Y589800D01*
X2033069Y559400D02*
X2023069D01*
X2028069Y554400D02*
Y564400D01*
X2033069Y534000D02*
X2023069D01*
X2028069Y529000D02*
Y539000D01*
X2033069Y508600D02*
X2023069D01*
X2028069Y503600D02*
Y513600D01*
X2033069Y483200D02*
X2023069D01*
X2028069Y478200D02*
Y488200D01*
X2033069Y457800D02*
X2023069D01*
X2028069Y452800D02*
Y462800D01*
X2033069Y432400D02*
X2023069D01*
X2028069Y427400D02*
Y437400D01*
X2033069Y407000D02*
X2023069D01*
X2028069Y402000D02*
Y412000D01*
X1550469Y447640D02*
X1540469D01*
X1545469Y442640D02*
Y452640D01*
X1550469Y473040D02*
X1540469D01*
X1545469Y468040D02*
Y478040D01*
X1550469Y498440D02*
X1540469D01*
X1545469Y493440D02*
Y503440D01*
X1550469Y523840D02*
X1540469D01*
X1545469Y518840D02*
Y528840D01*
X1550469Y549240D02*
X1540469D01*
X1545469Y544240D02*
Y554240D01*
X1550469Y574640D02*
X1540469D01*
X1545469Y569640D02*
Y579640D01*
X1550469Y600040D02*
X1540469D01*
X1545469Y595040D02*
Y605040D01*
X1550469Y625440D02*
X1540469D01*
X1545469Y620440D02*
Y630440D01*
X1550469Y676240D02*
X1540469D01*
X1545469Y671240D02*
Y681240D01*
X1550469Y650840D02*
X1540469D01*
X1545469Y645840D02*
Y655840D01*
X1980469Y253000D02*
X1968469D01*
X1974469Y247000D02*
Y259000D01*
X1955469Y253000D02*
X1943469D01*
X1949469Y247000D02*
Y259000D01*
X1930469Y253000D02*
X1918469D01*
X1924469Y247000D02*
Y259000D01*
X1948506Y432900D02*
X1940632D01*
X1944569Y428963D02*
Y436837D01*
X1948506Y458300D02*
X1940632D01*
X1944569Y454363D02*
Y462237D01*
X1948506Y483700D02*
X1940632D01*
X1944569Y479763D02*
Y487637D01*
X1948506Y509100D02*
X1940632D01*
X1944569Y505163D02*
Y513037D01*
X1872306Y432900D02*
X1864432D01*
X1868369Y428963D02*
Y436837D01*
X1872306Y458300D02*
X1864432D01*
X1868369Y454363D02*
Y462237D01*
X1872306Y483700D02*
X1864432D01*
X1868369Y479763D02*
Y487637D01*
X1872306Y509100D02*
X1864432D01*
X1868369Y505163D02*
Y513037D01*
X1826025Y301000D02*
X1818913D01*
X1822469Y297444D02*
Y304556D01*
X1811025Y380000D02*
X1803913D01*
X1807469Y376444D02*
Y383556D01*
X1811025Y319000D02*
X1803913D01*
X1807469Y315444D02*
Y322556D01*
X1965025Y395000D02*
X1957913D01*
X1961469Y391444D02*
Y398556D01*
X1965025Y297000D02*
X1957913D01*
X1961469Y293444D02*
Y300556D01*
X1905025Y390000D02*
X1897913D01*
X1901469Y386444D02*
Y393556D01*
X1905025Y233000D02*
X1897913D01*
X1901469Y229444D02*
Y236556D01*
X1737469Y503500D02*
X1732469D01*
X1734969Y501000D02*
Y506000D01*
X1772469Y503500D02*
X1767469D01*
X1769969Y501000D02*
Y506000D01*
X1772469Y468500D02*
X1767469D01*
X1769969Y466000D02*
Y471000D01*
X1737469Y468500D02*
X1732469D01*
X1734969Y466000D02*
Y471000D01*
X1730219Y486000D02*
X1725219D01*
X1727719Y483500D02*
Y488500D01*
X1754969Y461250D02*
X1749969D01*
X1752469Y458750D02*
Y463750D01*
X1779719Y486000D02*
X1774719D01*
X1777219Y483500D02*
Y488500D01*
X1754969Y510750D02*
X1749969D01*
X1752469Y508250D02*
Y513250D01*
X1826025Y414000D02*
X1818913D01*
X1822469Y410444D02*
Y417556D01*
X988969Y497191D02*
X973969D01*
X981469Y489691D02*
Y504691D01*
X988969Y308809D02*
X973969D01*
X981469Y301309D02*
Y316309D01*
X1166969Y360000D02*
X1159969D01*
X1163469Y356500D02*
Y363500D01*
X1141569Y283800D02*
X1134569D01*
X1138069Y280300D02*
Y287300D01*
X1166969Y233000D02*
X1159969D01*
X1163469Y229500D02*
Y236500D01*
X1053519Y261000D02*
X1041519D01*
X1047519Y255000D02*
Y267000D01*
X1015419Y261000D02*
X1003419D01*
X1009419Y255000D02*
Y267000D01*
X933519Y261000D02*
X921519D01*
X927519Y255000D02*
Y267000D01*
X895419Y261000D02*
X883419D01*
X889419Y255000D02*
Y267000D01*
X1032069Y319000D02*
X1022069D01*
X1027069Y314000D02*
Y324000D01*
X1057469Y319000D02*
X1047469D01*
X1052469Y314000D02*
Y324000D01*
X1082869Y319000D02*
X1072869D01*
X1077869Y314000D02*
Y324000D01*
X1069969Y486000D02*
X1034969D01*
X1052469Y468500D02*
Y503500D01*
X1333069Y229200D02*
X1323069D01*
X1328069Y224200D02*
Y234200D01*
X1333069Y254600D02*
X1323069D01*
X1328069Y249600D02*
Y259600D01*
X1333069Y280000D02*
X1323069D01*
X1328069Y275000D02*
Y285000D01*
X1333069Y305400D02*
X1323069D01*
X1328069Y300400D02*
Y310400D01*
X1333069Y330800D02*
X1323069D01*
X1328069Y325800D02*
Y335800D01*
X1333069Y356200D02*
X1323069D01*
X1328069Y351200D02*
Y361200D01*
X850469Y229200D02*
X840469D01*
X845469Y224200D02*
Y234200D01*
X850469Y254600D02*
X840469D01*
X845469Y249600D02*
Y259600D01*
X850469Y280000D02*
X840469D01*
X845469Y275000D02*
Y285000D01*
X850469Y305400D02*
X840469D01*
X845469Y300400D02*
Y310400D01*
X850469Y330800D02*
X840469D01*
X845469Y325800D02*
Y335800D01*
X850469Y356200D02*
X840469D01*
X845469Y351200D02*
Y361200D01*
X850469Y381600D02*
X840469D01*
X845469Y376600D02*
Y386600D01*
X850469Y407000D02*
X840469D01*
X845469Y402000D02*
Y412000D01*
X1333069Y584800D02*
X1323069D01*
X1328069Y579800D02*
Y589800D01*
X1333069Y559400D02*
X1323069D01*
X1328069Y554400D02*
Y564400D01*
X1333069Y534000D02*
X1323069D01*
X1328069Y529000D02*
Y539000D01*
X1333069Y508600D02*
X1323069D01*
X1328069Y503600D02*
Y513600D01*
X1333069Y483200D02*
X1323069D01*
X1328069Y478200D02*
Y488200D01*
X1333069Y457800D02*
X1323069D01*
X1328069Y452800D02*
Y462800D01*
X1333069Y432400D02*
X1323069D01*
X1328069Y427400D02*
Y437400D01*
X1333069Y407000D02*
X1323069D01*
X1328069Y402000D02*
Y412000D01*
X850469Y447640D02*
X840469D01*
X845469Y442640D02*
Y452640D01*
X850469Y473040D02*
X840469D01*
X845469Y468040D02*
Y478040D01*
X850469Y498440D02*
X840469D01*
X845469Y493440D02*
Y503440D01*
X850469Y523840D02*
X840469D01*
X845469Y518840D02*
Y528840D01*
X850469Y549240D02*
X840469D01*
X845469Y544240D02*
Y554240D01*
X850469Y574640D02*
X840469D01*
X845469Y569640D02*
Y579640D01*
X850469Y600040D02*
X840469D01*
X845469Y595040D02*
Y605040D01*
X850469Y625440D02*
X840469D01*
X845469Y620440D02*
Y630440D01*
X850469Y676240D02*
X840469D01*
X845469Y671240D02*
Y681240D01*
X850469Y650840D02*
X840469D01*
X845469Y645840D02*
Y655840D01*
X1280469Y253000D02*
X1268469D01*
X1274469Y247000D02*
Y259000D01*
X1255469Y253000D02*
X1243469D01*
X1249469Y247000D02*
Y259000D01*
X1230469Y253000D02*
X1218469D01*
X1224469Y247000D02*
Y259000D01*
X1248506Y432900D02*
X1240632D01*
X1244569Y428963D02*
Y436837D01*
X1248506Y458300D02*
X1240632D01*
X1244569Y454363D02*
Y462237D01*
X1248506Y483700D02*
X1240632D01*
X1244569Y479763D02*
Y487637D01*
X1248506Y509100D02*
X1240632D01*
X1244569Y505163D02*
Y513037D01*
X1172306Y432900D02*
X1164432D01*
X1168369Y428963D02*
Y436837D01*
X1172306Y458300D02*
X1164432D01*
X1168369Y454363D02*
Y462237D01*
X1172306Y483700D02*
X1164432D01*
X1168369Y479763D02*
Y487637D01*
X1172306Y509100D02*
X1164432D01*
X1168369Y505163D02*
Y513037D01*
X1126025Y301000D02*
X1118913D01*
X1122469Y297444D02*
Y304556D01*
X1111025Y380000D02*
X1103913D01*
X1107469Y376444D02*
Y383556D01*
X1111025Y319000D02*
X1103913D01*
X1107469Y315444D02*
Y322556D01*
X1265025Y395000D02*
X1257913D01*
X1261469Y391444D02*
Y398556D01*
X1265025Y297000D02*
X1257913D01*
X1261469Y293444D02*
Y300556D01*
X1205025Y390000D02*
X1197913D01*
X1201469Y386444D02*
Y393556D01*
X1205025Y233000D02*
X1197913D01*
X1201469Y229444D02*
Y236556D01*
X1037469Y503500D02*
X1032469D01*
X1034969Y501000D02*
Y506000D01*
X1072469Y503500D02*
X1067469D01*
X1069969Y501000D02*
Y506000D01*
X1072469Y468500D02*
X1067469D01*
X1069969Y466000D02*
Y471000D01*
X1037469Y468500D02*
X1032469D01*
X1034969Y466000D02*
Y471000D01*
X1030219Y486000D02*
X1025219D01*
X1027719Y483500D02*
Y488500D01*
X1054969Y461250D02*
X1049969D01*
X1052469Y458750D02*
Y463750D01*
X1079719Y486000D02*
X1074719D01*
X1077219Y483500D02*
Y488500D01*
X1054969Y510750D02*
X1049969D01*
X1052469Y508250D02*
Y513250D01*
X1126025Y414000D02*
X1118913D01*
X1122469Y410444D02*
Y417556D01*
M02*
