G04 Layer_Color=32896*
%FSLAX44Y44*%
%MOMM*%
G71*
G01*
G75*
%ADD19C,0.6000*%
%ADD36C,0.2500*%
%ADD37C,0.2000*%
%ADD38C,0.2540*%
D19*
X2613969Y432750D02*
G03*
X2613969Y432750I3000J0D01*
G01*
Y1032750D02*
G03*
X2613969Y1032750I3000J0D01*
G01*
Y1632750D02*
G03*
X2613969Y1632750I3000J0D01*
G01*
D36*
X2643319Y419900D02*
G03*
X2643319Y419900I1250J0D01*
G01*
Y1019900D02*
G03*
X2643319Y1019900I1250J0D01*
G01*
Y1619900D02*
G03*
X2643319Y1619900I1250J0D01*
G01*
D37*
X2612819Y422000D02*
G03*
X2600119Y422000I-6350J0D01*
G01*
X2409615Y353000D02*
Y453000D01*
X2353214D01*
Y353000D02*
Y453000D01*
X2409615Y353000D02*
X2353214D01*
X2409615Y373441D02*
X2353214D01*
X2684119Y271750D02*
Y284750D01*
X2614369D01*
Y268250D02*
Y284750D01*
X2684119Y234000D02*
X2614369D01*
X2674869Y152000D02*
Y234000D01*
Y152000D02*
X2624069D01*
Y234000D01*
X2626469Y422000D02*
Y520000D01*
X2586469Y422000D02*
Y520000D01*
X2626469Y422000D02*
X2612819D01*
X2600119D02*
X2586469D01*
X2626469Y520000D02*
X2586469D01*
X2612819Y1022000D02*
G03*
X2600119Y1022000I-6350J0D01*
G01*
X2409615Y953000D02*
Y1053000D01*
X2353214D01*
Y953000D02*
Y1053000D01*
X2409615Y953000D02*
X2353214D01*
X2409615Y973441D02*
X2353214D01*
X2684119Y871750D02*
Y884750D01*
X2614369D01*
Y868250D02*
Y884750D01*
X2684119Y834000D02*
X2614369D01*
X2674869Y752000D02*
Y834000D01*
Y752000D02*
X2624069D01*
Y834000D01*
X2626469Y1022000D02*
Y1120000D01*
X2586469Y1022000D02*
Y1120000D01*
X2626469Y1022000D02*
X2612819D01*
X2600119D02*
X2586469D01*
X2626469Y1120000D02*
X2586469D01*
X2612819Y1622000D02*
G03*
X2600119Y1622000I-6350J0D01*
G01*
X2409615Y1553000D02*
Y1653000D01*
X2353214D01*
Y1553000D02*
Y1653000D01*
X2409615Y1553000D02*
X2353214D01*
X2409615Y1573441D02*
X2353214D01*
X2684119Y1471750D02*
Y1484750D01*
X2614369D01*
Y1468250D02*
Y1484750D01*
X2684119Y1434000D02*
X2614369D01*
X2674869Y1352000D02*
Y1434000D01*
Y1352000D02*
X2624069D01*
Y1434000D01*
X2626469Y1622000D02*
Y1720000D01*
X2586469Y1622000D02*
Y1720000D01*
X2626469Y1622000D02*
X2612819D01*
X2600119D02*
X2586469D01*
X2626469Y1720000D02*
X2586469D01*
D38*
X2577439Y390480D02*
X2529179D01*
X2577439Y201250D02*
Y390480D01*
Y201250D02*
X2529179D01*
Y390480D01*
X2473519Y181049D02*
X2383419D01*
Y271000D01*
X2473519Y181049D02*
Y271000D01*
X2394729Y271000D02*
X2383419D01*
X2436069D02*
X2424701D01*
X2473469D02*
X2457469D01*
X2353519Y181049D02*
X2263419D01*
Y271000D01*
X2353519Y181049D02*
Y271000D01*
X2274729Y271000D02*
X2263419D01*
X2316069D02*
X2304701D01*
X2353469D02*
X2337469D01*
X2741023Y369154D02*
X2715115D01*
Y216246D02*
Y369154D01*
X2741023Y216246D02*
X2715115D01*
X2741023D02*
Y369154D01*
X2258423Y216246D02*
X2232515D01*
X2258423D02*
Y419954D01*
X2232515D01*
Y216246D02*
Y419954D01*
X2741023Y597754D02*
X2715115D01*
Y394046D02*
Y597754D01*
X2741023Y394046D02*
X2715115D01*
X2741023D02*
Y597754D01*
X2258423Y434686D02*
X2232515D01*
X2258423D02*
Y688889D01*
X2232515Y434686D02*
Y688889D01*
X2258423Y689194D02*
X2232515D01*
X2281626Y613696D02*
X2279087Y616235D01*
X2274008D01*
X2271469Y613696D01*
Y603539D01*
X2274008Y601000D01*
X2279087D01*
X2281626Y603539D01*
X2286704Y601000D02*
Y616235D01*
X2296861Y601000D01*
Y616235D01*
X2312096D02*
X2301940D01*
Y608618D01*
X2307018Y611157D01*
X2309557D01*
X2312096Y608618D01*
Y603539D01*
X2309557Y601000D01*
X2304479D01*
X2301940Y603539D01*
X2718626Y626696D02*
X2716087Y629235D01*
X2711009D01*
X2708469Y626696D01*
Y616539D01*
X2711009Y614000D01*
X2716087D01*
X2718626Y616539D01*
X2723705Y614000D02*
Y629235D01*
X2733861Y614000D01*
Y629235D01*
X2749096D02*
X2744018Y626696D01*
X2738940Y621618D01*
Y616539D01*
X2741479Y614000D01*
X2746557D01*
X2749096Y616539D01*
Y619078D01*
X2746557Y621618D01*
X2738940D01*
X2677626Y377696D02*
X2675087Y380235D01*
X2670009D01*
X2667469Y377696D01*
Y367539D01*
X2670009Y365000D01*
X2675087D01*
X2677626Y367539D01*
X2682704Y365000D02*
Y380235D01*
X2692861Y365000D01*
Y380235D01*
X2697939Y377696D02*
X2700479Y380235D01*
X2705557D01*
X2708096Y377696D01*
Y375157D01*
X2705557Y372617D01*
X2708096Y370078D01*
Y367539D01*
X2705557Y365000D01*
X2700479D01*
X2697939Y367539D01*
Y370078D01*
X2700479Y372617D01*
X2697939Y375157D01*
Y377696D01*
X2700479Y372617D02*
X2705557D01*
X2280626Y350696D02*
X2278087Y353235D01*
X2273009D01*
X2270469Y350696D01*
Y340539D01*
X2273009Y338000D01*
X2278087D01*
X2280626Y340539D01*
X2285704Y338000D02*
Y353235D01*
X2295861Y338000D01*
Y353235D01*
X2300939Y340539D02*
X2303479Y338000D01*
X2308557D01*
X2311096Y340539D01*
Y350696D01*
X2308557Y353235D01*
X2303479D01*
X2300939Y350696D01*
Y348157D01*
X2303479Y345617D01*
X2311096D01*
X2583626Y296696D02*
X2581087Y299235D01*
X2576009D01*
X2573469Y296696D01*
Y286539D01*
X2576009Y284000D01*
X2581087D01*
X2583626Y286539D01*
X2588705Y284000D02*
Y299235D01*
X2598861Y284000D01*
Y299235D01*
X2603940Y284000D02*
X2609018D01*
X2606479D01*
Y299235D01*
X2603940Y296696D01*
X2622469Y412235D02*
Y399539D01*
X2625009Y397000D01*
X2630087D01*
X2632626Y399539D01*
Y412235D01*
X2637704Y397000D02*
X2642783D01*
X2640244D01*
Y412235D01*
X2637704Y409696D01*
X2577439Y990480D02*
X2529179D01*
X2577439Y801250D02*
Y990480D01*
Y801250D02*
X2529179D01*
Y990480D01*
X2473519Y781049D02*
X2383419D01*
Y871000D01*
X2473519Y781049D02*
Y871000D01*
X2394729Y871000D02*
X2383419D01*
X2436069D02*
X2424701D01*
X2473469D02*
X2457469D01*
X2353519Y781049D02*
X2263419D01*
Y871000D01*
X2353519Y781049D02*
Y871000D01*
X2274729Y871000D02*
X2263419D01*
X2316069D02*
X2304701D01*
X2353469D02*
X2337469D01*
X2741023Y969154D02*
X2715115D01*
Y816246D02*
Y969154D01*
X2741023Y816246D02*
X2715115D01*
X2741023D02*
Y969154D01*
X2258423Y816246D02*
X2232515D01*
X2258423D02*
Y1019954D01*
X2232515D01*
Y816246D02*
Y1019954D01*
X2741023Y1197754D02*
X2715115D01*
Y994046D02*
Y1197754D01*
X2741023Y994046D02*
X2715115D01*
X2741023D02*
Y1197754D01*
X2258423Y1034686D02*
X2232515D01*
X2258423D02*
Y1288889D01*
X2232515Y1034686D02*
Y1288889D01*
X2258423Y1289194D02*
X2232515D01*
X2281626Y1213696D02*
X2279087Y1216235D01*
X2274008D01*
X2271469Y1213696D01*
Y1203539D01*
X2274008Y1201000D01*
X2279087D01*
X2281626Y1203539D01*
X2286704Y1201000D02*
Y1216235D01*
X2296861Y1201000D01*
Y1216235D01*
X2312096D02*
X2301940D01*
Y1208617D01*
X2307018Y1211157D01*
X2309557D01*
X2312096Y1208617D01*
Y1203539D01*
X2309557Y1201000D01*
X2304479D01*
X2301940Y1203539D01*
X2718626Y1226696D02*
X2716087Y1229235D01*
X2711009D01*
X2708469Y1226696D01*
Y1216539D01*
X2711009Y1214000D01*
X2716087D01*
X2718626Y1216539D01*
X2723705Y1214000D02*
Y1229235D01*
X2733861Y1214000D01*
Y1229235D01*
X2749096D02*
X2744018Y1226696D01*
X2738940Y1221618D01*
Y1216539D01*
X2741479Y1214000D01*
X2746557D01*
X2749096Y1216539D01*
Y1219078D01*
X2746557Y1221618D01*
X2738940D01*
X2677626Y977696D02*
X2675087Y980235D01*
X2670009D01*
X2667469Y977696D01*
Y967539D01*
X2670009Y965000D01*
X2675087D01*
X2677626Y967539D01*
X2682704Y965000D02*
Y980235D01*
X2692861Y965000D01*
Y980235D01*
X2697939Y977696D02*
X2700479Y980235D01*
X2705557D01*
X2708096Y977696D01*
Y975157D01*
X2705557Y972617D01*
X2708096Y970078D01*
Y967539D01*
X2705557Y965000D01*
X2700479D01*
X2697939Y967539D01*
Y970078D01*
X2700479Y972617D01*
X2697939Y975157D01*
Y977696D01*
X2700479Y972617D02*
X2705557D01*
X2280626Y950696D02*
X2278087Y953235D01*
X2273009D01*
X2270469Y950696D01*
Y940539D01*
X2273009Y938000D01*
X2278087D01*
X2280626Y940539D01*
X2285704Y938000D02*
Y953235D01*
X2295861Y938000D01*
Y953235D01*
X2300939Y940539D02*
X2303479Y938000D01*
X2308557D01*
X2311096Y940539D01*
Y950696D01*
X2308557Y953235D01*
X2303479D01*
X2300939Y950696D01*
Y948157D01*
X2303479Y945618D01*
X2311096D01*
X2583626Y896696D02*
X2581087Y899235D01*
X2576009D01*
X2573469Y896696D01*
Y886539D01*
X2576009Y884000D01*
X2581087D01*
X2583626Y886539D01*
X2588705Y884000D02*
Y899235D01*
X2598861Y884000D01*
Y899235D01*
X2603940Y884000D02*
X2609018D01*
X2606479D01*
Y899235D01*
X2603940Y896696D01*
X2622469Y1012235D02*
Y999539D01*
X2625009Y997000D01*
X2630087D01*
X2632626Y999539D01*
Y1012235D01*
X2637704Y997000D02*
X2642783D01*
X2640244D01*
Y1012235D01*
X2637704Y1009696D01*
X2577439Y1590480D02*
X2529179D01*
X2577439Y1401250D02*
Y1590480D01*
Y1401250D02*
X2529179D01*
Y1590480D01*
X2473519Y1381049D02*
X2383419D01*
Y1471000D01*
X2473519Y1381049D02*
Y1471000D01*
X2394729Y1471000D02*
X2383419D01*
X2436069D02*
X2424701D01*
X2473469D02*
X2457469D01*
X2353519Y1381049D02*
X2263419D01*
Y1471000D01*
X2353519Y1381049D02*
Y1471000D01*
X2274729Y1471000D02*
X2263419D01*
X2316069D02*
X2304701D01*
X2353469D02*
X2337469D01*
X2741023Y1569154D02*
X2715115D01*
Y1416246D02*
Y1569154D01*
X2741023Y1416246D02*
X2715115D01*
X2741023D02*
Y1569154D01*
X2258423Y1416246D02*
X2232515D01*
X2258423D02*
Y1619954D01*
X2232515D01*
Y1416246D02*
Y1619954D01*
X2741023Y1797754D02*
X2715115D01*
Y1594046D02*
Y1797754D01*
X2741023Y1594046D02*
X2715115D01*
X2741023D02*
Y1797754D01*
X2258423Y1634686D02*
X2232515D01*
X2258423D02*
Y1888889D01*
X2232515Y1634686D02*
Y1888889D01*
X2258423Y1889194D02*
X2232515D01*
X2281626Y1813696D02*
X2279087Y1816235D01*
X2274008D01*
X2271469Y1813696D01*
Y1803539D01*
X2274008Y1801000D01*
X2279087D01*
X2281626Y1803539D01*
X2286704Y1801000D02*
Y1816235D01*
X2296861Y1801000D01*
Y1816235D01*
X2312096D02*
X2301940D01*
Y1808618D01*
X2307018Y1811157D01*
X2309557D01*
X2312096Y1808618D01*
Y1803539D01*
X2309557Y1801000D01*
X2304479D01*
X2301940Y1803539D01*
X2718626Y1826696D02*
X2716087Y1829235D01*
X2711009D01*
X2708469Y1826696D01*
Y1816539D01*
X2711009Y1814000D01*
X2716087D01*
X2718626Y1816539D01*
X2723705Y1814000D02*
Y1829235D01*
X2733861Y1814000D01*
Y1829235D01*
X2749096D02*
X2744018Y1826696D01*
X2738940Y1821617D01*
Y1816539D01*
X2741479Y1814000D01*
X2746557D01*
X2749096Y1816539D01*
Y1819078D01*
X2746557Y1821617D01*
X2738940D01*
X2677626Y1577696D02*
X2675087Y1580235D01*
X2670009D01*
X2667469Y1577696D01*
Y1567539D01*
X2670009Y1565000D01*
X2675087D01*
X2677626Y1567539D01*
X2682704Y1565000D02*
Y1580235D01*
X2692861Y1565000D01*
Y1580235D01*
X2697939Y1577696D02*
X2700479Y1580235D01*
X2705557D01*
X2708096Y1577696D01*
Y1575157D01*
X2705557Y1572617D01*
X2708096Y1570078D01*
Y1567539D01*
X2705557Y1565000D01*
X2700479D01*
X2697939Y1567539D01*
Y1570078D01*
X2700479Y1572617D01*
X2697939Y1575157D01*
Y1577696D01*
X2700479Y1572617D02*
X2705557D01*
X2280626Y1550696D02*
X2278087Y1553235D01*
X2273009D01*
X2270469Y1550696D01*
Y1540539D01*
X2273009Y1538000D01*
X2278087D01*
X2280626Y1540539D01*
X2285704Y1538000D02*
Y1553235D01*
X2295861Y1538000D01*
Y1553235D01*
X2300939Y1540539D02*
X2303479Y1538000D01*
X2308557D01*
X2311096Y1540539D01*
Y1550696D01*
X2308557Y1553235D01*
X2303479D01*
X2300939Y1550696D01*
Y1548157D01*
X2303479Y1545618D01*
X2311096D01*
X2583626Y1496696D02*
X2581087Y1499235D01*
X2576009D01*
X2573469Y1496696D01*
Y1486539D01*
X2576009Y1484000D01*
X2581087D01*
X2583626Y1486539D01*
X2588705Y1484000D02*
Y1499235D01*
X2598861Y1484000D01*
Y1499235D01*
X2603940Y1484000D02*
X2609018D01*
X2606479D01*
Y1499235D01*
X2603940Y1496696D01*
X2622469Y1612235D02*
Y1599539D01*
X2625009Y1597000D01*
X2630087D01*
X2632626Y1599539D01*
Y1612235D01*
X2637704Y1597000D02*
X2642783D01*
X2640244D01*
Y1612235D01*
X2637704Y1609696D01*
M02*
