G04 Layer_Color=255*
%FSLAX44Y44*%
%MOMM*%
G71*
G01*
G75*
%ADD21C,3.0000*%
%ADD22R,3.0000X3.0000*%
%ADD23C,1.5000*%
%ADD24C,2.0000*%
%ADD25R,2.0000X2.0000*%
%ADD26P,6.4944X8X202.5*%
%ADD27C,1.8000*%
%ADD28R,1.8000X1.8000*%
%ADD29R,2.0000X3.0000*%
%ADD30O,2.0000X3.0000*%
%ADD31R,2.5000X1.5000*%
%ADD32O,2.5000X1.5000*%
D21*
X2381469Y497191D02*
D03*
X1681469D02*
D03*
X981469D02*
D03*
D22*
X2381469Y308809D02*
D03*
X1681469D02*
D03*
X981469D02*
D03*
D23*
X2563469Y360000D02*
D03*
X2538069Y283800D02*
D03*
X2563469Y233000D02*
D03*
X1863469Y360000D02*
D03*
X1838069Y283800D02*
D03*
X1863469Y233000D02*
D03*
X1163469Y360000D02*
D03*
X1138069Y283800D02*
D03*
X1163469Y233000D02*
D03*
D24*
X2447519Y261000D02*
D03*
X2327519D02*
D03*
X2427069Y319000D02*
D03*
X2452469D02*
D03*
X1747519Y261000D02*
D03*
X1627519D02*
D03*
X1727069Y319000D02*
D03*
X1752469D02*
D03*
X1047519Y261000D02*
D03*
X927519D02*
D03*
X1027069Y319000D02*
D03*
X1052469D02*
D03*
D25*
X2409419Y261000D02*
D03*
X2289419D02*
D03*
X2477869Y319000D02*
D03*
X1709419Y261000D02*
D03*
X1589419D02*
D03*
X1777869Y319000D02*
D03*
X1009419Y261000D02*
D03*
X889419D02*
D03*
X1077869Y319000D02*
D03*
D26*
X2452469Y486000D02*
D03*
X1752469D02*
D03*
X1052469D02*
D03*
D27*
X2728069Y229200D02*
D03*
Y254600D02*
D03*
Y280000D02*
D03*
Y305400D02*
D03*
Y330800D02*
D03*
X2245469Y254600D02*
D03*
Y280000D02*
D03*
Y305400D02*
D03*
Y330800D02*
D03*
Y356200D02*
D03*
Y381600D02*
D03*
Y407000D02*
D03*
X2728069Y559400D02*
D03*
Y534000D02*
D03*
Y508600D02*
D03*
Y483200D02*
D03*
Y457800D02*
D03*
Y432400D02*
D03*
Y407000D02*
D03*
X2245469Y473040D02*
D03*
Y498440D02*
D03*
Y523840D02*
D03*
Y549240D02*
D03*
Y574640D02*
D03*
Y600040D02*
D03*
Y625440D02*
D03*
Y676240D02*
D03*
Y650840D02*
D03*
X2028069Y229200D02*
D03*
Y254600D02*
D03*
Y280000D02*
D03*
Y305400D02*
D03*
Y330800D02*
D03*
X1545469Y254600D02*
D03*
Y280000D02*
D03*
Y305400D02*
D03*
Y330800D02*
D03*
Y356200D02*
D03*
Y381600D02*
D03*
Y407000D02*
D03*
X2028069Y559400D02*
D03*
Y534000D02*
D03*
Y508600D02*
D03*
Y483200D02*
D03*
Y457800D02*
D03*
Y432400D02*
D03*
Y407000D02*
D03*
X1545469Y473040D02*
D03*
Y498440D02*
D03*
Y523840D02*
D03*
Y549240D02*
D03*
Y574640D02*
D03*
Y600040D02*
D03*
Y625440D02*
D03*
Y676240D02*
D03*
Y650840D02*
D03*
X1328069Y229200D02*
D03*
Y254600D02*
D03*
Y280000D02*
D03*
Y305400D02*
D03*
Y330800D02*
D03*
X845469Y254600D02*
D03*
Y280000D02*
D03*
Y305400D02*
D03*
Y330800D02*
D03*
Y356200D02*
D03*
Y381600D02*
D03*
Y407000D02*
D03*
X1328069Y559400D02*
D03*
Y534000D02*
D03*
Y508600D02*
D03*
Y483200D02*
D03*
Y457800D02*
D03*
Y432400D02*
D03*
Y407000D02*
D03*
X845469Y473040D02*
D03*
Y498440D02*
D03*
Y523840D02*
D03*
Y549240D02*
D03*
Y574640D02*
D03*
Y600040D02*
D03*
Y625440D02*
D03*
Y676240D02*
D03*
Y650840D02*
D03*
D28*
X2728069Y356200D02*
D03*
X2245469Y229200D02*
D03*
X2728069Y584800D02*
D03*
X2245469Y447640D02*
D03*
X2028069Y356200D02*
D03*
X1545469Y229200D02*
D03*
X2028069Y584800D02*
D03*
X1545469Y447640D02*
D03*
X1328069Y356200D02*
D03*
X845469Y229200D02*
D03*
X1328069Y584800D02*
D03*
X845469Y447640D02*
D03*
D29*
X2674469Y253000D02*
D03*
X1974469D02*
D03*
X1274469D02*
D03*
D30*
X2649469D02*
D03*
X2624469D02*
D03*
X1949469D02*
D03*
X1924469D02*
D03*
X1249469D02*
D03*
X1224469D02*
D03*
D31*
X2644569Y432900D02*
D03*
X1944569D02*
D03*
X1244569D02*
D03*
D32*
X2644569Y458300D02*
D03*
Y483700D02*
D03*
Y509100D02*
D03*
X2568369Y432900D02*
D03*
Y458300D02*
D03*
Y483700D02*
D03*
Y509100D02*
D03*
X1944569Y458300D02*
D03*
Y483700D02*
D03*
Y509100D02*
D03*
X1868369Y432900D02*
D03*
Y458300D02*
D03*
Y483700D02*
D03*
Y509100D02*
D03*
X1244569Y458300D02*
D03*
Y483700D02*
D03*
Y509100D02*
D03*
X1168369Y432900D02*
D03*
Y458300D02*
D03*
Y483700D02*
D03*
Y509100D02*
D03*
M02*
