G04 Layer_Color=32768*
%FSLAX44Y44*%
%MOMM*%
G71*
G01*
G75*
%ADD35C,0.1000*%
%ADD67C,1.0000*%
D35*
X2304469Y390000D02*
Y400000D01*
X2666469Y323000D02*
X2656469D01*
X2631469Y313900D02*
Y317900D01*
X2633469Y315900D02*
X2629469D01*
X2637469Y211000D02*
Y221000D01*
X2685469Y498000D02*
X2675469D01*
X2687469Y453000D02*
Y463000D01*
X2607469Y324000D02*
X2597469D01*
X2623469Y561000D02*
X2613469D01*
X2304469Y416000D02*
Y426000D01*
X2529469Y478000D02*
Y488000D01*
X2563469Y537000D02*
Y547000D01*
X2611469Y471000D02*
X2601469D01*
X2606469Y466000D02*
Y476000D01*
X2692469Y327000D02*
Y337000D01*
X2688869Y373500D02*
Y377500D01*
X2690869Y375500D02*
X2686869D01*
X2564869Y322400D02*
Y332400D01*
X1604469Y390000D02*
Y400000D01*
X1966469Y323000D02*
X1956469D01*
X1931469Y313900D02*
Y317900D01*
X1933469Y315900D02*
X1929469D01*
X1937469Y211000D02*
Y221000D01*
X1985469Y498000D02*
X1975469D01*
X1987469Y453000D02*
Y463000D01*
X1907469Y324000D02*
X1897469D01*
X1923469Y561000D02*
X1913469D01*
X1604469Y416000D02*
Y426000D01*
X1829469Y478000D02*
Y488000D01*
X1863469Y537000D02*
Y547000D01*
X1911469Y471000D02*
X1901469D01*
X1906469Y466000D02*
Y476000D01*
X1992469Y327000D02*
Y337000D01*
X1988869Y373500D02*
Y377500D01*
X1990869Y375500D02*
X1986869D01*
X1864869Y322400D02*
Y332400D01*
X904469Y390000D02*
Y400000D01*
X1266469Y323000D02*
X1256469D01*
X1231469Y313900D02*
Y317900D01*
X1233469Y315900D02*
X1229469D01*
X1237469Y211000D02*
Y221000D01*
X1285469Y498000D02*
X1275469D01*
X1287469Y453000D02*
Y463000D01*
X1207469Y324000D02*
X1197469D01*
X1223469Y561000D02*
X1213469D01*
X904469Y416000D02*
Y426000D01*
X1129469Y478000D02*
Y488000D01*
X1163469Y537000D02*
Y547000D01*
X1211469Y471000D02*
X1201469D01*
X1206469Y466000D02*
Y476000D01*
X1292469Y327000D02*
Y337000D01*
X1288869Y373500D02*
Y377500D01*
X1290869Y375500D02*
X1286869D01*
X1164869Y322400D02*
Y332400D01*
D67*
X2338469Y342000D02*
G03*
X2338469Y342000I5000J0D01*
G01*
X1638469D02*
G03*
X1638469Y342000I5000J0D01*
G01*
X938469D02*
G03*
X938469Y342000I5000J0D01*
G01*
M02*
