G04 Layer_Color=8421504*
%FSLAX44Y44*%
%MOMM*%
G71*
G01*
G75*
G04:AMPARAMS|DCode=10|XSize=9mm|YSize=12mm|CornerRadius=2.25mm|HoleSize=0mm|Usage=FLASHONLY|Rotation=180.000|XOffset=0mm|YOffset=0mm|HoleType=Round|Shape=RoundedRectangle|*
%AMROUNDEDRECTD10*
21,1,9.0000,7.5000,0,0,180.0*
21,1,4.5000,12.0000,0,0,180.0*
1,1,4.5000,-2.2500,3.7500*
1,1,4.5000,2.2500,3.7500*
1,1,4.5000,2.2500,-3.7500*
1,1,4.5000,-2.2500,-3.7500*
%
%ADD10ROUNDEDRECTD10*%
%ADD11R,1.1430X1.5240*%
%ADD12R,1.6000X1.0500*%
%ADD13R,1.7000X1.3000*%
%ADD14R,1.0500X1.6000*%
%ADD15R,1.5240X1.1430*%
%ADD16O,0.6500X1.7500*%
%ADD17O,0.6500X1.7500*%
D10*
X2452469Y450750D02*
D03*
Y1050750D02*
D03*
Y1650750D02*
D03*
D11*
X2314629Y395000D02*
D03*
X2294309D02*
D03*
X2314629Y421000D02*
D03*
X2294309D02*
D03*
X2314629Y995000D02*
D03*
X2294309D02*
D03*
X2314629Y1021000D02*
D03*
X2294309D02*
D03*
X2314629Y1595000D02*
D03*
X2294309D02*
D03*
X2314629Y1621000D02*
D03*
X2294309D02*
D03*
D12*
X2661469Y313250D02*
D03*
Y332750D02*
D03*
X2602469Y333750D02*
D03*
Y314250D02*
D03*
X2618469Y570750D02*
D03*
Y551250D02*
D03*
X2661469Y913250D02*
D03*
Y932750D02*
D03*
X2602469Y933750D02*
D03*
Y914250D02*
D03*
X2618469Y1170750D02*
D03*
Y1151250D02*
D03*
X2661469Y1513250D02*
D03*
Y1532750D02*
D03*
X2602469Y1533750D02*
D03*
Y1514250D02*
D03*
X2618469Y1770750D02*
D03*
Y1751250D02*
D03*
D13*
X2631469Y298500D02*
D03*
Y333500D02*
D03*
Y898500D02*
D03*
Y933500D02*
D03*
Y1498500D02*
D03*
Y1533500D02*
D03*
D14*
X2627719Y216000D02*
D03*
X2647219D02*
D03*
X2697219Y458000D02*
D03*
X2677719D02*
D03*
X2539219Y483000D02*
D03*
X2519719D02*
D03*
X2573219Y542000D02*
D03*
X2553719D02*
D03*
X2682719Y332000D02*
D03*
X2702220D02*
D03*
X2627719Y816000D02*
D03*
X2647219D02*
D03*
X2697219Y1058000D02*
D03*
X2677719D02*
D03*
X2539219Y1083000D02*
D03*
X2519719D02*
D03*
X2573219Y1142000D02*
D03*
X2553719D02*
D03*
X2682719Y932000D02*
D03*
X2702220D02*
D03*
X2627719Y1416000D02*
D03*
X2647219D02*
D03*
X2697219Y1658000D02*
D03*
X2677719D02*
D03*
X2539219Y1683000D02*
D03*
X2519719D02*
D03*
X2573219Y1742000D02*
D03*
X2553719D02*
D03*
X2682719Y1532000D02*
D03*
X2702220D02*
D03*
D15*
X2680469Y508160D02*
D03*
Y487840D02*
D03*
Y1108160D02*
D03*
Y1087840D02*
D03*
Y1708160D02*
D03*
Y1687840D02*
D03*
D16*
X2362519Y370000D02*
D03*
X2349819D02*
D03*
X2337119D02*
D03*
X2324419D02*
D03*
Y314000D02*
D03*
X2337119D02*
D03*
X2362519Y970000D02*
D03*
X2349819D02*
D03*
X2337119D02*
D03*
X2324419D02*
D03*
Y914000D02*
D03*
X2337119D02*
D03*
X2362519Y1570000D02*
D03*
X2349819D02*
D03*
X2337119D02*
D03*
X2324419D02*
D03*
Y1514000D02*
D03*
X2337119D02*
D03*
D17*
X2362519Y314000D02*
D03*
X2349819D02*
D03*
X2362519Y914000D02*
D03*
X2349819D02*
D03*
X2362519Y1514000D02*
D03*
X2349819D02*
D03*
M02*
