G04 Layer_Color=16711935*
%FSLAX44Y44*%
%MOMM*%
G71*
G01*
G75*
%ADD48C,3.2032*%
%ADD49R,3.2032X3.2032*%
%ADD50C,1.7032*%
%ADD51C,2.2032*%
%ADD52R,2.2032X2.2032*%
%ADD53P,6.7143X8X202.5*%
%ADD54C,2.0032*%
%ADD55R,2.0032X2.0032*%
%ADD56R,2.2032X3.2032*%
%ADD57O,2.2032X3.2032*%
%ADD58R,2.7032X1.7032*%
%ADD59O,2.7032X1.7032*%
%ADD60C,1.4732*%
%ADD61C,1.0032*%
D48*
X2381469Y497191D02*
D03*
Y1097191D02*
D03*
Y1697191D02*
D03*
D49*
Y308809D02*
D03*
Y908809D02*
D03*
Y1508809D02*
D03*
D50*
X2563469Y360000D02*
D03*
X2538069Y283800D02*
D03*
X2563469Y233000D02*
D03*
Y960000D02*
D03*
X2538069Y883800D02*
D03*
X2563469Y833000D02*
D03*
Y1560000D02*
D03*
X2538069Y1483800D02*
D03*
X2563469Y1433000D02*
D03*
D51*
X2447519Y261000D02*
D03*
X2327519D02*
D03*
X2427069Y319000D02*
D03*
X2452469D02*
D03*
X2447519Y861000D02*
D03*
X2327519D02*
D03*
X2427069Y919000D02*
D03*
X2452469D02*
D03*
X2447519Y1461000D02*
D03*
X2327519D02*
D03*
X2427069Y1519000D02*
D03*
X2452469D02*
D03*
D52*
X2409419Y261000D02*
D03*
X2289419D02*
D03*
X2477869Y319000D02*
D03*
X2409419Y861000D02*
D03*
X2289419D02*
D03*
X2477869Y919000D02*
D03*
X2409419Y1461000D02*
D03*
X2289419D02*
D03*
X2477869Y1519000D02*
D03*
D53*
X2452469Y486000D02*
D03*
Y1086000D02*
D03*
Y1686000D02*
D03*
D54*
X2728069Y229200D02*
D03*
Y254600D02*
D03*
Y280000D02*
D03*
Y305400D02*
D03*
Y330800D02*
D03*
X2245469Y254600D02*
D03*
Y280000D02*
D03*
Y305400D02*
D03*
Y330800D02*
D03*
Y356200D02*
D03*
Y381600D02*
D03*
Y407000D02*
D03*
X2728069Y559400D02*
D03*
Y534000D02*
D03*
Y508600D02*
D03*
Y483200D02*
D03*
Y457800D02*
D03*
Y432400D02*
D03*
Y407000D02*
D03*
X2245469Y473040D02*
D03*
Y498440D02*
D03*
Y523840D02*
D03*
Y549240D02*
D03*
Y574640D02*
D03*
Y600040D02*
D03*
Y625440D02*
D03*
Y676240D02*
D03*
Y650840D02*
D03*
X2728069Y829200D02*
D03*
Y854600D02*
D03*
Y880000D02*
D03*
Y905400D02*
D03*
Y930800D02*
D03*
X2245469Y854600D02*
D03*
Y880000D02*
D03*
Y905400D02*
D03*
Y930800D02*
D03*
Y956200D02*
D03*
Y981600D02*
D03*
Y1007000D02*
D03*
X2728069Y1159400D02*
D03*
Y1134000D02*
D03*
Y1108600D02*
D03*
Y1083200D02*
D03*
Y1057800D02*
D03*
Y1032400D02*
D03*
Y1007000D02*
D03*
X2245469Y1073040D02*
D03*
Y1098440D02*
D03*
Y1123840D02*
D03*
Y1149240D02*
D03*
Y1174640D02*
D03*
Y1200040D02*
D03*
Y1225440D02*
D03*
Y1276240D02*
D03*
Y1250840D02*
D03*
X2728069Y1429200D02*
D03*
Y1454600D02*
D03*
Y1480000D02*
D03*
Y1505400D02*
D03*
Y1530800D02*
D03*
X2245469Y1454600D02*
D03*
Y1480000D02*
D03*
Y1505400D02*
D03*
Y1530800D02*
D03*
Y1556200D02*
D03*
Y1581600D02*
D03*
Y1607000D02*
D03*
X2728069Y1759400D02*
D03*
Y1734000D02*
D03*
Y1708600D02*
D03*
Y1683200D02*
D03*
Y1657800D02*
D03*
Y1632400D02*
D03*
Y1607000D02*
D03*
X2245469Y1673040D02*
D03*
Y1698440D02*
D03*
Y1723840D02*
D03*
Y1749240D02*
D03*
Y1774640D02*
D03*
Y1800040D02*
D03*
Y1825440D02*
D03*
Y1876240D02*
D03*
Y1850840D02*
D03*
D55*
X2728069Y356200D02*
D03*
X2245469Y229200D02*
D03*
X2728069Y584800D02*
D03*
X2245469Y447640D02*
D03*
X2728069Y956200D02*
D03*
X2245469Y829200D02*
D03*
X2728069Y1184800D02*
D03*
X2245469Y1047640D02*
D03*
X2728069Y1556200D02*
D03*
X2245469Y1429200D02*
D03*
X2728069Y1784800D02*
D03*
X2245469Y1647640D02*
D03*
D56*
X2674469Y253000D02*
D03*
Y853000D02*
D03*
Y1453000D02*
D03*
D57*
X2649469Y253000D02*
D03*
X2624469D02*
D03*
X2649469Y853000D02*
D03*
X2624469D02*
D03*
X2649469Y1453000D02*
D03*
X2624469D02*
D03*
D58*
X2644569Y432900D02*
D03*
Y1032900D02*
D03*
Y1632900D02*
D03*
D59*
Y458300D02*
D03*
Y483700D02*
D03*
Y509100D02*
D03*
X2568369Y432900D02*
D03*
Y458300D02*
D03*
Y483700D02*
D03*
Y509100D02*
D03*
X2644569Y1058300D02*
D03*
Y1083700D02*
D03*
Y1109100D02*
D03*
X2568369Y1032900D02*
D03*
Y1058300D02*
D03*
Y1083700D02*
D03*
Y1109100D02*
D03*
X2644569Y1658300D02*
D03*
Y1683700D02*
D03*
Y1709100D02*
D03*
X2568369Y1632900D02*
D03*
Y1658300D02*
D03*
Y1683700D02*
D03*
Y1709100D02*
D03*
D60*
X2522469Y301000D02*
D03*
X2507469Y380000D02*
D03*
Y319000D02*
D03*
X2661469Y395000D02*
D03*
Y297000D02*
D03*
X2601469Y390000D02*
D03*
Y233000D02*
D03*
X2522469Y414000D02*
D03*
Y901000D02*
D03*
X2507469Y980000D02*
D03*
Y919000D02*
D03*
X2661469Y995000D02*
D03*
Y897000D02*
D03*
X2601469Y990000D02*
D03*
Y833000D02*
D03*
X2522469Y1014000D02*
D03*
Y1501000D02*
D03*
X2507469Y1580000D02*
D03*
Y1519000D02*
D03*
X2661469Y1595000D02*
D03*
Y1497000D02*
D03*
X2601469Y1590000D02*
D03*
Y1433000D02*
D03*
X2522469Y1614000D02*
D03*
D61*
X2434969Y503500D02*
D03*
X2469969D02*
D03*
Y468500D02*
D03*
X2434969D02*
D03*
X2427719Y486000D02*
D03*
X2452469Y461250D02*
D03*
X2477219Y486000D02*
D03*
X2452469Y510750D02*
D03*
X2434969Y1103500D02*
D03*
X2469969D02*
D03*
Y1068500D02*
D03*
X2434969D02*
D03*
X2427719Y1086000D02*
D03*
X2452469Y1061250D02*
D03*
X2477219Y1086000D02*
D03*
X2452469Y1110750D02*
D03*
X2434969Y1703500D02*
D03*
X2469969D02*
D03*
Y1668500D02*
D03*
X2434969D02*
D03*
X2427719Y1686000D02*
D03*
X2452469Y1661250D02*
D03*
X2477219Y1686000D02*
D03*
X2452469Y1710750D02*
D03*
M02*
