G04 Layer_Physical_Order=1*
G04 Layer_Color=255*
%FSLAX44Y44*%
%MOMM*%
G71*
G01*
G75*
G04:AMPARAMS|DCode=10|XSize=9mm|YSize=12mm|CornerRadius=2.25mm|HoleSize=0mm|Usage=FLASHONLY|Rotation=180.000|XOffset=0mm|YOffset=0mm|HoleType=Round|Shape=RoundedRectangle|*
%AMROUNDEDRECTD10*
21,1,9.0000,7.5000,0,0,180.0*
21,1,4.5000,12.0000,0,0,180.0*
1,1,4.5000,-2.2500,3.7500*
1,1,4.5000,2.2500,3.7500*
1,1,4.5000,2.2500,-3.7500*
1,1,4.5000,-2.2500,-3.7500*
%
%ADD10ROUNDEDRECTD10*%
%ADD11R,1.1430X1.5240*%
%ADD12R,1.6000X1.0500*%
%ADD13R,1.7000X1.3000*%
%ADD14R,1.0500X1.6000*%
%ADD15R,1.5240X1.1430*%
%ADD16O,0.6500X1.7500*%
%ADD17O,0.6500X1.7500*%
%ADD18C,3.0000*%
%ADD19C,0.6000*%
%ADD20C,0.8000*%
%ADD21C,3.0000*%
%ADD22R,3.0000X3.0000*%
%ADD23C,1.5000*%
%ADD24C,2.0000*%
%ADD25R,2.0000X2.0000*%
%ADD26P,6.4944X8X202.5*%
%ADD27C,1.8000*%
%ADD28R,1.8000X1.8000*%
%ADD29R,2.0000X3.0000*%
%ADD30O,2.0000X3.0000*%
%ADD31R,2.5000X1.5000*%
%ADD32O,2.5000X1.5000*%
%ADD33C,1.2700*%
%ADD34C,0.8000*%
G36*
X2266469Y607000D02*
X2262469Y603000D01*
Y590000D01*
Y456000D01*
X2271469Y447000D01*
X2283469Y435000D01*
X2335469Y435000D01*
X2356469Y414000D01*
X2384469Y386000D01*
X2462469D01*
X2486469Y386000D01*
X2497469Y397000D01*
X2497469Y480000D01*
X2497469Y484000D01*
X2489469Y484000D01*
X2468469Y484000D01*
X2491149D01*
X2493469Y484000D01*
X2497469D01*
Y608000D01*
X2483469Y622000D01*
X2480469Y625000D01*
X2284469D01*
X2266469Y607000D01*
D02*
G37*
G36*
Y1207000D02*
X2262469Y1203000D01*
Y1190000D01*
Y1056000D01*
X2271469Y1047000D01*
X2283469Y1035000D01*
X2335469Y1035000D01*
X2356469Y1014000D01*
X2384469Y986000D01*
X2462469D01*
X2486469Y986000D01*
X2497469Y997000D01*
X2497469Y1080000D01*
X2497469Y1084000D01*
X2489469Y1084000D01*
X2468469Y1084000D01*
X2491149D01*
X2493469Y1084000D01*
X2497469D01*
Y1208000D01*
X2483469Y1222000D01*
X2480469Y1225000D01*
X2284469D01*
X2266469Y1207000D01*
D02*
G37*
G36*
Y1807000D02*
X2262469Y1803000D01*
Y1790000D01*
Y1656000D01*
X2271469Y1647000D01*
X2283469Y1635000D01*
X2335469Y1635000D01*
X2356469Y1614000D01*
X2384469Y1586000D01*
X2462469D01*
X2486469Y1586000D01*
X2497469Y1597000D01*
X2497469Y1680000D01*
X2497469Y1684000D01*
X2489469Y1684000D01*
X2468469Y1684000D01*
X2491149D01*
X2493469Y1684000D01*
X2497469D01*
Y1808000D01*
X2483469Y1822000D01*
X2480469Y1825000D01*
X2284469D01*
X2266469Y1807000D01*
D02*
G37*
D10*
X2452469Y450750D02*
D03*
Y1050750D02*
D03*
Y1650750D02*
D03*
D11*
X2314629Y395000D02*
D03*
X2294309D02*
D03*
X2314629Y421000D02*
D03*
X2294309D02*
D03*
X2314629Y995000D02*
D03*
X2294309D02*
D03*
X2314629Y1021000D02*
D03*
X2294309D02*
D03*
X2314629Y1595000D02*
D03*
X2294309D02*
D03*
X2314629Y1621000D02*
D03*
X2294309D02*
D03*
D12*
X2661469Y313250D02*
D03*
Y332750D02*
D03*
X2602469Y333750D02*
D03*
Y314250D02*
D03*
X2618469Y570750D02*
D03*
Y551250D02*
D03*
X2661469Y913250D02*
D03*
Y932750D02*
D03*
X2602469Y933750D02*
D03*
Y914250D02*
D03*
X2618469Y1170750D02*
D03*
Y1151250D02*
D03*
X2661469Y1513250D02*
D03*
Y1532750D02*
D03*
X2602469Y1533750D02*
D03*
Y1514250D02*
D03*
X2618469Y1770750D02*
D03*
Y1751250D02*
D03*
D13*
X2631469Y298500D02*
D03*
Y333500D02*
D03*
Y898500D02*
D03*
Y933500D02*
D03*
Y1498500D02*
D03*
Y1533500D02*
D03*
D14*
X2627719Y216000D02*
D03*
X2647219D02*
D03*
X2697219Y458000D02*
D03*
X2677719D02*
D03*
X2539219Y483000D02*
D03*
X2519719D02*
D03*
X2573219Y542000D02*
D03*
X2553719D02*
D03*
X2682719Y332000D02*
D03*
X2702220D02*
D03*
X2627719Y816000D02*
D03*
X2647219D02*
D03*
X2697219Y1058000D02*
D03*
X2677719D02*
D03*
X2539219Y1083000D02*
D03*
X2519719D02*
D03*
X2573219Y1142000D02*
D03*
X2553719D02*
D03*
X2682719Y932000D02*
D03*
X2702220D02*
D03*
X2627719Y1416000D02*
D03*
X2647219D02*
D03*
X2697219Y1658000D02*
D03*
X2677719D02*
D03*
X2539219Y1683000D02*
D03*
X2519719D02*
D03*
X2573219Y1742000D02*
D03*
X2553719D02*
D03*
X2682719Y1532000D02*
D03*
X2702220D02*
D03*
D15*
X2680469Y508160D02*
D03*
Y487840D02*
D03*
Y1108160D02*
D03*
Y1087840D02*
D03*
Y1708160D02*
D03*
Y1687840D02*
D03*
D16*
X2362519Y370000D02*
D03*
X2349819D02*
D03*
X2337119D02*
D03*
X2324419D02*
D03*
Y314000D02*
D03*
X2337119D02*
D03*
X2362519Y970000D02*
D03*
X2349819D02*
D03*
X2337119D02*
D03*
X2324419D02*
D03*
Y914000D02*
D03*
X2337119D02*
D03*
X2362519Y1570000D02*
D03*
X2349819D02*
D03*
X2337119D02*
D03*
X2324419D02*
D03*
Y1514000D02*
D03*
X2337119D02*
D03*
D17*
X2362519Y314000D02*
D03*
X2349819D02*
D03*
X2362519Y914000D02*
D03*
X2349819D02*
D03*
X2362519Y1514000D02*
D03*
X2349819D02*
D03*
D18*
X2406278Y497191D02*
X2385469D01*
X2434969Y468500D02*
X2406278Y497191D01*
X2362519Y314000D02*
X2361507D01*
X2385469D02*
X2362519D01*
X2327519Y261000D02*
Y313000D01*
X2447519Y261000D02*
Y282938D01*
X2423469Y306988D02*
Y314000D01*
X2447519Y282938D02*
X2423469Y306988D01*
X2289419Y247050D02*
Y261000D01*
X2313469Y223000D02*
X2289419Y247050D01*
X2371419Y223000D02*
X2313469D01*
X2409419Y261000D02*
X2371419Y223000D01*
X2452469Y486000D02*
X2434969Y468500D01*
X2406278Y1097191D02*
X2385469D01*
X2434969Y1068500D02*
X2406278Y1097191D01*
X2362519Y914000D02*
X2361507D01*
X2385469D02*
X2362519D01*
X2327519Y861000D02*
Y913000D01*
X2447519Y861000D02*
Y882938D01*
X2423469Y906988D02*
Y914000D01*
X2447519Y882938D02*
X2423469Y906988D01*
X2289419Y847050D02*
Y861000D01*
X2313469Y823000D02*
X2289419Y847050D01*
X2371419Y823000D02*
X2313469D01*
X2409419Y861000D02*
X2371419Y823000D01*
X2452469Y1086000D02*
X2434969Y1068500D01*
X2406278Y1697191D02*
X2385469D01*
X2434969Y1668500D02*
X2406278Y1697191D01*
X2362519Y1514000D02*
X2361507D01*
X2385469D02*
X2362519D01*
X2327519Y1461000D02*
Y1513000D01*
X2447519Y1461000D02*
Y1482938D01*
X2423469Y1506988D02*
Y1514000D01*
X2447519Y1482938D02*
X2423469Y1506988D01*
X2289419Y1447050D02*
Y1461000D01*
X2313469Y1423000D02*
X2289419Y1447050D01*
X2371419Y1423000D02*
X2313469D01*
X2409419Y1461000D02*
X2371419Y1423000D01*
X2452469Y1686000D02*
X2434969Y1668500D01*
D19*
X2319469Y421000D02*
X2314629D01*
X2362519Y377950D02*
X2319469Y421000D01*
X2362519Y370000D02*
Y377950D01*
X2326469Y395000D02*
X2314629D01*
X2337119Y384350D02*
X2326469Y395000D01*
X2337119Y370000D02*
Y384350D01*
X2703419Y330800D02*
X2702220Y332000D01*
X2682719D02*
X2680969Y333750D01*
X2250109Y570000D02*
X2245469Y574640D01*
X2568475Y483700D02*
X2568369D01*
X2697419Y457800D02*
X2697219Y458000D01*
X2680969Y333750D02*
X2631469D01*
X2365869Y366650D02*
X2362519Y370000D01*
X2319469Y1021000D02*
X2314629D01*
X2362519Y977950D02*
X2319469Y1021000D01*
X2362519Y970000D02*
Y977950D01*
X2326469Y995000D02*
X2314629D01*
X2337119Y984350D02*
X2326469Y995000D01*
X2337119Y970000D02*
Y984350D01*
X2703419Y930800D02*
X2702220Y932000D01*
X2682719D02*
X2680969Y933750D01*
X2250109Y1170000D02*
X2245469Y1174640D01*
X2568475Y1083700D02*
X2568369D01*
X2697419Y1057800D02*
X2697219Y1058000D01*
X2680969Y933750D02*
X2631469D01*
X2365869Y966650D02*
X2362519Y970000D01*
X2319469Y1621000D02*
X2314629D01*
X2362519Y1577950D02*
X2319469Y1621000D01*
X2362519Y1570000D02*
Y1577950D01*
X2326469Y1595000D02*
X2314629D01*
X2337119Y1584350D02*
X2326469Y1595000D01*
X2337119Y1570000D02*
Y1584350D01*
X2703419Y1530800D02*
X2702220Y1532000D01*
X2682719D02*
X2680969Y1533750D01*
X2250109Y1770000D02*
X2245469Y1774640D01*
X2568475Y1683700D02*
X2568369D01*
X2697419Y1657800D02*
X2697219Y1658000D01*
X2680969Y1533750D02*
X2631469D01*
X2365869Y1566650D02*
X2362519Y1570000D01*
D20*
X2675469Y282000D02*
X2659469D01*
X2698869Y305400D02*
X2675469Y282000D01*
X2728069Y305400D02*
X2698869D01*
X2752469Y389000D02*
Y469000D01*
Y223270D02*
Y389000D01*
X2627719Y216000D02*
Y249750D01*
X2649469Y218250D02*
X2647219Y216000D01*
X2649469Y218250D02*
Y253000D01*
X2659469Y282000D02*
X2649469Y272000D01*
Y253000D02*
Y272000D01*
X2674469Y246000D02*
Y253000D01*
X2710199Y210270D02*
X2674469Y246000D01*
X2739469Y210270D02*
X2710199D01*
X2752469Y223270D02*
X2739469Y210270D01*
X2752469Y469000D02*
X2738269Y483200D01*
X2728069D01*
X2624469Y253000D02*
X2593669Y283800D01*
X2492269Y238000D02*
X2432419D01*
X2593669Y283800D02*
X2538069D01*
X2492269Y238000D01*
X2432419D02*
X2409419Y261000D01*
X2482469D02*
X2447519D01*
X2294309Y265890D02*
X2289419Y261000D01*
X2294309Y395000D02*
Y421000D01*
X2324419Y370000D02*
X2294309Y339890D01*
Y265890D02*
Y339890D01*
Y395000D01*
X2624469Y253000D02*
Y291500D01*
X2631469Y298500D02*
X2624469Y291500D01*
X2659969Y298500D02*
X2631469D01*
X2661469Y297000D02*
X2659969Y298500D01*
X2661469Y297000D02*
Y313250D01*
X2698869Y432400D02*
X2661469Y395000D01*
X2728069Y432400D02*
X2698869D01*
X2728069D02*
Y457800D01*
X2697419D01*
X2697219Y458000D02*
Y500250D01*
X2689309Y508160D01*
X2680469D01*
X2645509D01*
X2644569Y509100D01*
X2680469Y487840D02*
X2676329Y483700D01*
X2644569D01*
X2643049D01*
X2618469Y508280D01*
Y551250D01*
X2677719Y458000D02*
X2643349D01*
X2595469Y483520D02*
X2569890Y509100D01*
X2595469Y425000D02*
X2563469Y393000D01*
Y360000D02*
Y393000D01*
X2569890Y509100D02*
X2568369D01*
X2595469Y425000D02*
Y483520D01*
X2644569Y432900D02*
X2601669Y390000D01*
X2601469D01*
X2568369Y458300D02*
X2566769D01*
X2522469Y414000D01*
X2728069Y330800D02*
X2703419D01*
X2601219Y332000D02*
X2599469Y333750D01*
X2682719Y332000D02*
X2601219D01*
X2507469Y319000D02*
X2477869D01*
X2601469Y233000D02*
X2563469D01*
X2601469Y233000D02*
X2601469Y233000D01*
X2550219Y639000D02*
X2282709D01*
X2245469Y676240D01*
X2618469Y570750D02*
X2550219Y639000D01*
X2539219Y483000D02*
Y527500D01*
X2553719Y542000D02*
X2539219Y527500D01*
Y466750D02*
Y483000D01*
X2568369Y483700D02*
X2539919D01*
X2539219Y483000D01*
X2643349Y458000D02*
X2598469Y502880D01*
Y516750D01*
X2573219Y542000D01*
X2522469Y301000D02*
X2482469Y261000D01*
X2507469Y382000D02*
X2505469Y380000D01*
X2507469Y382000D02*
Y435000D01*
X2539219Y466750D02*
X2507469Y435000D01*
X2455469Y483000D02*
X2452469Y486000D01*
X2519719Y483000D02*
X2455469D01*
X2602469Y314250D02*
X2542219D01*
X2385943Y314000D02*
X2385469D01*
X2728069Y356200D02*
X2600356D01*
X2542219Y314250D02*
X2518469Y338000D01*
X2409942D01*
X2385943Y314000D01*
X2600356Y356200D02*
X2574156Y330000D01*
X2551197D01*
X2531197Y350000D01*
X2358469D01*
X2349819Y358650D01*
Y361290D01*
X2365869Y365650D02*
Y366650D01*
X2569890Y344500D02*
X2557049D01*
X2597469Y372080D02*
X2569890Y344500D01*
X2597469Y372080D02*
Y373000D01*
X2715556D02*
X2597469D01*
X2715756Y373200D02*
X2715556Y373000D01*
X2736669Y373200D02*
X2715756D01*
X2752469Y389000D02*
X2736669Y373200D01*
X2535899Y365650D02*
X2365869D01*
X2557049Y344500D02*
X2535899Y365650D01*
X2675469Y882000D02*
X2659469D01*
X2698869Y905400D02*
X2675469Y882000D01*
X2728069Y905400D02*
X2698869D01*
X2752469Y989000D02*
Y1069000D01*
Y823270D02*
Y989000D01*
X2627719Y816000D02*
Y849750D01*
X2649469Y818250D02*
X2647219Y816000D01*
X2649469Y818250D02*
Y853000D01*
X2659469Y882000D02*
X2649469Y872000D01*
Y853000D02*
Y872000D01*
X2674469Y846000D02*
Y853000D01*
X2710199Y810270D02*
X2674469Y846000D01*
X2739469Y810270D02*
X2710199D01*
X2752469Y823270D02*
X2739469Y810270D01*
X2752469Y1069000D02*
X2738269Y1083200D01*
X2728069D01*
X2624469Y853000D02*
X2593669Y883800D01*
X2492269Y838000D02*
X2432419D01*
X2593669Y883800D02*
X2538069D01*
X2492269Y838000D01*
X2432419D02*
X2409419Y861000D01*
X2482469D02*
X2447519D01*
X2294309Y865890D02*
X2289419Y861000D01*
X2294309Y995000D02*
Y1021000D01*
X2324419Y970000D02*
X2294309Y939890D01*
Y865890D02*
Y939890D01*
Y995000D01*
X2624469Y853000D02*
Y891500D01*
X2631469Y898500D02*
X2624469Y891500D01*
X2659969Y898500D02*
X2631469D01*
X2661469Y897000D02*
X2659969Y898500D01*
X2661469Y897000D02*
Y913250D01*
X2698869Y1032400D02*
X2661469Y995000D01*
X2728069Y1032400D02*
X2698869D01*
X2728069D02*
Y1057800D01*
X2697419D01*
X2697219Y1058000D02*
Y1100250D01*
X2689309Y1108160D01*
X2680469D01*
X2645509D01*
X2644569Y1109100D01*
X2680469Y1087840D02*
X2676329Y1083700D01*
X2644569D01*
X2643049D01*
X2618469Y1108280D01*
Y1151250D01*
X2677719Y1058000D02*
X2643349D01*
X2595469Y1083520D02*
X2569890Y1109100D01*
X2595469Y1025000D02*
X2563469Y993000D01*
Y960000D02*
Y993000D01*
X2569890Y1109100D02*
X2568369D01*
X2595469Y1025000D02*
Y1083520D01*
X2644569Y1032900D02*
X2601669Y990000D01*
X2601469D01*
X2568369Y1058300D02*
X2566769D01*
X2522469Y1014000D01*
X2728069Y930800D02*
X2703419D01*
X2601219Y932000D02*
X2599469Y933750D01*
X2682719Y932000D02*
X2601219D01*
X2507469Y919000D02*
X2477869D01*
X2601469Y833000D02*
X2563469D01*
X2601469Y833000D02*
X2601469Y833000D01*
X2550219Y1239000D02*
X2282709D01*
X2245469Y1276240D01*
X2618469Y1170750D02*
X2550219Y1239000D01*
X2539219Y1083000D02*
Y1127500D01*
X2553719Y1142000D02*
X2539219Y1127500D01*
Y1066750D02*
Y1083000D01*
X2568369Y1083700D02*
X2539919D01*
X2539219Y1083000D01*
X2643349Y1058000D02*
X2598469Y1102880D01*
Y1116750D01*
X2573219Y1142000D01*
X2522469Y901000D02*
X2482469Y861000D01*
X2507469Y982000D02*
X2505469Y980000D01*
X2507469Y982000D02*
Y1035000D01*
X2539219Y1066750D02*
X2507469Y1035000D01*
X2455469Y1083000D02*
X2452469Y1086000D01*
X2519719Y1083000D02*
X2455469D01*
X2602469Y914250D02*
X2542219D01*
X2385943Y914000D02*
X2385469D01*
X2728069Y956200D02*
X2600356D01*
X2542219Y914250D02*
X2518469Y938000D01*
X2409942D01*
X2385943Y914000D01*
X2600356Y956200D02*
X2574156Y930000D01*
X2551197D01*
X2531197Y950000D01*
X2358469D01*
X2349819Y958650D01*
Y961290D01*
X2365869Y965650D02*
Y966650D01*
X2569890Y944500D02*
X2557049D01*
X2597469Y972080D02*
X2569890Y944500D01*
X2597469Y972080D02*
Y973000D01*
X2715556D02*
X2597469D01*
X2715756Y973200D02*
X2715556Y973000D01*
X2736669Y973200D02*
X2715756D01*
X2752469Y989000D02*
X2736669Y973200D01*
X2535899Y965650D02*
X2365869D01*
X2557049Y944500D02*
X2535899Y965650D01*
X2675469Y1482000D02*
X2659469D01*
X2698869Y1505400D02*
X2675469Y1482000D01*
X2728069Y1505400D02*
X2698869D01*
X2752469Y1589000D02*
Y1669000D01*
Y1423270D02*
Y1589000D01*
X2627719Y1416000D02*
Y1449750D01*
X2649469Y1418250D02*
X2647219Y1416000D01*
X2649469Y1418250D02*
Y1453000D01*
X2659469Y1482000D02*
X2649469Y1472000D01*
Y1453000D02*
Y1472000D01*
X2674469Y1446000D02*
Y1453000D01*
X2710199Y1410270D02*
X2674469Y1446000D01*
X2739469Y1410270D02*
X2710199D01*
X2752469Y1423270D02*
X2739469Y1410270D01*
X2752469Y1669000D02*
X2738269Y1683200D01*
X2728069D01*
X2624469Y1453000D02*
X2593669Y1483800D01*
X2492269Y1438000D02*
X2432419D01*
X2593669Y1483800D02*
X2538069D01*
X2492269Y1438000D01*
X2432419D02*
X2409419Y1461000D01*
X2482469D02*
X2447519D01*
X2294309Y1465890D02*
X2289419Y1461000D01*
X2294309Y1595000D02*
Y1621000D01*
X2324419Y1570000D02*
X2294309Y1539890D01*
Y1465890D02*
Y1539890D01*
Y1595000D01*
X2624469Y1453000D02*
Y1491500D01*
X2631469Y1498500D02*
X2624469Y1491500D01*
X2659969Y1498500D02*
X2631469D01*
X2661469Y1497000D02*
X2659969Y1498500D01*
X2661469Y1497000D02*
Y1513250D01*
X2698869Y1632400D02*
X2661469Y1595000D01*
X2728069Y1632400D02*
X2698869D01*
X2728069D02*
Y1657800D01*
X2697419D01*
X2697219Y1658000D02*
Y1700250D01*
X2689309Y1708160D01*
X2680469D01*
X2645509D01*
X2644569Y1709100D01*
X2680469Y1687840D02*
X2676329Y1683700D01*
X2644569D01*
X2643049D01*
X2618469Y1708280D01*
Y1751250D01*
X2677719Y1658000D02*
X2643349D01*
X2595469Y1683520D02*
X2569890Y1709100D01*
X2595469Y1625000D02*
X2563469Y1593000D01*
Y1560000D02*
Y1593000D01*
X2569890Y1709100D02*
X2568369D01*
X2595469Y1625000D02*
Y1683520D01*
X2644569Y1632900D02*
X2601669Y1590000D01*
X2601469D01*
X2568369Y1658300D02*
X2566769D01*
X2522469Y1614000D01*
X2728069Y1530800D02*
X2703419D01*
X2601219Y1532000D02*
X2599469Y1533750D01*
X2682719Y1532000D02*
X2601219D01*
X2507469Y1519000D02*
X2477869D01*
X2601469Y1433000D02*
X2563469D01*
X2601469Y1433000D02*
X2601469Y1433000D01*
X2550219Y1839000D02*
X2282709D01*
X2245469Y1876240D01*
X2618469Y1770750D02*
X2550219Y1839000D01*
X2539219Y1683000D02*
Y1727500D01*
X2553719Y1742000D02*
X2539219Y1727500D01*
Y1666750D02*
Y1683000D01*
X2568369Y1683700D02*
X2539919D01*
X2539219Y1683000D01*
X2643349Y1658000D02*
X2598469Y1702880D01*
Y1716750D01*
X2573219Y1742000D01*
X2522469Y1501000D02*
X2482469Y1461000D01*
X2507469Y1582000D02*
X2505469Y1580000D01*
X2507469Y1582000D02*
Y1635000D01*
X2539219Y1666750D02*
X2507469Y1635000D01*
X2455469Y1683000D02*
X2452469Y1686000D01*
X2519719Y1683000D02*
X2455469D01*
X2602469Y1514250D02*
X2542219D01*
X2385943Y1514000D02*
X2385469D01*
X2728069Y1556200D02*
X2600356D01*
X2542219Y1514250D02*
X2518469Y1538000D01*
X2409942D01*
X2385943Y1514000D01*
X2600356Y1556200D02*
X2574156Y1530000D01*
X2551197D01*
X2531197Y1550000D01*
X2358469D01*
X2349819Y1558650D01*
Y1561290D01*
X2365869Y1565650D02*
Y1566650D01*
X2569890Y1544500D02*
X2557049D01*
X2597469Y1572080D02*
X2569890Y1544500D01*
X2597469Y1572080D02*
Y1573000D01*
X2715556D02*
X2597469D01*
X2715756Y1573200D02*
X2715556Y1573000D01*
X2736669Y1573200D02*
X2715756D01*
X2752469Y1589000D02*
X2736669Y1573200D01*
X2535899Y1565650D02*
X2365869D01*
X2557049Y1544500D02*
X2535899Y1565650D01*
D21*
X2381469Y497191D02*
D03*
Y1097191D02*
D03*
Y1697191D02*
D03*
D22*
Y308809D02*
D03*
Y908809D02*
D03*
Y1508809D02*
D03*
D23*
X2563469Y360000D02*
D03*
X2538069Y283800D02*
D03*
X2563469Y233000D02*
D03*
Y960000D02*
D03*
X2538069Y883800D02*
D03*
X2563469Y833000D02*
D03*
Y1560000D02*
D03*
X2538069Y1483800D02*
D03*
X2563469Y1433000D02*
D03*
D24*
X2447519Y261000D02*
D03*
X2327519D02*
D03*
X2427069Y319000D02*
D03*
X2452469D02*
D03*
X2447519Y861000D02*
D03*
X2327519D02*
D03*
X2427069Y919000D02*
D03*
X2452469D02*
D03*
X2447519Y1461000D02*
D03*
X2327519D02*
D03*
X2427069Y1519000D02*
D03*
X2452469D02*
D03*
D25*
X2409419Y261000D02*
D03*
X2289419D02*
D03*
X2477869Y319000D02*
D03*
X2409419Y861000D02*
D03*
X2289419D02*
D03*
X2477869Y919000D02*
D03*
X2409419Y1461000D02*
D03*
X2289419D02*
D03*
X2477869Y1519000D02*
D03*
D26*
X2452469Y486000D02*
D03*
Y1086000D02*
D03*
Y1686000D02*
D03*
D27*
X2728069Y229200D02*
D03*
Y254600D02*
D03*
Y280000D02*
D03*
Y305400D02*
D03*
Y330800D02*
D03*
X2245469Y254600D02*
D03*
Y280000D02*
D03*
Y305400D02*
D03*
Y330800D02*
D03*
Y356200D02*
D03*
Y381600D02*
D03*
Y407000D02*
D03*
X2728069Y559400D02*
D03*
Y534000D02*
D03*
Y508600D02*
D03*
Y483200D02*
D03*
Y457800D02*
D03*
Y432400D02*
D03*
Y407000D02*
D03*
X2245469Y473040D02*
D03*
Y498440D02*
D03*
Y523840D02*
D03*
Y549240D02*
D03*
Y574640D02*
D03*
Y600040D02*
D03*
Y625440D02*
D03*
Y676240D02*
D03*
Y650840D02*
D03*
X2728069Y829200D02*
D03*
Y854600D02*
D03*
Y880000D02*
D03*
Y905400D02*
D03*
Y930800D02*
D03*
X2245469Y854600D02*
D03*
Y880000D02*
D03*
Y905400D02*
D03*
Y930800D02*
D03*
Y956200D02*
D03*
Y981600D02*
D03*
Y1007000D02*
D03*
X2728069Y1159400D02*
D03*
Y1134000D02*
D03*
Y1108600D02*
D03*
Y1083200D02*
D03*
Y1057800D02*
D03*
Y1032400D02*
D03*
Y1007000D02*
D03*
X2245469Y1073040D02*
D03*
Y1098440D02*
D03*
Y1123840D02*
D03*
Y1149240D02*
D03*
Y1174640D02*
D03*
Y1200040D02*
D03*
Y1225440D02*
D03*
Y1276240D02*
D03*
Y1250840D02*
D03*
X2728069Y1429200D02*
D03*
Y1454600D02*
D03*
Y1480000D02*
D03*
Y1505400D02*
D03*
Y1530800D02*
D03*
X2245469Y1454600D02*
D03*
Y1480000D02*
D03*
Y1505400D02*
D03*
Y1530800D02*
D03*
Y1556200D02*
D03*
Y1581600D02*
D03*
Y1607000D02*
D03*
X2728069Y1759400D02*
D03*
Y1734000D02*
D03*
Y1708600D02*
D03*
Y1683200D02*
D03*
Y1657800D02*
D03*
Y1632400D02*
D03*
Y1607000D02*
D03*
X2245469Y1673040D02*
D03*
Y1698440D02*
D03*
Y1723840D02*
D03*
Y1749240D02*
D03*
Y1774640D02*
D03*
Y1800040D02*
D03*
Y1825440D02*
D03*
Y1876240D02*
D03*
Y1850840D02*
D03*
D28*
X2728069Y356200D02*
D03*
X2245469Y229200D02*
D03*
X2728069Y584800D02*
D03*
X2245469Y447640D02*
D03*
X2728069Y956200D02*
D03*
X2245469Y829200D02*
D03*
X2728069Y1184800D02*
D03*
X2245469Y1047640D02*
D03*
X2728069Y1556200D02*
D03*
X2245469Y1429200D02*
D03*
X2728069Y1784800D02*
D03*
X2245469Y1647640D02*
D03*
D29*
X2674469Y253000D02*
D03*
Y853000D02*
D03*
Y1453000D02*
D03*
D30*
X2649469Y253000D02*
D03*
X2624469D02*
D03*
X2649469Y853000D02*
D03*
X2624469D02*
D03*
X2649469Y1453000D02*
D03*
X2624469D02*
D03*
D31*
X2644569Y432900D02*
D03*
Y1032900D02*
D03*
Y1632900D02*
D03*
D32*
Y458300D02*
D03*
Y483700D02*
D03*
Y509100D02*
D03*
X2568369Y432900D02*
D03*
Y458300D02*
D03*
Y483700D02*
D03*
Y509100D02*
D03*
X2644569Y1058300D02*
D03*
Y1083700D02*
D03*
Y1109100D02*
D03*
X2568369Y1032900D02*
D03*
Y1058300D02*
D03*
Y1083700D02*
D03*
Y1109100D02*
D03*
X2644569Y1658300D02*
D03*
Y1683700D02*
D03*
Y1709100D02*
D03*
X2568369Y1632900D02*
D03*
Y1658300D02*
D03*
Y1683700D02*
D03*
Y1709100D02*
D03*
D33*
X2522469Y301000D02*
D03*
X2507469Y380000D02*
D03*
Y319000D02*
D03*
X2661469Y395000D02*
D03*
Y297000D02*
D03*
X2601469Y390000D02*
D03*
Y233000D02*
D03*
X2522469Y414000D02*
D03*
Y901000D02*
D03*
X2507469Y980000D02*
D03*
Y919000D02*
D03*
X2661469Y995000D02*
D03*
Y897000D02*
D03*
X2601469Y990000D02*
D03*
Y833000D02*
D03*
X2522469Y1014000D02*
D03*
Y1501000D02*
D03*
X2507469Y1580000D02*
D03*
Y1519000D02*
D03*
X2661469Y1595000D02*
D03*
Y1497000D02*
D03*
X2601469Y1590000D02*
D03*
Y1433000D02*
D03*
X2522469Y1614000D02*
D03*
D34*
X2434969Y503500D02*
D03*
X2469969D02*
D03*
Y468500D02*
D03*
X2434969D02*
D03*
X2427719Y486000D02*
D03*
X2452469Y461250D02*
D03*
X2477219Y486000D02*
D03*
X2452469Y510750D02*
D03*
X2434969Y1103500D02*
D03*
X2469969D02*
D03*
Y1068500D02*
D03*
X2434969D02*
D03*
X2427719Y1086000D02*
D03*
X2452469Y1061250D02*
D03*
X2477219Y1086000D02*
D03*
X2452469Y1110750D02*
D03*
X2434969Y1703500D02*
D03*
X2469969D02*
D03*
Y1668500D02*
D03*
X2434969D02*
D03*
X2427719Y1686000D02*
D03*
X2452469Y1661250D02*
D03*
X2477219Y1686000D02*
D03*
X2452469Y1710750D02*
D03*
M02*
