G04 Layer_Physical_Order=2*
G04 Layer_Color=16711680*
%FSLAX44Y44*%
%MOMM*%
G71*
G01*
G75*
%ADD19C,0.6000*%
%ADD21C,3.0000*%
%ADD22R,3.0000X3.0000*%
%ADD23C,1.5000*%
%ADD24C,2.0000*%
%ADD25R,2.0000X2.0000*%
%ADD26P,6.4944X8X202.5*%
%ADD27C,1.8000*%
%ADD28R,1.8000X1.8000*%
%ADD29R,2.0000X3.0000*%
%ADD30O,2.0000X3.0000*%
%ADD31R,2.5000X1.5000*%
%ADD32O,2.5000X1.5000*%
%ADD33C,1.2700*%
%ADD34C,0.8000*%
D19*
X2507469Y319000D02*
Y380000D01*
X2661469Y297000D02*
Y395000D01*
X2601469Y233000D02*
Y390000D01*
X2522469Y301000D02*
Y414000D01*
X1807469Y319000D02*
Y380000D01*
X1961469Y297000D02*
Y395000D01*
X1901469Y233000D02*
Y390000D01*
X1822469Y301000D02*
Y414000D01*
X1107469Y319000D02*
Y380000D01*
X1261469Y297000D02*
Y395000D01*
X1201469Y233000D02*
Y390000D01*
X1122469Y301000D02*
Y414000D01*
D21*
X2381469Y497191D02*
D03*
X1681469D02*
D03*
X981469D02*
D03*
D22*
X2381469Y308809D02*
D03*
X1681469D02*
D03*
X981469D02*
D03*
D23*
X2563469Y360000D02*
D03*
X2538069Y283800D02*
D03*
X2563469Y233000D02*
D03*
X1863469Y360000D02*
D03*
X1838069Y283800D02*
D03*
X1863469Y233000D02*
D03*
X1163469Y360000D02*
D03*
X1138069Y283800D02*
D03*
X1163469Y233000D02*
D03*
D24*
X2447519Y261000D02*
D03*
X2327519D02*
D03*
X2427069Y319000D02*
D03*
X2452469D02*
D03*
X1747519Y261000D02*
D03*
X1627519D02*
D03*
X1727069Y319000D02*
D03*
X1752469D02*
D03*
X1047519Y261000D02*
D03*
X927519D02*
D03*
X1027069Y319000D02*
D03*
X1052469D02*
D03*
D25*
X2409419Y261000D02*
D03*
X2289419D02*
D03*
X2477869Y319000D02*
D03*
X1709419Y261000D02*
D03*
X1589419D02*
D03*
X1777869Y319000D02*
D03*
X1009419Y261000D02*
D03*
X889419D02*
D03*
X1077869Y319000D02*
D03*
D26*
X2452469Y486000D02*
D03*
X1752469D02*
D03*
X1052469D02*
D03*
D27*
X2728069Y229200D02*
D03*
Y254600D02*
D03*
Y280000D02*
D03*
Y305400D02*
D03*
Y330800D02*
D03*
X2245469Y254600D02*
D03*
Y280000D02*
D03*
Y305400D02*
D03*
Y330800D02*
D03*
Y356200D02*
D03*
Y381600D02*
D03*
Y407000D02*
D03*
X2728069Y559400D02*
D03*
Y534000D02*
D03*
Y508600D02*
D03*
Y483200D02*
D03*
Y457800D02*
D03*
Y432400D02*
D03*
Y407000D02*
D03*
X2245469Y473040D02*
D03*
Y498440D02*
D03*
Y523840D02*
D03*
Y549240D02*
D03*
Y574640D02*
D03*
Y600040D02*
D03*
Y625440D02*
D03*
Y676240D02*
D03*
Y650840D02*
D03*
X2028069Y229200D02*
D03*
Y254600D02*
D03*
Y280000D02*
D03*
Y305400D02*
D03*
Y330800D02*
D03*
X1545469Y254600D02*
D03*
Y280000D02*
D03*
Y305400D02*
D03*
Y330800D02*
D03*
Y356200D02*
D03*
Y381600D02*
D03*
Y407000D02*
D03*
X2028069Y559400D02*
D03*
Y534000D02*
D03*
Y508600D02*
D03*
Y483200D02*
D03*
Y457800D02*
D03*
Y432400D02*
D03*
Y407000D02*
D03*
X1545469Y473040D02*
D03*
Y498440D02*
D03*
Y523840D02*
D03*
Y549240D02*
D03*
Y574640D02*
D03*
Y600040D02*
D03*
Y625440D02*
D03*
Y676240D02*
D03*
Y650840D02*
D03*
X1328069Y229200D02*
D03*
Y254600D02*
D03*
Y280000D02*
D03*
Y305400D02*
D03*
Y330800D02*
D03*
X845469Y254600D02*
D03*
Y280000D02*
D03*
Y305400D02*
D03*
Y330800D02*
D03*
Y356200D02*
D03*
Y381600D02*
D03*
Y407000D02*
D03*
X1328069Y559400D02*
D03*
Y534000D02*
D03*
Y508600D02*
D03*
Y483200D02*
D03*
Y457800D02*
D03*
Y432400D02*
D03*
Y407000D02*
D03*
X845469Y473040D02*
D03*
Y498440D02*
D03*
Y523840D02*
D03*
Y549240D02*
D03*
Y574640D02*
D03*
Y600040D02*
D03*
Y625440D02*
D03*
Y676240D02*
D03*
Y650840D02*
D03*
D28*
X2728069Y356200D02*
D03*
X2245469Y229200D02*
D03*
X2728069Y584800D02*
D03*
X2245469Y447640D02*
D03*
X2028069Y356200D02*
D03*
X1545469Y229200D02*
D03*
X2028069Y584800D02*
D03*
X1545469Y447640D02*
D03*
X1328069Y356200D02*
D03*
X845469Y229200D02*
D03*
X1328069Y584800D02*
D03*
X845469Y447640D02*
D03*
D29*
X2674469Y253000D02*
D03*
X1974469D02*
D03*
X1274469D02*
D03*
D30*
X2649469D02*
D03*
X2624469D02*
D03*
X1949469D02*
D03*
X1924469D02*
D03*
X1249469D02*
D03*
X1224469D02*
D03*
D31*
X2644569Y432900D02*
D03*
X1944569D02*
D03*
X1244569D02*
D03*
D32*
X2644569Y458300D02*
D03*
Y483700D02*
D03*
Y509100D02*
D03*
X2568369Y432900D02*
D03*
Y458300D02*
D03*
Y483700D02*
D03*
Y509100D02*
D03*
X1944569Y458300D02*
D03*
Y483700D02*
D03*
Y509100D02*
D03*
X1868369Y432900D02*
D03*
Y458300D02*
D03*
Y483700D02*
D03*
Y509100D02*
D03*
X1244569Y458300D02*
D03*
Y483700D02*
D03*
Y509100D02*
D03*
X1168369Y432900D02*
D03*
Y458300D02*
D03*
Y483700D02*
D03*
Y509100D02*
D03*
D33*
X2522469Y301000D02*
D03*
X2507469Y380000D02*
D03*
Y319000D02*
D03*
X2661469Y395000D02*
D03*
Y297000D02*
D03*
X2601469Y390000D02*
D03*
Y233000D02*
D03*
X2522469Y414000D02*
D03*
X1822469Y301000D02*
D03*
X1807469Y380000D02*
D03*
Y319000D02*
D03*
X1961469Y395000D02*
D03*
Y297000D02*
D03*
X1901469Y390000D02*
D03*
Y233000D02*
D03*
X1822469Y414000D02*
D03*
X1122469Y301000D02*
D03*
X1107469Y380000D02*
D03*
Y319000D02*
D03*
X1261469Y395000D02*
D03*
Y297000D02*
D03*
X1201469Y390000D02*
D03*
Y233000D02*
D03*
X1122469Y414000D02*
D03*
D34*
X2434969Y503500D02*
D03*
X2469969D02*
D03*
Y468500D02*
D03*
X2434969D02*
D03*
X2427719Y486000D02*
D03*
X2452469Y461250D02*
D03*
X2477219Y486000D02*
D03*
X2452469Y510750D02*
D03*
X1734969Y503500D02*
D03*
X1769969D02*
D03*
Y468500D02*
D03*
X1734969D02*
D03*
X1727719Y486000D02*
D03*
X1752469Y461250D02*
D03*
X1777219Y486000D02*
D03*
X1752469Y510750D02*
D03*
X1034969Y503500D02*
D03*
X1069969D02*
D03*
Y468500D02*
D03*
X1034969D02*
D03*
X1027719Y486000D02*
D03*
X1052469Y461250D02*
D03*
X1077219Y486000D02*
D03*
X1052469Y510750D02*
D03*
M02*
