G04 Layer_Color=255*
%FSLAX44Y44*%
%MOMM*%
G71*
G01*
G75*
%ADD21C,3.0000*%
%ADD22R,3.0000X3.0000*%
%ADD23C,1.5000*%
%ADD24C,2.0000*%
%ADD25R,2.0000X2.0000*%
%ADD26P,6.4944X8X202.5*%
%ADD27C,1.8000*%
%ADD28R,1.8000X1.8000*%
%ADD29R,2.0000X3.0000*%
%ADD30O,2.0000X3.0000*%
%ADD31R,2.5000X1.5000*%
%ADD32O,2.5000X1.5000*%
D21*
X2381469Y497191D02*
D03*
Y1097191D02*
D03*
Y1697191D02*
D03*
D22*
Y308809D02*
D03*
Y908809D02*
D03*
Y1508809D02*
D03*
D23*
X2563469Y360000D02*
D03*
X2538069Y283800D02*
D03*
X2563469Y233000D02*
D03*
Y960000D02*
D03*
X2538069Y883800D02*
D03*
X2563469Y833000D02*
D03*
Y1560000D02*
D03*
X2538069Y1483800D02*
D03*
X2563469Y1433000D02*
D03*
D24*
X2447519Y261000D02*
D03*
X2327519D02*
D03*
X2427069Y319000D02*
D03*
X2452469D02*
D03*
X2447519Y861000D02*
D03*
X2327519D02*
D03*
X2427069Y919000D02*
D03*
X2452469D02*
D03*
X2447519Y1461000D02*
D03*
X2327519D02*
D03*
X2427069Y1519000D02*
D03*
X2452469D02*
D03*
D25*
X2409419Y261000D02*
D03*
X2289419D02*
D03*
X2477869Y319000D02*
D03*
X2409419Y861000D02*
D03*
X2289419D02*
D03*
X2477869Y919000D02*
D03*
X2409419Y1461000D02*
D03*
X2289419D02*
D03*
X2477869Y1519000D02*
D03*
D26*
X2452469Y486000D02*
D03*
Y1086000D02*
D03*
Y1686000D02*
D03*
D27*
X2728069Y229200D02*
D03*
Y254600D02*
D03*
Y280000D02*
D03*
Y305400D02*
D03*
Y330800D02*
D03*
X2245469Y254600D02*
D03*
Y280000D02*
D03*
Y305400D02*
D03*
Y330800D02*
D03*
Y356200D02*
D03*
Y381600D02*
D03*
Y407000D02*
D03*
X2728069Y559400D02*
D03*
Y534000D02*
D03*
Y508600D02*
D03*
Y483200D02*
D03*
Y457800D02*
D03*
Y432400D02*
D03*
Y407000D02*
D03*
X2245469Y473040D02*
D03*
Y498440D02*
D03*
Y523840D02*
D03*
Y549240D02*
D03*
Y574640D02*
D03*
Y600040D02*
D03*
Y625440D02*
D03*
Y676240D02*
D03*
Y650840D02*
D03*
X2728069Y829200D02*
D03*
Y854600D02*
D03*
Y880000D02*
D03*
Y905400D02*
D03*
Y930800D02*
D03*
X2245469Y854600D02*
D03*
Y880000D02*
D03*
Y905400D02*
D03*
Y930800D02*
D03*
Y956200D02*
D03*
Y981600D02*
D03*
Y1007000D02*
D03*
X2728069Y1159400D02*
D03*
Y1134000D02*
D03*
Y1108600D02*
D03*
Y1083200D02*
D03*
Y1057800D02*
D03*
Y1032400D02*
D03*
Y1007000D02*
D03*
X2245469Y1073040D02*
D03*
Y1098440D02*
D03*
Y1123840D02*
D03*
Y1149240D02*
D03*
Y1174640D02*
D03*
Y1200040D02*
D03*
Y1225440D02*
D03*
Y1276240D02*
D03*
Y1250840D02*
D03*
X2728069Y1429200D02*
D03*
Y1454600D02*
D03*
Y1480000D02*
D03*
Y1505400D02*
D03*
Y1530800D02*
D03*
X2245469Y1454600D02*
D03*
Y1480000D02*
D03*
Y1505400D02*
D03*
Y1530800D02*
D03*
Y1556200D02*
D03*
Y1581600D02*
D03*
Y1607000D02*
D03*
X2728069Y1759400D02*
D03*
Y1734000D02*
D03*
Y1708600D02*
D03*
Y1683200D02*
D03*
Y1657800D02*
D03*
Y1632400D02*
D03*
Y1607000D02*
D03*
X2245469Y1673040D02*
D03*
Y1698440D02*
D03*
Y1723840D02*
D03*
Y1749240D02*
D03*
Y1774640D02*
D03*
Y1800040D02*
D03*
Y1825440D02*
D03*
Y1876240D02*
D03*
Y1850840D02*
D03*
D28*
X2728069Y356200D02*
D03*
X2245469Y229200D02*
D03*
X2728069Y584800D02*
D03*
X2245469Y447640D02*
D03*
X2728069Y956200D02*
D03*
X2245469Y829200D02*
D03*
X2728069Y1184800D02*
D03*
X2245469Y1047640D02*
D03*
X2728069Y1556200D02*
D03*
X2245469Y1429200D02*
D03*
X2728069Y1784800D02*
D03*
X2245469Y1647640D02*
D03*
D29*
X2674469Y253000D02*
D03*
Y853000D02*
D03*
Y1453000D02*
D03*
D30*
X2649469Y253000D02*
D03*
X2624469D02*
D03*
X2649469Y853000D02*
D03*
X2624469D02*
D03*
X2649469Y1453000D02*
D03*
X2624469D02*
D03*
D31*
X2644569Y432900D02*
D03*
Y1032900D02*
D03*
Y1632900D02*
D03*
D32*
Y458300D02*
D03*
Y483700D02*
D03*
Y509100D02*
D03*
X2568369Y432900D02*
D03*
Y458300D02*
D03*
Y483700D02*
D03*
Y509100D02*
D03*
X2644569Y1058300D02*
D03*
Y1083700D02*
D03*
Y1109100D02*
D03*
X2568369Y1032900D02*
D03*
Y1058300D02*
D03*
Y1083700D02*
D03*
Y1109100D02*
D03*
X2644569Y1658300D02*
D03*
Y1683700D02*
D03*
Y1709100D02*
D03*
X2568369Y1632900D02*
D03*
Y1658300D02*
D03*
Y1683700D02*
D03*
Y1709100D02*
D03*
M02*
