G04 Layer_Color=128*
%FSLAX44Y44*%
%MOMM*%
G71*
G01*
G75*
%ADD67C,0.0508*%
D67*
X2388969Y497191D02*
X2373969D01*
X2381469Y489691D02*
Y504691D01*
X2388969Y308809D02*
X2373969D01*
X2381469Y301309D02*
Y316309D01*
X2566969Y360000D02*
X2559969D01*
X2563469Y356500D02*
Y363500D01*
X2541569Y283800D02*
X2534569D01*
X2538069Y280300D02*
Y287300D01*
X2566969Y233000D02*
X2559969D01*
X2563469Y229500D02*
Y236500D01*
X2453519Y261000D02*
X2441519D01*
X2447519Y255000D02*
Y267000D01*
X2415419Y261000D02*
X2403419D01*
X2409419Y255000D02*
Y267000D01*
X2333519Y261000D02*
X2321519D01*
X2327519Y255000D02*
Y267000D01*
X2295419Y261000D02*
X2283419D01*
X2289419Y255000D02*
Y267000D01*
X2432069Y319000D02*
X2422069D01*
X2427069Y314000D02*
Y324000D01*
X2457469Y319000D02*
X2447469D01*
X2452469Y314000D02*
Y324000D01*
X2482869Y319000D02*
X2472869D01*
X2477869Y314000D02*
Y324000D01*
X2469969Y486000D02*
X2434969D01*
X2452469Y468500D02*
Y503500D01*
X2733069Y229200D02*
X2723069D01*
X2728069Y224200D02*
Y234200D01*
X2733069Y254600D02*
X2723069D01*
X2728069Y249600D02*
Y259600D01*
X2733069Y280000D02*
X2723069D01*
X2728069Y275000D02*
Y285000D01*
X2733069Y305400D02*
X2723069D01*
X2728069Y300400D02*
Y310400D01*
X2733069Y330800D02*
X2723069D01*
X2728069Y325800D02*
Y335800D01*
X2733069Y356200D02*
X2723069D01*
X2728069Y351200D02*
Y361200D01*
X2250469Y229200D02*
X2240469D01*
X2245469Y224200D02*
Y234200D01*
X2250469Y254600D02*
X2240469D01*
X2245469Y249600D02*
Y259600D01*
X2250469Y280000D02*
X2240469D01*
X2245469Y275000D02*
Y285000D01*
X2250469Y305400D02*
X2240469D01*
X2245469Y300400D02*
Y310400D01*
X2250469Y330800D02*
X2240469D01*
X2245469Y325800D02*
Y335800D01*
X2250469Y356200D02*
X2240469D01*
X2245469Y351200D02*
Y361200D01*
X2250469Y381600D02*
X2240469D01*
X2245469Y376600D02*
Y386600D01*
X2250469Y407000D02*
X2240469D01*
X2245469Y402000D02*
Y412000D01*
X2733069Y584800D02*
X2723069D01*
X2728069Y579800D02*
Y589800D01*
X2733069Y559400D02*
X2723069D01*
X2728069Y554400D02*
Y564400D01*
X2733069Y534000D02*
X2723069D01*
X2728069Y529000D02*
Y539000D01*
X2733069Y508600D02*
X2723069D01*
X2728069Y503600D02*
Y513600D01*
X2733069Y483200D02*
X2723069D01*
X2728069Y478200D02*
Y488200D01*
X2733069Y457800D02*
X2723069D01*
X2728069Y452800D02*
Y462800D01*
X2733069Y432400D02*
X2723069D01*
X2728069Y427400D02*
Y437400D01*
X2733069Y407000D02*
X2723069D01*
X2728069Y402000D02*
Y412000D01*
X2250469Y447640D02*
X2240469D01*
X2245469Y442640D02*
Y452640D01*
X2250469Y473040D02*
X2240469D01*
X2245469Y468040D02*
Y478040D01*
X2250469Y498440D02*
X2240469D01*
X2245469Y493440D02*
Y503440D01*
X2250469Y523840D02*
X2240469D01*
X2245469Y518840D02*
Y528840D01*
X2250469Y549240D02*
X2240469D01*
X2245469Y544240D02*
Y554240D01*
X2250469Y574640D02*
X2240469D01*
X2245469Y569640D02*
Y579640D01*
X2250469Y600040D02*
X2240469D01*
X2245469Y595040D02*
Y605040D01*
X2250469Y625440D02*
X2240469D01*
X2245469Y620440D02*
Y630440D01*
X2250469Y676240D02*
X2240469D01*
X2245469Y671240D02*
Y681240D01*
X2250469Y650840D02*
X2240469D01*
X2245469Y645840D02*
Y655840D01*
X2680469Y253000D02*
X2668469D01*
X2674469Y247000D02*
Y259000D01*
X2655469Y253000D02*
X2643469D01*
X2649469Y247000D02*
Y259000D01*
X2630469Y253000D02*
X2618469D01*
X2624469Y247000D02*
Y259000D01*
X2648506Y432900D02*
X2640632D01*
X2644569Y428963D02*
Y436837D01*
X2648506Y458300D02*
X2640632D01*
X2644569Y454363D02*
Y462237D01*
X2648506Y483700D02*
X2640632D01*
X2644569Y479763D02*
Y487637D01*
X2648506Y509100D02*
X2640632D01*
X2644569Y505163D02*
Y513037D01*
X2572306Y432900D02*
X2564432D01*
X2568369Y428963D02*
Y436837D01*
X2572306Y458300D02*
X2564432D01*
X2568369Y454363D02*
Y462237D01*
X2572306Y483700D02*
X2564432D01*
X2568369Y479763D02*
Y487637D01*
X2572306Y509100D02*
X2564432D01*
X2568369Y505163D02*
Y513037D01*
X2526025Y301000D02*
X2518913D01*
X2522469Y297444D02*
Y304556D01*
X2511025Y380000D02*
X2503913D01*
X2507469Y376444D02*
Y383556D01*
X2511025Y319000D02*
X2503913D01*
X2507469Y315444D02*
Y322556D01*
X2665025Y395000D02*
X2657913D01*
X2661469Y391444D02*
Y398556D01*
X2665025Y297000D02*
X2657913D01*
X2661469Y293444D02*
Y300556D01*
X2605025Y390000D02*
X2597913D01*
X2601469Y386444D02*
Y393556D01*
X2605025Y233000D02*
X2597913D01*
X2601469Y229444D02*
Y236556D01*
X2437469Y503500D02*
X2432469D01*
X2434969Y501000D02*
Y506000D01*
X2472469Y503500D02*
X2467469D01*
X2469969Y501000D02*
Y506000D01*
X2472469Y468500D02*
X2467469D01*
X2469969Y466000D02*
Y471000D01*
X2437469Y468500D02*
X2432469D01*
X2434969Y466000D02*
Y471000D01*
X2430219Y486000D02*
X2425219D01*
X2427719Y483500D02*
Y488500D01*
X2454969Y461250D02*
X2449969D01*
X2452469Y458750D02*
Y463750D01*
X2479719Y486000D02*
X2474719D01*
X2477219Y483500D02*
Y488500D01*
X2454969Y510750D02*
X2449969D01*
X2452469Y508250D02*
Y513250D01*
X2526025Y414000D02*
X2518913D01*
X2522469Y410444D02*
Y417556D01*
X2388969Y1097191D02*
X2373969D01*
X2381469Y1089691D02*
Y1104691D01*
X2388969Y908809D02*
X2373969D01*
X2381469Y901309D02*
Y916309D01*
X2566969Y960000D02*
X2559969D01*
X2563469Y956500D02*
Y963500D01*
X2541569Y883800D02*
X2534569D01*
X2538069Y880300D02*
Y887300D01*
X2566969Y833000D02*
X2559969D01*
X2563469Y829500D02*
Y836500D01*
X2453519Y861000D02*
X2441519D01*
X2447519Y855000D02*
Y867000D01*
X2415419Y861000D02*
X2403419D01*
X2409419Y855000D02*
Y867000D01*
X2333519Y861000D02*
X2321519D01*
X2327519Y855000D02*
Y867000D01*
X2295419Y861000D02*
X2283419D01*
X2289419Y855000D02*
Y867000D01*
X2432069Y919000D02*
X2422069D01*
X2427069Y914000D02*
Y924000D01*
X2457469Y919000D02*
X2447469D01*
X2452469Y914000D02*
Y924000D01*
X2482869Y919000D02*
X2472869D01*
X2477869Y914000D02*
Y924000D01*
X2469969Y1086000D02*
X2434969D01*
X2452469Y1068500D02*
Y1103500D01*
X2733069Y829200D02*
X2723069D01*
X2728069Y824200D02*
Y834200D01*
X2733069Y854600D02*
X2723069D01*
X2728069Y849600D02*
Y859600D01*
X2733069Y880000D02*
X2723069D01*
X2728069Y875000D02*
Y885000D01*
X2733069Y905400D02*
X2723069D01*
X2728069Y900400D02*
Y910400D01*
X2733069Y930800D02*
X2723069D01*
X2728069Y925800D02*
Y935800D01*
X2733069Y956200D02*
X2723069D01*
X2728069Y951200D02*
Y961200D01*
X2250469Y829200D02*
X2240469D01*
X2245469Y824200D02*
Y834200D01*
X2250469Y854600D02*
X2240469D01*
X2245469Y849600D02*
Y859600D01*
X2250469Y880000D02*
X2240469D01*
X2245469Y875000D02*
Y885000D01*
X2250469Y905400D02*
X2240469D01*
X2245469Y900400D02*
Y910400D01*
X2250469Y930800D02*
X2240469D01*
X2245469Y925800D02*
Y935800D01*
X2250469Y956200D02*
X2240469D01*
X2245469Y951200D02*
Y961200D01*
X2250469Y981600D02*
X2240469D01*
X2245469Y976600D02*
Y986600D01*
X2250469Y1007000D02*
X2240469D01*
X2245469Y1002000D02*
Y1012000D01*
X2733069Y1184800D02*
X2723069D01*
X2728069Y1179800D02*
Y1189800D01*
X2733069Y1159400D02*
X2723069D01*
X2728069Y1154400D02*
Y1164400D01*
X2733069Y1134000D02*
X2723069D01*
X2728069Y1129000D02*
Y1139000D01*
X2733069Y1108600D02*
X2723069D01*
X2728069Y1103600D02*
Y1113600D01*
X2733069Y1083200D02*
X2723069D01*
X2728069Y1078200D02*
Y1088200D01*
X2733069Y1057800D02*
X2723069D01*
X2728069Y1052800D02*
Y1062800D01*
X2733069Y1032400D02*
X2723069D01*
X2728069Y1027400D02*
Y1037400D01*
X2733069Y1007000D02*
X2723069D01*
X2728069Y1002000D02*
Y1012000D01*
X2250469Y1047640D02*
X2240469D01*
X2245469Y1042640D02*
Y1052640D01*
X2250469Y1073040D02*
X2240469D01*
X2245469Y1068040D02*
Y1078040D01*
X2250469Y1098440D02*
X2240469D01*
X2245469Y1093440D02*
Y1103440D01*
X2250469Y1123840D02*
X2240469D01*
X2245469Y1118840D02*
Y1128840D01*
X2250469Y1149240D02*
X2240469D01*
X2245469Y1144240D02*
Y1154240D01*
X2250469Y1174640D02*
X2240469D01*
X2245469Y1169640D02*
Y1179640D01*
X2250469Y1200040D02*
X2240469D01*
X2245469Y1195040D02*
Y1205040D01*
X2250469Y1225440D02*
X2240469D01*
X2245469Y1220440D02*
Y1230440D01*
X2250469Y1276240D02*
X2240469D01*
X2245469Y1271240D02*
Y1281240D01*
X2250469Y1250840D02*
X2240469D01*
X2245469Y1245840D02*
Y1255840D01*
X2680469Y853000D02*
X2668469D01*
X2674469Y847000D02*
Y859000D01*
X2655469Y853000D02*
X2643469D01*
X2649469Y847000D02*
Y859000D01*
X2630469Y853000D02*
X2618469D01*
X2624469Y847000D02*
Y859000D01*
X2648506Y1032900D02*
X2640632D01*
X2644569Y1028963D02*
Y1036837D01*
X2648506Y1058300D02*
X2640632D01*
X2644569Y1054363D02*
Y1062237D01*
X2648506Y1083700D02*
X2640632D01*
X2644569Y1079763D02*
Y1087637D01*
X2648506Y1109100D02*
X2640632D01*
X2644569Y1105163D02*
Y1113037D01*
X2572306Y1032900D02*
X2564432D01*
X2568369Y1028963D02*
Y1036837D01*
X2572306Y1058300D02*
X2564432D01*
X2568369Y1054363D02*
Y1062237D01*
X2572306Y1083700D02*
X2564432D01*
X2568369Y1079763D02*
Y1087637D01*
X2572306Y1109100D02*
X2564432D01*
X2568369Y1105163D02*
Y1113037D01*
X2526025Y901000D02*
X2518913D01*
X2522469Y897444D02*
Y904556D01*
X2511025Y980000D02*
X2503913D01*
X2507469Y976444D02*
Y983556D01*
X2511025Y919000D02*
X2503913D01*
X2507469Y915444D02*
Y922556D01*
X2665025Y995000D02*
X2657913D01*
X2661469Y991444D02*
Y998556D01*
X2665025Y897000D02*
X2657913D01*
X2661469Y893444D02*
Y900556D01*
X2605025Y990000D02*
X2597913D01*
X2601469Y986444D02*
Y993556D01*
X2605025Y833000D02*
X2597913D01*
X2601469Y829444D02*
Y836556D01*
X2437469Y1103500D02*
X2432469D01*
X2434969Y1101000D02*
Y1106000D01*
X2472469Y1103500D02*
X2467469D01*
X2469969Y1101000D02*
Y1106000D01*
X2472469Y1068500D02*
X2467469D01*
X2469969Y1066000D02*
Y1071000D01*
X2437469Y1068500D02*
X2432469D01*
X2434969Y1066000D02*
Y1071000D01*
X2430219Y1086000D02*
X2425219D01*
X2427719Y1083500D02*
Y1088500D01*
X2454969Y1061250D02*
X2449969D01*
X2452469Y1058750D02*
Y1063750D01*
X2479719Y1086000D02*
X2474719D01*
X2477219Y1083500D02*
Y1088500D01*
X2454969Y1110750D02*
X2449969D01*
X2452469Y1108250D02*
Y1113250D01*
X2526025Y1014000D02*
X2518913D01*
X2522469Y1010444D02*
Y1017556D01*
X2388969Y1697191D02*
X2373969D01*
X2381469Y1689691D02*
Y1704691D01*
X2388969Y1508809D02*
X2373969D01*
X2381469Y1501309D02*
Y1516309D01*
X2566969Y1560000D02*
X2559969D01*
X2563469Y1556500D02*
Y1563500D01*
X2541569Y1483800D02*
X2534569D01*
X2538069Y1480300D02*
Y1487300D01*
X2566969Y1433000D02*
X2559969D01*
X2563469Y1429500D02*
Y1436500D01*
X2453519Y1461000D02*
X2441519D01*
X2447519Y1455000D02*
Y1467000D01*
X2415419Y1461000D02*
X2403419D01*
X2409419Y1455000D02*
Y1467000D01*
X2333519Y1461000D02*
X2321519D01*
X2327519Y1455000D02*
Y1467000D01*
X2295419Y1461000D02*
X2283419D01*
X2289419Y1455000D02*
Y1467000D01*
X2432069Y1519000D02*
X2422069D01*
X2427069Y1514000D02*
Y1524000D01*
X2457469Y1519000D02*
X2447469D01*
X2452469Y1514000D02*
Y1524000D01*
X2482869Y1519000D02*
X2472869D01*
X2477869Y1514000D02*
Y1524000D01*
X2469969Y1686000D02*
X2434969D01*
X2452469Y1668500D02*
Y1703500D01*
X2733069Y1429200D02*
X2723069D01*
X2728069Y1424200D02*
Y1434200D01*
X2733069Y1454600D02*
X2723069D01*
X2728069Y1449600D02*
Y1459600D01*
X2733069Y1480000D02*
X2723069D01*
X2728069Y1475000D02*
Y1485000D01*
X2733069Y1505400D02*
X2723069D01*
X2728069Y1500400D02*
Y1510400D01*
X2733069Y1530800D02*
X2723069D01*
X2728069Y1525800D02*
Y1535800D01*
X2733069Y1556200D02*
X2723069D01*
X2728069Y1551200D02*
Y1561200D01*
X2250469Y1429200D02*
X2240469D01*
X2245469Y1424200D02*
Y1434200D01*
X2250469Y1454600D02*
X2240469D01*
X2245469Y1449600D02*
Y1459600D01*
X2250469Y1480000D02*
X2240469D01*
X2245469Y1475000D02*
Y1485000D01*
X2250469Y1505400D02*
X2240469D01*
X2245469Y1500400D02*
Y1510400D01*
X2250469Y1530800D02*
X2240469D01*
X2245469Y1525800D02*
Y1535800D01*
X2250469Y1556200D02*
X2240469D01*
X2245469Y1551200D02*
Y1561200D01*
X2250469Y1581600D02*
X2240469D01*
X2245469Y1576600D02*
Y1586600D01*
X2250469Y1607000D02*
X2240469D01*
X2245469Y1602000D02*
Y1612000D01*
X2733069Y1784800D02*
X2723069D01*
X2728069Y1779800D02*
Y1789800D01*
X2733069Y1759400D02*
X2723069D01*
X2728069Y1754400D02*
Y1764400D01*
X2733069Y1734000D02*
X2723069D01*
X2728069Y1729000D02*
Y1739000D01*
X2733069Y1708600D02*
X2723069D01*
X2728069Y1703600D02*
Y1713600D01*
X2733069Y1683200D02*
X2723069D01*
X2728069Y1678200D02*
Y1688200D01*
X2733069Y1657800D02*
X2723069D01*
X2728069Y1652800D02*
Y1662800D01*
X2733069Y1632400D02*
X2723069D01*
X2728069Y1627400D02*
Y1637400D01*
X2733069Y1607000D02*
X2723069D01*
X2728069Y1602000D02*
Y1612000D01*
X2250469Y1647640D02*
X2240469D01*
X2245469Y1642640D02*
Y1652640D01*
X2250469Y1673040D02*
X2240469D01*
X2245469Y1668040D02*
Y1678040D01*
X2250469Y1698440D02*
X2240469D01*
X2245469Y1693440D02*
Y1703440D01*
X2250469Y1723840D02*
X2240469D01*
X2245469Y1718840D02*
Y1728840D01*
X2250469Y1749240D02*
X2240469D01*
X2245469Y1744240D02*
Y1754240D01*
X2250469Y1774640D02*
X2240469D01*
X2245469Y1769640D02*
Y1779640D01*
X2250469Y1800040D02*
X2240469D01*
X2245469Y1795040D02*
Y1805040D01*
X2250469Y1825440D02*
X2240469D01*
X2245469Y1820440D02*
Y1830440D01*
X2250469Y1876240D02*
X2240469D01*
X2245469Y1871240D02*
Y1881240D01*
X2250469Y1850840D02*
X2240469D01*
X2245469Y1845840D02*
Y1855840D01*
X2680469Y1453000D02*
X2668469D01*
X2674469Y1447000D02*
Y1459000D01*
X2655469Y1453000D02*
X2643469D01*
X2649469Y1447000D02*
Y1459000D01*
X2630469Y1453000D02*
X2618469D01*
X2624469Y1447000D02*
Y1459000D01*
X2648506Y1632900D02*
X2640632D01*
X2644569Y1628963D02*
Y1636837D01*
X2648506Y1658300D02*
X2640632D01*
X2644569Y1654363D02*
Y1662237D01*
X2648506Y1683700D02*
X2640632D01*
X2644569Y1679763D02*
Y1687637D01*
X2648506Y1709100D02*
X2640632D01*
X2644569Y1705163D02*
Y1713037D01*
X2572306Y1632900D02*
X2564432D01*
X2568369Y1628963D02*
Y1636837D01*
X2572306Y1658300D02*
X2564432D01*
X2568369Y1654363D02*
Y1662237D01*
X2572306Y1683700D02*
X2564432D01*
X2568369Y1679763D02*
Y1687637D01*
X2572306Y1709100D02*
X2564432D01*
X2568369Y1705163D02*
Y1713037D01*
X2526025Y1501000D02*
X2518913D01*
X2522469Y1497444D02*
Y1504556D01*
X2511025Y1580000D02*
X2503913D01*
X2507469Y1576444D02*
Y1583556D01*
X2511025Y1519000D02*
X2503913D01*
X2507469Y1515444D02*
Y1522556D01*
X2665025Y1595000D02*
X2657913D01*
X2661469Y1591444D02*
Y1598556D01*
X2665025Y1497000D02*
X2657913D01*
X2661469Y1493444D02*
Y1500556D01*
X2605025Y1590000D02*
X2597913D01*
X2601469Y1586444D02*
Y1593556D01*
X2605025Y1433000D02*
X2597913D01*
X2601469Y1429444D02*
Y1436556D01*
X2437469Y1703500D02*
X2432469D01*
X2434969Y1701000D02*
Y1706000D01*
X2472469Y1703500D02*
X2467469D01*
X2469969Y1701000D02*
Y1706000D01*
X2472469Y1668500D02*
X2467469D01*
X2469969Y1666000D02*
Y1671000D01*
X2437469Y1668500D02*
X2432469D01*
X2434969Y1666000D02*
Y1671000D01*
X2430219Y1686000D02*
X2425219D01*
X2427719Y1683500D02*
Y1688500D01*
X2454969Y1661250D02*
X2449969D01*
X2452469Y1658750D02*
Y1663750D01*
X2479719Y1686000D02*
X2474719D01*
X2477219Y1683500D02*
Y1688500D01*
X2454969Y1710750D02*
X2449969D01*
X2452469Y1708250D02*
Y1713250D01*
X2526025Y1614000D02*
X2518913D01*
X2522469Y1610444D02*
Y1617556D01*
M02*
