G04 Layer_Color=65535*
%FSLAX44Y44*%
%MOMM*%
G71*
G01*
G75*
%ADD35C,0.1000*%
%ADD36C,0.2500*%
%ADD37C,0.2000*%
%ADD38C,0.2540*%
%ADD39C,0.1500*%
%ADD40C,0.1580*%
D35*
X2367969Y347000D02*
G03*
X2367969Y337000I0J-5000D01*
G01*
X2323469Y384250D02*
Y405750D01*
Y384250D02*
X2285419D01*
Y405750D01*
X2323469D02*
X2285419D01*
X2650219Y313000D02*
Y333000D01*
X2672719Y313000D02*
Y333000D01*
X2647469Y227250D02*
X2627469D01*
X2647469Y204750D02*
X2627469D01*
X2691219Y517000D02*
X2669719D01*
X2691219Y478950D02*
Y517000D01*
Y478950D02*
X2669719D01*
Y517000D01*
X2697469Y446750D02*
X2677469D01*
X2697469Y469250D02*
X2677469D01*
X2613719Y314000D02*
Y334000D01*
X2591219Y314000D02*
Y334000D01*
X2629719Y551000D02*
Y571000D01*
X2607219Y551000D02*
Y571000D01*
X2367969Y329000D02*
Y355000D01*
X2318969D01*
Y329000D02*
Y355000D01*
X2367969Y329000D02*
X2318969D01*
X2323469Y410250D02*
Y431750D01*
Y410250D02*
X2285419D01*
Y431750D01*
X2323469D02*
X2285419D01*
X2539469Y471750D02*
X2519469D01*
X2539469Y494250D02*
X2519469D01*
X2573469Y530750D02*
X2553469D01*
X2573469Y553250D02*
X2553469D01*
X2702469Y343250D02*
X2682469D01*
X2702469Y320750D02*
X2682469D01*
X2574869Y338650D02*
X2554869D01*
X2574869Y316150D02*
X2554869D01*
X2479719Y340725D02*
X2478958Y341106D01*
X2477815Y342248D01*
Y334250D01*
X1667969Y347000D02*
G03*
X1667969Y337000I0J-5000D01*
G01*
X1623469Y384250D02*
Y405750D01*
Y384250D02*
X1585419D01*
Y405750D01*
X1623469D02*
X1585419D01*
X1950219Y313000D02*
Y333000D01*
X1972719Y313000D02*
Y333000D01*
X1947469Y227250D02*
X1927469D01*
X1947469Y204750D02*
X1927469D01*
X1991219Y517000D02*
X1969719D01*
X1991219Y478950D02*
Y517000D01*
Y478950D02*
X1969719D01*
Y517000D01*
X1997469Y446750D02*
X1977469D01*
X1997469Y469250D02*
X1977469D01*
X1913719Y314000D02*
Y334000D01*
X1891219Y314000D02*
Y334000D01*
X1929719Y551000D02*
Y571000D01*
X1907219Y551000D02*
Y571000D01*
X1667969Y329000D02*
Y355000D01*
X1618969D01*
Y329000D02*
Y355000D01*
X1667969Y329000D02*
X1618969D01*
X1623469Y410250D02*
Y431750D01*
Y410250D02*
X1585419D01*
Y431750D01*
X1623469D02*
X1585419D01*
X1839469Y471750D02*
X1819469D01*
X1839469Y494250D02*
X1819469D01*
X1873469Y530750D02*
X1853469D01*
X1873469Y553250D02*
X1853469D01*
X2002469Y343250D02*
X1982469D01*
X2002469Y320750D02*
X1982469D01*
X1874869Y338650D02*
X1854869D01*
X1874869Y316150D02*
X1854869D01*
X1779719Y340725D02*
X1778958Y341106D01*
X1777815Y342248D01*
Y334250D01*
X967969Y347000D02*
G03*
X967969Y337000I0J-5000D01*
G01*
X923469Y384250D02*
Y405750D01*
Y384250D02*
X885419D01*
Y405750D01*
X923469D02*
X885419D01*
X1250219Y313000D02*
Y333000D01*
X1272719Y313000D02*
Y333000D01*
X1247469Y227250D02*
X1227469D01*
X1247469Y204750D02*
X1227469D01*
X1291219Y517000D02*
X1269719D01*
X1291219Y478950D02*
Y517000D01*
Y478950D02*
X1269719D01*
Y517000D01*
X1297469Y446750D02*
X1277469D01*
X1297469Y469250D02*
X1277469D01*
X1213719Y314000D02*
Y334000D01*
X1191219Y314000D02*
Y334000D01*
X1229719Y551000D02*
Y571000D01*
X1207219Y551000D02*
Y571000D01*
X967969Y329000D02*
Y355000D01*
X918969D01*
Y329000D02*
Y355000D01*
X967969Y329000D02*
X918969D01*
X923469Y410250D02*
Y431750D01*
Y410250D02*
X885419D01*
Y431750D01*
X923469D02*
X885419D01*
X1139469Y471750D02*
X1119469D01*
X1139469Y494250D02*
X1119469D01*
X1173469Y530750D02*
X1153469D01*
X1173469Y553250D02*
X1153469D01*
X1302469Y343250D02*
X1282469D01*
X1302469Y320750D02*
X1282469D01*
X1174869Y338650D02*
X1154869D01*
X1174869Y316150D02*
X1154869D01*
X1079719Y340725D02*
X1078958Y341106D01*
X1077815Y342248D01*
Y334250D01*
D36*
X2369719Y314500D02*
G03*
X2369719Y314500I1250J0D01*
G01*
X1669719D02*
G03*
X1669719Y314500I1250J0D01*
G01*
X969719D02*
G03*
X969719Y314500I1250J0D01*
G01*
D37*
X2401219Y360751D02*
Y504250D01*
X2503719Y360751D02*
Y504250D01*
Y360751D02*
X2401219D01*
X2412469Y515500D02*
X2401219Y504250D01*
X2431469Y515500D02*
X2412469D01*
X2492469Y515500D02*
X2473469D01*
X2503719Y504250D02*
X2492469Y515500D01*
X2643969Y287750D02*
X2618969D01*
X2622157Y344250D02*
X2618969Y341417D01*
X2643969Y341306D02*
X2640657Y344250D01*
X2622157D01*
X2618969Y287750D02*
Y306150D01*
X2643969Y287750D02*
Y305000D01*
Y330150D02*
Y341306D01*
X2618969Y330150D02*
Y341417D01*
X2701369Y403650D02*
X2676369D01*
X2701369Y349983D02*
X2698182Y347150D01*
X2679682D02*
X2676369Y350094D01*
X2698182Y347150D02*
X2679682D01*
X2701369Y385250D02*
Y403650D01*
X2676369Y386400D02*
Y403650D01*
Y350094D02*
Y361250D01*
X2701369Y349983D02*
Y361250D01*
X1701219Y360751D02*
Y504250D01*
X1803719Y360751D02*
Y504250D01*
Y360751D02*
X1701219D01*
X1712469Y515500D02*
X1701219Y504250D01*
X1731469Y515500D02*
X1712469D01*
X1792469Y515500D02*
X1773469D01*
X1803719Y504250D02*
X1792469Y515500D01*
X1943969Y287750D02*
X1918969D01*
X1922157Y344250D02*
X1918969Y341417D01*
X1943969Y341306D02*
X1940657Y344250D01*
X1922157D01*
X1918969Y287750D02*
Y306150D01*
X1943969Y287750D02*
Y305000D01*
Y330150D02*
Y341306D01*
X1918969Y330150D02*
Y341417D01*
X2001369Y403650D02*
X1976369D01*
X2001369Y349983D02*
X1998182Y347150D01*
X1979682D02*
X1976369Y350094D01*
X1998182Y347150D02*
X1979682D01*
X2001369Y385250D02*
Y403650D01*
X1976369Y386400D02*
Y403650D01*
Y350094D02*
Y361250D01*
X2001369Y349983D02*
Y361250D01*
X1001219Y360751D02*
Y504250D01*
X1103719Y360751D02*
Y504250D01*
Y360751D02*
X1001219D01*
X1012469Y515500D02*
X1001219Y504250D01*
X1031469Y515500D02*
X1012469D01*
X1092469Y515500D02*
X1073469D01*
X1103719Y504250D02*
X1092469Y515500D01*
X1243969Y287750D02*
X1218969D01*
X1222157Y344250D02*
X1218969Y341417D01*
X1243969Y341306D02*
X1240657Y344250D01*
X1222157D01*
X1218969Y287750D02*
Y306150D01*
X1243969Y287750D02*
Y305000D01*
Y330150D02*
Y341306D01*
X1218969Y330150D02*
Y341417D01*
X1301369Y403650D02*
X1276369D01*
X1301369Y349983D02*
X1298182Y347150D01*
X1279682D02*
X1276369Y350094D01*
X1298182Y347150D02*
X1279682D01*
X1301369Y385250D02*
Y403650D01*
X1276369Y386400D02*
Y403650D01*
Y350094D02*
Y361250D01*
X1301369Y349983D02*
Y361250D01*
D38*
X2325469Y227235D02*
Y212000D01*
X2317852D01*
X2315313Y214539D01*
Y217078D01*
X2317852Y219618D01*
X2325469D01*
X2317852D01*
X2315313Y222157D01*
Y224696D01*
X2317852Y227235D01*
X2325469D01*
X2310234Y212000D02*
Y222157D01*
X2305156Y227235D01*
X2300078Y222157D01*
Y212000D01*
Y219618D01*
X2310234D01*
X2294999Y227235D02*
X2284843D01*
X2289921D01*
Y212000D01*
X2462469Y214000D02*
Y229235D01*
X2454852D01*
X2452313Y226696D01*
Y221618D01*
X2454852Y219078D01*
X2462469D01*
X2439617Y229235D02*
X2444695D01*
X2447234Y226696D01*
Y216539D01*
X2444695Y214000D01*
X2439617D01*
X2437077Y216539D01*
Y226696D01*
X2439617Y229235D01*
X2431999D02*
Y214000D01*
X2426921Y219078D01*
X2421842Y214000D01*
Y229235D01*
X2406607D02*
X2416764D01*
Y214000D01*
X2406607D01*
X2416764Y221618D02*
X2411686D01*
X2401529Y214000D02*
Y229235D01*
X2393911D01*
X2391372Y226696D01*
Y221618D01*
X2393911Y219078D01*
X2401529D01*
X2396451D02*
X2391372Y214000D01*
X2559469Y206000D02*
Y221235D01*
X2551852D01*
X2549313Y218696D01*
Y213617D01*
X2551852Y211078D01*
X2559469D01*
X2554391D02*
X2549313Y206000D01*
X2534077Y221235D02*
X2544234D01*
Y213617D01*
X2539156Y216157D01*
X2536617D01*
X2534077Y213617D01*
Y208539D01*
X2536617Y206000D01*
X2541695D01*
X2544234Y208539D01*
X1625469Y227235D02*
Y212000D01*
X1617852D01*
X1615313Y214539D01*
Y217078D01*
X1617852Y219618D01*
X1625469D01*
X1617852D01*
X1615313Y222157D01*
Y224696D01*
X1617852Y227235D01*
X1625469D01*
X1610234Y212000D02*
Y222157D01*
X1605156Y227235D01*
X1600078Y222157D01*
Y212000D01*
Y219618D01*
X1610234D01*
X1594999Y227235D02*
X1584843D01*
X1589921D01*
Y212000D01*
X1762469Y214000D02*
Y229235D01*
X1754852D01*
X1752313Y226696D01*
Y221618D01*
X1754852Y219078D01*
X1762469D01*
X1739617Y229235D02*
X1744695D01*
X1747234Y226696D01*
Y216539D01*
X1744695Y214000D01*
X1739617D01*
X1737078Y216539D01*
Y226696D01*
X1739617Y229235D01*
X1731999D02*
Y214000D01*
X1726921Y219078D01*
X1721842Y214000D01*
Y229235D01*
X1706607D02*
X1716764D01*
Y214000D01*
X1706607D01*
X1716764Y221618D02*
X1711686D01*
X1701529Y214000D02*
Y229235D01*
X1693911D01*
X1691372Y226696D01*
Y221618D01*
X1693911Y219078D01*
X1701529D01*
X1696451D02*
X1691372Y214000D01*
X1859469Y206000D02*
Y221235D01*
X1851852D01*
X1849313Y218696D01*
Y213617D01*
X1851852Y211078D01*
X1859469D01*
X1854391D02*
X1849313Y206000D01*
X1834077Y221235D02*
X1844234D01*
Y213617D01*
X1839156Y216157D01*
X1836617D01*
X1834077Y213617D01*
Y208539D01*
X1836617Y206000D01*
X1841695D01*
X1844234Y208539D01*
X925469Y227235D02*
Y212000D01*
X917852D01*
X915313Y214539D01*
Y217078D01*
X917852Y219618D01*
X925469D01*
X917852D01*
X915313Y222157D01*
Y224696D01*
X917852Y227235D01*
X925469D01*
X910234Y212000D02*
Y222157D01*
X905156Y227235D01*
X900078Y222157D01*
Y212000D01*
Y219618D01*
X910234D01*
X894999Y227235D02*
X884843D01*
X889921D01*
Y212000D01*
X1062469Y214000D02*
Y229235D01*
X1054852D01*
X1052313Y226696D01*
Y221618D01*
X1054852Y219078D01*
X1062469D01*
X1039617Y229235D02*
X1044695D01*
X1047234Y226696D01*
Y216539D01*
X1044695Y214000D01*
X1039617D01*
X1037078Y216539D01*
Y226696D01*
X1039617Y229235D01*
X1031999D02*
Y214000D01*
X1026921Y219078D01*
X1021842Y214000D01*
Y229235D01*
X1006607D02*
X1016764D01*
Y214000D01*
X1006607D01*
X1016764Y221618D02*
X1011686D01*
X1001529Y214000D02*
Y229235D01*
X993912D01*
X991372Y226696D01*
Y221618D01*
X993912Y219078D01*
X1001529D01*
X996451D02*
X991372Y214000D01*
X1159469Y206000D02*
Y221235D01*
X1151852D01*
X1149313Y218696D01*
Y213617D01*
X1151852Y211078D01*
X1159469D01*
X1154391D02*
X1149313Y206000D01*
X1134078Y221235D02*
X1144234D01*
Y213617D01*
X1139156Y216157D01*
X1136617D01*
X1134078Y213617D01*
Y208539D01*
X1136617Y206000D01*
X1141695D01*
X1144234Y208539D01*
D39*
X2680805Y531331D02*
X2682471Y532997D01*
X2685803D01*
X2687469Y531331D01*
Y524666D01*
X2685803Y523000D01*
X2682471D01*
X2680805Y524666D01*
X2677473Y523000D02*
X2674140D01*
X2675806D01*
Y532997D01*
X2677473Y531331D01*
X2273805Y424331D02*
X2275471Y425997D01*
X2278803D01*
X2280469Y424331D01*
Y417666D01*
X2278803Y416000D01*
X2275471D01*
X2273805Y417666D01*
X2263808Y416000D02*
X2270473D01*
X2263808Y422664D01*
Y424331D01*
X2265474Y425997D01*
X2268806D01*
X2270473Y424331D01*
X2273805Y400331D02*
X2275471Y401997D01*
X2278803D01*
X2280469Y400331D01*
Y393666D01*
X2278803Y392000D01*
X2275471D01*
X2273805Y393666D01*
X2270473Y400331D02*
X2268806Y401997D01*
X2265474D01*
X2263808Y400331D01*
Y398665D01*
X2265474Y396998D01*
X2267140D01*
X2265474D01*
X2263808Y395332D01*
Y393666D01*
X2265474Y392000D01*
X2268806D01*
X2270473Y393666D01*
X2624469Y584000D02*
Y593997D01*
X2619471D01*
X2617805Y592331D01*
Y588998D01*
X2619471Y587332D01*
X2624469D01*
X2621137D02*
X2617805Y584000D01*
X2614472D02*
X2611140D01*
X2612806D01*
Y593997D01*
X2614472Y592331D01*
X2696469Y431000D02*
Y440997D01*
X2691471D01*
X2689805Y439331D01*
Y435998D01*
X2691471Y434332D01*
X2696469D01*
X2693137D02*
X2689805Y431000D01*
X2679808D02*
X2686472D01*
X2679808Y437664D01*
Y439331D01*
X2681474Y440997D01*
X2684807D01*
X2686472Y439331D01*
X2533469Y503000D02*
Y512997D01*
X2528471D01*
X2526805Y511331D01*
Y507998D01*
X2528471Y506332D01*
X2533469D01*
X2530137D02*
X2526805Y503000D01*
X2523473Y511331D02*
X2521806Y512997D01*
X2518474D01*
X2516808Y511331D01*
Y509664D01*
X2518474Y507998D01*
X2520140D01*
X2518474D01*
X2516808Y506332D01*
Y504666D01*
X2518474Y503000D01*
X2521806D01*
X2523473Y504666D01*
X2551469Y558000D02*
Y567997D01*
X2546471D01*
X2544805Y566331D01*
Y562998D01*
X2546471Y561332D01*
X2551469D01*
X2548137D02*
X2544805Y558000D01*
X2536474D02*
Y567997D01*
X2541473Y562998D01*
X2534808D01*
X2607469Y345000D02*
Y354997D01*
X2602471D01*
X2600805Y353331D01*
Y349998D01*
X2602471Y348332D01*
X2607469D01*
X2604137D02*
X2600805Y345000D01*
X2590808Y354997D02*
X2594140Y353331D01*
X2597473Y349998D01*
Y346666D01*
X2595806Y345000D01*
X2592474D01*
X2590808Y346666D01*
Y348332D01*
X2592474Y349998D01*
X2597473D01*
X2666469Y347000D02*
Y356997D01*
X2661471D01*
X2659805Y355331D01*
Y351998D01*
X2661471Y350332D01*
X2666469D01*
X2663137D02*
X2659805Y347000D01*
X2656472Y356997D02*
X2649808D01*
Y355331D01*
X2656472Y348666D01*
Y347000D01*
X2677469Y215000D02*
Y224997D01*
X2672471D01*
X2670805Y223331D01*
Y219998D01*
X2672471Y218332D01*
X2677469D01*
X2674137D02*
X2670805Y215000D01*
X2667473Y223331D02*
X2665806Y224997D01*
X2662474D01*
X2660808Y223331D01*
Y221665D01*
X2662474Y219998D01*
X2660808Y218332D01*
Y216666D01*
X2662474Y215000D01*
X2665806D01*
X2667473Y216666D01*
Y218332D01*
X2665806Y219998D01*
X2667473Y221665D01*
Y223331D01*
X2665806Y219998D02*
X2662474D01*
X2313869Y349397D02*
Y341066D01*
X2312203Y339400D01*
X2308871D01*
X2307205Y341066D01*
Y349397D01*
X2303873Y347731D02*
X2302206Y349397D01*
X2298874D01*
X2297208Y347731D01*
Y346064D01*
X2298874Y344398D01*
X2300540D01*
X2298874D01*
X2297208Y342732D01*
Y341066D01*
X2298874Y339400D01*
X2302206D01*
X2303873Y341066D01*
X2642469Y360997D02*
X2635805D01*
Y359331D01*
X2642469Y352666D01*
Y351000D01*
X2635805D01*
X2632473Y360997D02*
Y351000D01*
X2627474D01*
X2625808Y352666D01*
Y359331D01*
X2627474Y360997D01*
X2632473D01*
X2622476Y351000D02*
X2619143D01*
X2620810D01*
Y360997D01*
X2622476Y359331D01*
X2486469Y534997D02*
Y526666D01*
X2484803Y525000D01*
X2481471D01*
X2479805Y526666D01*
Y534997D01*
X2469808Y525000D02*
X2476473D01*
X2469808Y531665D01*
Y533331D01*
X2471474Y534997D01*
X2474806D01*
X2476473Y533331D01*
X2692205Y315397D02*
X2695537D01*
X2693871D01*
Y307066D01*
X2695537Y305400D01*
X2697203D01*
X2698869Y307066D01*
X2688872Y305400D02*
X2685540D01*
X2687206D01*
Y315397D01*
X2688872Y313731D01*
X2570869Y301400D02*
Y311397D01*
X2565871D01*
X2564205Y309731D01*
Y306398D01*
X2565871Y304732D01*
X2570869D01*
X2567537D02*
X2564205Y301400D01*
X2560872Y303066D02*
X2559206Y301400D01*
X2555874D01*
X2554208Y303066D01*
Y309731D01*
X2555874Y311397D01*
X2559206D01*
X2560872Y309731D01*
Y308064D01*
X2559206Y306398D01*
X2554208D01*
X1980805Y531331D02*
X1982471Y532997D01*
X1985803D01*
X1987469Y531331D01*
Y524666D01*
X1985803Y523000D01*
X1982471D01*
X1980805Y524666D01*
X1977473Y523000D02*
X1974140D01*
X1975806D01*
Y532997D01*
X1977473Y531331D01*
X1573805Y424331D02*
X1575471Y425997D01*
X1578803D01*
X1580469Y424331D01*
Y417666D01*
X1578803Y416000D01*
X1575471D01*
X1573805Y417666D01*
X1563808Y416000D02*
X1570473D01*
X1563808Y422664D01*
Y424331D01*
X1565474Y425997D01*
X1568806D01*
X1570473Y424331D01*
X1573805Y400331D02*
X1575471Y401997D01*
X1578803D01*
X1580469Y400331D01*
Y393666D01*
X1578803Y392000D01*
X1575471D01*
X1573805Y393666D01*
X1570473Y400331D02*
X1568806Y401997D01*
X1565474D01*
X1563808Y400331D01*
Y398665D01*
X1565474Y396998D01*
X1567140D01*
X1565474D01*
X1563808Y395332D01*
Y393666D01*
X1565474Y392000D01*
X1568806D01*
X1570473Y393666D01*
X1924469Y584000D02*
Y593997D01*
X1919471D01*
X1917805Y592331D01*
Y588998D01*
X1919471Y587332D01*
X1924469D01*
X1921137D02*
X1917805Y584000D01*
X1914473D02*
X1911140D01*
X1912806D01*
Y593997D01*
X1914473Y592331D01*
X1996469Y431000D02*
Y440997D01*
X1991471D01*
X1989805Y439331D01*
Y435998D01*
X1991471Y434332D01*
X1996469D01*
X1993137D02*
X1989805Y431000D01*
X1979808D02*
X1986473D01*
X1979808Y437664D01*
Y439331D01*
X1981474Y440997D01*
X1984806D01*
X1986473Y439331D01*
X1833469Y503000D02*
Y512997D01*
X1828471D01*
X1826805Y511331D01*
Y507998D01*
X1828471Y506332D01*
X1833469D01*
X1830137D02*
X1826805Y503000D01*
X1823473Y511331D02*
X1821806Y512997D01*
X1818474D01*
X1816808Y511331D01*
Y509664D01*
X1818474Y507998D01*
X1820140D01*
X1818474D01*
X1816808Y506332D01*
Y504666D01*
X1818474Y503000D01*
X1821806D01*
X1823473Y504666D01*
X1851469Y558000D02*
Y567997D01*
X1846471D01*
X1844805Y566331D01*
Y562998D01*
X1846471Y561332D01*
X1851469D01*
X1848137D02*
X1844805Y558000D01*
X1836474D02*
Y567997D01*
X1841473Y562998D01*
X1834808D01*
X1907469Y345000D02*
Y354997D01*
X1902471D01*
X1900805Y353331D01*
Y349998D01*
X1902471Y348332D01*
X1907469D01*
X1904137D02*
X1900805Y345000D01*
X1890808Y354997D02*
X1894140Y353331D01*
X1897473Y349998D01*
Y346666D01*
X1895806Y345000D01*
X1892474D01*
X1890808Y346666D01*
Y348332D01*
X1892474Y349998D01*
X1897473D01*
X1966469Y347000D02*
Y356997D01*
X1961471D01*
X1959805Y355331D01*
Y351998D01*
X1961471Y350332D01*
X1966469D01*
X1963137D02*
X1959805Y347000D01*
X1956473Y356997D02*
X1949808D01*
Y355331D01*
X1956473Y348666D01*
Y347000D01*
X1977469Y215000D02*
Y224997D01*
X1972471D01*
X1970805Y223331D01*
Y219998D01*
X1972471Y218332D01*
X1977469D01*
X1974137D02*
X1970805Y215000D01*
X1967473Y223331D02*
X1965806Y224997D01*
X1962474D01*
X1960808Y223331D01*
Y221665D01*
X1962474Y219998D01*
X1960808Y218332D01*
Y216666D01*
X1962474Y215000D01*
X1965806D01*
X1967473Y216666D01*
Y218332D01*
X1965806Y219998D01*
X1967473Y221665D01*
Y223331D01*
X1965806Y219998D02*
X1962474D01*
X1613869Y349397D02*
Y341066D01*
X1612203Y339400D01*
X1608871D01*
X1607205Y341066D01*
Y349397D01*
X1603873Y347731D02*
X1602206Y349397D01*
X1598874D01*
X1597208Y347731D01*
Y346064D01*
X1598874Y344398D01*
X1600540D01*
X1598874D01*
X1597208Y342732D01*
Y341066D01*
X1598874Y339400D01*
X1602206D01*
X1603873Y341066D01*
X1942469Y360997D02*
X1935805D01*
Y359331D01*
X1942469Y352666D01*
Y351000D01*
X1935805D01*
X1932473Y360997D02*
Y351000D01*
X1927474D01*
X1925808Y352666D01*
Y359331D01*
X1927474Y360997D01*
X1932473D01*
X1922476Y351000D02*
X1919144D01*
X1920810D01*
Y360997D01*
X1922476Y359331D01*
X1786469Y534997D02*
Y526666D01*
X1784803Y525000D01*
X1781471D01*
X1779805Y526666D01*
Y534997D01*
X1769808Y525000D02*
X1776473D01*
X1769808Y531665D01*
Y533331D01*
X1771474Y534997D01*
X1774806D01*
X1776473Y533331D01*
X1992205Y315397D02*
X1995537D01*
X1993871D01*
Y307066D01*
X1995537Y305400D01*
X1997203D01*
X1998869Y307066D01*
X1988873Y305400D02*
X1985540D01*
X1987206D01*
Y315397D01*
X1988873Y313731D01*
X1870869Y301400D02*
Y311397D01*
X1865871D01*
X1864205Y309731D01*
Y306398D01*
X1865871Y304732D01*
X1870869D01*
X1867537D02*
X1864205Y301400D01*
X1860873Y303066D02*
X1859206Y301400D01*
X1855874D01*
X1854208Y303066D01*
Y309731D01*
X1855874Y311397D01*
X1859206D01*
X1860873Y309731D01*
Y308064D01*
X1859206Y306398D01*
X1854208D01*
X1280805Y531331D02*
X1282471Y532997D01*
X1285803D01*
X1287469Y531331D01*
Y524666D01*
X1285803Y523000D01*
X1282471D01*
X1280805Y524666D01*
X1277473Y523000D02*
X1274140D01*
X1275806D01*
Y532997D01*
X1277473Y531331D01*
X873805Y424331D02*
X875471Y425997D01*
X878803D01*
X880469Y424331D01*
Y417666D01*
X878803Y416000D01*
X875471D01*
X873805Y417666D01*
X863808Y416000D02*
X870473D01*
X863808Y422664D01*
Y424331D01*
X865474Y425997D01*
X868806D01*
X870473Y424331D01*
X873805Y400331D02*
X875471Y401997D01*
X878803D01*
X880469Y400331D01*
Y393666D01*
X878803Y392000D01*
X875471D01*
X873805Y393666D01*
X870473Y400331D02*
X868806Y401997D01*
X865474D01*
X863808Y400331D01*
Y398665D01*
X865474Y396998D01*
X867140D01*
X865474D01*
X863808Y395332D01*
Y393666D01*
X865474Y392000D01*
X868806D01*
X870473Y393666D01*
X1224469Y584000D02*
Y593997D01*
X1219471D01*
X1217805Y592331D01*
Y588998D01*
X1219471Y587332D01*
X1224469D01*
X1221137D02*
X1217805Y584000D01*
X1214473D02*
X1211140D01*
X1212806D01*
Y593997D01*
X1214473Y592331D01*
X1296469Y431000D02*
Y440997D01*
X1291471D01*
X1289805Y439331D01*
Y435998D01*
X1291471Y434332D01*
X1296469D01*
X1293137D02*
X1289805Y431000D01*
X1279808D02*
X1286473D01*
X1279808Y437664D01*
Y439331D01*
X1281474Y440997D01*
X1284806D01*
X1286473Y439331D01*
X1133469Y503000D02*
Y512997D01*
X1128471D01*
X1126805Y511331D01*
Y507998D01*
X1128471Y506332D01*
X1133469D01*
X1130137D02*
X1126805Y503000D01*
X1123473Y511331D02*
X1121806Y512997D01*
X1118474D01*
X1116808Y511331D01*
Y509664D01*
X1118474Y507998D01*
X1120140D01*
X1118474D01*
X1116808Y506332D01*
Y504666D01*
X1118474Y503000D01*
X1121806D01*
X1123473Y504666D01*
X1151469Y558000D02*
Y567997D01*
X1146471D01*
X1144805Y566331D01*
Y562998D01*
X1146471Y561332D01*
X1151469D01*
X1148137D02*
X1144805Y558000D01*
X1136474D02*
Y567997D01*
X1141473Y562998D01*
X1134808D01*
X1207469Y345000D02*
Y354997D01*
X1202471D01*
X1200805Y353331D01*
Y349998D01*
X1202471Y348332D01*
X1207469D01*
X1204137D02*
X1200805Y345000D01*
X1190808Y354997D02*
X1194140Y353331D01*
X1197473Y349998D01*
Y346666D01*
X1195806Y345000D01*
X1192474D01*
X1190808Y346666D01*
Y348332D01*
X1192474Y349998D01*
X1197473D01*
X1266469Y347000D02*
Y356997D01*
X1261471D01*
X1259805Y355331D01*
Y351998D01*
X1261471Y350332D01*
X1266469D01*
X1263137D02*
X1259805Y347000D01*
X1256473Y356997D02*
X1249808D01*
Y355331D01*
X1256473Y348666D01*
Y347000D01*
X1277469Y215000D02*
Y224997D01*
X1272471D01*
X1270805Y223331D01*
Y219998D01*
X1272471Y218332D01*
X1277469D01*
X1274137D02*
X1270805Y215000D01*
X1267473Y223331D02*
X1265806Y224997D01*
X1262474D01*
X1260808Y223331D01*
Y221665D01*
X1262474Y219998D01*
X1260808Y218332D01*
Y216666D01*
X1262474Y215000D01*
X1265806D01*
X1267473Y216666D01*
Y218332D01*
X1265806Y219998D01*
X1267473Y221665D01*
Y223331D01*
X1265806Y219998D02*
X1262474D01*
X913869Y349397D02*
Y341066D01*
X912203Y339400D01*
X908871D01*
X907205Y341066D01*
Y349397D01*
X903873Y347731D02*
X902206Y349397D01*
X898874D01*
X897208Y347731D01*
Y346064D01*
X898874Y344398D01*
X900540D01*
X898874D01*
X897208Y342732D01*
Y341066D01*
X898874Y339400D01*
X902206D01*
X903873Y341066D01*
X1242469Y360997D02*
X1235805D01*
Y359331D01*
X1242469Y352666D01*
Y351000D01*
X1235805D01*
X1232473Y360997D02*
Y351000D01*
X1227474D01*
X1225808Y352666D01*
Y359331D01*
X1227474Y360997D01*
X1232473D01*
X1222476Y351000D02*
X1219144D01*
X1220810D01*
Y360997D01*
X1222476Y359331D01*
X1086469Y534997D02*
Y526666D01*
X1084803Y525000D01*
X1081471D01*
X1079805Y526666D01*
Y534997D01*
X1069808Y525000D02*
X1076473D01*
X1069808Y531665D01*
Y533331D01*
X1071474Y534997D01*
X1074806D01*
X1076473Y533331D01*
X1292205Y315397D02*
X1295537D01*
X1293871D01*
Y307066D01*
X1295537Y305400D01*
X1297203D01*
X1298869Y307066D01*
X1288873Y305400D02*
X1285540D01*
X1287206D01*
Y315397D01*
X1288873Y313731D01*
X1170869Y301400D02*
Y311397D01*
X1165871D01*
X1164205Y309731D01*
Y306398D01*
X1165871Y304732D01*
X1170869D01*
X1167537D02*
X1164205Y301400D01*
X1160873Y303066D02*
X1159206Y301400D01*
X1155874D01*
X1154208Y303066D01*
Y309731D01*
X1155874Y311397D01*
X1159206D01*
X1160873Y309731D01*
Y308064D01*
X1159206Y306398D01*
X1154208D01*
D40*
X2701869Y419397D02*
X2695205D01*
Y417731D01*
X2701869Y411066D01*
Y409400D01*
X2695205D01*
X2691873Y419397D02*
Y409400D01*
X2686874D01*
X2685208Y411066D01*
Y417731D01*
X2686874Y419397D01*
X2691873D01*
X2675211Y409400D02*
X2681876D01*
X2675211Y416064D01*
Y417731D01*
X2676877Y419397D01*
X2680210D01*
X2681876Y417731D01*
X2001869Y419397D02*
X1995205D01*
Y417731D01*
X2001869Y411066D01*
Y409400D01*
X1995205D01*
X1991873Y419397D02*
Y409400D01*
X1986874D01*
X1985208Y411066D01*
Y417731D01*
X1986874Y419397D01*
X1991873D01*
X1975211Y409400D02*
X1981876D01*
X1975211Y416064D01*
Y417731D01*
X1976877Y419397D01*
X1980210D01*
X1981876Y417731D01*
X1301869Y419397D02*
X1295205D01*
Y417731D01*
X1301869Y411066D01*
Y409400D01*
X1295205D01*
X1291873Y419397D02*
Y409400D01*
X1286874D01*
X1285208Y411066D01*
Y417731D01*
X1286874Y419397D01*
X1291873D01*
X1275211Y409400D02*
X1281876D01*
X1275211Y416064D01*
Y417731D01*
X1276877Y419397D01*
X1280210D01*
X1281876Y417731D01*
M02*
